<svg width="8" height="8" viewBox="0 0 8 8" fill="none" xmlns="http://www.w3.org/2000/svg">
<path fill-rule="evenodd" clip-rule="evenodd" d="M0 0.140625V0.25H0.6875H1.375V0.140625V0.03125H0.6875H0V0.140625ZM2.04688 0.140625V0.25H2.76562H3.48438V0.140625V0.03125H2.76562H2.04688V0.140625ZM4 0.140625V0.25H4.6875H5.375V0.140625V0.03125H4.6875H4V0.140625ZM6.04688 0.140625V0.25H6.76562H7.48438V0.140625V0.03125H6.76562H6.04688V0.140625ZM0.4375 1.14062V1.25H1.15625H1.875V1.14062V1.03125H1.15625H0.4375V1.14062ZM2.54688 1.14062V1.25H3.26562H3.98438V1.14062V1.03125H3.26562H2.54688V1.14062ZM4.4375 1.14062V1.25H5.15625H5.875V1.14062V1.03125H5.15625H4.4375V1.14062ZM6.54688 1.14062V1.25H7.26562H7.98438V1.14062V1.03125H7.26562H6.54688V1.14062ZM0 2.125V2.23438H0.6875H1.375V2.125V2.01562H0.6875H0V2.125ZM2.04688 2.125V2.23438H2.76562H3.48438V2.125V2.01562H2.76562H2.04688V2.125ZM4 2.125V2.23438H4.6875H5.375V2.125V2.01562H4.6875H4V2.125ZM6.04688 2.125V2.23438H6.76562H7.48438V2.125V2.01562H6.76562H6.04688V2.125ZM0.4375 3.125V3.23438H1.15625H1.875V3.125V3.01562H1.15625H0.4375V3.125ZM2.54688 3.125V3.23438H3.26562H3.98438V3.125V3.01562H3.26562H2.54688V3.125ZM4.4375 3.125V3.23438H5.15625H5.875V3.125V3.01562H5.15625H4.4375V3.125ZM6.54688 3.125V3.23438H7.26562H7.98438V3.125V3.01562H7.26562H6.54688V3.125ZM0 4.14062V4.25H0.6875H1.375V4.14062V4.03125H0.6875H0V4.14062ZM2.04688 4.14062V4.25H2.76562H3.48438V4.14062V4.03125H2.76562H2.04688V4.14062ZM4 4.14062V4.25H4.6875H5.375V4.14062V4.03125H4.6875H4V4.14062ZM6.04688 4.14062V4.25H6.76562H7.48438V4.14062V4.03125H6.76562H6.04688V4.14062ZM0.4375 5.14062V5.25H1.15625H1.875V5.14062V5.03125H1.15625H0.4375V5.14062ZM2.54688 5.14062V5.25H3.26562H3.98438V5.14062V5.03125H3.26562H2.54688V5.14062ZM4.4375 5.14062V5.25H5.15625H5.875V5.14062V5.03125H5.15625H4.4375V5.14062ZM6.54688 5.14062V5.25H7.26562H7.98438V5.14062V5.03125H7.26562H6.54688V5.14062ZM0 6.125V6.23438H0.6875H1.375V6.125V6.01562H0.6875H0V6.125ZM2.04688 6.125V6.23438H2.76562H3.48438V6.125V6.01562H2.76562H2.04688V6.125ZM4 6.125V6.23438H4.6875H5.375V6.125V6.01562H4.6875H4V6.125ZM6.04688 6.125V6.23438H6.76562H7.48438V6.125V6.01562H6.76562H6.04688V6.125ZM0.4375 7.125V7.23438H1.15625H1.875V7.125V7.01562H1.15625H0.4375V7.125ZM2.54688 7.125V7.23438H3.26562H3.98438V7.125V7.01562H3.26562H2.54688V7.125ZM4.4375 7.125V7.23438H5.15625H5.875V7.125V7.01562H5.15625H4.4375V7.125ZM6.54688 7.125V7.23438H7.26562H7.98438V7.125V7.01562H7.26562H6.54688V7.125Z" fill="black" style="fill:black;fill-opacity:1;"/>
</svg>
