<svg width="8" height="8" viewBox="0 0 8 8" fill="none" xmlns="http://www.w3.org/2000/svg">
<g clip-path="url(#clip0_2034_6787)">
<path d="M2.03894 5.99231V6.74915L2.03265 6.76575L1.55182 8.0293H1.34558L1.84625 6.71368V6.11993L0.914856 5.72504L0.0214844 6.07104V5.8645L0.918213 5.51715L2.03894 5.99231Z" fill="black" style="fill:black;fill-opacity:1;"/>
<path d="M3.93585 6.50226L3.94977 6.50409L3.97992 6.51025C4.1306 6.54298 4.70799 6.68369 5.20203 6.80505L5.7345 6.93628L5.94379 7.55048L5.37164 8.0293H5.07135L5.71875 7.48749L5.58606 7.09808C5.03372 6.96168 4.0116 6.71092 3.91748 6.69403C3.91874 6.69425 3.91456 6.6937 3.90137 6.69415C3.88831 6.6946 3.87086 6.69583 3.84906 6.69788C3.80555 6.70197 3.7486 6.70903 3.68225 6.71826C3.54974 6.7367 3.3835 6.76331 3.22028 6.79071C3.0572 6.81808 2.89776 6.84611 2.77905 6.86731C2.71972 6.87791 2.67058 6.88683 2.63629 6.89307C2.63607 6.89311 2.63584 6.89309 2.63562 6.89313L2.39581 7.5163L2.62335 8.0293H2.41254L2.18738 7.52161L2.20166 7.48438L2.49469 6.72314L2.54773 6.71332H2.54797C2.54813 6.71329 2.54835 6.71325 2.54865 6.7132C2.54925 6.71308 2.5502 6.71293 2.55139 6.71271C2.55377 6.71227 2.5573 6.7116 2.56189 6.71075C2.57109 6.70907 2.5846 6.70662 2.60181 6.70349C2.63626 6.69723 2.68562 6.68825 2.74518 6.67761C2.86427 6.65634 3.0244 6.62823 3.18835 6.60071C3.35216 6.57322 3.5205 6.54622 3.6557 6.5274C3.72319 6.51802 3.7834 6.51053 3.83105 6.50604C3.85482 6.50381 3.87646 6.50221 3.89484 6.50159C3.90711 6.50117 3.9217 6.50099 3.93585 6.50226Z" fill="black" style="fill:black;fill-opacity:1;"/>
<path d="M8.02148 6.08405L7.59302 6.27777L7.58185 6.28278L7.56976 6.28491L6.51569 6.46741L6.58368 8.0293H6.39087L6.31586 6.30646L7.52484 6.09711L8.02148 5.87262V6.08405Z" fill="black" style="fill:black;fill-opacity:1;"/>
<path fill-rule="evenodd" clip-rule="evenodd" d="M4.09814 0.965637L4.82812 2.3584L4.25751 4.19147L4.25287 4.20624L4.77155 3.56702L6.59125 3.69061L7.81482 4.36542L7.78333 4.4444C7.72727 4.58507 7.64125 4.80427 7.56531 5.00439C7.48801 5.20809 7.42473 5.3829 7.41064 5.44086C7.40229 5.47522 7.38042 5.50005 7.36658 5.51398C7.35051 5.53013 7.33101 5.54539 7.31073 5.55951C7.26992 5.58792 7.21579 5.61875 7.15411 5.65076C7.03013 5.71509 6.86469 5.78967 6.68817 5.86548C6.32907 6.01971 5.93327 6.17574 5.7016 6.27808L5.6778 6.28857L5.65192 6.28571L4.01099 6.10181L3.50818 5.12421L4.23004 4.23431C4.0188 4.42577 3.69453 4.71814 3.40808 4.97314C3.26486 5.10064 3.13085 5.21898 3.02509 5.31079C2.92159 5.40063 2.84005 5.46961 2.80511 5.49408C2.76676 5.52094 2.71585 5.53235 2.6723 5.53857C2.62492 5.54534 2.56912 5.54803 2.50946 5.54803C2.38981 5.54803 2.24501 5.5372 2.10132 5.52136C1.81718 5.49005 1.51917 5.43704 1.41522 5.4021C1.38587 5.39223 1.36146 5.37406 1.34302 5.35767C1.32352 5.34033 1.30442 5.3193 1.28607 5.29663C1.24936 5.25126 1.21011 5.1925 1.17035 5.12677C1.09057 4.99487 1.00322 4.82573 0.922607 4.65717C0.84184 4.48827 0.766919 4.31792 0.711975 4.18274C0.684544 4.11525 0.661727 4.05566 0.64563 4.00897C0.637616 3.98573 0.630874 3.96461 0.626038 3.94678C0.622089 3.93221 0.616516 3.9099 0.616516 3.8891V2.47241L2.362 0.678223L4.09814 0.965637ZM3.73706 5.14789L4.13501 5.92181L5.64789 6.09131C5.87981 5.99008 6.27865 5.83164 6.61212 5.68842C6.78784 5.61295 6.94793 5.54067 7.06537 5.47974C7.12438 5.44911 7.16994 5.42272 7.20062 5.40137C7.21387 5.39214 7.22239 5.38497 7.22754 5.38019C7.25 5.29874 7.31482 5.12125 7.38513 4.93597C7.44848 4.76906 7.51874 4.58924 7.573 4.45209L6.53552 3.87994L4.85809 3.76605L3.73706 5.14789ZM0.809204 2.55066V3.88458C0.809501 3.88602 0.810216 3.88974 0.812012 3.89636C0.815274 3.90839 0.820523 3.925 0.82782 3.94617C0.842352 3.98831 0.863705 4.04439 0.890442 4.11017C0.943844 4.24155 1.01728 4.40839 1.0965 4.57404C1.17587 4.74001 1.26013 4.90282 1.33527 5.02704C1.37296 5.08937 1.40701 5.13977 1.43585 5.17542C1.45027 5.19323 1.46204 5.20565 1.47101 5.21362C1.47543 5.21755 1.47827 5.21951 1.47949 5.22034C1.56523 5.24822 1.84162 5.29888 2.12244 5.32983C2.26279 5.3453 2.39978 5.35535 2.50946 5.35535C2.56443 5.35535 2.61019 5.35281 2.64502 5.34784C2.68369 5.34232 2.69569 5.33547 2.69458 5.33624C2.71925 5.31897 2.79166 5.25829 2.8988 5.16528C3.00367 5.07425 3.13697 4.95652 3.27997 4.82922C3.55728 4.58235 3.87022 4.30016 4.0813 4.10895L4.62042 2.3772L3.97198 1.14001L2.42987 0.884705L0.809204 2.55066Z" fill="black" style="fill:black;fill-opacity:1;"/>
<path fill-rule="evenodd" clip-rule="evenodd" d="M6.84845 1.92542L6.85992 1.93121L7.89557 2.45215V3.04077L7.87317 3.06757C7.72389 3.24633 7.41677 3.61468 7.37463 3.66724C7.35475 3.69204 7.32896 3.70056 7.32056 3.70319C7.30868 3.7069 7.29707 3.70875 7.28809 3.70978C7.26972 3.71188 7.24826 3.71218 7.22632 3.71173C7.18164 3.71082 7.1221 3.70628 7.0531 3.69928C6.91441 3.6852 6.72921 3.66036 6.52991 3.63049C6.13125 3.57076 5.6706 3.49024 5.40198 3.43408L5.36096 3.42554L4.80206 2.50104L5.54114 1.65778L6.84845 1.92542ZM5.03986 2.52203L5.48224 3.25372C5.75065 3.30838 6.18183 3.38351 6.55847 3.43994C6.75667 3.46964 6.93838 3.49401 7.07257 3.50763C7.13999 3.51447 7.1934 3.51836 7.23022 3.5191C7.23665 3.51923 7.24224 3.51915 7.24701 3.5191C7.3278 3.4208 7.56546 3.1355 7.70288 2.97089V2.57086L6.78467 2.10901L5.61224 1.86902L5.03986 2.52203Z" fill="black" style="fill:black;fill-opacity:1;"/>
<path fill-rule="evenodd" clip-rule="evenodd" d="M6.57092 1.026L4.79688 1.89716L4.76007 1.79651C4.76005 1.79646 4.76005 1.7963 4.76001 1.7962C4.75994 1.796 4.75979 1.79569 4.75964 1.79529C4.75934 1.79447 4.7589 1.79324 4.7583 1.79163C4.7571 1.78835 4.75526 1.78348 4.75293 1.77722C4.74828 1.7647 4.74155 1.74656 4.73309 1.72424C4.71616 1.67955 4.6925 1.61817 4.66571 1.55139C4.61121 1.41554 4.54661 1.26484 4.49915 1.18341L4.44763 1.09515L5.26941 0.678955L6.57092 1.026ZM4.71301 1.1767C4.75753 1.26806 4.80525 1.38165 4.84454 1.47961C4.86704 1.5357 4.88724 1.58802 4.90332 1.63013L6.02441 1.07965L5.29083 0.884033L4.71301 1.1767Z" fill="black" style="fill:black;fill-opacity:1;"/>
<path d="M1.10559 1.19916L0.0415649 1.65027L0.0214844 1.65875V1.44946L0.954346 1.05402L1.34009 0.0292969H1.54596L1.10559 1.19916Z" fill="black" style="fill:black;fill-opacity:1;"/>
<path d="M6.73499 0.189697C6.84796 0.519553 6.97333 0.879202 7.03998 1.05212L8.02148 1.43225V1.63898L6.89172 1.20135L6.8761 1.16254C6.81255 1.00428 6.67421 0.606808 6.55273 0.252136C6.52635 0.175099 6.50075 0.0998688 6.47675 0.0292969H6.6803C6.69796 0.0811613 6.71625 0.134985 6.73499 0.189697Z" fill="black" style="fill:black;fill-opacity:1;"/>
<path d="M4.61224 0.701294L2.63965 0.370972L2.40302 0.0292969H2.63739L2.75171 0.194336L4.55243 0.495911L5.07159 0.0292969H5.35992L4.61224 0.701294Z" fill="black" style="fill:black;fill-opacity:1;"/>
</g>
<defs>
<clipPath id="clip0_2034_6787">
<rect width="8" height="8" fill="white" style="fill:white;fill-opacity:1;"/>
</clipPath>
</defs>
</svg>
