<svg width="8" height="8" viewBox="0 0 8 8" fill="none" xmlns="http://www.w3.org/2000/svg">
<path d="M2.50421 5.77264C2.53501 5.73808 2.58799 5.73501 2.62256 5.76581C2.65709 5.7966 2.66015 5.84953 2.62939 5.88409L2.00012 6.59045L1.37091 5.88409C1.34014 5.84953 1.3432 5.7966 1.37775 5.76581C1.41231 5.73501 1.4653 5.73808 1.49609 5.77264L2.00012 6.33539L2.50421 5.77264Z" fill="black" style="fill:black;fill-opacity:1;"/>
<path d="M6.50385 5.77264C6.53464 5.73808 6.58769 5.73501 6.62225 5.76581C6.65678 5.7966 6.65984 5.84954 6.62909 5.88409L5.99982 6.59045L5.37061 5.88409C5.33983 5.84953 5.34289 5.7966 5.37744 5.76581C5.41201 5.73502 5.465 5.73808 5.49579 5.77264L5.99982 6.33539L6.50385 5.77264Z" fill="black" style="fill:black;fill-opacity:1;"/>
<path d="M2.00018 5.50031C2.04687 5.50031 2.08438 5.53898 2.08264 5.58563C2.08264 5.95853 2.05672 6.03977 2.00018 6.20801C1.94936 6.07414 1.92399 5.9263 1.9176 5.58429C1.91674 5.53816 1.95405 5.50031 2.00018 5.50031Z" fill="black" style="fill:black;fill-opacity:1;"/>
<path d="M5.99988 5.50031C6.04655 5.50031 6.08407 5.53899 6.08234 5.58563C6.08234 5.95853 6.05641 6.03978 5.99988 6.20801C5.94905 6.07414 5.92368 5.92631 5.9173 5.58429C5.91644 5.53816 5.95374 5.50031 5.99988 5.50031Z" fill="black" style="fill:black;fill-opacity:1;"/>
<path d="M0.504333 1.6825C0.535128 1.64793 0.588176 1.64486 0.622742 1.67566C0.657277 1.70645 0.660289 1.75945 0.629517 1.79401L0.000305176 2.50031L0 2.49994V2.24487L0.000305176 2.24524L0.504333 1.6825Z" fill="black" style="fill:black;fill-opacity:1;"/>
<path d="M4.50403 1.6825C4.53482 1.64793 4.58781 1.64487 4.62238 1.67566C4.65693 1.70645 4.65999 1.75944 4.62921 1.79401L4 2.50031L3.37073 1.79401C3.33995 1.75945 3.34302 1.70645 3.37756 1.67566C3.41213 1.64486 3.46518 1.64793 3.49597 1.6825L4 2.24524L4.50403 1.6825Z" fill="black" style="fill:black;fill-opacity:1;"/>
<path d="M7.37726 1.67566C7.41182 1.64487 7.46481 1.64793 7.49561 1.6825L7.99969 2.24524L8 2.24487V2.49994L7.99969 2.50031L7.37042 1.79401C7.33964 1.75944 7.34271 1.70645 7.37726 1.67566Z" fill="black" style="fill:black;fill-opacity:1;"/>
<path d="M0.000366211 1.41016C0.0470345 1.41017 0.0845528 1.44885 0.0828247 1.49548C0.0828247 1.8684 0.0569091 1.94967 0.000366211 2.11792C0.000239321 2.11759 0.000126572 2.11722 0 2.11688V1.41016H0.000366211Z" fill="black" style="fill:black;fill-opacity:1;"/>
<path d="M4 1.41016C4.04668 1.41016 4.08419 1.44884 4.08246 1.49548C4.08246 1.8684 4.05654 1.94967 4 2.11792C3.94917 1.98405 3.92387 1.83618 3.91748 1.49414C3.91662 1.44802 3.95387 1.41017 4 1.41016Z" fill="black" style="fill:black;fill-opacity:1;"/>
<path d="M8 1.41016V2.11694C7.99989 2.11726 7.9998 2.1176 7.99969 2.11792C7.94886 1.98405 7.92356 1.83618 7.91718 1.49414C7.91631 1.44801 7.95356 1.41016 7.99969 1.41016H8Z" fill="black" style="fill:black;fill-opacity:1;"/>
</svg>
