<svg width="8" height="8" viewBox="0 0 8 8" fill="none" xmlns="http://www.w3.org/2000/svg">
<g clip-path="url(#clip0_2139_1757)">
<path d="M6.7942 8H6.43489L6.54274 7.95587L5.71071 6.66418L5.07716 8H4.8697L5.68581 6.27924L6.7942 8Z" fill="black" style="fill:black;fill-opacity:1;"/>
<path d="M2.14223 7.10028C2.1782 7.06305 2.23756 7.06207 2.27479 7.09802C2.31203 7.134 2.31309 7.19336 2.27711 7.23059L2.1291 7.38373L2.2823 7.53174C2.31954 7.56771 2.32053 7.62707 2.28456 7.66431C2.24858 7.70153 2.18922 7.70259 2.15199 7.66663L1.99879 7.51855L1.85078 7.67181C1.8148 7.70902 1.75544 7.71004 1.71821 7.67407C1.681 7.6381 1.68 7.57873 1.71596 7.5415L1.86391 7.38831L1.71077 7.2403C1.67357 7.20432 1.67256 7.14495 1.70851 7.10773C1.74448 7.0705 1.80384 7.06951 1.84108 7.10547L1.99422 7.25342L2.14223 7.10028Z" fill="black" style="fill:black;fill-opacity:1;"/>
<path d="M7.4626 6.88715C7.49857 6.84992 7.55793 6.84887 7.59517 6.88483C7.6324 6.9208 7.6334 6.98016 7.59743 7.0174L7.44942 7.17053L7.60261 7.3186C7.63985 7.35458 7.64091 7.41394 7.60493 7.45117C7.56896 7.48839 7.5096 7.4894 7.47237 7.45343L7.31911 7.30542L7.17116 7.45862C7.13518 7.49584 7.07582 7.49685 7.03859 7.46088C7.00138 7.42491 7.00034 7.3656 7.03627 7.32837L7.18428 7.17511L7.03114 7.02716C6.99393 6.99119 6.99293 6.93182 7.02888 6.89459C7.06485 6.85737 7.12415 6.85634 7.16139 6.89227L7.31459 7.04028L7.4626 6.88715Z" fill="black" style="fill:black;fill-opacity:1;"/>
<path d="M4.44368 6.21918C4.47965 6.18196 4.53901 6.18096 4.57625 6.21692C4.61347 6.2529 4.61448 6.31225 4.57851 6.34949L4.4305 6.50262L4.58369 6.65063C4.62092 6.68661 4.62197 6.74597 4.58601 6.7832C4.55004 6.82042 4.49068 6.82148 4.45344 6.78552L4.30025 6.63745L4.15224 6.79071C4.11626 6.82793 4.0569 6.82893 4.01967 6.79297C3.98245 6.757 3.9814 6.69763 4.01735 6.6604L4.16536 6.50714L4.01222 6.35919C3.97501 6.32322 3.97401 6.26385 4.00996 6.22662C4.04593 6.18942 4.10524 6.18842 4.14247 6.22437L4.29561 6.37231L4.44368 6.21918Z" fill="black" style="fill:black;fill-opacity:1;"/>
<path d="M1.10664 5.9986C1.14261 5.96137 1.20197 5.96033 1.23921 5.99628C1.27644 6.03225 1.27749 6.09161 1.24153 6.12885L1.09346 6.28198L1.24672 6.43005C1.28394 6.46603 1.28495 6.52539 1.24898 6.56262C1.213 6.59983 1.15363 6.60085 1.11641 6.56488L0.96321 6.41681L0.8152 6.57007C0.779221 6.60728 0.71986 6.6083 0.682632 6.57233C0.645428 6.53635 0.644419 6.47699 0.680373 6.43976L0.828322 6.28656L0.675185 6.13855C0.637999 6.10258 0.636993 6.04327 0.672927 6.00604C0.708898 5.96881 0.768258 5.96776 0.805495 6.00372L0.958633 6.15167L1.10664 5.9986Z" fill="black" style="fill:black;fill-opacity:1;"/>
<path d="M6.72285 5.18469C6.75883 5.14747 6.81819 5.14647 6.85542 5.18243C6.89264 5.21841 6.89365 5.27777 6.85768 5.315L6.70967 5.46814L6.86287 5.61615C6.9001 5.65212 6.90115 5.71148 6.86519 5.74872C6.82921 5.78594 6.76985 5.78695 6.73262 5.75098L6.57942 5.60297L6.43141 5.75616C6.39544 5.79338 6.33607 5.79444 6.29884 5.75848C6.26163 5.72251 6.26058 5.66315 6.29652 5.62592L6.44453 5.47266L6.2914 5.32471C6.25418 5.28873 6.25318 5.22937 6.28914 5.19214C6.32511 5.15493 6.38441 5.15393 6.42165 5.18988L6.57478 5.33783L6.72285 5.18469Z" fill="black" style="fill:black;fill-opacity:1;"/>
<path d="M3.8105 4.52289C3.84647 4.48566 3.90583 4.48467 3.94307 4.52063C3.98029 4.55661 3.9813 4.61597 3.94533 4.6532L3.79732 4.80634L3.95051 4.95435C3.98774 4.99032 3.9888 5.04968 3.95283 5.08691C3.91686 5.12414 3.8575 5.12514 3.82027 5.08917L3.66707 4.94116L3.51906 5.09436C3.48308 5.13158 3.42372 5.13264 3.38649 5.09668C3.34928 5.06071 3.34823 5.00134 3.38417 4.96411L3.53218 4.81085L3.37904 4.6629C3.34183 4.62693 3.34083 4.56757 3.37678 4.53033C3.41276 4.49312 3.47206 4.49213 3.50929 4.52808L3.66243 4.67603L3.8105 4.52289Z" fill="black" style="fill:black;fill-opacity:1;"/>
<path d="M0.672927 4.13531C0.708899 4.09808 0.768259 4.09709 0.805495 4.13306C0.842727 4.16903 0.843788 4.22839 0.807815 4.26562L0.659804 4.41876L0.813003 4.56677C0.850234 4.60275 0.851235 4.66211 0.815261 4.69934C0.779282 4.73656 0.719924 4.73757 0.682693 4.7016L0.529494 4.55359L0.381484 4.70679C0.345507 4.74401 0.286147 4.74508 0.248916 4.70911C0.2117 4.67313 0.210699 4.61377 0.246657 4.57654L0.394607 4.42328L0.241469 4.27533C0.204262 4.23936 0.203256 4.17999 0.239211 4.14276C0.275183 4.10553 0.334544 4.10454 0.37178 4.1405L0.524917 4.28845L0.672927 4.13531Z" fill="black" style="fill:black;fill-opacity:1;"/>
<path d="M5.67549 3.99255C5.71146 3.95533 5.77082 3.95434 5.80806 3.9903C5.84529 4.02627 5.84629 4.08563 5.81032 4.12286L5.66231 4.276L5.81551 4.42401C5.85273 4.45998 5.85378 4.51934 5.81782 4.55658C5.78185 4.5938 5.72249 4.59486 5.68526 4.5589L5.53206 4.41083L5.38405 4.56409C5.34807 4.6013 5.28871 4.60231 5.25148 4.56635C5.21426 4.53037 5.21326 4.47101 5.24922 4.43378L5.39717 4.28058L5.24403 4.13257C5.20682 4.09659 5.20582 4.03723 5.24177 4C5.27775 3.96279 5.33711 3.96178 5.37434 3.99774L5.52748 4.14569L5.67549 3.99255Z" fill="black" style="fill:black;fill-opacity:1;"/>
<path d="M7.45515 2.9696C7.49113 2.93238 7.55049 2.93139 7.58772 2.96735C7.62494 3.00332 7.62595 3.06268 7.58998 3.09991L7.44197 3.25305L7.59517 3.40106C7.6324 3.43703 7.63345 3.49639 7.59749 3.53363C7.56151 3.57085 7.50215 3.57186 7.46492 3.53589L7.31172 3.38788L7.16371 3.54108C7.12774 3.57829 7.06837 3.57935 7.03114 3.5434C6.99393 3.50743 6.99288 3.44806 7.02882 3.41083L7.17683 3.25757L7.0237 3.10962C6.98648 3.07365 6.98548 3.01428 7.02144 2.97705C7.05741 2.93984 7.11671 2.93884 7.15394 2.97479L7.30708 3.12274L7.45515 2.9696Z" fill="black" style="fill:black;fill-opacity:1;"/>
<path d="M4.43623 2.80585C4.47221 2.76863 4.53157 2.76763 4.5688 2.80359C4.60603 2.83957 4.60703 2.89892 4.57106 2.93616L4.42305 3.08929L4.57625 3.23737C4.61347 3.27333 4.61452 3.33264 4.57857 3.36987C4.54259 3.40709 4.48323 3.40815 4.446 3.37219L4.2928 3.22412L4.14479 3.37738C4.10881 3.4146 4.04945 3.41561 4.01222 3.37964C3.97501 3.34367 3.97395 3.2843 4.0099 3.24707L4.15791 3.09381L4.00478 2.94586C3.96757 2.90989 3.96656 2.85052 4.00252 2.81329C4.03849 2.77609 4.09779 2.7751 4.13502 2.81104L4.28816 2.95905L4.43623 2.80585Z" fill="black" style="fill:black;fill-opacity:1;"/>
<path fill-rule="evenodd" clip-rule="evenodd" d="M6.49916 2.4126L5.14601 3.22772L5.56868 1.31207L6.49916 2.4126ZM5.42317 2.8418L6.21388 2.36554L5.67012 1.72247L5.42317 2.8418Z" fill="black" style="fill:black;fill-opacity:1;"/>
<path fill-rule="evenodd" clip-rule="evenodd" d="M2.32283 3.21722L0.358413 2.68719L2.10457 0.847473L2.32283 3.21722ZM0.710952 2.58807L2.1114 2.96594L1.95576 1.27655L0.710952 2.58807Z" fill="black" style="fill:black;fill-opacity:1;"/>
<path d="M3.32185 1.57043C3.35782 1.5332 3.41718 1.53221 3.45442 1.56818C3.49165 1.60415 3.49272 1.66351 3.45674 1.70074L3.30873 1.85388L3.46193 2.00189C3.49916 2.03787 3.50016 2.09723 3.46419 2.13446C3.42821 2.17168 3.36885 2.17269 3.33162 2.13672L3.17842 1.98871L3.03041 2.14191C2.99443 2.17913 2.93507 2.1802 2.89784 2.14423C2.86063 2.10825 2.85963 2.04889 2.89558 2.01166L3.04353 1.8584L2.8904 1.71045C2.85319 1.67447 2.85218 1.61511 2.88814 1.57788C2.92411 1.54065 2.98347 1.53966 3.02071 1.57562L3.17384 1.72357L3.32185 1.57043Z" fill="black" style="fill:black;fill-opacity:1;"/>
<path d="M1.11415 0.776245C1.15012 0.739018 1.20948 0.738036 1.24672 0.773987C1.28395 0.809962 1.28501 0.869319 1.24904 0.906555L1.10103 1.05969L1.25423 1.2077C1.29146 1.24368 1.29245 1.30303 1.25648 1.34027C1.22051 1.37749 1.16115 1.37856 1.12392 1.34259L0.970717 1.19452L0.822707 1.34778C0.786728 1.38499 0.727365 1.386 0.690139 1.35004C0.652934 1.31406 0.651926 1.2547 0.687881 1.21747L0.83583 1.06427L0.682693 0.91626C0.6455 0.880284 0.644484 0.820915 0.680434 0.783691C0.716406 0.746468 0.775768 0.745475 0.813003 0.781433L0.96614 0.929382L1.11415 0.776245Z" fill="black" style="fill:black;fill-opacity:1;"/>
<path d="M6.81508 0.0440063L4.36623 1.04578L4.8622 0H5.06966L4.74281 0.689148L6.42744 0H6.7867L6.81508 0.0440063Z" fill="black" style="fill:black;fill-opacity:1;"/>
<path d="M7.66829 0.101135C7.70426 0.0639047 7.76362 0.0629146 7.80086 0.098877C7.83808 0.134855 7.83909 0.194214 7.80311 0.231445L7.6551 0.384583L7.8083 0.532593C7.84554 0.568568 7.84659 0.627925 7.81062 0.665161C7.77464 0.702383 7.71528 0.703392 7.67805 0.667419L7.52486 0.519409L7.37685 0.672607C7.34087 0.709825 7.28151 0.710886 7.24428 0.674927C7.20706 0.638953 7.20606 0.57959 7.24202 0.542358L7.38997 0.389099L7.23683 0.24115C7.19961 0.205176 7.19861 0.145813 7.23457 0.108582C7.27055 0.0713567 7.32991 0.0703627 7.36714 0.106323L7.52028 0.254272L7.66829 0.101135Z" fill="black" style="fill:black;fill-opacity:1;"/>
</g>
<defs>
<clipPath id="clip0_2139_1757">
<rect width="8" height="8" fill="white" style="fill:white;fill-opacity:1;"/>
</clipPath>
</defs>
</svg>
