<svg width="8" height="8" viewBox="0 0 8 8" fill="none" xmlns="http://www.w3.org/2000/svg">
<path fill-rule="evenodd" clip-rule="evenodd" d="M0.398784 0.399031L0 0.798062L0.00464887 0.990538L0.00931417 1.18303L0.600608 0.591507L1.1919 0H0.994727H0.797569L0.398784 0.399031ZM1.40092 1.401L0 2.802L0.00464887 2.99451L0.00931417 3.18702L1.60271 1.59351L3.19611 0H2.99898H2.80186L1.40092 1.401ZM2.39478 2.39483L0 4.78965L0.00464887 4.98216L0.00931417 5.17469L2.59657 2.58733L5.18382 0H4.98669H4.78955L2.39478 2.39483ZM3.39683 3.39688L0 6.79374L0.00464887 6.98627L0.00931417 7.17878L3.59862 3.58939L7.18793 0H6.9908H6.79368L3.39683 3.39688ZM4.39537 4.4024L0.797848 8H0.993544H1.18926L4.59571 4.59353L8.00219 1.18707L7.99754 0.995926L7.99289 0.804797L4.39537 4.4024ZM5.39742 5.40445L2.80195 8H2.99366H3.18536L5.59374 5.59162L8.00212 3.18324L7.9975 2.99607L7.99289 2.80889L5.39742 5.40445ZM6.39532 6.39428L4.81424 7.97543V7.98771V8H4.99908H5.18392L6.59251 6.59134L8.0011 5.18269V4.99791V4.81314H7.98875H7.97639L6.39532 6.39428ZM7.39732 7.39639L6.81835 7.97552V7.98776V8H7.00329H7.18821L7.59466 7.59331L8.0011 7.18661V7.00194V6.81725H7.9887H7.97628L7.39732 7.39639Z" fill="black" style="fill:black;fill-opacity:1;"/>
</svg>
