<svg width="8" height="8" viewBox="0 0 8 8" fill="none" xmlns="http://www.w3.org/2000/svg">
<g clip-path="url(#clip0_2139_1910)">
<path d="M1.62848 7.2677H2.00964V7.38147H1.62848V7.74683H1.51465V7.38147H1.15399V7.2677H1.51465V6.89117H1.62848V7.2677Z" fill="black" style="fill:black;fill-opacity:1;"/>
<path d="M4.29663 7.2677H4.6778V7.38147H4.29663V7.74683H4.1828V7.38147H3.82214V7.2677H4.1828V6.89117H4.29663V7.2677Z" fill="black" style="fill:black;fill-opacity:1;"/>
<path d="M6.96478 7.2677H7.34595V7.38147H6.96478V7.74683H6.85095V7.38147H6.4903V7.2677H6.85095V6.89117H6.96478V7.2677Z" fill="black" style="fill:black;fill-opacity:1;"/>
<path d="M2.71252 5.22455H3.09375V5.33832H2.71252V5.70367H2.59875V5.33832H2.2381V5.22455H2.59875V4.84802H2.71252V5.22455Z" fill="black" style="fill:black;fill-opacity:1;"/>
<path d="M5.38068 5.22455H5.7619V5.33832H5.38068V5.70367H5.26691V5.33832H4.90625V5.22455H5.26691V4.84802H5.38068V5.22455Z" fill="black" style="fill:black;fill-opacity:1;"/>
<path d="M8 5.70367H7.93506V5.33832H7.5744V5.22455H7.93506V4.84802H8V5.70367Z" fill="black" style="fill:black;fill-opacity:1;"/>
<path d="M0.0443726 5.22455H0.425598V5.33832H0.0443726V5.70367H0V4.84802H0.0443726V5.22455Z" fill="black" style="fill:black;fill-opacity:1;"/>
<path d="M1.62848 3.1814H2.00964V3.29517H1.62848V3.66052H1.51465V3.29517H1.15399V3.1814H1.51465V2.80487H1.62848V3.1814Z" fill="black" style="fill:black;fill-opacity:1;"/>
<path d="M4.29663 3.1814H4.6778V3.29517H4.29663V3.66052H4.1828V3.29517H3.82214V3.1814H4.1828V2.80487H4.29663V3.1814Z" fill="black" style="fill:black;fill-opacity:1;"/>
<path d="M6.96478 3.1814H7.34595V3.29517H6.96478V3.66052H6.85095V3.29517H6.4903V3.1814H6.85095V2.80487H6.96478V3.1814Z" fill="black" style="fill:black;fill-opacity:1;"/>
<path d="M2.71252 1.13824H3.09375V1.25201H2.71252V1.61737H2.59875V1.25201H2.2381V1.13824H2.59875V0.761719H2.71252V1.13824Z" fill="black" style="fill:black;fill-opacity:1;"/>
<path d="M5.38068 1.13824H5.7619V1.25201H5.38068V1.61737H5.26691V1.25201H4.90625V1.13824H5.26691V0.761719H5.38068V1.13824Z" fill="black" style="fill:black;fill-opacity:1;"/>
<path d="M8 1.61737H7.93506V1.25201H7.5744V1.13824H7.93506V0.761719H8V1.61737Z" fill="black" style="fill:black;fill-opacity:1;"/>
<path d="M0.0443726 1.13824H0.425598V1.25201H0.0443726V1.61737H0V0.761719H0.0443726V1.13824Z" fill="black" style="fill:black;fill-opacity:1;"/>
</g>
<defs>
<clipPath id="clip0_2139_1910">
<rect width="8" height="8" fill="white" style="fill:white;fill-opacity:1;"/>
</clipPath>
</defs>
</svg>
