<svg width="8" height="8" viewBox="0 0 8 8" fill="none" xmlns="http://www.w3.org/2000/svg">
<path fill-rule="evenodd" clip-rule="evenodd" d="M7.61314 0.387302C7.74135 0.515531 7.59621 0.710074 7.42913 0.633959C7.29005 0.570595 7.35047 0.335681 7.50582 0.335681C7.54383 0.335681 7.57791 0.35207 7.61314 0.387302ZM6.58948 0.362171C6.73014 0.438604 6.66891 0.653562 6.50648 0.653562C6.38727 0.653562 6.31149 0.53086 6.36581 0.4258C6.41224 0.335999 6.49699 0.311893 6.58948 0.362171ZM5.61756 0.387302C5.74505 0.514789 5.59335 0.71788 5.43402 0.633023C5.33643 0.581032 5.32037 0.46022 5.40083 0.383134C5.46913 0.317703 5.54951 0.319257 5.61756 0.387302ZM4.58309 0.356079C4.72313 0.43267 4.66566 0.653562 4.5057 0.653562C4.42759 0.653562 4.34468 0.571725 4.34468 0.494622C4.34468 0.381403 4.48272 0.301174 4.58309 0.356079ZM3.62197 0.387302C3.75545 0.520794 3.59785 0.715761 3.42762 0.627725C3.40013 0.613509 3.37272 0.589032 3.36668 0.573297C3.30033 0.400388 3.49397 0.259302 3.62197 0.387302ZM2.61535 0.387302C2.71626 0.488229 2.65092 0.653562 2.51011 0.653562C2.432 0.653562 2.34909 0.571725 2.34909 0.494622C2.34909 0.356803 2.51713 0.289076 2.61535 0.387302ZM1.59412 0.354754C1.61113 0.364661 1.63746 0.396785 1.65263 0.426154C1.73277 0.581121 1.53516 0.729165 1.40686 0.61026C1.27568 0.488688 1.43974 0.264829 1.59412 0.354754ZM0.619765 0.387302C0.721205 0.488741 0.65309 0.653562 0.509726 0.653562C0.436543 0.653562 0.353505 0.569094 0.353505 0.494622C0.353505 0.356803 0.52154 0.289076 0.619765 0.387302ZM7.57452 1.3493C7.62462 1.37706 7.66326 1.44118 7.66415 1.49799C7.66634 1.64187 7.47202 1.70854 7.38241 1.59463C7.27637 1.45981 7.42694 1.2675 7.57452 1.3493ZM6.57403 1.35188C6.68385 1.41241 6.6969 1.53614 6.60188 1.61609C6.45157 1.74257 6.25572 1.54043 6.38883 1.39618C6.44846 1.33157 6.51034 1.31677 6.57403 1.35188ZM5.58286 1.35113C5.73468 1.43364 5.65277 1.68235 5.48375 1.65206C5.33325 1.62508 5.30316 1.42169 5.43924 1.35131C5.50203 1.31885 5.52341 1.31882 5.58286 1.35113ZM4.57823 1.35175C4.68043 1.40811 4.6956 1.54094 4.60822 1.61446C4.45629 1.7423 4.25885 1.54184 4.39324 1.39618C4.45281 1.33164 4.51474 1.31677 4.57823 1.35175ZM3.61355 1.38469C3.76525 1.53639 3.55271 1.7508 3.3963 1.60385C3.32219 1.53423 3.34713 1.40124 3.44366 1.35131C3.51896 1.31237 3.54667 1.31781 3.61355 1.38469ZM2.58264 1.35218C2.76182 1.44941 2.63101 1.72351 2.44573 1.63908C2.34026 1.59103 2.32297 1.47085 2.40913 1.38469C2.47479 1.31903 2.50957 1.31251 2.58264 1.35218ZM1.5652 1.34158C1.68154 1.38976 1.70642 1.51168 1.61796 1.60014C1.54519 1.67292 1.48866 1.67689 1.41447 1.61446C1.28445 1.50506 1.41021 1.27737 1.5652 1.34158ZM0.587059 1.35218C0.76154 1.44687 0.638962 1.71687 0.455916 1.64106C0.345841 1.59546 0.325549 1.47269 0.413549 1.38469C0.479209 1.31903 0.513982 1.31251 0.587059 1.35218ZM7.61314 2.38289C7.74363 2.51339 7.56161 2.73831 7.41599 2.62651C7.29537 2.5339 7.35702 2.33127 7.50582 2.33127C7.54383 2.33127 7.57791 2.34766 7.61314 2.38289ZM6.58948 2.35776C6.73014 2.43419 6.66891 2.64915 6.50648 2.64915C6.38651 2.64915 6.31149 2.52643 6.36647 2.4201C6.41009 2.33575 6.50181 2.31011 6.58948 2.35776ZM5.61756 2.38289C5.65279 2.41812 5.66918 2.4522 5.66918 2.49021C5.66918 2.62396 5.48878 2.69994 5.39465 2.60579C5.30051 2.51166 5.37648 2.33127 5.51024 2.33127C5.54824 2.33127 5.58233 2.34766 5.61756 2.38289ZM4.60613 2.37524C4.65208 2.4139 4.66256 2.43567 4.66256 2.49257C4.66256 2.64302 4.48657 2.70912 4.3904 2.59481C4.2634 2.44388 4.45544 2.24844 4.60613 2.37524ZM3.58971 2.35034C3.67811 2.40184 3.69424 2.52526 3.62197 2.59753C3.51575 2.70373 3.35571 2.64065 3.35571 2.49257C3.35571 2.37566 3.49148 2.29314 3.58971 2.35034ZM2.61318 2.38071C2.68504 2.45257 2.68663 2.5354 2.61743 2.60169C2.47511 2.73807 2.2598 2.54195 2.38882 2.39347C2.45295 2.31966 2.54679 2.31433 2.61318 2.38071ZM1.59169 2.35776C1.68747 2.40982 1.69819 2.54617 1.61184 2.61411C1.45136 2.74034 1.2583 2.5084 1.41447 2.37699C1.4752 2.32588 1.52341 2.32065 1.59169 2.35776ZM0.619765 2.38289C0.689381 2.45252 0.690194 2.53623 0.621849 2.60169C0.471086 2.74614 0.257505 2.53051 0.405125 2.38289C0.440357 2.34766 0.474441 2.33127 0.512445 2.33127C0.55045 2.33127 0.584533 2.34766 0.619765 2.38289ZM7.59008 3.3497C7.67029 3.38199 7.68401 3.53328 7.61314 3.60415C7.51312 3.70418 7.34688 3.63458 7.34688 3.49266C7.34688 3.38259 7.47891 3.30499 7.59008 3.3497ZM6.59192 3.35696C6.6849 3.41111 6.68984 3.53766 6.60188 3.61167C6.45252 3.73734 6.26014 3.54179 6.38598 3.39223C6.43458 3.33446 6.52633 3.31876 6.59192 3.35696ZM5.6252 3.39431C5.752 3.54501 5.55656 3.73704 5.40564 3.61005C5.36182 3.57317 5.3513 3.5508 5.3513 3.49446C5.3513 3.34236 5.52733 3.278 5.6252 3.39431ZM4.6192 3.38124C4.68467 3.44669 4.67972 3.54988 4.60822 3.61005C4.45722 3.73711 4.26333 3.54322 4.3904 3.39223C4.45056 3.32072 4.55375 3.31578 4.6192 3.38124ZM3.62197 3.38951C3.7647 3.53224 3.56479 3.74026 3.41005 3.61005C3.36624 3.57317 3.35571 3.5508 3.35571 3.49446C3.35571 3.34638 3.51575 3.2833 3.62197 3.38951ZM2.62362 3.38124C2.68908 3.44669 2.68414 3.54988 2.61263 3.61005C2.46164 3.73711 2.26775 3.54322 2.39481 3.39223C2.45498 3.32072 2.55817 3.31578 2.62362 3.38124ZM1.62639 3.38951C1.69625 3.45937 1.69378 3.51991 1.61796 3.59573C1.51259 3.7011 1.36013 3.64124 1.36013 3.49446C1.36013 3.34638 1.52016 3.2833 1.62639 3.38951ZM0.62803 3.38124C0.729717 3.48291 0.638397 3.672 0.498388 3.64971C0.459359 3.6435 0.41694 3.62086 0.39324 3.59357C0.265222 3.44623 0.489876 3.24307 0.62803 3.38124ZM7.61097 4.3763C7.68283 4.44816 7.68442 4.53098 7.61523 4.59728C7.53607 4.67313 7.41846 4.66126 7.37272 4.57282C7.28645 4.40599 7.48055 4.24588 7.61097 4.3763ZM6.61576 4.3869C6.68264 4.45377 6.68807 4.48148 6.64913 4.55679C6.59921 4.65332 6.46621 4.67825 6.3966 4.60415C6.24965 4.44773 6.46406 4.2352 6.61576 4.3869ZM5.58485 4.35438C5.72795 4.43203 5.67154 4.64473 5.50787 4.64473C5.35979 4.64473 5.29671 4.4847 5.40292 4.37847C5.4598 4.32159 5.51176 4.31472 5.58485 4.35438ZM4.61094 4.37847C4.71714 4.4847 4.65406 4.64473 4.50598 4.64473C4.44965 4.64473 4.42727 4.63421 4.3904 4.59039C4.26019 4.43566 4.46821 4.23574 4.61094 4.37847ZM3.58335 4.3515C3.72802 4.43168 3.67638 4.64473 3.51229 4.64473C3.36184 4.64473 3.29574 4.46875 3.41005 4.37257C3.47003 4.3221 3.51946 4.31608 3.58335 4.3515ZM2.61318 4.3763C2.72151 4.48463 2.66021 4.64473 2.5104 4.64473C2.37701 4.64473 2.30261 4.48828 2.38882 4.38905C2.45295 4.31525 2.54679 4.30992 2.61318 4.3763ZM1.58777 4.3515C1.68511 4.40546 1.70287 4.51661 1.62639 4.59311C1.55893 4.66057 1.46611 4.66402 1.40348 4.60138C1.27743 4.47534 1.4323 4.26534 1.58777 4.3515ZM0.617593 4.3763C0.689452 4.44816 0.691041 4.53098 0.621849 4.59728C0.541143 4.67461 0.42524 4.6581 0.374043 4.56201C0.290988 4.40606 0.493178 4.25188 0.617593 4.3763ZM7.61314 5.38509C7.68255 5.4545 7.68255 5.53033 7.61314 5.59973C7.51312 5.69976 7.34688 5.63016 7.34688 5.48825C7.34688 5.34949 7.51313 5.28509 7.61314 5.38509ZM6.59192 5.35255C6.6849 5.40669 6.68984 5.53324 6.60188 5.60726C6.44991 5.73512 6.25162 5.52535 6.39188 5.38509C6.44638 5.3306 6.53067 5.31687 6.59192 5.35255ZM5.61973 5.38727C5.68611 5.45365 5.68078 5.5475 5.60698 5.61162C5.45728 5.74169 5.25756 5.5182 5.40083 5.38093C5.46997 5.31468 5.54944 5.31698 5.61973 5.38727ZM4.6192 5.37683C4.68467 5.44228 4.67972 5.54547 4.60822 5.60563C4.45722 5.7327 4.26333 5.53881 4.3904 5.38781C4.45056 5.31631 4.55375 5.31136 4.6192 5.37683ZM3.62415 5.38727C3.69053 5.45365 3.6852 5.5475 3.61139 5.61162C3.51216 5.69784 3.35571 5.62343 3.35571 5.49005C3.35571 5.34024 3.51582 5.27894 3.62415 5.38727ZM2.62362 5.37683C2.72783 5.48102 2.63621 5.66819 2.4924 5.64484C2.36189 5.62366 2.3095 5.4892 2.39306 5.3899C2.455 5.31627 2.55728 5.31048 2.62362 5.37683ZM1.62856 5.38727C1.75898 5.51769 1.59887 5.71179 1.43204 5.62552C1.37454 5.5958 1.36013 5.56689 1.36013 5.48134C1.36013 5.34011 1.52398 5.2827 1.62856 5.38727ZM0.62803 5.37683C0.722176 5.47096 0.646202 5.65135 0.512445 5.65135C0.437973 5.65135 0.353505 5.56832 0.353505 5.49513C0.353505 5.35603 0.53083 5.27961 0.62803 5.37683ZM7.58044 6.34924C7.60691 6.36401 7.6367 6.39131 7.64666 6.40991C7.73055 6.56664 7.51096 6.7239 7.39018 6.59359C7.27071 6.46467 7.42713 6.26379 7.58044 6.34924ZM6.61789 6.38462C6.69131 6.45803 6.68961 6.53319 6.61302 6.60058C6.45657 6.73828 6.25311 6.52968 6.4003 6.38248C6.47976 6.30303 6.53685 6.30358 6.61789 6.38462ZM5.57894 6.34637C5.67342 6.40034 5.69263 6.50377 5.62346 6.58598C5.53058 6.69637 5.3513 6.63445 5.3513 6.49199C5.3513 6.37422 5.48168 6.29081 5.57894 6.34637ZM4.61094 6.37406C4.71714 6.48028 4.65406 6.64032 4.50598 6.64032C4.35921 6.64032 4.29934 6.48786 4.40472 6.38248C4.48053 6.30667 4.54107 6.30419 4.61094 6.37406ZM3.58335 6.34709C3.72802 6.42727 3.67638 6.64032 3.51229 6.64032C3.36421 6.64032 3.30113 6.48028 3.40733 6.37406C3.46305 6.31834 3.51667 6.31013 3.58335 6.34709ZM2.61318 6.37188C2.71774 6.47647 2.66033 6.64032 2.5191 6.64032C2.43356 6.64032 2.40465 6.62591 2.37493 6.56841C2.28866 6.40157 2.48276 6.24147 2.61318 6.37188ZM1.58777 6.34709C1.73533 6.42887 1.68052 6.64032 1.51174 6.64032C1.41235 6.64032 1.36013 6.58725 1.36013 6.48622C1.36013 6.36297 1.48202 6.28848 1.58777 6.34709ZM0.617593 6.37188C0.722158 6.47647 0.664746 6.64032 0.523518 6.64032C0.437973 6.64032 0.409064 6.62591 0.379342 6.56841C0.293072 6.40157 0.487174 6.24147 0.617593 6.37188ZM7.61314 7.38068C7.68255 7.45008 7.68255 7.52592 7.61314 7.59532C7.46833 7.74013 7.26049 7.5404 7.3926 7.3834C7.45493 7.30933 7.54074 7.30827 7.61314 7.38068ZM6.59192 7.34813C6.6849 7.40228 6.68984 7.52883 6.60188 7.60284C6.44991 7.7307 6.25162 7.52094 6.39188 7.38068C6.44638 7.32618 6.53067 7.31246 6.59192 7.34813ZM5.61973 7.38285C5.68611 7.44924 5.68078 7.54308 5.60698 7.6072C5.45728 7.73727 5.25756 7.51378 5.40083 7.37651C5.46997 7.31027 5.54944 7.31256 5.61973 7.38285ZM4.6192 7.37241C4.75737 7.51057 4.55421 7.73522 4.40687 7.6072C4.37959 7.58351 4.35695 7.54109 4.35073 7.50206C4.32845 7.36205 4.51753 7.27073 4.6192 7.37241ZM3.62415 7.38285C3.67063 7.42935 3.67652 7.44554 3.66754 7.50206C3.6358 7.70147 3.35806 7.68793 3.35628 7.48689C3.35499 7.34358 3.52057 7.27928 3.62415 7.38285ZM2.62362 7.37241C2.72083 7.46962 2.64442 7.64694 2.50531 7.64694C2.43213 7.64694 2.34909 7.56247 2.34909 7.488C2.34909 7.35424 2.52949 7.27827 2.62362 7.37241ZM1.62856 7.38285C1.75898 7.51327 1.59887 7.70737 1.43204 7.6211C1.37454 7.59138 1.36013 7.56247 1.36013 7.47693C1.36013 7.3357 1.52398 7.27829 1.62856 7.38285ZM0.591915 7.35039C0.689787 7.40652 0.702132 7.52962 0.617046 7.60122C0.543456 7.66315 0.470944 7.66112 0.405125 7.59532C0.275589 7.46578 0.433063 7.25928 0.591915 7.35039Z" fill="black" style="fill:black;fill-opacity:1;"/>
</svg>
