<svg width="8" height="8" viewBox="0 0 8 8" fill="none" xmlns="http://www.w3.org/2000/svg">
<path fill-rule="evenodd" clip-rule="evenodd" d="M0.461563 0.468344L0.43375 0.499078V0.539875V0.580672L0.638828 0.787781L0.843906 0.994891V1.00784V1.02081L0.63875 1.2175L0.433594 1.41417L0.433672 1.45983L0.43375 1.50548L0.462125 1.52623L0.4905 1.54698H0.527219H0.563922L0.777516 1.35003L0.991109 1.15309L1.21047 1.38152L1.42984 1.60995L1.46152 1.60972L1.4932 1.60948L1.52792 1.58516L1.56266 1.56084V1.51309V1.46534L1.35188 1.24275L1.14109 1.02016L1.32423 0.857781L1.50736 0.695422L1.53502 0.668078L1.56266 0.640734V0.594219V0.547703L1.5237 0.522187L1.48477 0.496672L1.44948 0.506187L1.41422 0.515703L1.21289 0.695406L1.01156 0.875109H1.00723H1.00289L0.786688 0.656297L0.570469 0.4375L0.529922 0.437547L0.489375 0.437609L0.461563 0.468344ZM2.46156 0.468344L2.43375 0.499078V0.539875V0.580672L2.63883 0.787781L2.84391 0.994891V1.00784V1.02081L2.63875 1.2175L2.43359 1.41417L2.43367 1.45983L2.43375 1.50548L2.46212 1.52623L2.4905 1.54698H2.52722H2.56392L2.77752 1.35003L2.99111 1.15309L3.21047 1.38152L3.42984 1.60995L3.46152 1.60972L3.4932 1.60948L3.52792 1.58516L3.56266 1.56084V1.51309V1.46534L3.35187 1.24275L3.14109 1.02016L3.32423 0.857781L3.50736 0.695422L3.53502 0.668078L3.56266 0.640734V0.594219V0.547703L3.5237 0.522187L3.48477 0.496672L3.44948 0.506187L3.41422 0.515703L3.21289 0.695406L3.01156 0.875109H3.00723H3.00289L2.78669 0.656297L2.57047 0.4375L2.52992 0.437547L2.48937 0.437609L2.46156 0.468344ZM4.46156 0.468344L4.43375 0.499078V0.539875V0.580672L4.63883 0.787781L4.84391 0.994891V1.00784V1.02081L4.63875 1.2175L4.43359 1.41417L4.43367 1.45983L4.43375 1.50548L4.46213 1.52623L4.4905 1.54698H4.52722H4.56392L4.77752 1.35003L4.99111 1.15309L5.21047 1.38152L5.42984 1.60995L5.46152 1.60972L5.4932 1.60948L5.52792 1.58516L5.56266 1.56084V1.51309V1.46534L5.35188 1.24275L5.14109 1.02016L5.32423 0.857781L5.50736 0.695422L5.53502 0.668078L5.56266 0.640734V0.594219V0.547703L5.5237 0.522187L5.48477 0.496672L5.44948 0.506187L5.41422 0.515703L5.21289 0.695406L5.01156 0.875109H5.00723H5.00289L4.78669 0.656297L4.57047 0.4375L4.52992 0.437547L4.48938 0.437609L4.46156 0.468344ZM6.46156 0.468344L6.43375 0.499078V0.539875V0.580672L6.63883 0.787781L6.84391 0.994891V1.00784V1.02081L6.63875 1.2175L6.43359 1.41417L6.43367 1.45983L6.43375 1.50548L6.46213 1.52623L6.4905 1.54698H6.52722H6.56392L6.77752 1.35003L6.99111 1.15309L7.21047 1.38152L7.42984 1.60995L7.46152 1.60972L7.4932 1.60948L7.52792 1.58516L7.56266 1.56084V1.51309V1.46534L7.35188 1.24275L7.14109 1.02016L7.32423 0.857781L7.50736 0.695422L7.53502 0.668078L7.56266 0.640734V0.594219V0.547703L7.5237 0.522187L7.48477 0.496672L7.44948 0.506187L7.41422 0.515703L7.21289 0.695406L7.01156 0.875109H7.00723H7.00289L6.78669 0.656297L6.57047 0.4375L6.52992 0.437547L6.48938 0.437609L6.46156 0.468344ZM0.461563 2.46834L0.43375 2.49908V2.53988V2.58067L0.638828 2.78778L0.843906 2.99489V3.00784V3.02081L0.63875 3.2175L0.433594 3.41417L0.433672 3.45983L0.43375 3.50548L0.462125 3.52623L0.4905 3.54698H0.527219H0.563922L0.777516 3.35003L0.991109 3.15309L1.21047 3.38152L1.42984 3.60995L1.46152 3.60972L1.4932 3.60948L1.52792 3.58516L1.56266 3.56084V3.51309V3.46534L1.35188 3.24275L1.14109 3.02016L1.32423 2.85778L1.50736 2.69542L1.53502 2.66808L1.56266 2.64073V2.59422V2.5477L1.5237 2.52219L1.48477 2.49667L1.44948 2.50619L1.41422 2.5157L1.21289 2.69541L1.01156 2.87511H1.00723H1.00289L0.786688 2.6563L0.570469 2.4375L0.529922 2.43755L0.489375 2.43761L0.461563 2.46834ZM2.46156 2.46834L2.43375 2.49908V2.53988V2.58067L2.63883 2.78778L2.84391 2.99489V3.00784V3.02081L2.63875 3.2175L2.43359 3.41417L2.43367 3.45983L2.43375 3.50548L2.46212 3.52623L2.4905 3.54698H2.52722H2.56392L2.77752 3.35003L2.99111 3.15309L3.21047 3.38152L3.42984 3.60995L3.46152 3.60972L3.4932 3.60948L3.52792 3.58516L3.56266 3.56084V3.51309V3.46534L3.35187 3.24275L3.14109 3.02016L3.32423 2.85778L3.50736 2.69542L3.53502 2.66808L3.56266 2.64073V2.59422V2.5477L3.5237 2.52219L3.48477 2.49667L3.44948 2.50619L3.41422 2.5157L3.21289 2.69541L3.01156 2.87511H3.00723H3.00289L2.78669 2.6563L2.57047 2.4375L2.52992 2.43755L2.48937 2.43761L2.46156 2.46834ZM4.46156 2.46834L4.43375 2.49908V2.53988V2.58067L4.63883 2.78778L4.84391 2.99489V3.00784V3.02081L4.63875 3.2175L4.43359 3.41417L4.43367 3.45983L4.43375 3.50548L4.46213 3.52623L4.4905 3.54698H4.52722H4.56392L4.77752 3.35003L4.99111 3.15309L5.21047 3.38152L5.42984 3.60995L5.46152 3.60972L5.4932 3.60948L5.52792 3.58516L5.56266 3.56084V3.51309V3.46534L5.35188 3.24275L5.14109 3.02016L5.32423 2.85778L5.50736 2.69542L5.53502 2.66808L5.56266 2.64073V2.59422V2.5477L5.5237 2.52219L5.48477 2.49667L5.44948 2.50619L5.41422 2.5157L5.21289 2.69541L5.01156 2.87511H5.00723H5.00289L4.78669 2.6563L4.57047 2.4375L4.52992 2.43755L4.48938 2.43761L4.46156 2.46834ZM6.46156 2.46834L6.43375 2.49908V2.53988V2.58067L6.63883 2.78778L6.84391 2.99489V3.00784V3.02081L6.63875 3.2175L6.43359 3.41417L6.43367 3.45983L6.43375 3.50548L6.46213 3.52623L6.4905 3.54698H6.52722H6.56392L6.77752 3.35003L6.99111 3.15309L7.21047 3.38152L7.42984 3.60995L7.46152 3.60972L7.4932 3.60948L7.52792 3.58516L7.56266 3.56084V3.51309V3.46534L7.35188 3.24275L7.14109 3.02016L7.32423 2.85778L7.50736 2.69542L7.53502 2.66808L7.56266 2.64073V2.59422V2.5477L7.5237 2.52219L7.48477 2.49667L7.44948 2.50619L7.41422 2.5157L7.21289 2.69541L7.01156 2.87511H7.00723H7.00289L6.78669 2.6563L6.57047 2.4375L6.52992 2.43755L6.48938 2.43761L6.46156 2.46834ZM0.461563 4.46834L0.43375 4.49908V4.53988V4.58067L0.638828 4.78778L0.843906 4.99489V5.00784V5.02081L0.63875 5.2175L0.433594 5.41417L0.433672 5.45983L0.43375 5.50548L0.462125 5.52623L0.4905 5.54698H0.527219H0.563922L0.777516 5.35003L0.991109 5.15309L1.21047 5.38152L1.42984 5.60995L1.46152 5.60972L1.4932 5.60948L1.52792 5.58516L1.56266 5.56084V5.51309V5.46534L1.35188 5.24275L1.14109 5.02016L1.32423 4.85778L1.50736 4.69542L1.53502 4.66808L1.56266 4.64073V4.59422V4.5477L1.5237 4.52219L1.48477 4.49667L1.44948 4.50619L1.41422 4.5157L1.21289 4.69541L1.01156 4.87511H1.00723H1.00289L0.786688 4.6563L0.570469 4.4375L0.529922 4.43755L0.489375 4.43761L0.461563 4.46834ZM2.46156 4.46834L2.43375 4.49908V4.53988V4.58067L2.63883 4.78778L2.84391 4.99489V5.00784V5.02081L2.63875 5.2175L2.43359 5.41417L2.43367 5.45983L2.43375 5.50548L2.46212 5.52623L2.4905 5.54698H2.52722H2.56392L2.77752 5.35003L2.99111 5.15309L3.21047 5.38152L3.42984 5.60995L3.46152 5.60972L3.4932 5.60948L3.52792 5.58516L3.56266 5.56084V5.51309V5.46534L3.35187 5.24275L3.14109 5.02016L3.32423 4.85778L3.50736 4.69542L3.53502 4.66808L3.56266 4.64073V4.59422V4.5477L3.5237 4.52219L3.48477 4.49667L3.44948 4.50619L3.41422 4.5157L3.21289 4.69541L3.01156 4.87511H3.00723H3.00289L2.78669 4.6563L2.57047 4.4375L2.52992 4.43755L2.48937 4.43761L2.46156 4.46834ZM4.46156 4.46834L4.43375 4.49908V4.53988V4.58067L4.63883 4.78778L4.84391 4.99489V5.00784V5.02081L4.63875 5.2175L4.43359 5.41417L4.43367 5.45983L4.43375 5.50548L4.46213 5.52623L4.4905 5.54698H4.52722H4.56392L4.77752 5.35003L4.99111 5.15309L5.21047 5.38152L5.42984 5.60995L5.46152 5.60972L5.4932 5.60948L5.52792 5.58516L5.56266 5.56084V5.51309V5.46534L5.35188 5.24275L5.14109 5.02016L5.32423 4.85778L5.50736 4.69542L5.53502 4.66808L5.56266 4.64073V4.59422V4.5477L5.5237 4.52219L5.48477 4.49667L5.44948 4.50619L5.41422 4.5157L5.21289 4.69541L5.01156 4.87511H5.00723H5.00289L4.78669 4.6563L4.57047 4.4375L4.52992 4.43755L4.48938 4.43761L4.46156 4.46834ZM6.46156 4.46834L6.43375 4.49908V4.53988V4.58067L6.63883 4.78778L6.84391 4.99489V5.00784V5.02081L6.63875 5.2175L6.43359 5.41417L6.43367 5.45983L6.43375 5.50548L6.46213 5.52623L6.4905 5.54698H6.52722H6.56392L6.77752 5.35003L6.99111 5.15309L7.21047 5.38152L7.42984 5.60995L7.46152 5.60972L7.4932 5.60948L7.52792 5.58516L7.56266 5.56084V5.51309V5.46534L7.35188 5.24275L7.14109 5.02016L7.32423 4.85778L7.50736 4.69542L7.53502 4.66808L7.56266 4.64073V4.59422V4.5477L7.5237 4.52219L7.48477 4.49667L7.44948 4.50619L7.41422 4.5157L7.21289 4.69541L7.01156 4.87511H7.00723H7.00289L6.78669 4.6563L6.57047 4.4375L6.52992 4.43755L6.48938 4.43761L6.46156 4.46834ZM0.461563 6.46834L0.43375 6.49908V6.53988V6.58067L0.638828 6.78778L0.843906 6.99489V7.00784V7.02081L0.63875 7.2175L0.433594 7.41417L0.433672 7.45983L0.43375 7.50548L0.462125 7.52623L0.4905 7.54698H0.527219H0.563922L0.777516 7.35003L0.991109 7.15309L1.21047 7.38152L1.42984 7.60995L1.46152 7.60972L1.4932 7.60948L1.52792 7.58516L1.56266 7.56084V7.51309V7.46534L1.35188 7.24275L1.14109 7.02016L1.32423 6.85778L1.50736 6.69542L1.53502 6.66808L1.56266 6.64073V6.59422V6.5477L1.5237 6.52219L1.48477 6.49667L1.44948 6.50619L1.41422 6.5157L1.21289 6.69541L1.01156 6.87511H1.00723H1.00289L0.786688 6.6563L0.570469 6.4375L0.529922 6.43755L0.489375 6.43761L0.461563 6.46834ZM2.46156 6.46834L2.43375 6.49908V6.53988V6.58067L2.63883 6.78778L2.84391 6.99489V7.00784V7.02081L2.63875 7.2175L2.43359 7.41417L2.43367 7.45983L2.43375 7.50548L2.46212 7.52623L2.4905 7.54698H2.52722H2.56392L2.77752 7.35003L2.99111 7.15309L3.21047 7.38152L3.42984 7.60995L3.46152 7.60972L3.4932 7.60948L3.52792 7.58516L3.56266 7.56084V7.51309V7.46534L3.35187 7.24275L3.14109 7.02016L3.32423 6.85778L3.50736 6.69542L3.53502 6.66808L3.56266 6.64073V6.59422V6.5477L3.5237 6.52219L3.48477 6.49667L3.44948 6.50619L3.41422 6.5157L3.21289 6.69541L3.01156 6.87511H3.00723H3.00289L2.78669 6.6563L2.57047 6.4375L2.52992 6.43755L2.48937 6.43761L2.46156 6.46834ZM4.46156 6.46834L4.43375 6.49908V6.53988V6.58067L4.63883 6.78778L4.84391 6.99489V7.00784V7.02081L4.63875 7.2175L4.43359 7.41417L4.43367 7.45983L4.43375 7.50548L4.46213 7.52623L4.4905 7.54698H4.52722H4.56392L4.77752 7.35003L4.99111 7.15309L5.21047 7.38152L5.42984 7.60995L5.46152 7.60972L5.4932 7.60948L5.52792 7.58516L5.56266 7.56084V7.51309V7.46534L5.35188 7.24275L5.14109 7.02016L5.32423 6.85778L5.50736 6.69542L5.53502 6.66808L5.56266 6.64073V6.59422V6.5477L5.5237 6.52219L5.48477 6.49667L5.44948 6.50619L5.41422 6.5157L5.21289 6.69541L5.01156 6.87511H5.00723H5.00289L4.78669 6.6563L4.57047 6.4375L4.52992 6.43755L4.48938 6.43761L4.46156 6.46834ZM6.46156 6.46834L6.43375 6.49908V6.53988V6.58067L6.63883 6.78778L6.84391 6.99489V7.00784V7.02081L6.63875 7.2175L6.43359 7.41417L6.43367 7.45983L6.43375 7.50548L6.46213 7.52623L6.4905 7.54698H6.52722H6.56392L6.77752 7.35003L6.99111 7.15309L7.21047 7.38152L7.42984 7.60995L7.46152 7.60972L7.4932 7.60948L7.52792 7.58516L7.56266 7.56084V7.51309V7.46534L7.35188 7.24275L7.14109 7.02016L7.32423 6.85778L7.50736 6.69542L7.53502 6.66808L7.56266 6.64073V6.59422V6.5477L7.5237 6.52219L7.48477 6.49667L7.44948 6.50619L7.41422 6.5157L7.21289 6.69541L7.01156 6.87511H7.00723H7.00289L6.78669 6.6563L6.57047 6.4375L6.52992 6.43755L6.48938 6.43761L6.46156 6.46834Z" fill="black" style="fill:black;fill-opacity:1;"/>
</svg>
