<svg width="8" height="8" viewBox="0 0 8 8" fill="none" xmlns="http://www.w3.org/2000/svg">
<path fill-rule="evenodd" clip-rule="evenodd" d="M0.379703 0.379937L0 0.759875L0.0048125 0.841109L0.00964062 0.922359L0.470484 0.461172L0.931313 0H0.845359H0.759406L0.379703 0.379937ZM0.535984 0.536156L0 1.07231L0.0048125 1.15356L0.00964062 1.2348L0.62675 0.617406L1.24387 0H1.15792H1.07197L0.535984 0.536156ZM1.37981 1.37997L0 2.75989L0.0048125 2.84105L0.00964062 2.92222L1.47055 1.46111L2.93145 0L2.84555 1.5625e-05L2.75964 3.125e-05L1.37981 1.37997ZM1.53606 1.5362L0 3.07236L0.0048125 3.15353L0.00964062 3.2347L1.6268 1.61736L3.24395 0L3.15805 1.5625e-05L3.07214 3.125e-05L1.53606 1.5362ZM2.37981 2.37997L0 4.75989L0.0048125 4.84103L0.00964062 4.92219L2.47056 2.46109L4.93148 0L4.84556 3.125e-05L4.75964 6.25e-05L2.37981 2.37997ZM2.53606 2.53622L0 5.07237L0.0048125 5.15353L0.00964062 5.23469L2.62681 2.61734L5.24398 0L5.15806 3.125e-05L5.07214 4.6875e-05L2.53606 2.53622ZM3.37981 3.37997L0 6.75989L0.0048125 6.84103L0.00964062 6.92219L3.47056 3.46109L6.93148 0L6.84556 3.125e-05L6.75964 6.25e-05L3.37981 3.37997ZM3.53606 3.53622L0 7.07237L0.0048125 7.15353L0.00964062 7.23467L3.62681 3.61734L7.24398 0L7.15806 3.125e-05L7.07214 6.25e-05L3.53606 3.53622ZM0.751844 0.742172L0.714391 0.782047L0.819063 0.887516L0.923734 0.993L0.814562 1.10134L0.705375 1.20967L0.747453 1.25359L0.789531 1.2975L0.899844 1.18792L1.01016 1.07834L1.11483 1.18303L1.2195 1.2877L1.25952 1.25013L1.29952 1.21255L1.19408 1.10628L1.08864 1.00003L1.18953 0.898219L1.29044 0.796422L1.274 0.770344L1.25755 0.744281L1.23148 0.727828L1.20541 0.711391L1.10361 0.812297L1.0018 0.913188L0.895547 0.80775L0.789281 0.702313L0.751844 0.742172ZM2.75184 0.742172L2.71439 0.782047L2.81906 0.887516L2.92373 0.993L2.81456 1.10134L2.70537 1.20967L2.74745 1.25359L2.78953 1.2975L2.89984 1.18792L3.01016 1.07834L3.11483 1.18303L3.2195 1.2877L3.25952 1.25013L3.29952 1.21255L3.19408 1.10628L3.08864 1.00003L3.18953 0.898219L3.29044 0.796422L3.274 0.770344L3.25755 0.744281L3.23148 0.727828L3.20541 0.711391L3.10361 0.812297L3.0018 0.913188L2.89555 0.80775L2.78928 0.702313L2.75184 0.742172ZM4.75184 0.742172L4.71439 0.782047L4.81906 0.887516L4.92373 0.993L4.81456 1.10134L4.70538 1.20967L4.74745 1.25359L4.78953 1.2975L4.89984 1.18792L5.01016 1.07834L5.11483 1.18303L5.2195 1.2877L5.25952 1.25013L5.29952 1.21255L5.19408 1.10628L5.08864 1.00003L5.18953 0.898219L5.29044 0.796422L5.274 0.770344L5.25755 0.744281L5.23148 0.727828L5.20541 0.711391L5.10361 0.812297L5.0018 0.913188L4.89555 0.80775L4.78928 0.702313L4.75184 0.742172ZM6.75184 0.742172L6.71439 0.782047L6.81906 0.887516L6.92373 0.993L6.81456 1.10134L6.70538 1.20967L6.74745 1.25359L6.78953 1.2975L6.89984 1.18792L7.01016 1.07834L7.11483 1.18303L7.2195 1.2877L7.25952 1.25013L7.29952 1.21255L7.19408 1.10628L7.08864 1.00003L7.18953 0.898219L7.29044 0.796422L7.274 0.770344L7.25755 0.744281L7.23148 0.727828L7.20541 0.711391L7.10361 0.812297L7.0018 0.913188L6.89555 0.80775L6.78928 0.702313L6.75184 0.742172ZM4.38073 4.37905L0.783078 7.9768V7.98839V8H0.857313H0.931547L4.46669 4.46483L8.00183 0.929656V0.855453V0.78125L7.99011 0.781281L7.97839 0.781313L4.38073 4.37905ZM4.53698 4.53531L1.09558 7.9768V7.98841V8H1.16981H1.24405L4.62294 4.62108L8.00183 1.24216V1.16795V1.09375L7.99011 1.09378L7.97839 1.09381L4.53698 4.53531ZM0.751844 2.74217L0.714391 2.78205L0.819063 2.88752L0.923734 2.993L0.814562 3.10134L0.705375 3.20967L0.747453 3.25359L0.789531 3.2975L0.899844 3.18792L1.01016 3.07834L1.11483 3.18303L1.2195 3.2877L1.25952 3.25012L1.29952 3.21255L1.19408 3.10628L1.08864 3.00003L1.18953 2.89822L1.29044 2.79642L1.274 2.77034L1.25755 2.74428L1.23148 2.72783L1.20541 2.71139L1.10361 2.8123L1.0018 2.91319L0.895547 2.80775L0.789281 2.70231L0.751844 2.74217ZM2.75184 2.74217L2.71439 2.78205L2.81906 2.88752L2.92373 2.993L2.81456 3.10134L2.70537 3.20967L2.74745 3.25359L2.78953 3.2975L2.89984 3.18792L3.01016 3.07834L3.11483 3.18303L3.2195 3.2877L3.25952 3.25012L3.29952 3.21255L3.19408 3.10628L3.08864 3.00003L3.18953 2.89822L3.29044 2.79642L3.274 2.77034L3.25755 2.74428L3.23148 2.72783L3.20541 2.71139L3.10361 2.8123L3.0018 2.91319L2.89555 2.80775L2.78928 2.70231L2.75184 2.74217ZM4.75184 2.74217L4.71439 2.78205L4.81906 2.88752L4.92373 2.993L4.81456 3.10134L4.70538 3.20967L4.74745 3.25359L4.78953 3.2975L4.89984 3.18792L5.01016 3.07834L5.11483 3.18303L5.2195 3.2877L5.25952 3.25012L5.29952 3.21255L5.19408 3.10628L5.08864 3.00003L5.18953 2.89822L5.29044 2.79642L5.274 2.77034L5.25755 2.74428L5.23148 2.72783L5.20541 2.71139L5.10361 2.8123L5.0018 2.91319L4.89555 2.80775L4.78928 2.70231L4.75184 2.74217ZM6.75184 2.74217L6.71439 2.78205L6.81906 2.88752L6.92373 2.993L6.81456 3.10134L6.70538 3.20967L6.74745 3.25359L6.78953 3.2975L6.89984 3.18792L7.01016 3.07834L7.11483 3.18303L7.2195 3.2877L7.25952 3.25012L7.29952 3.21255L7.19408 3.10628L7.08864 3.00003L7.18953 2.89822L7.29044 2.79642L7.274 2.77034L7.25755 2.74428L7.23148 2.72783L7.20541 2.71139L7.10361 2.8123L7.0018 2.91319L6.89555 2.80775L6.78928 2.70231L6.75184 2.74217ZM5.38073 5.37905L2.78308 7.97678V7.98839V8H2.85731H2.93155L5.46669 5.46483L8.00183 2.92966V2.85545V2.78125L7.99011 2.78128L7.97839 2.7813L5.38073 5.37905ZM5.53698 5.5353L3.09558 7.9768V7.98841V8H3.16981H3.24405L5.62294 5.62108L8.00183 3.24216V3.16795V3.09375L7.99011 3.09378L7.97839 3.0938L5.53698 5.5353ZM0.751844 4.74217L0.714391 4.78205L0.819063 4.88752L0.923734 4.993L0.814562 5.10134L0.705375 5.20967L0.747453 5.25359L0.789531 5.2975L0.899844 5.18792L1.01016 5.07834L1.11483 5.18303L1.2195 5.2877L1.25952 5.25012L1.29952 5.21255L1.19408 5.10628L1.08864 5.00003L1.18953 4.89822L1.29044 4.79642L1.274 4.77034L1.25755 4.74428L1.23148 4.72783L1.20541 4.71139L1.10361 4.8123L1.0018 4.91319L0.895547 4.80775L0.789281 4.70231L0.751844 4.74217ZM2.75184 4.74217L2.71439 4.78205L2.81906 4.88752L2.92373 4.993L2.81456 5.10134L2.70537 5.20967L2.74745 5.25359L2.78953 5.2975L2.89984 5.18792L3.01016 5.07834L3.11483 5.18303L3.2195 5.2877L3.25952 5.25012L3.29952 5.21255L3.19408 5.10628L3.08864 5.00003L3.18953 4.89822L3.29044 4.79642L3.274 4.77034L3.25755 4.74428L3.23148 4.72783L3.20541 4.71139L3.10361 4.8123L3.0018 4.91319L2.89555 4.80775L2.78928 4.70231L2.75184 4.74217ZM4.75184 4.74217L4.71439 4.78205L4.81906 4.88752L4.92373 4.993L4.81456 5.10134L4.70538 5.20967L4.74745 5.25359L4.78953 5.2975L4.89984 5.18792L5.01016 5.07834L5.11483 5.18303L5.2195 5.2877L5.25952 5.25012L5.29952 5.21255L5.19408 5.10628L5.08864 5.00003L5.18953 4.89822L5.29044 4.79642L5.274 4.77034L5.25755 4.74428L5.23148 4.72783L5.20541 4.71139L5.10361 4.8123L5.0018 4.91319L4.89555 4.80775L4.78928 4.70231L4.75184 4.74217ZM6.75184 4.74217L6.71439 4.78205L6.81906 4.88752L6.92373 4.993L6.81456 5.10134L6.70538 5.20967L6.74745 5.25359L6.78953 5.2975L6.89984 5.18792L7.01016 5.07834L7.11483 5.18303L7.2195 5.2877L7.25952 5.25012L7.29952 5.21255L7.19408 5.10628L7.08864 5.00003L7.18953 4.89822L7.29044 4.79642L7.274 4.77034L7.25755 4.74428L7.23148 4.72783L7.20541 4.71139L7.10361 4.8123L7.0018 4.91319L6.89555 4.80775L6.78928 4.70231L6.75184 4.74217ZM6.38073 6.37903L4.78308 7.97677V7.98839V8H4.85733H4.93158L6.4667 6.46481L8.00183 4.92963V4.85544V4.78125L7.99011 4.78127L7.97839 4.78128L6.38073 6.37903ZM6.53698 6.5353L5.09558 7.9768V7.98839V8H5.16983H5.24408L6.62295 6.62106L8.00183 5.24213V5.16794V5.09375L7.99011 5.09377L7.97839 5.09378L6.53698 6.5353ZM0.751844 6.74217L0.714391 6.78205L0.819063 6.88752L0.923734 6.993L0.814562 7.10134L0.705375 7.20967L0.747453 7.25359L0.789531 7.2975L0.899844 7.18792L1.01016 7.07834L1.11483 7.18303L1.2195 7.2877L1.25952 7.25012L1.29952 7.21255L1.19408 7.10628L1.08864 7.00003L1.18953 6.89822L1.29044 6.79642L1.274 6.77034L1.25755 6.74428L1.23148 6.72783L1.20541 6.71139L1.10361 6.8123L1.0018 6.91319L0.895547 6.80775L0.789281 6.70231L0.751844 6.74217ZM2.75184 6.74217L2.71439 6.78205L2.81906 6.88752L2.92373 6.993L2.81456 7.10134L2.70537 7.20967L2.74745 7.25359L2.78953 7.2975L2.89984 7.18792L3.01016 7.07834L3.11483 7.18303L3.2195 7.2877L3.25952 7.25012L3.29952 7.21255L3.19408 7.10628L3.08864 7.00003L3.18953 6.89822L3.29044 6.79642L3.274 6.77034L3.25755 6.74428L3.23148 6.72783L3.20541 6.71139L3.10361 6.8123L3.0018 6.91319L2.89555 6.80775L2.78928 6.70231L2.75184 6.74217ZM4.75184 6.74217L4.71439 6.78205L4.81906 6.88752L4.92373 6.993L4.81456 7.10134L4.70538 7.20967L4.74745 7.25359L4.78953 7.2975L4.89984 7.18792L5.01016 7.07834L5.11483 7.18303L5.2195 7.2877L5.25952 7.25012L5.29952 7.21255L5.19408 7.10628L5.08864 7.00003L5.18953 6.89822L5.29044 6.79642L5.274 6.77034L5.25755 6.74428L5.23148 6.72783L5.20541 6.71139L5.10361 6.8123L5.0018 6.91319L4.89555 6.80775L4.78928 6.70231L4.75184 6.74217ZM6.75184 6.74217L6.71439 6.78205L6.81906 6.88752L6.92373 6.993L6.81456 7.10134L6.70538 7.20967L6.74745 7.25359L6.78953 7.2975L6.89984 7.18792L7.01016 7.07834L7.11483 7.18303L7.2195 7.2877L7.25952 7.25012L7.29952 7.21255L7.19408 7.10628L7.08864 7.00003L7.18953 6.89822L7.29044 6.79642L7.274 6.77034L7.25755 6.74428L7.23148 6.72783L7.20541 6.71139L7.10361 6.8123L7.0018 6.91319L6.89555 6.80775L6.78928 6.70231L6.75184 6.74217ZM7.38066 7.37898L6.78308 7.97672V7.98836V8H6.85722H6.93134L7.46659 7.46492L8.00183 6.92986V6.85555V6.78125H7.99003H7.97823L7.38066 7.37898ZM7.53688 7.53525L7.09558 7.97677V7.98838V8H7.16992H7.24425L7.62305 7.62097L8.00183 7.24195V7.16784V7.09375H7.99H7.97819L7.53688 7.53525Z" fill="black" style="fill:black;fill-opacity:1;"/>
</svg>
