<svg width="8" height="8" viewBox="0 0 8 8" fill="none" xmlns="http://www.w3.org/2000/svg">
<g clip-path="url(#clip0_2139_1761)">
<path fill-rule="evenodd" clip-rule="evenodd" d="M5.49677 1.88037L7.28046 3.66412L8 2.94458V3.36682L7.48389 3.88293L7.49158 3.89062L5.50439 5.87775L7.28046 7.65387L8 6.93433V7.35651L7.48383 7.87268L7.49158 7.88037L7.37195 8H6.94965L7.06927 7.88037L3.27539 4.08636L1.49164 5.87012L3.62152 8H2.92926L3.06427 7.86499L1.28052 6.08124L0 7.36176V6.93951L3.06427 3.87524L1.28052 2.09149L0 3.37201V2.94983L2.94977 0H3.60095L5.27789 1.677L6.9549 0H7.37714L5.49677 1.88037ZM1.49164 1.88037L5.27795 5.66669L7.06165 3.883L3.27539 0.0966187L1.49164 1.88037Z" fill="black" style="fill:black;fill-opacity:1;"/>
</g>
<defs>
<clipPath id="clip0_2139_1761">
<rect width="8" height="8" fill="white" style="fill:white;fill-opacity:1;"/>
</clipPath>
</defs>
</svg>
