<svg width="8" height="8" viewBox="0 0 8 8" fill="none" xmlns="http://www.w3.org/2000/svg">
<g clip-path="url(#clip0_2139_1765)">
<path d="M1.63983 7.8183C1.67101 7.78603 1.72249 7.78517 1.75476 7.81635C1.78701 7.84752 1.78787 7.89895 1.75671 7.93121L1.69024 8H1.26947L1.20807 7.94067C1.1758 7.90949 1.17493 7.85801 1.20611 7.82574C1.23729 7.79349 1.28871 7.79263 1.32098 7.82379L1.48309 7.98047L1.63983 7.8183Z" fill="black" style="fill:black;fill-opacity:1;"/>
<path d="M7.70691 7.59772C7.73809 7.56545 7.78956 7.56458 7.82184 7.59576C7.85408 7.62695 7.85496 7.67837 7.82379 7.71063L7.66711 7.8728L7.79876 8H7.56494L7.5542 7.98962L7.54419 8H7.31823L7.43731 7.87671L7.27514 7.72003C7.2429 7.68885 7.24202 7.63743 7.27319 7.60516C7.30437 7.5729 7.35579 7.57203 7.38806 7.60321L7.55023 7.75983L7.70691 7.59772Z" fill="black" style="fill:black;fill-opacity:1;"/>
<path d="M4.37518 6.82172C4.40636 6.78945 4.45784 6.78858 4.49011 6.81976C4.52236 6.85095 4.52323 6.90237 4.49206 6.93463L4.33538 7.0968L4.49756 7.25348C4.52981 7.28465 4.53072 7.33608 4.49957 7.36835C4.46839 7.40062 4.41691 7.40154 4.38464 7.37036L4.22247 7.21362L4.06579 7.37585C4.03461 7.40812 3.98313 7.40899 3.95086 7.37781C3.91861 7.34663 3.91774 7.29521 3.94891 7.26294L4.10559 7.10071L3.94342 6.94403C3.91117 6.91285 3.91029 6.86143 3.94146 6.82916C3.97264 6.79689 4.02406 6.79603 4.05633 6.82721L4.2185 6.98383L4.37518 6.82172Z" fill="black" style="fill:black;fill-opacity:1;"/>
<path d="M5.86651 6.60858C5.89769 6.57632 5.94911 6.5754 5.98138 6.60657C6.01365 6.63775 6.01451 6.68923 5.98333 6.7215L5.82666 6.88361L5.98889 7.04034C6.02114 7.07153 6.02201 7.12295 5.99084 7.15521C5.95966 7.18748 5.90824 7.18834 5.87597 7.15717L5.71374 7.00043L5.55706 7.16266C5.52589 7.19492 5.47447 7.19583 5.4422 7.16467C5.40993 7.13349 5.409 7.08201 5.44018 7.04974L5.59686 6.88751L5.43475 6.7309C5.40248 6.69972 5.40162 6.6483 5.4328 6.61603C5.46398 6.58376 5.5154 6.58284 5.54767 6.61401L5.70977 6.77069L5.86651 6.60858Z" fill="black" style="fill:black;fill-opacity:1;"/>
<path d="M2.34637 6.38049C2.37755 6.34823 2.42897 6.34737 2.46124 6.37854C2.4935 6.40972 2.49442 6.46114 2.46325 6.49341L2.30652 6.65552L2.46875 6.81226C2.50102 6.84344 2.50188 6.89491 2.4707 6.92719C2.43952 6.95944 2.3881 6.96031 2.35583 6.92914L2.1936 6.7724L2.03692 6.93463C2.00574 6.96689 1.95432 6.96776 1.92205 6.93658C1.88979 6.9054 1.88892 6.85398 1.9201 6.82172L2.07672 6.65948L1.91461 6.50287C1.88234 6.47169 1.88148 6.42021 1.91266 6.38794C1.94384 6.35568 1.99526 6.35481 2.02752 6.38599L2.18969 6.5426L2.34637 6.38049Z" fill="black" style="fill:black;fill-opacity:1;"/>
<path d="M0.786618 5.47034C0.817798 5.43807 0.869217 5.43721 0.901486 5.46838C0.933748 5.49956 0.934666 5.55098 0.9035 5.58325L0.746762 5.74536L0.908993 5.9021C0.941256 5.93328 0.942114 5.9847 0.910946 6.01697C0.87977 6.04923 0.82835 6.05015 0.796078 6.01898L0.633847 5.86224L0.47717 6.02448C0.445989 6.05673 0.394569 6.0576 0.362301 6.02643C0.330037 5.99525 0.329126 5.94383 0.360287 5.91156L0.516964 5.74933L0.354855 5.59265C0.322595 5.56147 0.321726 5.51005 0.352902 5.47778C0.384083 5.44553 0.435504 5.44465 0.46777 5.47583L0.62988 5.63245L0.786618 5.47034Z" fill="black" style="fill:black;fill-opacity:1;"/>
<path d="M6.47479 5.46283C6.50597 5.43056 6.55739 5.4297 6.58966 5.46088C6.62192 5.49206 6.62285 5.54347 6.59167 5.57574L6.43493 5.73785L6.59716 5.89459C6.62943 5.92577 6.63029 5.97719 6.59912 6.00946C6.56794 6.04173 6.51652 6.04265 6.48425 6.01147L6.32202 5.85474L6.16534 6.01697C6.13416 6.04922 6.08274 6.05009 6.05047 6.01892C6.01821 5.98774 6.01734 5.93632 6.04852 5.90405L6.2052 5.74182L6.04303 5.58514C6.01077 5.55396 6.0099 5.50254 6.04107 5.47028C6.07225 5.43801 6.12367 5.43714 6.15594 5.46832L6.31811 5.62494L6.47479 5.46283Z" fill="black" style="fill:black;fill-opacity:1;"/>
<path d="M2.35388 5.26337C2.38506 5.2311 2.43654 5.23018 2.46881 5.26135C2.50108 5.29253 2.50194 5.34401 2.47076 5.37628L2.31408 5.53839L2.47625 5.69513C2.50852 5.7263 2.50943 5.77773 2.47827 5.81C2.44709 5.84227 2.39561 5.84319 2.36334 5.81201L2.20117 5.65527L2.04449 5.8175C2.01331 5.84977 1.96183 5.85064 1.92956 5.81946C1.8973 5.78828 1.89644 5.73686 1.92761 5.70459L2.08429 5.54236L1.92212 5.38568C1.88987 5.3545 1.889 5.30308 1.92016 5.27081C1.95133 5.23855 2.00276 5.23765 2.03503 5.2688L2.1972 5.42548L2.35388 5.26337Z" fill="black" style="fill:black;fill-opacity:1;"/>
<path d="M4.82397 5.24219C4.85515 5.20994 4.90658 5.20907 4.93884 5.24023C4.97111 5.27141 4.97197 5.32283 4.94079 5.3551L4.78412 5.51721L4.94635 5.67401C4.97859 5.70519 4.97947 5.75662 4.9483 5.78888C4.91712 5.82114 4.8657 5.82201 4.83343 5.79083L4.6712 5.63409L4.51452 5.79633C4.48335 5.82859 4.43193 5.82949 4.39965 5.79834C4.36738 5.76716 4.36646 5.71568 4.39764 5.68341L4.55432 5.52118L4.39221 5.36456C4.35994 5.33338 4.35908 5.2819 4.39026 5.24963C4.42144 5.21739 4.47286 5.21651 4.50512 5.24768L4.66723 5.40436L4.82397 5.24219Z" fill="black" style="fill:black;fill-opacity:1;"/>
<path d="M1.44879 4.6015C1.47997 4.56926 1.53139 4.56838 1.56366 4.59955C1.59592 4.63073 1.59679 4.68215 1.56561 4.71442L1.40893 4.87653L1.57116 5.03333C1.60341 5.06451 1.60429 5.11593 1.57312 5.14819C1.54194 5.18046 1.49052 5.18132 1.45825 5.15015L1.29602 4.99341L1.13934 5.15564C1.10817 5.1879 1.05674 5.18881 1.02447 5.15765C0.992201 5.12647 0.991278 5.075 1.02246 5.04272L1.17913 4.88049L1.01703 4.72388C0.984755 4.6927 0.983832 4.64122 1.01501 4.60895C1.04619 4.57668 1.09767 4.57582 1.12994 4.60699L1.29205 4.76367L1.44879 4.6015Z" fill="black" style="fill:black;fill-opacity:1;"/>
<path d="M5.87402 4.59406C5.9052 4.56179 5.95668 4.56086 5.98895 4.59204C6.02122 4.62322 6.02208 4.6747 5.9909 4.70697L5.83423 4.86908L5.9964 5.02582C6.02866 5.05699 6.02957 5.10841 5.99841 5.14069C5.96723 5.17296 5.91575 5.17382 5.88348 5.14264L5.72131 4.9859L5.56463 5.14813C5.53345 5.1804 5.48197 5.18132 5.4497 5.15015C5.41744 5.11897 5.41657 5.06749 5.44775 5.03522L5.60443 4.87299L5.44232 4.71637C5.41005 4.68519 5.40914 4.63377 5.4403 4.6015C5.47148 4.56923 5.52296 4.56831 5.55523 4.59949L5.71734 4.75616L5.87402 4.59406Z" fill="black" style="fill:black;fill-opacity:1;"/>
<path d="M6.82489 3.9361C6.85607 3.90384 6.90749 3.90297 6.93975 3.93414C6.97201 3.96532 6.97288 4.01674 6.94171 4.04901L6.78503 4.21112L6.94726 4.36786C6.97952 4.39904 6.98039 4.45052 6.94922 4.48279C6.91804 4.51504 6.86662 4.5159 6.83435 4.48474L6.67212 4.328L6.51544 4.49023C6.48426 4.5225 6.43284 4.52336 6.40057 4.49219C6.3683 4.46101 6.36739 4.40959 6.39856 4.37732L6.55523 4.21509L6.39312 4.05841C6.36086 4.02723 6.35994 3.97581 6.39111 3.94354C6.42229 3.91127 6.47377 3.91041 6.50604 3.94159L6.66815 4.09821L6.82489 3.9361Z" fill="black" style="fill:black;fill-opacity:1;"/>
<path d="M0.794186 3.72296C0.825366 3.69069 0.876845 3.68983 0.909115 3.72101C0.94136 3.75219 0.942238 3.80361 0.911068 3.83588L0.75433 3.99799L0.916562 4.15472C0.94883 4.1859 0.949693 4.23732 0.918515 4.26959C0.887336 4.30186 0.835918 4.30278 0.803647 4.27161L0.641415 4.11487L0.484738 4.2771C0.453556 4.30935 0.402134 4.31022 0.36987 4.27905C0.337608 4.24787 0.33674 4.19645 0.367917 4.16418L0.524594 4.00195L0.362423 3.84528C0.330174 3.81409 0.329297 3.76267 0.36047 3.73041C0.391651 3.69814 0.443069 3.69728 0.475339 3.72845L0.637509 3.88507L0.794186 3.72296Z" fill="black" style="fill:black;fill-opacity:1;"/>
<path d="M4.38275 3.27429C4.41393 3.24203 4.46535 3.24116 4.49762 3.27234C4.52987 3.30352 4.53074 3.35494 4.49957 3.38721L4.34289 3.54932L4.50512 3.70605C4.53737 3.73723 4.53823 3.78866 4.50708 3.82092C4.4759 3.85319 4.42448 3.8541 4.39221 3.82294L4.22998 3.6662L4.0733 3.82843C4.04212 3.8607 3.9907 3.86155 3.95843 3.83038C3.92616 3.79921 3.92525 3.74779 3.95642 3.71552L4.11309 3.55328L3.95099 3.39661C3.91872 3.36543 3.9178 3.31401 3.94897 3.28174C3.98015 3.24947 4.03163 3.24861 4.0639 3.27979L4.22601 3.4364L4.38275 3.27429Z" fill="black" style="fill:black;fill-opacity:1;"/>
<path d="M3.46417 3.0462C3.49535 3.01393 3.54683 3.01307 3.5791 3.04425C3.61135 3.07543 3.61222 3.12685 3.58105 3.15912L3.42431 3.32123L3.58654 3.47797C3.61881 3.50914 3.61973 3.56063 3.58856 3.5929C3.55738 3.62517 3.5059 3.62603 3.47363 3.59485L3.3114 3.43811L3.15472 3.60034C3.12354 3.6326 3.07212 3.63347 3.03985 3.60229C3.0076 3.57111 3.00672 3.51969 3.0379 3.48743L3.19452 3.3252L3.03241 3.16858C3.00014 3.1374 2.99927 3.08592 3.03045 3.05365C3.06163 3.02139 3.11305 3.02052 3.14532 3.0517L3.30749 3.20831L3.46417 3.0462Z" fill="black" style="fill:black;fill-opacity:1;"/>
<path d="M2.3388 2.25586C2.36998 2.22361 2.4214 2.22274 2.45367 2.25391C2.48593 2.28508 2.48684 2.3365 2.45569 2.36877L2.29895 2.53094L2.46118 2.68768C2.49343 2.71886 2.4943 2.77029 2.46313 2.80255C2.43195 2.83481 2.38053 2.83568 2.34826 2.8045L2.18603 2.64777L2.02935 2.81C1.99818 2.84226 1.94676 2.84317 1.91449 2.81201C1.88222 2.78083 1.88135 2.72935 1.91253 2.69708L2.06915 2.53485L1.90704 2.37823C1.87477 2.34705 1.87391 2.29558 1.90509 2.26331C1.93627 2.23106 1.98769 2.23018 2.01996 2.26135L2.18206 2.41803L2.3388 2.25586Z" fill="black" style="fill:black;fill-opacity:1;"/>
<path d="M7.49371 2.03528C7.52489 2.00301 7.57631 2.00215 7.60858 2.03333C7.64084 2.0645 7.64176 2.11592 7.61059 2.14819L7.45385 2.3103L7.61609 2.46704C7.64835 2.49822 7.64921 2.54964 7.61804 2.58191C7.58686 2.61418 7.53544 2.61509 7.50317 2.58392L7.34094 2.42719L7.18426 2.58942C7.15308 2.62168 7.10166 2.62254 7.06939 2.59137C7.03713 2.5602 7.03622 2.50877 7.06738 2.4765L7.22406 2.31427L7.06195 2.15759C7.02969 2.12641 7.02882 2.07499 7.05999 2.04272C7.09118 2.01047 7.1426 2.0096 7.17486 2.04077L7.33697 2.19739L7.49371 2.03528Z" fill="black" style="fill:black;fill-opacity:1;"/>
<path d="M3.94885 2.02783C3.98003 1.99556 4.03151 1.99464 4.06378 2.02582C4.09605 2.057 4.09691 2.10848 4.06573 2.14075L3.90905 2.30286L4.07122 2.45959C4.10349 2.49077 4.1044 2.54219 4.07324 2.57446C4.04206 2.60673 3.99058 2.60759 3.95831 2.57642L3.79614 2.41974L3.63946 2.58191C3.60828 2.61418 3.5568 2.6151 3.52453 2.58392C3.49226 2.55274 3.4914 2.50126 3.52258 2.46899L3.67926 2.30682L3.51709 2.15015C3.48483 2.11897 3.48397 2.06755 3.51513 2.03528C3.54631 2.00302 3.59773 2.00211 3.63 2.03326L3.79217 2.18994L3.94885 2.02783Z" fill="black" style="fill:black;fill-opacity:1;"/>
<path d="M6.61169 1.39435C6.64287 1.36208 6.69429 1.36122 6.72656 1.3924C6.75882 1.42357 6.75974 1.47499 6.72857 1.50726L6.57184 1.66937L6.73407 1.82611C6.76633 1.85729 6.76719 1.90871 6.73602 1.94098C6.70484 1.97325 6.65342 1.97416 6.62115 1.94299L6.45892 1.78625L6.30224 1.94849C6.27106 1.98075 6.21964 1.98161 6.18737 1.95044C6.15511 1.91927 6.1542 1.86784 6.18536 1.83557L6.34204 1.67334L6.17993 1.51666C6.14767 1.48548 6.1468 1.43406 6.17798 1.40179C6.20916 1.36953 6.26058 1.36866 6.29284 1.39984L6.45495 1.55646L6.61169 1.39435Z" fill="black" style="fill:black;fill-opacity:1;"/>
<path d="M1.66937 1.18866C1.70055 1.15639 1.75203 1.15553 1.7843 1.18671C1.81655 1.21789 1.81742 1.26931 1.78625 1.30157L1.62957 1.46375L1.79174 1.62042C1.824 1.65159 1.82491 1.70302 1.79376 1.73529C1.76258 1.76756 1.7111 1.76848 1.67883 1.7373L1.51666 1.58057L1.35998 1.7428C1.3288 1.77507 1.27732 1.77593 1.24505 1.74475C1.2128 1.71357 1.21193 1.66215 1.2431 1.62988L1.39978 1.46765L1.23761 1.31097C1.20536 1.27979 1.20448 1.22837 1.23565 1.19611C1.26683 1.16384 1.31825 1.16298 1.35052 1.19415L1.51269 1.35077L1.66937 1.18866Z" fill="black" style="fill:black;fill-opacity:1;"/>
<path d="M2.99304 1.18121C3.02422 1.14895 3.07564 1.14808 3.10791 1.17926C3.14016 1.21044 3.14108 1.26186 3.10992 1.29413L2.95318 1.45624L3.11541 1.61298C3.14767 1.64415 3.14853 1.69558 3.11737 1.72784C3.08619 1.76011 3.03477 1.76102 3.0025 1.72986L2.84027 1.57312L2.68359 1.73535C2.65241 1.76761 2.60099 1.76848 2.56872 1.7373C2.53646 1.70613 2.53554 1.65471 2.56671 1.62244L2.72339 1.46021L2.56128 1.30353C2.52901 1.27235 2.52815 1.22093 2.55932 1.18866C2.5905 1.1564 2.64193 1.15553 2.67419 1.18671L2.8363 1.34332L2.99304 1.18121Z" fill="black" style="fill:black;fill-opacity:1;"/>
<path d="M6.48236 0.335327C6.51354 0.303068 6.56496 0.302198 6.59723 0.333374C6.62948 0.364555 6.63035 0.415975 6.59918 0.448242L6.4425 0.610352L6.60473 0.76709C6.63699 0.798265 6.63784 0.84969 6.60669 0.881958C6.57551 0.914222 6.52409 0.915133 6.49182 0.883972L6.32959 0.727234L6.17291 0.889465C6.14173 0.921729 6.09031 0.922587 6.05804 0.891418C6.02577 0.860242 6.02486 0.808822 6.05603 0.77655L6.2127 0.614319L6.05059 0.457642C6.01833 0.426465 6.01741 0.375044 6.04858 0.342773C6.07976 0.310504 6.13124 0.309641 6.16351 0.34082L6.32562 0.497437L6.48236 0.335327Z" fill="black" style="fill:black;fill-opacity:1;"/>
<path d="M3.20623 0.327881C3.23741 0.295618 3.28883 0.294706 3.3211 0.325867C3.35337 0.357046 3.35429 0.408526 3.32312 0.440796L3.16638 0.602905L3.32861 0.759644C3.36087 0.790824 3.36174 0.842245 3.33056 0.874512C3.29938 0.90678 3.24796 0.907642 3.21569 0.876465L3.05346 0.719727L2.89679 0.881958C2.86561 0.914225 2.81419 0.91514 2.78192 0.883972C2.74965 0.852792 2.74872 0.801314 2.7799 0.769043L2.93658 0.606812L2.77447 0.450195C2.7422 0.419015 2.74134 0.367597 2.77252 0.335327C2.8037 0.303062 2.85512 0.302144 2.88739 0.333313L3.0495 0.48999L3.20623 0.327881Z" fill="black" style="fill:black;fill-opacity:1;"/>
<path d="M1.60028 0.0935669L1.76245 0.250305C1.79471 0.281478 1.79562 0.332902 1.76446 0.365173C1.73328 0.397444 1.6818 0.398366 1.64953 0.367188L1.48736 0.210449L1.33069 0.372681C1.29951 0.404951 1.24803 0.405812 1.21576 0.374634C1.18351 0.343454 1.18264 0.292031 1.2138 0.259766L1.37048 0.0975342L1.26959 0H1.69073L1.60028 0.0935669Z" fill="black" style="fill:black;fill-opacity:1;"/>
<path d="M7.40521 0.1521C7.37403 0.18437 7.32255 0.185231 7.29028 0.154053C7.25802 0.122872 7.25715 0.071451 7.28833 0.0391846L7.32617 0H7.55212L7.40521 0.1521Z" fill="black" style="fill:black;fill-opacity:1;"/>
<path d="M7.83697 0.0297241C7.86923 0.0608962 7.87014 0.11232 7.83899 0.144592C7.80781 0.176863 7.75633 0.177785 7.72406 0.146606L7.57238 0H7.80621L7.83697 0.0297241Z" fill="black" style="fill:black;fill-opacity:1;"/>
</g>
<defs>
<clipPath id="clip0_2139_1765">
<rect width="8" height="8" fill="white" style="fill:white;fill-opacity:1;"/>
</clipPath>
</defs>
</svg>
