<svg width="8" height="8" viewBox="0 0 8 8" fill="none" xmlns="http://www.w3.org/2000/svg">
<g clip-path="url(#clip0_2139_1852)">
<path fill-rule="evenodd" clip-rule="evenodd" d="M0.00333223 3.99661L0.00665121 7.99322L0.148799 7.99661L0.290947 8V4V0H0.14548H0L0.00333223 3.99661ZM1.10085 3.99661L1.10417 7.99322H1.24301H1.38185L1.38517 3.99661L1.3885 0H1.24301H1.09752L1.10085 3.99661ZM2.19507 4V8L2.33722 7.99661L2.47937 7.99322L2.48269 3.99661L2.48602 0H2.34054H2.19507V4ZM3.29259 3.99959V7.99919H3.43143H3.57027V3.99959V0H3.43143H3.29259V3.99959ZM4.42977 4V8L4.57192 7.99661L4.71407 7.99322L4.71738 3.99661L4.72072 0H4.57524H4.42977V4ZM5.52729 3.99959V7.99919H5.66613H5.80497V3.99959V0H5.66613H5.52729V3.99959ZM6.6248 3.99959V7.99919H6.76364H6.90248V3.99959V0H6.76364H6.6248V3.99959ZM7.71239 3.99661L7.7157 7.99322L7.85785 7.99661L8 8V4V0H7.85453H7.70905L7.71239 3.99661Z" fill="black" style="fill:black;fill-opacity:1;"/>
</g>
<defs>
<clipPath id="clip0_2139_1852">
<rect width="8" height="8" fill="white" style="fill:white;fill-opacity:1;"/>
</clipPath>
</defs>
</svg>
