<svg width="8" height="8" viewBox="0 0 8 8" fill="none" xmlns="http://www.w3.org/2000/svg">
<path fill-rule="evenodd" clip-rule="evenodd" d="M2.8766 1.70921C3.81363 2.64928 5.34973 4.18536 6.29015 5.12273L8 6.82704V6.66068V6.49433L4.75281 3.24716L1.50564 0H1.33928H1.17292L2.8766 1.70921ZM5.24719 2.74642L7.99354 5.49282L7.99718 5.32841L8.00081 5.16401L5.41883 2.582L2.83686 0H2.66885H2.50083L5.24719 2.74642ZM6.57838 1.41524L7.99354 2.83049L7.99717 2.66608L8.00081 2.50167L6.75002 1.25083L5.49924 0H5.33123H5.16321L6.57838 1.41524ZM7.24398 0.749674L7.99354 1.49935L7.99717 1.32848L8.00079 1.1576L7.4221 0.578805L6.8434 0H6.66891H6.49442L7.24398 0.749674ZM0.322107 0.322107L0.28433 0.359884V0.409021V0.458158L0.88853 1.06357L1.49273 1.66899L1.52921 1.6883L1.5657 1.70762L1.6019 1.69967L1.63811 1.69171L1.66409 1.6633C1.67838 1.64768 1.69392 1.62224 1.6986 1.60676L1.70711 1.57864L1.68854 1.53568L1.66997 1.49273L1.06381 0.88853L0.457628 0.28433H0.408763H0.359884L0.322107 0.322107ZM4.33926 0.298288C4.32681 0.305538 4.30744 0.329254 4.29621 0.350979L4.27576 0.390501L4.28398 0.424659L4.29221 0.458805L4.90216 1.07048L5.51212 1.68213L5.54306 1.69445L5.574 1.70675L5.61631 1.69278L5.65862 1.67882L5.67907 1.64763L5.69952 1.61641V1.57411V1.5318L5.07577 0.908071L4.45205 0.28433L4.40695 0.284717C4.38216 0.284937 4.35169 0.291037 4.33926 0.298288ZM0 1.3393V1.50567L3.24719 4.75284L6.49436 8H6.6607H6.82704L5.12273 6.29015C4.18536 5.34973 2.64928 3.81363 1.70921 2.8766L0 1.17292V1.3393ZM2.33826 2.33826L2.30048 2.37604V2.42518V2.47431L2.90469 3.07973L3.50889 3.68514L3.54537 3.70445L3.58185 3.72377L3.61805 3.71583L3.65427 3.70786L3.68025 3.67946C3.69454 3.66383 3.71007 3.6384 3.71475 3.62291L3.72327 3.59479L3.7047 3.55183L3.68613 3.50889L3.07996 2.90469L2.47378 2.30048H2.42492H2.37604L2.33826 2.33826ZM6.35541 2.31444C6.34297 2.32169 6.32359 2.34541 6.31236 2.36713L6.29192 2.40666L6.30014 2.44081L6.30837 2.47496L6.91832 3.08663L7.52827 3.69829L7.55921 3.7106L7.59015 3.72291L7.63247 3.70894L7.67478 3.69498L7.69523 3.66378L7.71567 3.63257V3.59027V3.54795L7.09193 2.92423L6.4682 2.30048L6.42311 2.30087C6.39832 2.30109 6.36785 2.30719 6.35541 2.31444ZM0 2.66885V2.83686L2.582 5.41883L5.16401 8.00081L5.32841 7.99718L5.49282 7.99354L2.74642 5.24719L0 2.50083V2.66885ZM0.353202 4.29641L0.312207 4.31453L0.298275 4.34059C0.290598 4.35491 0.28433 4.38585 0.28433 4.40934V4.45205L0.908071 5.07577L1.5318 5.69952H1.5745C1.63126 5.69952 1.66267 5.68115 1.68728 5.63356L1.70762 5.59424L1.69992 5.55917L1.69221 5.5241L1.0755 4.90815L0.458805 4.2922L0.426494 4.28525L0.394184 4.27829L0.353202 4.29641ZM4.36834 4.28703C4.33656 4.29873 4.30153 4.33397 4.28892 4.36697L4.27709 4.39791L4.29046 4.43842L4.30383 4.47893L4.91501 5.08923L5.5262 5.69952H5.57508H5.62396L5.66174 5.66174L5.69952 5.62396V5.57482V5.52569L5.09532 4.92027L4.49111 4.31486L4.45622 4.29636C4.41983 4.27708 4.40089 4.27506 4.36834 4.28703ZM0 5.33123V5.49924L1.25083 6.75002L2.50167 8.00081L2.66608 7.99717L2.83049 7.99354L1.41524 6.57838L0 5.16321V5.33123ZM2.3622 6.31364C2.31835 6.33809 2.30048 6.37046 2.30048 6.4255V6.4682L2.92423 7.09193L3.54795 7.71567H3.59066C3.64742 7.71567 3.67882 7.69731 3.70343 7.64972L3.72377 7.61039L3.71607 7.57533L3.70837 7.54025L3.09166 6.92383L2.47496 6.30741L2.43619 6.3007L2.39742 6.29401L2.3622 6.31364ZM6.38449 6.30315C6.37383 6.30705 6.35232 6.32186 6.3367 6.33606L6.30829 6.36189L6.30033 6.3981L6.29238 6.4343L6.31165 6.47079L6.33091 6.50727L6.93663 7.11147L7.54237 7.71567H7.59124H7.64012L7.67789 7.67789L7.71567 7.64012V7.59098V7.54184L7.11147 6.93643L6.50727 6.33101L6.47237 6.31252C6.43601 6.29325 6.4171 6.29123 6.38449 6.30315ZM0 6.66891V6.8434L0.578805 7.4221L1.1576 8.00079L1.32848 7.99717L1.49935 7.99354L0.749674 7.24398L0 6.49442V6.66891Z" fill="black" style="fill:black;fill-opacity:1;"/>
</svg>
