<svg width="8" height="8" viewBox="0 0 8 8" fill="none" xmlns="http://www.w3.org/2000/svg">
<path fill-rule="evenodd" clip-rule="evenodd" d="M0.164772 0.104847V0.164772H0.104847H0.0449219V0.202225V0.239678H0.104847H0.164772V0.299604V0.359529H0.202225H0.239678V0.299604V0.239678H0.299604H0.359529V0.202225V0.164772H0.299604H0.239678V0.104847V0.0449219H0.202225H0.164772V0.104847ZM0.569266 0.103993V0.163049L0.505596 0.167663L0.441926 0.172263V0.202225V0.232188L0.505596 0.236787L0.569266 0.241401V0.300457V0.359529H0.599229H0.629192V0.299604V0.239678H0.696607H0.764023V0.202225V0.164772H0.696607H0.629192V0.104847V0.0449219H0.599229H0.569266V0.103993ZM0.973761 0.104847V0.164772H0.906345H0.838929V0.202225V0.239678H0.906345H0.973761V0.299604V0.359529H1.00372H1.03369V0.300457V0.241401L1.09736 0.236787L1.16103 0.232188V0.202225V0.172263L1.09736 0.167663L1.03369 0.163049V0.103993V0.0449219H1.00372H0.973761V0.104847ZM1.36327 0.104847V0.164772H1.30335H1.24342V0.202225V0.239678H1.30335H1.36327V0.299604V0.359529H1.40073H1.43818V0.299604V0.239678H1.49811H1.55803V0.202225V0.164772H1.49811H1.43818V0.104847V0.0449219H1.40073H1.36327V0.104847ZM1.76777 0.103993V0.163049L1.7041 0.167663L1.64043 0.172263V0.202225V0.232188L1.7041 0.236787L1.76777 0.241401V0.300457V0.359529H1.79773H1.82769V0.299604V0.239678H1.89511H1.96253V0.202225V0.164772H1.89511H1.82769V0.104847V0.0449219H1.79773H1.76777V0.103993ZM2.17226 0.104847V0.164772H2.10485H2.03743V0.202225V0.239678H2.10485H2.17226V0.299604V0.359529H2.20223H2.23219V0.300457V0.241401L2.29586 0.236787L2.35953 0.232188V0.202225V0.172263L2.29586 0.167663L2.23219 0.163049V0.103993V0.0449219H2.20223H2.17226V0.104847ZM2.56178 0.104847V0.164772H2.50185H2.44193V0.202225V0.239678H2.50185H2.56178V0.299604V0.359529H2.59923H2.63668V0.299604V0.239678H2.69661H2.75653V0.202225V0.164772H2.69661H2.63668V0.104847V0.0449219H2.59923H2.56178V0.104847ZM2.96627 0.103993V0.163049L2.9026 0.167663L2.83893 0.172263V0.202225V0.232188L2.9026 0.236787L2.96627 0.241401V0.300457V0.359529H3.00372H3.04118V0.299604V0.239678H3.1011H3.16103V0.202225V0.164772H3.1011H3.04118V0.104847V0.0449219H3.00372H2.96627V0.103993ZM3.37076 0.104847V0.164772H3.3023H3.23385L3.23863 0.19848L3.24342 0.232188L3.30709 0.236787L3.37076 0.241401V0.300457V0.359529H3.40073H3.43069V0.300457V0.241401L3.49436 0.236787L3.55803 0.232188L3.56282 0.19848L3.5676 0.164772H3.49915H3.43069V0.104847V0.0449219H3.40073H3.37076V0.104847ZM3.76028 0.104847V0.164772H3.70035H3.64043V0.202225V0.239678H3.70035H3.76028V0.299604V0.359529H3.79773H3.83518V0.299604V0.239678H3.89511H3.95503V0.202225V0.164772H3.89511H3.83518V0.104847V0.0449219H3.79773H3.76028V0.104847ZM4.16477 0.104847V0.164772H4.10485H4.04492V0.202225V0.239678H4.10485H4.16477V0.299604V0.359529H4.20223H4.23968V0.299604V0.239678H4.2996H4.35953V0.202225V0.164772H4.2996H4.23968V0.104847V0.0449219H4.20223H4.16477V0.104847ZM4.56927 0.104847V0.164772H4.5008H4.43235L4.43713 0.19848L4.44193 0.232188L4.5056 0.236787L4.56927 0.241401V0.300457V0.359529H4.59923H4.62919V0.300457V0.241401L4.69286 0.236787L4.75653 0.232188L4.76133 0.19848L4.76611 0.164772H4.69766H4.62919V0.104847V0.0449219H4.59923H4.56927V0.104847ZM4.95878 0.104847V0.164772H4.89885H4.83893V0.202225V0.239678H4.89885H4.95878V0.299604V0.359529H4.99623H5.03369V0.299604V0.239678H5.09361H5.15354V0.202225V0.164772H5.09361H5.03369V0.104847V0.0449219H4.99623H4.95878V0.104847ZM5.36327 0.104847V0.164772H5.30335H5.24342V0.202225V0.239678H5.30335H5.36327V0.299604V0.359529H5.40073H5.43818V0.299604V0.239678H5.49811H5.55803V0.202225V0.164772H5.49811H5.43818V0.104847V0.0449219H5.40073H5.36327V0.104847ZM5.76777 0.103993V0.163049L5.7041 0.167663L5.64043 0.172263V0.202225V0.232188L5.7041 0.236787L5.76777 0.241401V0.300457V0.359529H5.79773H5.82769V0.299604V0.239678H5.89511H5.96253V0.202225V0.164772H5.89511H5.82769V0.104847V0.0449219H5.79773H5.76777V0.103993ZM6.17226 0.104847V0.164772H6.10485H6.03743V0.202225V0.239678H6.10485H6.17226V0.299604V0.359529H6.20223H6.23219V0.300457V0.241401L6.29586 0.236787L6.35953 0.232188V0.202225V0.172263L6.29586 0.167663L6.23219 0.163049V0.103993V0.0449219H6.20223H6.17226V0.104847ZM6.56178 0.104847V0.164772H6.50185H6.44193V0.202225V0.239678H6.50185H6.56178V0.299604V0.359529H6.59923H6.63668V0.299604V0.239678H6.69661H6.75653V0.202225V0.164772H6.69661H6.63668V0.104847V0.0449219H6.59923H6.56178V0.104847ZM6.96627 0.103993V0.163049L6.9026 0.167663L6.83893 0.172263V0.202225V0.232188L6.9026 0.236787L6.96627 0.241401V0.300457V0.359529H6.99623H7.0262V0.299604V0.239678H7.09361H7.16103V0.202225V0.164772H7.09361H7.0262V0.104847V0.0449219H6.99623H6.96627V0.103993ZM7.37077 0.104847V0.164772H7.30335H7.23593V0.202225V0.239678H7.30335H7.37077V0.299604V0.359529H7.40073H7.43069V0.300457V0.241401L7.49436 0.236787L7.55803 0.232188V0.202225V0.172263L7.49436 0.167663L7.43069 0.163049V0.103993V0.0449219H7.40073H7.37077V0.104847ZM7.76028 0.104847V0.164772H7.70035H7.64043V0.202225V0.239678H7.70035H7.76028V0.299604V0.359529H7.79773H7.83518V0.299604V0.239678H7.89511H7.95503V0.202225V0.164772H7.89511H7.83518V0.104847V0.0449219H7.79773H7.76028V0.104847ZM0.175274 0.443903L0.164772 0.454405V0.511843V0.569266H0.104847H0.0449219V0.599229V0.629192H0.104847H0.164772V0.696607V0.764023H0.202225H0.239678V0.696607V0.629192H0.299604H0.359529V0.599229V0.569266H0.300457H0.241401L0.236787 0.505731L0.232188 0.44218L0.208982 0.437791L0.185776 0.433401L0.175274 0.443903ZM0.569266 0.501851V0.569266H0.501851H0.434435V0.599229V0.629192H0.501851H0.569266V0.696607V0.764023H0.598375H0.627469L0.632083 0.700353L0.636682 0.636682L0.700353 0.632083L0.764023 0.627469V0.598375V0.569266H0.696607H0.629192V0.501851V0.434435H0.599229H0.569266V0.501851ZM0.973761 0.501851V0.569266H0.906345H0.838929V0.598375V0.627469L0.9026 0.632083L0.96627 0.636682L0.970869 0.700353L0.975484 0.764023H1.00458H1.03369V0.696607V0.629192H1.1011H1.16852V0.599229V0.569266H1.1011H1.03369V0.501851V0.434435H1.00372H0.973761V0.501851ZM1.37378 0.443903L1.36327 0.454405V0.511843V0.569266H1.30335H1.24342V0.599229V0.629192H1.30335H1.36327V0.696607V0.764023H1.40073H1.43818V0.696607V0.629192H1.49811H1.55803V0.599229V0.569266H1.49896H1.4399L1.43529 0.505731L1.43069 0.44218L1.40748 0.437791L1.38428 0.433401L1.37378 0.443903ZM1.76777 0.500997V0.567544L1.70423 0.572158L1.64068 0.576757L1.63571 0.602974L1.63073 0.629192H1.69926H1.76777V0.696607V0.764023H1.79688H1.82597L1.83058 0.700353L1.83518 0.636682L1.89885 0.632083L1.96253 0.627469V0.598375V0.569266H1.89511H1.82769V0.501851V0.434435H1.79773H1.76777V0.500997ZM2.17226 0.501851V0.569266H2.10485H2.03743V0.598375V0.627469L2.1011 0.632083L2.16477 0.636682L2.16937 0.700353L2.17399 0.764023H2.20308H2.23219V0.696607V0.629192H2.2996H2.36702V0.599229V0.569266H2.2996H2.23219V0.501851V0.434435H2.20223H2.17226V0.501851ZM2.57228 0.443903L2.56178 0.454405V0.511843V0.569266H2.50185H2.44193V0.599229V0.629192H2.50185H2.56178V0.696607V0.764023H2.59923H2.63668V0.696607V0.629192H2.69661H2.75653V0.599229V0.569266H2.69746H2.63841L2.63379 0.505731L2.62919 0.44218L2.60599 0.437791L2.58278 0.433401L2.57228 0.443903ZM2.96627 0.499948V0.567544L2.90273 0.572158L2.83918 0.576757L2.83421 0.602974L2.82924 0.629192H2.89776H2.96627V0.697656V0.766105L2.99998 0.761326L3.03369 0.756532L3.03829 0.692862L3.0429 0.629192H3.10196H3.16103V0.599229V0.569266H3.10196H3.0429L3.03829 0.505596L3.03369 0.441926L2.99998 0.437132L2.96627 0.432353V0.499948ZM3.37076 0.501851V0.569266H3.30335H3.23593V0.599229V0.629192H3.30335H3.37076V0.696607V0.764023H3.40073H3.43069V0.696607V0.629192H3.49811H3.56552V0.599229V0.569266H3.49811H3.43069V0.501851V0.434435H3.40073H3.37076V0.501851ZM3.77027 0.444428L3.76028 0.454405V0.511843V0.569266H3.70035H3.64043V0.599229V0.629192H3.6995H3.75856L3.76317 0.692862L3.76777 0.756532L3.80148 0.761326L3.83518 0.766105V0.697656V0.629192H3.89511H3.95503V0.599229V0.569266H3.89511H3.83518V0.501851V0.434435H3.80772H3.78025L3.77027 0.444428ZM4.16477 0.500802V0.569266H4.10485H4.04492V0.599229V0.629192H4.10485H4.16477V0.697656V0.766105L4.19848 0.761326L4.23219 0.756532L4.23679 0.692862L4.2414 0.629192H4.30046H4.35953V0.599229V0.569266H4.30046H4.2414L4.23679 0.505596L4.23219 0.441926L4.19848 0.437132L4.16477 0.432353V0.500802ZM4.56927 0.501851V0.569266H4.50185H4.43444V0.599229V0.629192H4.50185H4.56927V0.696607V0.764023H4.59923H4.62919V0.696607V0.629192H4.69661H4.76402V0.599229V0.569266H4.69661H4.62919V0.501851V0.434435H4.59923H4.56927V0.501851ZM4.96877 0.444428L4.95878 0.454405V0.511843V0.569266H4.89885H4.83893V0.599229V0.629192H4.898H4.95706L4.96167 0.692862L4.96627 0.756532L4.99998 0.761326L5.03369 0.766105V0.697656V0.629192H5.09361H5.15354V0.599229V0.569266H5.09361H5.03369V0.501851V0.434435H5.00623H4.97875L4.96877 0.444428ZM5.37378 0.443903L5.36327 0.454405V0.511843V0.569266H5.30335H5.24342V0.599229V0.629192H5.30335H5.36327V0.696607V0.764023H5.40073H5.43818V0.696607V0.629192H5.49811H5.55803V0.599229V0.569266H5.49896H5.4399L5.43529 0.505731L5.43069 0.44218L5.40748 0.437791L5.38428 0.433401L5.37378 0.443903ZM5.76777 0.501851V0.569266H5.70035H5.63294V0.599229V0.629192H5.70035H5.76777V0.696607V0.764023H5.79688H5.82597L5.83059 0.700353L5.83518 0.636682L5.89885 0.632083L5.96253 0.627469V0.598375V0.569266H5.89511H5.82769V0.501851V0.434435H5.79773H5.76777V0.501851ZM6.17226 0.501851V0.569266H6.10485H6.03743V0.598375V0.627469L6.1011 0.632083L6.16477 0.636682L6.16937 0.700353L6.17399 0.764023H6.20308H6.23219V0.696607V0.629192H6.2996H6.36702V0.599229V0.569266H6.2996H6.23219V0.501851V0.434435H6.20223H6.17226V0.501851ZM6.57228 0.443903L6.56178 0.454405V0.511843V0.569266H6.50185H6.44193V0.599229V0.629192H6.50185H6.56178V0.696607V0.764023H6.59923H6.63668V0.696607V0.629192H6.69661H6.75653V0.599229V0.569266H6.69746H6.63841L6.63379 0.505731L6.62919 0.44218L6.60599 0.437791L6.58278 0.433401L6.57228 0.443903ZM6.96627 0.501851V0.569266H6.89885H6.83144V0.599229V0.629192H6.89885H6.96627V0.696607V0.764023H6.99538H7.02447L7.02909 0.700353L7.03369 0.636682L7.09736 0.632083L7.16103 0.627469V0.598375V0.569266H7.09361H7.0262V0.501851V0.434435H6.99623H6.96627V0.501851ZM7.37077 0.501851V0.569266H7.30335H7.23593V0.598375V0.627469L7.2996 0.632083L7.36327 0.636682L7.36787 0.700353L7.37249 0.764023H7.40158H7.43069V0.696607V0.629192H7.49811H7.56552V0.599229V0.569266H7.49811H7.43069V0.501851V0.434435H7.40073H7.37077V0.501851ZM7.77078 0.443903L7.76028 0.454405V0.511843V0.569266H7.70035H7.64043V0.599229V0.629192H7.70035H7.76028V0.696607V0.764023H7.79773H7.83518V0.696607V0.629192H7.89511H7.95503V0.599229V0.569266H7.89596H7.83691L7.83229 0.505731L7.82769 0.44218L7.80449 0.437791L7.78128 0.433401L7.77078 0.443903ZM0.164772 0.906345V0.973761H0.104847H0.0449219V1.00372V1.03369H0.103993H0.163049L0.167663 1.09736L0.172263 1.16103H0.202225H0.232188L0.236787 1.09736L0.241401 1.03369H0.300457H0.359529V1.00372V0.973761H0.299604H0.239678V0.906345V0.838929H0.202225H0.164772V0.906345ZM0.569266 0.906345V0.973761H0.501851H0.434435V1.00372V1.03369H0.501851H0.569266V1.1011V1.16852H0.599229H0.629192V1.1011V1.03369H0.696607H0.764023V1.00458V0.975484L0.700353 0.970869L0.636682 0.96627L0.632083 0.9026L0.627469 0.838929H0.598375H0.569266V0.906345ZM0.970869 0.9026L0.96627 0.96627L0.9026 0.970869L0.838929 0.975484V1.00458V1.03369H0.906345H0.973761V1.1011V1.16852H1.00372H1.03369V1.1011V1.03369H1.1011H1.16852V1.00372V0.973761H1.1011H1.03369V0.906345V0.838929H1.00458H0.975484L0.970869 0.9026ZM1.36327 0.906345V0.973761H1.30335H1.24342V1.00372V1.03369H1.3025H1.36155L1.36617 1.09736L1.37076 1.16103H1.40073H1.43069L1.43529 1.09736L1.4399 1.03369H1.49896H1.55803V1.00372V0.973761H1.49811H1.43818V0.906345V0.838929H1.40073H1.36327V0.906345ZM1.76777 0.906345V0.973761H1.69926H1.63073L1.63571 0.999978L1.64068 1.0262L1.70423 1.03079L1.76777 1.03541V1.10196V1.16852H1.79773H1.82769V1.1011V1.03369H1.89511H1.96253V1.00458V0.975484L1.89885 0.970869L1.83518 0.96627L1.83058 0.9026L1.82597 0.838929H1.79688H1.76777V0.906345ZM2.16937 0.9026L2.16477 0.96627L2.1011 0.970869L2.03743 0.975484V1.00458V1.03369H2.10485H2.17226V1.1011V1.16852H2.20223H2.23219V1.1011V1.03369H2.2996H2.36702V1.00372V0.973761H2.2996H2.23219V0.906345V0.838929H2.20308H2.17399L2.16937 0.9026ZM2.56178 0.906345V0.973761H2.50185H2.44193V1.00372V1.03369H2.501H2.56005L2.56467 1.09736L2.56927 1.16103H2.59923H2.62919L2.63379 1.09736L2.63841 1.03369H2.69746H2.75653V1.00372V0.973761H2.69661H2.63668V0.906345V0.838929H2.59923H2.56178V0.906345ZM2.96627 0.905296V0.973761H2.89776H2.82924L2.83421 0.999978L2.83918 1.0262L2.90191 1.03076L2.96462 1.03533L2.96919 1.09818L2.97376 1.16103H3.00372H3.03369L3.03829 1.09736L3.0429 1.03369H3.10196H3.16103V1.00372V0.973761H3.10196H3.0429L3.03829 0.91009L3.03369 0.84642L2.99998 0.841626L2.96627 0.836847V0.905296ZM3.36787 0.9026L3.36327 0.96627L3.2996 0.970869L3.23593 0.975484V1.00458V1.03369H3.30335H3.37076V1.1011V1.16852H3.40073H3.43069V1.1011V1.03369H3.49811H3.56552V1.00372V0.973761H3.49811H3.43069V0.906345V0.838929H3.40158H3.37249L3.36787 0.9026ZM3.77027 0.848922L3.76028 0.858899V0.916338V0.973761H3.70035H3.64043V1.00372V1.03369H3.6995H3.75856L3.76317 1.09736L3.76777 1.16103H3.79773H3.82769L3.83229 1.09736L3.83691 1.03369H3.89596H3.95503V1.00372V0.973761H3.89511H3.83518V0.906345V0.838929H3.80772H3.78025L3.77027 0.848922ZM4.16477 0.905296V0.973761H4.10485H4.04492V1.00372V1.03369H4.10399H4.16305L4.16766 1.09736L4.17226 1.16103H4.20223H4.23219L4.23679 1.09736L4.2414 1.03369H4.30046H4.35953V1.00372V0.973761H4.30046H4.2414L4.23679 0.91009L4.23219 0.84642L4.19848 0.841626L4.16477 0.836847V0.905296ZM4.56927 0.906345V0.973761H4.50185H4.43444V1.00372V1.03369H4.50185H4.56927V1.1011V1.16852H4.59923H4.62919V1.1011V1.03369H4.69661H4.76402V1.00458V0.975484L4.70035 0.970869L4.63668 0.96627L4.63208 0.9026L4.62747 0.838929H4.59838H4.56927V0.906345ZM4.96877 0.848922L4.95878 0.858899V0.916338V0.973761H4.89885H4.83893V1.00372V1.03369H4.898H4.95706L4.96167 1.09736L4.96627 1.16103H4.99623H5.0262L5.03079 1.09736L5.03541 1.03369H5.09447H5.15354V1.00372V0.973761H5.09361H5.03369V0.906345V0.838929H5.00623H4.97875L4.96877 0.848922ZM5.36327 0.906345V0.973761H5.30335H5.24342V1.00372V1.03369H5.3025H5.36155L5.36617 1.09736L5.37076 1.16103H5.40073H5.43069L5.43529 1.09736L5.4399 1.03369H5.49896H5.55803V1.00372V0.973761H5.49811H5.43818V0.906345V0.838929H5.40073H5.36327V0.906345ZM5.76777 0.906345V0.973761H5.70035H5.63294V1.00372V1.03369H5.70035H5.76777V1.1011V1.16852H5.79773H5.82769V1.1011V1.03369H5.89511H5.96253V1.00458V0.975484L5.89885 0.970869L5.83518 0.96627L5.83059 0.9026L5.82597 0.838929H5.79688H5.76777V0.906345ZM6.16937 0.9026L6.16477 0.96627L6.1011 0.970869L6.03743 0.975484V1.00458V1.03369H6.10485H6.17226V1.1011V1.16852H6.20223H6.23219V1.1011V1.03369H6.2996H6.36702V1.00372V0.973761H6.2996H6.23219V0.906345V0.838929H6.20308H6.17399L6.16937 0.9026ZM6.56178 0.906345V0.973761H6.50185H6.44193V1.00372V1.03369H6.501H6.56005L6.56467 1.09736L6.56927 1.16103H6.59923H6.62919L6.63379 1.09736L6.63841 1.03369H6.69746H6.75653V1.00372V0.973761H6.69661H6.63668V0.906345V0.838929H6.59923H6.56178V0.906345ZM6.96627 0.906345V0.973761H6.89885H6.83144V1.00372V1.03369H6.89885H6.96627V1.1011V1.16852H6.99623H7.0262V1.1011V1.03369H7.09361H7.16103V1.00458V0.975484L7.09736 0.970869L7.03369 0.96627L7.02909 0.9026L7.02447 0.838929H6.99538H6.96627V0.906345ZM7.36787 0.9026L7.36327 0.96627L7.2996 0.970869L7.23593 0.975484V1.00458V1.03369H7.30335H7.37077V1.1011V1.16852H7.40073H7.43069V1.1011V1.03369H7.49811H7.56552V1.00372V0.973761H7.49811H7.43069V0.906345V0.838929H7.40158H7.37249L7.36787 0.9026ZM7.76028 0.906345V0.973761H7.70035H7.64043V1.00372V1.03369H7.6995H7.75856L7.76317 1.09736L7.76777 1.16103H7.79773H7.82769L7.83229 1.09736L7.83691 1.03369H7.89596H7.95503V1.00372V0.973761H7.89511H7.83518V0.906345V0.838929H7.79773H7.76028V0.906345ZM0.164772 1.30335V1.36327H0.104847H0.0449219V1.40073V1.43818H0.104847H0.164772V1.49811V1.55803H0.202225H0.239678V1.49811V1.43818H0.299604H0.359529V1.40073V1.36327H0.299604H0.239678V1.30335V1.24342H0.202225H0.164772V1.30335ZM0.569266 1.3025V1.36155L0.505596 1.36617L0.441926 1.37076V1.40073V1.43069L0.505596 1.43529L0.569266 1.4399V1.49896V1.55803H0.599229H0.629192V1.49811V1.43818H0.696607H0.764023V1.40073V1.36327H0.696607H0.629192V1.30335V1.24342H0.599229H0.569266V1.3025ZM0.973761 1.30335V1.36327H0.906345H0.838929V1.40073V1.43818H0.906345H0.973761V1.49811V1.55803H1.00372H1.03369V1.49896V1.4399L1.09736 1.43529L1.16103 1.43069V1.40073V1.37076L1.09736 1.36617L1.03369 1.36155V1.3025V1.24342H1.00372H0.973761V1.30335ZM1.36327 1.30335V1.36327H1.30335H1.24342V1.40073V1.43818H1.30335H1.36327V1.49811V1.55803H1.40073H1.43818V1.49811V1.43818H1.49811H1.55803V1.40073V1.36327H1.49811H1.43818V1.30335V1.24342H1.40073H1.36327V1.30335ZM1.76777 1.3025V1.36155L1.7041 1.36617L1.64043 1.37076V1.40073V1.43069L1.7041 1.43529L1.76777 1.4399V1.49896V1.55803H1.79773H1.82769V1.49811V1.43818H1.89511H1.96253V1.40073V1.36327H1.89511H1.82769V1.30335V1.24342H1.79773H1.76777V1.3025ZM2.17226 1.30335V1.36327H2.10485H2.03743V1.40073V1.43818H2.10485H2.17226V1.49811V1.55803H2.20223H2.23219V1.49896V1.4399L2.29586 1.43529L2.35953 1.43069V1.40073V1.37076L2.29586 1.36617L2.23219 1.36155V1.3025V1.24342H2.20223H2.17226V1.30335ZM2.56178 1.30335V1.36327H2.50185H2.44193V1.40073V1.43818H2.50185H2.56178V1.49811V1.55803H2.59923H2.63668V1.49811V1.43818H2.69661H2.75653V1.40073V1.36327H2.69661H2.63668V1.30335V1.24342H2.59923H2.56178V1.30335ZM2.96627 1.3025V1.36155L2.9026 1.36617L2.83893 1.37076V1.40073V1.43069L2.9026 1.43529L2.96627 1.4399V1.49896V1.55803H3.00372H3.04118V1.49811V1.43818H3.1011H3.16103V1.40073V1.36327H3.1011H3.04118V1.30335V1.24342H3.00372H2.96627V1.3025ZM3.37076 1.30335V1.36327H3.30335H3.23593V1.40073V1.43818H3.30335H3.37076V1.49811V1.55803H3.40073H3.43069V1.49896V1.4399L3.49436 1.43529L3.55803 1.43069V1.40073V1.37076L3.49436 1.36617L3.43069 1.36155V1.3025V1.24342H3.40073H3.37076V1.30335ZM3.76028 1.30335V1.36327H3.70035H3.64043V1.40073V1.43818H3.70035H3.76028V1.49811V1.55803H3.79773H3.83518V1.49811V1.43818H3.89511H3.95503V1.40073V1.36327H3.89511H3.83518V1.30335V1.24342H3.79773H3.76028V1.30335ZM4.16477 1.30335V1.36327H4.10485H4.04492V1.40073V1.43818H4.10485H4.16477V1.49811V1.55803H4.20223H4.23968V1.49811V1.43818H4.2996H4.35953V1.40073V1.36327H4.2996H4.23968V1.30335V1.24342H4.20223H4.16477V1.30335ZM4.56927 1.30335V1.36327H4.50185H4.43444V1.40073V1.43818H4.50185H4.56927V1.49811V1.55803H4.59923H4.62919V1.49811V1.43818H4.69661H4.76402V1.40073V1.36327H4.69661H4.62919V1.30335V1.24342H4.59923H4.56927V1.30335ZM4.95878 1.30335V1.36327H4.89885H4.83893V1.40073V1.43818H4.89885H4.95878V1.49811V1.55803H4.99623H5.03369V1.49811V1.43818H5.09361H5.15354V1.40073V1.36327H5.09361H5.03369V1.30335V1.24342H4.99623H4.95878V1.30335ZM5.36327 1.30335V1.36327H5.30335H5.24342V1.40073V1.43818H5.30335H5.36327V1.49811V1.55803H5.40073H5.43818V1.49811V1.43818H5.49811H5.55803V1.40073V1.36327H5.49811H5.43818V1.30335V1.24342H5.40073H5.36327V1.30335ZM5.76777 1.3025V1.36155L5.7041 1.36617L5.64043 1.37076V1.40073V1.43069L5.7041 1.43529L5.76777 1.4399V1.49896V1.55803H5.79773H5.82769V1.49811V1.43818H5.89511H5.96253V1.40073V1.36327H5.89511H5.82769V1.30335V1.24342H5.79773H5.76777V1.3025ZM6.17226 1.30335V1.36327H6.10485H6.03743V1.40073V1.43818H6.10485H6.17226V1.49811V1.55803H6.20223H6.23219V1.49896V1.4399L6.29586 1.43529L6.35953 1.43069V1.40073V1.37076L6.29586 1.36617L6.23219 1.36155V1.3025V1.24342H6.20223H6.17226V1.30335ZM6.56178 1.30335V1.36327H6.50185H6.44193V1.40073V1.43818H6.50185H6.56178V1.49811V1.55803H6.59923H6.63668V1.49811V1.43818H6.69661H6.75653V1.40073V1.36327H6.69661H6.63668V1.30335V1.24342H6.59923H6.56178V1.30335ZM6.96627 1.3025V1.36155L6.9026 1.36617L6.83893 1.37076V1.40073V1.43069L6.9026 1.43529L6.96627 1.4399V1.49896V1.55803H6.99623H7.0262V1.49811V1.43818H7.09361H7.16103V1.40073V1.36327H7.09361H7.0262V1.30335V1.24342H6.99623H6.96627V1.3025ZM7.37077 1.30335V1.36327H7.30335H7.23593V1.40073V1.43818H7.30335H7.37077V1.49811V1.55803H7.40073H7.43069V1.49896V1.4399L7.49436 1.43529L7.55803 1.43069V1.40073V1.37076L7.49436 1.36617L7.43069 1.36155V1.3025V1.24342H7.40073H7.37077V1.30335ZM7.76028 1.30335V1.36327H7.70035H7.64043V1.40073V1.43818H7.70035H7.76028V1.49811V1.55803H7.79773H7.83518V1.49811V1.43818H7.89511H7.95503V1.40073V1.36327H7.89511H7.83518V1.30335V1.24342H7.79773H7.76028V1.30335ZM0.175274 1.64241L0.164772 1.65291V1.71035V1.76777H0.104847H0.0449219V1.79773V1.82769H0.104847H0.164772V1.89511V1.96253H0.202225H0.239678V1.89511V1.82769H0.299604H0.359529V1.79773V1.76777H0.300457H0.241401L0.236787 1.70423L0.232188 1.64068L0.208982 1.63629L0.185776 1.6319L0.175274 1.64241ZM0.579259 1.64293L0.569266 1.65291V1.71035V1.76777H0.501851H0.434435V1.79773V1.82769H0.501851H0.569266V1.89511V1.96253H0.598375H0.627469L0.632083 1.89885L0.636682 1.83518L0.700353 1.83058L0.764023 1.82597V1.79688V1.76777H0.696607H0.629192V1.70035V1.63294H0.609222H0.589237L0.579259 1.64293ZM0.973761 1.69926V1.76777H0.906345H0.838929V1.79688V1.82597L0.9026 1.83058L0.96627 1.83518L0.970869 1.89885L0.975484 1.96253H1.00458H1.03369V1.89511V1.82769H1.1011H1.16852V1.79773V1.76777H1.10196H1.03541L1.03079 1.70423L1.0262 1.64068L0.999978 1.63571L0.973761 1.63073V1.69926ZM1.37378 1.64241L1.36327 1.65291V1.71035V1.76777H1.30335H1.24342V1.79773V1.82769H1.30335H1.36327V1.89511V1.96253H1.40073H1.43818V1.89511V1.82769H1.49811H1.55803V1.79773V1.76777H1.49896H1.4399L1.43529 1.70423L1.43069 1.64068L1.40748 1.63629L1.38428 1.6319L1.37378 1.64241ZM1.77776 1.64293L1.76777 1.65291V1.70948V1.76605L1.70423 1.77066L1.64068 1.77526L1.63571 1.80148L1.63073 1.82769H1.69926H1.76777V1.89511V1.96253H1.79688H1.82597L1.83058 1.89885L1.83518 1.83518L1.89885 1.83058L1.96253 1.82597V1.79688V1.76777H1.89511H1.82769V1.70035V1.63294H1.80772H1.78774L1.77776 1.64293ZM2.17226 1.69926V1.76777H2.10485H2.03743V1.79688V1.82597L2.1011 1.83058L2.16477 1.83518L2.16937 1.89885L2.17399 1.96253H2.20308H2.23219V1.89511V1.82769H2.2996H2.36702V1.79773V1.76777H2.30046H2.23391L2.2293 1.70423L2.2247 1.64068L2.19848 1.63571L2.17226 1.63073V1.69926ZM2.57228 1.64241L2.56178 1.65291V1.71035V1.76777H2.50185H2.44193V1.79773V1.82769H2.50185H2.56178V1.89511V1.96253H2.59923H2.63668V1.89511V1.82769H2.69661H2.75653V1.79773V1.76777H2.69746H2.63841L2.63379 1.70423L2.62919 1.64068L2.60599 1.63629L2.58278 1.6319L2.57228 1.64241ZM2.97677 1.64241L2.96627 1.65291V1.70948V1.76605L2.90273 1.77066L2.83918 1.77526L2.83421 1.80148L2.82924 1.82769H2.89776H2.96627V1.89616V1.96461L2.99998 1.95983L3.03369 1.95503L3.03829 1.89136L3.0429 1.82769H3.10196H3.16103V1.79773V1.76777H3.10196H3.0429L3.03829 1.70423L3.03369 1.64068L3.01048 1.63629L2.98727 1.6319L2.97677 1.64241ZM3.38076 1.64293L3.37076 1.65291V1.71035V1.76777H3.30335H3.23593V1.79688V1.82597L3.2996 1.83058L3.36327 1.83518L3.36787 1.89885L3.37249 1.96253H3.40158H3.43069V1.89511V1.82769H3.49811H3.56552V1.79773V1.76777H3.49811H3.43069V1.70035V1.63294H3.41072H3.39073L3.38076 1.64293ZM3.77078 1.64241L3.76028 1.65291V1.71035V1.76777H3.70035H3.64043V1.79773V1.82769H3.70035H3.76028V1.89511V1.96253H3.79773H3.83518V1.89511V1.82769H3.89511H3.95503V1.79773V1.76777H3.89596H3.83691L3.83229 1.70423L3.82769 1.64068L3.80449 1.63629L3.78128 1.6319L3.77078 1.64241ZM4.17527 1.64241L4.16477 1.65291V1.71035V1.76777H4.10485H4.04492V1.79773V1.82769H4.10485H4.16477V1.89511V1.96253H4.20223H4.23968V1.89511V1.82769H4.2996H4.35953V1.79773V1.76777H4.30046H4.2414L4.23679 1.70423L4.23219 1.64068L4.20898 1.63629L4.18578 1.6319L4.17527 1.64241ZM4.57926 1.64293L4.56927 1.65291V1.71035V1.76777H4.50185H4.43444V1.79773V1.82769H4.50185H4.56927V1.89511V1.96253H4.59838H4.62747L4.63208 1.89885L4.63668 1.83518L4.70035 1.83058L4.76402 1.82597V1.79688V1.76777H4.69661H4.62919V1.70035V1.63294H4.60922H4.58924L4.57926 1.64293ZM4.96928 1.64241L4.95878 1.65291V1.71035V1.76777H4.89885H4.83893V1.79773V1.82769H4.898H4.95706L4.96167 1.89136L4.96627 1.95503L4.99998 1.95983L5.03369 1.96461V1.89616V1.82769H5.09361H5.15354V1.79773V1.76777H5.09447H5.03541L5.03079 1.70423L5.0262 1.64068L5.00299 1.63629L4.97978 1.6319L4.96928 1.64241ZM5.37378 1.64241L5.36327 1.65291V1.71035V1.76777H5.30335H5.24342V1.79773V1.82769H5.30335H5.36327V1.89511V1.96253H5.40073H5.43818V1.89511V1.82769H5.49811H5.55803V1.79773V1.76777H5.49896H5.4399L5.43529 1.70423L5.43069 1.64068L5.40748 1.63629L5.38428 1.6319L5.37378 1.64241ZM5.77776 1.64293L5.76777 1.65291V1.71035V1.76777H5.70035H5.63294V1.79773V1.82769H5.70035H5.76777V1.89511V1.96253H5.79688H5.82597L5.83059 1.89885L5.83518 1.83518L5.89885 1.83058L5.96253 1.82597V1.79688V1.76777H5.89511H5.82769V1.70035V1.63294H5.80772H5.78774L5.77776 1.64293ZM6.17226 1.69926V1.76777H6.10485H6.03743V1.79688V1.82597L6.1011 1.83058L6.16477 1.83518L6.16937 1.89885L6.17399 1.96253H6.20308H6.23219V1.89511V1.82769H6.2996H6.36702V1.79773V1.76777H6.30046H6.23391L6.2293 1.70423L6.2247 1.64068L6.19848 1.63571L6.17226 1.63073V1.69926ZM6.57228 1.64241L6.56178 1.65291V1.71035V1.76777H6.50185H6.44193V1.79773V1.82769H6.50185H6.56178V1.89511V1.96253H6.59923H6.63668V1.89511V1.82769H6.69661H6.75653V1.79773V1.76777H6.69746H6.63841L6.63379 1.70423L6.62919 1.64068L6.60599 1.63629L6.58278 1.6319L6.57228 1.64241ZM6.97626 1.64293L6.96627 1.65291V1.71035V1.76777H6.89885H6.83144V1.79773V1.82769H6.89885H6.96627V1.89511V1.96253H6.99538H7.02447L7.02909 1.89885L7.03369 1.83518L7.09736 1.83058L7.16103 1.82597V1.79688V1.76777H7.09361H7.0262V1.70035V1.63294H7.00623H6.98624L6.97626 1.64293ZM7.37077 1.69926V1.76777H7.30335H7.23593V1.79688V1.82597L7.2996 1.83058L7.36327 1.83518L7.36787 1.89885L7.37249 1.96253H7.40158H7.43069V1.89511V1.82769H7.49811H7.56552V1.79773V1.76777H7.49896H7.43241L7.4278 1.70423L7.4232 1.64068L7.39698 1.63571L7.37077 1.63073V1.69926ZM7.77078 1.64241L7.76028 1.65291V1.71035V1.76777H7.70035H7.64043V1.79773V1.82769H7.70035H7.76028V1.89511V1.96253H7.79773H7.83518V1.89511V1.82769H7.89511H7.95503V1.79773V1.76777H7.89596H7.83691L7.83229 1.70423L7.82769 1.64068L7.80449 1.63629L7.78128 1.6319L7.77078 1.64241ZM0.164772 2.10485V2.17226H0.104847H0.0449219V2.20223V2.23219H0.103993H0.163049L0.167663 2.29586L0.172263 2.35953H0.202225H0.232188L0.236787 2.29586L0.241401 2.23219H0.300457H0.359529V2.20223V2.17226H0.299604H0.239678V2.10485V2.03743H0.202225H0.164772V2.10485ZM0.569266 2.10485V2.17226H0.501851H0.434435V2.20223V2.23219H0.501851H0.569266V2.2996V2.36702H0.599229H0.629192V2.2996V2.23219H0.696607H0.764023V2.20308V2.17399L0.700353 2.16937L0.636682 2.16477L0.632083 2.1011L0.627469 2.03743H0.598375H0.569266V2.10485ZM0.970869 2.1011L0.96627 2.16477L0.9026 2.16937L0.838929 2.17399V2.20308V2.23219H0.906345H0.973761V2.2996V2.36702H1.00372H1.03369V2.2996V2.23219H1.1011H1.16852V2.20223V2.17226H1.1011H1.03369V2.10485V2.03743H1.00458H0.975484L0.970869 2.1011ZM1.36327 2.10485V2.17226H1.30335H1.24342V2.20223V2.23219H1.3025H1.36155L1.36617 2.29586L1.37076 2.35953H1.40073H1.43069L1.43529 2.29586L1.4399 2.23219H1.49896H1.55803V2.20223V2.17226H1.49811H1.43818V2.10485V2.03743H1.40073H1.36327V2.10485ZM1.76777 2.10485V2.17226H1.69926H1.63073L1.63571 2.19848L1.64068 2.2247L1.70423 2.2293L1.76777 2.23391V2.30046V2.36702H1.79773H1.82769V2.2996V2.23219H1.89511H1.96253V2.20308V2.17399L1.89885 2.16937L1.83518 2.16477L1.83058 2.1011L1.82597 2.03743H1.79688H1.76777V2.10485ZM2.16937 2.1011L2.16477 2.16477L2.1011 2.16937L2.03743 2.17399V2.20308V2.23219H2.10485H2.17226V2.2996V2.36702H2.20223H2.23219V2.2996V2.23219H2.2996H2.36702V2.20223V2.17226H2.2996H2.23219V2.10485V2.03743H2.20308H2.17399L2.16937 2.1011ZM2.56178 2.10485V2.17226H2.50185H2.44193V2.20223V2.23219H2.501H2.56005L2.56467 2.29586L2.56927 2.35953H2.59923H2.62919L2.63379 2.29586L2.63841 2.23219H2.69746H2.75653V2.20223V2.17226H2.69661H2.63668V2.10485V2.03743H2.59923H2.56178V2.10485ZM2.96627 2.1038V2.17226H2.89776H2.82924L2.83421 2.19848L2.83918 2.2247L2.90273 2.2293L2.96627 2.23391V2.30151V2.3691L2.99998 2.36432L3.03369 2.35953L3.03829 2.29586L3.0429 2.23219H3.10196H3.16103V2.20223V2.17226H3.10196H3.0429L3.03829 2.10859L3.03369 2.04492L2.99998 2.04013L2.96627 2.03535V2.1038ZM3.37076 2.10485V2.17226H3.30335H3.23593V2.20223V2.23219H3.30335H3.37076V2.2996V2.36702H3.40073H3.43069V2.2996V2.23219H3.49811H3.56552V2.20223V2.17226H3.49811H3.43069V2.10485V2.03743H3.40073H3.37076V2.10485ZM3.77027 2.04742L3.76028 2.0574V2.11484V2.17226H3.70035H3.64043V2.20223V2.23219H3.6995H3.75856L3.76317 2.29586L3.76777 2.35953L3.80148 2.36432L3.83518 2.3691V2.30065V2.23219H3.89511H3.95503V2.20223V2.17226H3.89511H3.83518V2.10485V2.03743H3.80772H3.78025L3.77027 2.04742ZM4.16477 2.1038V2.17226H4.10485H4.04492V2.20223V2.23219H4.10485H4.16477V2.30065V2.3691L4.19848 2.36432L4.23219 2.35953L4.23679 2.29586L4.2414 2.23219H4.30046H4.35953V2.20223V2.17226H4.30046H4.2414L4.23679 2.10859L4.23219 2.04492L4.19848 2.04013L4.16477 2.03535V2.1038ZM4.56927 2.10485V2.17226H4.50185H4.43444V2.20223V2.23219H4.50185H4.56927V2.2996V2.36702H4.59923H4.62919V2.2996V2.23219H4.69661H4.76402V2.20223V2.17226H4.69661H4.62919V2.10485V2.03743H4.59923H4.56927V2.10485ZM4.96877 2.04742L4.95878 2.0574V2.11484V2.17226H4.89885H4.83893V2.20223V2.23219H4.898H4.95706L4.96167 2.29586L4.96627 2.35953L4.99998 2.36432L5.03369 2.3691V2.30065V2.23219H5.09361H5.15354V2.20223V2.17226H5.09361H5.03369V2.10485V2.03743H5.00623H4.97875L4.96877 2.04742ZM5.36327 2.10485V2.17226H5.30335H5.24342V2.20223V2.23219H5.3025H5.36155L5.36617 2.29586L5.37076 2.35953H5.40073H5.43069L5.43529 2.29586L5.4399 2.23219H5.49896H5.55803V2.20223V2.17226H5.49811H5.43818V2.10485V2.03743H5.40073H5.36327V2.10485ZM5.76777 2.10485V2.17226H5.70035H5.63294V2.20223V2.23219H5.70035H5.76777V2.2996V2.36702H5.79773H5.82769V2.2996V2.23219H5.89511H5.96253V2.20308V2.17399L5.89885 2.16937L5.83518 2.16477L5.83059 2.1011L5.82597 2.03743H5.79688H5.76777V2.10485ZM6.16937 2.1011L6.16477 2.16477L6.1011 2.16937L6.03743 2.17399V2.20308V2.23219H6.10485H6.17226V2.2996V2.36702H6.20223H6.23219V2.2996V2.23219H6.2996H6.36702V2.20223V2.17226H6.2996H6.23219V2.10485V2.03743H6.20308H6.17399L6.16937 2.1011ZM6.56178 2.10485V2.17226H6.50185H6.44193V2.20223V2.23219H6.501H6.56005L6.56467 2.29586L6.56927 2.35953H6.59923H6.62919L6.63379 2.29586L6.63841 2.23219H6.69746H6.75653V2.20223V2.17226H6.69661H6.63668V2.10485V2.03743H6.59923H6.56178V2.10485ZM6.96627 2.10485V2.17226H6.89885H6.83144V2.20223V2.23219H6.89885H6.96627V2.2996V2.36702H6.99623H7.0262V2.2996V2.23219H7.09361H7.16103V2.20308V2.17399L7.09736 2.16937L7.03369 2.16477L7.02909 2.1011L7.02447 2.03743H6.99538H6.96627V2.10485ZM7.36787 2.1011L7.36327 2.16477L7.2996 2.16937L7.23593 2.17399V2.20308V2.23219H7.30335H7.37077V2.2996V2.36702H7.40073H7.43069V2.2996V2.23219H7.49811H7.56552V2.20223V2.17226H7.49811H7.43069V2.10485V2.03743H7.40158H7.37249L7.36787 2.1011ZM7.76028 2.10485V2.17226H7.70035H7.64043V2.20223V2.23219H7.6995H7.75856L7.76317 2.29586L7.76777 2.35953H7.79773H7.82769L7.83229 2.29586L7.83691 2.23219H7.89596H7.95503V2.20223V2.17226H7.89511H7.83518V2.10485V2.03743H7.79773H7.76028V2.10485ZM0.164772 2.50185V2.56178H0.104847H0.0449219V2.59923V2.63668H0.104847H0.164772V2.69661V2.75653H0.202225H0.239678V2.69661V2.63668H0.299604H0.359529V2.59923V2.56178H0.299604H0.239678V2.50185V2.44193H0.202225H0.164772V2.50185ZM0.569266 2.501V2.56005L0.505596 2.56467L0.441926 2.56927V2.59923V2.62919L0.505596 2.63379L0.569266 2.63841V2.69746V2.75653H0.599229H0.629192V2.69661V2.63668H0.696607H0.764023V2.59923V2.56178H0.696607H0.629192V2.50185V2.44193H0.599229H0.569266V2.501ZM0.973761 2.50185V2.56178H0.906345H0.838929V2.59923V2.63668H0.906345H0.973761V2.69661V2.75653H1.00372H1.03369V2.69746V2.63841L1.09736 2.63379L1.16103 2.62919V2.59923V2.56927L1.09736 2.56467L1.03369 2.56005V2.501V2.44193H1.00372H0.973761V2.50185ZM1.36327 2.50185V2.56178H1.30335H1.24342V2.59923V2.63668H1.30335H1.36327V2.69661V2.75653H1.40073H1.43818V2.69661V2.63668H1.49811H1.55803V2.59923V2.56178H1.49811H1.43818V2.50185V2.44193H1.40073H1.36327V2.50185ZM1.76777 2.501V2.56005L1.7041 2.56467L1.64043 2.56927V2.59923V2.62919L1.7041 2.63379L1.76777 2.63841V2.69746V2.75653H1.79773H1.82769V2.69661V2.63668H1.89511H1.96253V2.59923V2.56178H1.89511H1.82769V2.50185V2.44193H1.79773H1.76777V2.501ZM2.17226 2.50185V2.56178H2.10485H2.03743V2.59923V2.63668H2.10485H2.17226V2.69661V2.75653H2.20223H2.23219V2.69746V2.63841L2.29586 2.63379L2.35953 2.62919V2.59923V2.56927L2.29586 2.56467L2.23219 2.56005V2.501V2.44193H2.20223H2.17226V2.50185ZM2.56178 2.50185V2.56178H2.50185H2.44193V2.59923V2.63668H2.50185H2.56178V2.69661V2.75653H2.59923H2.63668V2.69661V2.63668H2.69661H2.75653V2.59923V2.56178H2.69661H2.63668V2.50185V2.44193H2.59923H2.56178V2.50185ZM2.96627 2.49995V2.56005L2.9026 2.56467L2.83893 2.56927V2.59923V2.62919L2.9026 2.63379L2.96627 2.63841V2.69746V2.75653H3.00372H3.04118V2.69661V2.63668H3.1011H3.16103V2.59923V2.56178H3.102H3.04299L3.03833 2.5056L3.03369 2.44942L2.99998 2.44462L2.96627 2.43984V2.49995ZM3.37076 2.501V2.56005L3.30709 2.56467L3.24342 2.56927L3.23863 2.60297L3.23385 2.63668H3.3023H3.37076V2.69661V2.75653H3.40073H3.43069V2.69661V2.63668H3.49915H3.5676L3.56282 2.60297L3.55803 2.56927L3.49436 2.56467L3.43069 2.56005V2.501V2.44193H3.40073H3.37076V2.501ZM3.76028 2.50185V2.56178H3.70035H3.64043V2.59923V2.63668H3.70035H3.76028V2.69661V2.75653H3.79773H3.83518V2.69661V2.63668H3.89511H3.95503V2.59923V2.56178H3.89511H3.83518V2.50185V2.44193H3.79773H3.76028V2.50185ZM4.16477 2.50185V2.56178H4.10485H4.04492V2.59923V2.63668H4.10485H4.16477V2.69661V2.75653H4.20223H4.23968V2.69661V2.63668H4.2996H4.35953V2.59923V2.56178H4.2996H4.23968V2.50185V2.44193H4.20223H4.16477V2.50185ZM4.56927 2.501V2.56005L4.5056 2.56467L4.44193 2.56927L4.43713 2.60297L4.43235 2.63668H4.5008H4.56927V2.69661V2.75653H4.59923H4.62919V2.69661V2.63668H4.69766H4.76611L4.76133 2.60297L4.75653 2.56927L4.69286 2.56467L4.62919 2.56005V2.501V2.44193H4.59923H4.56927V2.501ZM4.95878 2.50185V2.56178H4.89885H4.83893V2.59923V2.63668H4.89885H4.95878V2.69661V2.75653H4.99623H5.03369V2.69661V2.63668H5.09361H5.15354V2.59923V2.56178H5.09361H5.03369V2.50185V2.44193H4.99623H4.95878V2.50185ZM5.36327 2.50185V2.56178H5.30335H5.24342V2.59923V2.63668H5.30335H5.36327V2.69661V2.75653H5.40073H5.43818V2.69661V2.63668H5.49811H5.55803V2.59923V2.56178H5.49811H5.43818V2.50185V2.44193H5.40073H5.36327V2.50185ZM5.76777 2.501V2.56005L5.7041 2.56467L5.64043 2.56927V2.59923V2.62919L5.7041 2.63379L5.76777 2.63841V2.69746V2.75653H5.79773H5.82769V2.69661V2.63668H5.89511H5.96253V2.59923V2.56178H5.89511H5.82769V2.50185V2.44193H5.79773H5.76777V2.501ZM6.17226 2.50185V2.56178H6.10485H6.03743V2.59923V2.63668H6.10485H6.17226V2.69661V2.75653H6.20223H6.23219V2.69746V2.63841L6.29586 2.63379L6.35953 2.62919V2.59923V2.56927L6.29586 2.56467L6.23219 2.56005V2.501V2.44193H6.20223H6.17226V2.50185ZM6.56178 2.50185V2.56178H6.50185H6.44193V2.59923V2.63668H6.50185H6.56178V2.69661V2.75653H6.59923H6.63668V2.69661V2.63668H6.69661H6.75653V2.59923V2.56178H6.69661H6.63668V2.50185V2.44193H6.59923H6.56178V2.50185ZM6.96627 2.501V2.56005L6.9026 2.56467L6.83893 2.56927V2.59923V2.62919L6.9026 2.63379L6.96627 2.63841V2.69746V2.75653H6.99623H7.0262V2.69661V2.63668H7.09361H7.16103V2.59923V2.56178H7.09361H7.0262V2.50185V2.44193H6.99623H6.96627V2.501ZM7.37077 2.50185V2.56178H7.30335H7.23593V2.59923V2.63668H7.30335H7.37077V2.69661V2.75653H7.40073H7.43069V2.69746V2.63841L7.49436 2.63379L7.55803 2.62919V2.59923V2.56927L7.49436 2.56467L7.43069 2.56005V2.501V2.44193H7.40073H7.37077V2.50185ZM7.76028 2.50185V2.56178H7.70035H7.64043V2.59923V2.63668H7.70035H7.76028V2.69661V2.75653H7.79773H7.83518V2.69661V2.63668H7.89511H7.95503V2.59923V2.56178H7.89511H7.83518V2.50185V2.44193H7.79773H7.76028V2.50185ZM0.175274 2.84091L0.164772 2.85141V2.90885V2.96627H0.104847H0.0449219V3.00372V3.04118H0.104847H0.164772V3.1011V3.16103H0.202225H0.239678V3.1011V3.04118H0.299604H0.359529V3.00372V2.96627H0.300457H0.241401L0.236787 2.90273L0.232188 2.83918L0.208982 2.83479L0.185776 2.83041L0.175274 2.84091ZM0.579259 2.84143L0.569266 2.85141V2.90885V2.96627H0.500802H0.432353L0.437132 2.99998L0.441926 3.03369L0.505596 3.03829L0.569266 3.0429V3.10196V3.16103H0.599229H0.629192V3.10196V3.0429L0.692862 3.03829L0.756532 3.03369L0.761326 2.99998L0.766105 2.96627H0.697656H0.629192V2.89885V2.83144H0.609222H0.589237L0.579259 2.84143ZM0.973761 2.89776V2.96627H0.905296H0.836847L0.841626 2.99998L0.84642 3.03369L0.91009 3.03829L0.973761 3.0429V3.10196V3.16103H1.00372H1.03369V3.10196V3.0429L1.09736 3.03829L1.16103 3.03369V3.00372V2.97376L1.09818 2.96919L1.03533 2.96462L1.03076 2.90191L1.0262 2.83918L0.999978 2.83421L0.973761 2.82924V2.89776ZM1.37378 2.84091L1.36327 2.85141V2.90885V2.96627H1.30335H1.24342V3.00372V3.04118H1.30335H1.36327V3.1011V3.16103H1.40073H1.43818V3.1011V3.04118H1.49811H1.55803V3.00372V2.96627H1.49896H1.4399L1.43529 2.90273L1.43069 2.83918L1.40748 2.83479L1.38428 2.83041L1.37378 2.84091ZM1.77776 2.84143L1.76777 2.85141V2.90798V2.96455L1.7041 2.96916L1.64043 2.97376V3.00372V3.03369L1.7041 3.03829L1.76777 3.0429V3.10196V3.16103H1.79773H1.82769V3.10196V3.0429L1.89136 3.03829L1.95503 3.03369L1.95983 2.99998L1.96461 2.96627H1.89616H1.82769V2.89885V2.83144H1.80772H1.78774L1.77776 2.84143ZM2.17226 2.89776V2.96627H2.1038H2.03535L2.04013 2.99998L2.04492 3.03369L2.10859 3.03829L2.17226 3.0429V3.10196V3.16103H2.20223H2.23219V3.10196V3.0429L2.29586 3.03829L2.35953 3.03369L2.36432 2.99998L2.3691 2.96627H2.30151H2.23391L2.2293 2.90273L2.2247 2.83918L2.19848 2.83421L2.17226 2.82924V2.89776ZM2.57228 2.84091L2.56178 2.85141V2.90885V2.96627H2.50185H2.44193V3.00372V3.04118H2.50185H2.56178V3.1011V3.16103H2.59923H2.63668V3.1011V3.04118H2.69661H2.75653V3.00372V2.96627H2.69746H2.63841L2.63379 2.90273L2.62919 2.83918L2.60599 2.83479L2.58278 2.83041L2.57228 2.84091ZM2.97677 2.84091L2.96627 2.85141V2.90798V2.96455L2.9026 2.96916L2.83893 2.97376V3.00372V3.03369L2.9026 3.03829L2.96627 3.0429V3.103V3.16311L2.99998 3.15833L3.03369 3.15354L3.03829 3.09821L3.04288 3.04288L3.09821 3.03829L3.15354 3.03369L3.15833 2.99998L3.16311 2.96627H3.103H3.0429L3.03829 2.90273L3.03369 2.83918L3.01048 2.83479L2.98727 2.83041L2.97677 2.84091ZM3.38076 2.84143L3.37076 2.85141V2.90885V2.96627H3.3023H3.23385L3.23863 2.99998L3.24342 3.03369L3.30709 3.03829L3.37076 3.0429V3.10196V3.16103H3.40073H3.43069V3.10196V3.0429L3.49436 3.03829L3.55803 3.03369L3.56282 2.99998L3.5676 2.96627H3.49915H3.43069V2.89885V2.83144H3.41072H3.39073L3.38076 2.84143ZM3.77078 2.84091L3.76028 2.85141V2.90885V2.96627H3.70035H3.64043V3.00372V3.04118H3.70035H3.76028V3.1011V3.16103H3.79773H3.83518V3.1011V3.04118H3.89511H3.95503V3.00372V2.96627H3.89596H3.83691L3.83229 2.90273L3.82769 2.83918L3.80449 2.83479L3.78128 2.83041L3.77078 2.84091ZM4.17527 2.84091L4.16477 2.85141V2.90885V2.96627H4.10485H4.04492V3.00372V3.04118H4.10485H4.16477V3.1011V3.16103H4.20223H4.23968V3.102V3.04299L4.29586 3.03833L4.35204 3.03369L4.35683 2.99998L4.36161 2.96627H4.30151H4.2414L4.23679 2.90273L4.23219 2.83918L4.20898 2.83479L4.18578 2.83041L4.17527 2.84091ZM4.57926 2.84143L4.56927 2.85141V2.90885V2.96627H4.5008H4.43235L4.43713 2.99998L4.44193 3.03369L4.5056 3.03829L4.56927 3.0429V3.10196V3.16103H4.59923H4.62919V3.10196V3.0429L4.69286 3.03829L4.75653 3.03369L4.76133 2.99998L4.76611 2.96627H4.69766H4.62919V2.89885V2.83144H4.60922H4.58924L4.57926 2.84143ZM4.96928 2.84091L4.95878 2.85141V2.90885V2.96627H4.89781H4.83685L4.84163 2.99998L4.84642 3.03369L4.90175 3.03829L4.95707 3.04288L4.96167 3.09821L4.96627 3.15354L4.99998 3.15833L5.03369 3.16311V3.10215V3.04118H5.09361H5.15354V3.00372V2.96627H5.09447H5.03541L5.03079 2.90273L5.0262 2.83918L5.00299 2.83479L4.97978 2.83041L4.96928 2.84091ZM5.37378 2.84091L5.36327 2.85141V2.90885V2.96627H5.30335H5.24342V3.00372V3.04118H5.30335H5.36327V3.1011V3.16103H5.40073H5.43818V3.1011V3.04118H5.49811H5.55803V3.00372V2.96627H5.49896H5.4399L5.43529 2.90273L5.43069 2.83918L5.40748 2.83479L5.38428 2.83041L5.37378 2.84091ZM5.77776 2.84143L5.76777 2.85141V2.90885V2.96627H5.6993H5.63085L5.63563 2.99998L5.64043 3.03369L5.7041 3.03829L5.76777 3.0429V3.10196V3.16103H5.79773H5.82769V3.10196V3.0429L5.89136 3.03829L5.95503 3.03369L5.95983 2.99998L5.96461 2.96627H5.89616H5.82769V2.89885V2.83144H5.80772H5.78774L5.77776 2.84143ZM6.17226 2.89776V2.96627H6.1038H6.03535L6.04013 2.99998L6.04492 3.03369L6.10859 3.03829L6.17226 3.0429V3.10196V3.16103H6.20223H6.23219V3.10196V3.0429L6.29586 3.03829L6.35953 3.03369V3.00372V2.97376L6.29668 2.96919L6.23384 2.96462L6.22927 2.90191L6.2247 2.83918L6.19848 2.83421L6.17226 2.82924V2.89776ZM6.57228 2.84091L6.56178 2.85141V2.90885V2.96627H6.50185H6.44193V3.00372V3.04118H6.50185H6.56178V3.1011V3.16103H6.59923H6.63668V3.1011V3.04118H6.69661H6.75653V3.00372V2.96627H6.69746H6.63841L6.63379 2.90273L6.62919 2.83918L6.60599 2.83479L6.58278 2.83041L6.57228 2.84091ZM6.97626 2.84143L6.96627 2.85141V2.90885V2.96627H6.89781H6.82936L6.83414 2.99998L6.83893 3.03369L6.9026 3.03829L6.96627 3.0429V3.10196V3.16103H6.99623H7.0262V3.10196V3.0429L7.08987 3.03829L7.15354 3.03369L7.15833 2.99998L7.16311 2.96627H7.09466H7.0262V2.89885V2.83144H7.00623H6.98624L6.97626 2.84143ZM7.37077 2.89776V2.96627H7.3023H7.23385L7.23863 2.99998L7.24342 3.03369L7.30709 3.03829L7.37077 3.0429V3.10196V3.16103H7.40073H7.43069V3.10196V3.0429L7.49436 3.03829L7.55803 3.03369L7.56283 2.99998L7.5676 2.96627H7.50001H7.43241L7.4278 2.90273L7.4232 2.83918L7.39698 2.83421L7.37077 2.82924V2.89776ZM7.77078 2.84091L7.76028 2.85141V2.90885V2.96627H7.70035H7.64043V3.00372V3.04118H7.70035H7.76028V3.1011V3.16103H7.79773H7.83518V3.1011V3.04118H7.89511H7.95503V3.00372V2.96627H7.89596H7.83691L7.83229 2.90273L7.82769 2.83918L7.80449 2.83479L7.78128 2.83041L7.77078 2.84091ZM0.164772 3.3023V3.37076H0.104847H0.0449219V3.40073V3.43069H0.104847H0.164772V3.49915V3.5676L0.19848 3.56282L0.232188 3.55803L0.236787 3.49436L0.241401 3.43069H0.300457H0.359529V3.40073V3.37076H0.300457H0.241401L0.236787 3.30709L0.232188 3.24342L0.19848 3.23863L0.164772 3.23385V3.3023ZM0.569266 3.30335V3.37076H0.501851H0.434435V3.40073V3.43069H0.501851H0.569266V3.49811V3.56552H0.599229H0.629192V3.49811V3.43069H0.696607H0.764023V3.40073V3.37076H0.696607H0.629192V3.30335V3.23593H0.599229H0.569266V3.30335ZM0.970869 3.2996L0.96627 3.36327L0.9026 3.36787L0.838929 3.37249V3.40158V3.43069H0.906345H0.973761V3.49811V3.56552H1.00372H1.03369V3.49811V3.43069H1.1011H1.16852V3.40073V3.37076H1.1011H1.03369V3.30335V3.23593H1.00458H0.975484L0.970869 3.2996ZM1.36327 3.30335V3.37076H1.30335H1.24342V3.40073V3.43069H1.3025H1.36155L1.36617 3.49436L1.37076 3.55803H1.40073H1.43069L1.43529 3.49436L1.4399 3.43069H1.49896H1.55803V3.40073V3.37076H1.49811H1.43818V3.30335V3.23593H1.40073H1.36327V3.30335ZM1.76777 3.30335V3.37076H1.69926H1.63073L1.63571 3.39698L1.64068 3.4232L1.70423 3.4278L1.76777 3.43241V3.49896V3.56552H1.79773H1.82769V3.49811V3.43069H1.89511H1.96253V3.40158V3.37249L1.89885 3.36787L1.83518 3.36327L1.83058 3.2996L1.82597 3.23593H1.79688H1.76777V3.30335ZM2.17226 3.30335V3.37076H2.10485H2.03743V3.40073V3.43069H2.10485H2.17226V3.49811V3.56552H2.20223H2.23219V3.49811V3.43069H2.2996H2.36702V3.40073V3.37076H2.2996H2.23219V3.30335V3.23593H2.20223H2.17226V3.30335ZM2.57177 3.24593L2.56178 3.2559V3.31334V3.37076H2.50185H2.44193V3.40073V3.43069H2.501H2.56005L2.56467 3.49436L2.56927 3.55803L2.60297 3.56282L2.63668 3.5676V3.49915V3.43069H2.69661H2.75653V3.40073V3.37076H2.69661H2.63668V3.30335V3.23593H2.60922H2.58175L2.57177 3.24593ZM2.96627 3.3023V3.37076H2.89776H2.82924L2.83421 3.39698L2.83918 3.4232L2.90273 3.4278L2.96627 3.43241V3.50001V3.5676L2.99998 3.56282L3.03369 3.55803L3.03829 3.49436L3.0429 3.43069H3.10196H3.16103V3.40073V3.37076H3.10196H3.0429L3.03829 3.30709L3.03369 3.24342L2.99998 3.23863L2.96627 3.23385V3.3023ZM3.37076 3.30335V3.37076H3.30335H3.23593V3.40073V3.43069H3.30335H3.37076V3.49811V3.56552H3.40073H3.43069V3.49811V3.43069H3.49811H3.56552V3.40073V3.37076H3.49811H3.43069V3.30335V3.23593H3.40073H3.37076V3.30335ZM3.77027 3.24593L3.76028 3.2559V3.31334V3.37076H3.70035H3.64043V3.40073V3.43069H3.6995H3.75856L3.76317 3.49436L3.76777 3.55803L3.80148 3.56282L3.83518 3.5676V3.49915V3.43069H3.89511H3.95503V3.40073V3.37076H3.89511H3.83518V3.30335V3.23593H3.80772H3.78025L3.77027 3.24593ZM4.16477 3.3023V3.37076H4.10485H4.04492V3.40073V3.43069H4.10485H4.16477V3.49915V3.5676L4.19848 3.56282L4.23219 3.55803L4.23679 3.49436L4.2414 3.43069H4.30046H4.35953V3.40073V3.37076H4.30046H4.2414L4.23679 3.30709L4.23219 3.24342L4.19848 3.23863L4.16477 3.23385V3.3023ZM4.56927 3.30335V3.37076H4.50185H4.43444V3.40073V3.43069H4.50185H4.56927V3.49811V3.56552H4.59923H4.62919V3.49811V3.43069H4.69661H4.76402V3.40073V3.37076H4.69661H4.62919V3.30335V3.23593H4.59923H4.56927V3.30335ZM4.96877 3.24593L4.95878 3.2559V3.31334V3.37076H4.89885H4.83893V3.40073V3.43069H4.898H4.95706L4.96167 3.49436L4.96627 3.55803L4.99998 3.56282L5.03369 3.5676V3.49915V3.43069H5.09361H5.15354V3.40073V3.37076H5.09361H5.03369V3.30335V3.23593H5.00623H4.97875L4.96877 3.24593ZM5.36327 3.3023V3.37076H5.30335H5.24342V3.40073V3.43069H5.30335H5.36327V3.49915V3.5676L5.39698 3.56282L5.43069 3.55803L5.43529 3.49436L5.4399 3.43069H5.49896H5.55803V3.40073V3.37076H5.49896H5.4399L5.43529 3.30709L5.43069 3.24342L5.39698 3.23863L5.36327 3.23385V3.3023ZM5.76777 3.30335V3.37076H5.70035H5.63294V3.40073V3.43069H5.70035H5.76777V3.49811V3.56552H5.79773H5.82769V3.49811V3.43069H5.89511H5.96253V3.40073V3.37076H5.89511H5.82769V3.30335V3.23593H5.79773H5.76777V3.30335ZM6.16937 3.2996L6.16477 3.36327L6.1011 3.36787L6.03743 3.37249V3.40158V3.43069H6.10485H6.17226V3.49811V3.56552H6.20223H6.23219V3.49811V3.43069H6.2996H6.36702V3.40073V3.37076H6.2996H6.23219V3.30335V3.23593H6.20308H6.17399L6.16937 3.2996ZM6.56178 3.30335V3.37076H6.50185H6.44193V3.40073V3.43069H6.501H6.56005L6.56467 3.49436L6.56927 3.55803H6.59923H6.62919L6.63379 3.49436L6.63841 3.43069H6.69746H6.75653V3.40073V3.37076H6.69661H6.63668V3.30335V3.23593H6.59923H6.56178V3.30335ZM6.96627 3.30335V3.37076H6.89885H6.83144V3.40073V3.43069H6.89885H6.96627V3.49811V3.56552H6.99623H7.0262V3.49811V3.43069H7.09361H7.16103V3.40158V3.37249L7.09736 3.36787L7.03369 3.36327L7.02909 3.2996L7.02447 3.23593H6.99538H6.96627V3.30335ZM7.37077 3.30335V3.37076H7.30335H7.23593V3.40073V3.43069H7.30335H7.37077V3.49811V3.56552H7.40073H7.43069V3.49811V3.43069H7.49811H7.56552V3.40073V3.37076H7.49811H7.43069V3.30335V3.23593H7.40073H7.37077V3.30335ZM7.77027 3.24593L7.76028 3.2559V3.31334V3.37076H7.70035H7.64043V3.40073V3.43069H7.6995H7.75856L7.76317 3.49436L7.76777 3.55803L7.80148 3.56282L7.83518 3.5676V3.49915V3.43069H7.89511H7.95503V3.40073V3.37076H7.89511H7.83518V3.30335V3.23593H7.80772H7.78025L7.77027 3.24593ZM0.164772 3.70035V3.76028H0.104847H0.0449219V3.79773V3.83518H0.104847H0.164772V3.89511V3.95503H0.202225H0.239678V3.89511V3.83518H0.299604H0.359529V3.79773V3.76028H0.299604H0.239678V3.70035V3.64043H0.202225H0.164772V3.70035ZM0.569266 3.6995V3.75856L0.505596 3.76317L0.441926 3.76777L0.437132 3.80148L0.432353 3.83518H0.500802H0.569266V3.89511V3.95503H0.599229H0.629192V3.89511V3.83518H0.697656H0.766105L0.761326 3.80148L0.756532 3.76777L0.692862 3.76317L0.629192 3.75856V3.6995V3.64043H0.599229H0.569266V3.6995ZM0.973761 3.6995V3.75856L0.91009 3.76317L0.84642 3.76777L0.841626 3.80148L0.836847 3.83518H0.905296H0.973761V3.89511V3.95503H1.00372H1.03369V3.89596V3.83691L1.09736 3.83229L1.16103 3.82769V3.79773V3.76777L1.09736 3.76317L1.03369 3.75856V3.6995V3.64043H1.00372H0.973761V3.6995ZM1.36327 3.70035V3.76028H1.30335H1.24342V3.79773V3.83518H1.30335H1.36327V3.89511V3.95503H1.40073H1.43818V3.89511V3.83518H1.49811H1.55803V3.79773V3.76028H1.49811H1.43818V3.70035V3.64043H1.40073H1.36327V3.70035ZM1.76777 3.6995V3.75856L1.7041 3.76317L1.64043 3.76777V3.79773V3.82769L1.7041 3.83229L1.76777 3.83691V3.89596V3.95503H1.79773H1.82769V3.89511V3.83518H1.89511H1.96253V3.79773V3.76028H1.89511H1.82769V3.70035V3.64043H1.79773H1.76777V3.6995ZM2.17226 3.6995V3.75856L2.10859 3.76317L2.04492 3.76777L2.04013 3.80148L2.03535 3.83518H2.1038H2.17226V3.89511V3.95503H2.20223H2.23219V3.89511V3.83518H2.30065H2.3691L2.36432 3.80148L2.35953 3.76777L2.29586 3.76317L2.23219 3.75856V3.6995V3.64043H2.20223H2.17226V3.6995ZM2.56178 3.70035V3.76028H2.50185H2.44193V3.79773V3.83518H2.50185H2.56178V3.89511V3.95503H2.59923H2.63668V3.89511V3.83518H2.69661H2.75653V3.79773V3.76028H2.69661H2.63668V3.70035V3.64043H2.59923H2.56178V3.70035ZM2.96627 3.69845V3.75856L2.9026 3.76317L2.83893 3.76777V3.79773V3.82769L2.9026 3.83229L2.96627 3.83691V3.89596V3.95503H3.00372H3.04118V3.89511V3.83518H3.1011H3.16103V3.79773V3.76028H3.102H3.04299L3.03833 3.7041L3.03369 3.64792L2.99998 3.64312L2.96627 3.63835V3.69845ZM3.37076 3.6995V3.75856L3.30709 3.76317L3.24342 3.76777L3.23863 3.80148L3.23385 3.83518H3.3023H3.37076V3.89511V3.95503H3.40073H3.43069V3.89511V3.83518H3.49915H3.5676L3.56282 3.80148L3.55803 3.76777L3.49436 3.76317L3.43069 3.75856V3.6995V3.64043H3.40073H3.37076V3.6995ZM3.76028 3.70035V3.76028H3.70035H3.64043V3.79773V3.83518H3.70035H3.76028V3.89511V3.95503H3.79773H3.83518V3.89511V3.83518H3.89511H3.95503V3.79773V3.76028H3.89511H3.83518V3.70035V3.64043H3.79773H3.76028V3.70035ZM4.16477 3.70035V3.76028H4.10485H4.04492V3.79773V3.83518H4.10485H4.16477V3.89511V3.95503H4.20223H4.23968V3.89511V3.83518H4.2996H4.35953V3.79773V3.76028H4.2996H4.23968V3.70035V3.64043H4.20223H4.16477V3.70035ZM4.56927 3.6995V3.75856L4.5056 3.76317L4.44193 3.76777L4.43713 3.80148L4.43235 3.83518H4.5008H4.56927V3.89511V3.95503H4.59923H4.62919V3.89511V3.83518H4.69766H4.76611L4.76133 3.80148L4.75653 3.76777L4.69286 3.76317L4.62919 3.75856V3.6995V3.64043H4.59923H4.56927V3.6995ZM4.95878 3.70035V3.76028H4.89885H4.83893V3.79773V3.83518H4.89885H4.95878V3.89511V3.95503H4.99623H5.03369V3.89511V3.83518H5.09361H5.15354V3.79773V3.76028H5.09361H5.03369V3.70035V3.64043H4.99623H4.95878V3.70035ZM5.36327 3.70035V3.76028H5.30335H5.24342V3.79773V3.83518H5.30335H5.36327V3.89511V3.95503H5.40073H5.43818V3.89511V3.83518H5.49811H5.55803V3.79773V3.76028H5.49811H5.43818V3.70035V3.64043H5.40073H5.36327V3.70035ZM5.76777 3.6995V3.75856L5.7041 3.76317L5.64043 3.76777L5.63563 3.80148L5.63085 3.83518H5.6993H5.76777V3.89511V3.95503H5.79773H5.82769V3.89511V3.83518H5.89616H5.96461L5.95983 3.80148L5.95503 3.76777L5.89136 3.76317L5.82769 3.75856V3.6995V3.64043H5.79773H5.76777V3.6995ZM6.17226 3.70035V3.76028H6.10485H6.03743V3.79773V3.83518H6.10485H6.17226V3.89511V3.95503H6.20223H6.23219V3.89596V3.83691L6.29586 3.83229L6.35953 3.82769V3.79773V3.76777L6.29586 3.76317L6.23219 3.75856V3.6995V3.64043H6.20223H6.17226V3.70035ZM6.56178 3.70035V3.76028H6.50185H6.44193V3.79773V3.83518H6.50185H6.56178V3.89511V3.95503H6.59923H6.63668V3.89511V3.83518H6.69661H6.75653V3.79773V3.76028H6.69661H6.63668V3.70035V3.64043H6.59923H6.56178V3.70035ZM6.96627 3.6995V3.75856L6.9026 3.76317L6.83893 3.76777L6.83414 3.80148L6.82936 3.83518H6.89781H6.96627V3.89511V3.95503H6.99623H7.0262V3.89511V3.83518H7.09361H7.16103V3.79773V3.76028H7.09361H7.0262V3.70035V3.64043H6.99623H6.96627V3.6995ZM7.37077 3.6995V3.75856L7.30709 3.76317L7.24342 3.76777L7.23863 3.80148L7.23385 3.83518H7.3023H7.37077V3.89511V3.95503H7.40073H7.43069V3.89511V3.83518H7.49915H7.5676L7.56283 3.80148L7.55803 3.76777L7.49436 3.76317L7.43069 3.75856V3.6995V3.64043H7.40073H7.37077V3.6995ZM7.76028 3.70035V3.76028H7.70035H7.64043V3.79773V3.83518H7.70035H7.76028V3.89511V3.95503H7.79773H7.83518V3.89511V3.83518H7.89511H7.95503V3.79773V3.76028H7.89511H7.83518V3.70035V3.64043H7.79773H7.76028V3.70035ZM0.164772 4.10485V4.16477H0.104847H0.0449219V4.20223V4.23968H0.104847H0.164772V4.2996V4.35953H0.202225H0.239678V4.2996V4.23968H0.299604H0.359529V4.20223V4.16477H0.299604H0.239678V4.10485V4.04492H0.202225H0.164772V4.10485ZM0.569266 4.10485V4.16477H0.500802H0.432353L0.437132 4.19848L0.441926 4.23219L0.505596 4.23679L0.569266 4.2414V4.30046V4.35953H0.599229H0.629192V4.30046V4.2414L0.692862 4.23679L0.756532 4.23219L0.761326 4.19848L0.766105 4.16477H0.697656H0.629192V4.10485V4.04492H0.599229H0.569266V4.10485ZM0.973761 4.10485V4.16477H0.905296H0.836847L0.841626 4.19848L0.84642 4.23219L0.91009 4.23679L0.973761 4.2414V4.30046V4.35953H1.00372H1.03369V4.30046V4.2414L1.09736 4.23679L1.16103 4.23219V4.20223V4.17226L1.09736 4.16766L1.03369 4.16305V4.10399V4.04492H1.00372H0.973761V4.10485ZM1.36327 4.10485V4.16477H1.30335H1.24342V4.20223V4.23968H1.30335H1.36327V4.2996V4.35953H1.40073H1.43818V4.2996V4.23968H1.49811H1.55803V4.20223V4.16477H1.49811H1.43818V4.10485V4.04492H1.40073H1.36327V4.10485ZM1.76777 4.10399V4.16305L1.7041 4.16766L1.64043 4.17226V4.20223V4.23219L1.7041 4.23679L1.76777 4.2414V4.30046V4.35953H1.79773H1.82769V4.2996V4.23968H1.89511H1.96253V4.20223V4.16477H1.89511H1.82769V4.10485V4.04492H1.79773H1.76777V4.10399ZM2.17226 4.10485V4.16477H2.1038H2.03535L2.04013 4.19848L2.04492 4.23219L2.10859 4.23679L2.17226 4.2414V4.30046V4.35953H2.20223H2.23219V4.30046V4.2414L2.29586 4.23679L2.35953 4.23219L2.36432 4.19848L2.3691 4.16477H2.30065H2.23219V4.10485V4.04492H2.20223H2.17226V4.10485ZM2.56178 4.10485V4.16477H2.50185H2.44193V4.20223V4.23968H2.50185H2.56178V4.2996V4.35953H2.59923H2.63668V4.2996V4.23968H2.69661H2.75653V4.20223V4.16477H2.69661H2.63668V4.10485V4.04492H2.59923H2.56178V4.10485ZM2.96627 4.10399V4.16305L2.9026 4.16766L2.83893 4.17226V4.20223V4.23219L2.9026 4.23679L2.96627 4.2414V4.30151V4.36161L2.99998 4.35683L3.03369 4.35204L3.03833 4.29586L3.04299 4.23968H3.102H3.16103V4.20223V4.16477H3.1011H3.04118V4.10485V4.04492H3.00372H2.96627V4.10399ZM3.37076 4.10485V4.16477H3.3023H3.23385L3.23863 4.19848L3.24342 4.23219L3.30709 4.23679L3.37076 4.2414V4.30046V4.35953H3.40073H3.43069V4.30046V4.2414L3.49436 4.23679L3.55803 4.23219L3.56282 4.19848L3.5676 4.16477H3.49915H3.43069V4.10485V4.04492H3.40073H3.37076V4.10485ZM3.76028 4.10485V4.16477H3.70035H3.64043V4.20223V4.23968H3.70035H3.76028V4.2996V4.35953H3.79773H3.83518V4.2996V4.23968H3.89511H3.95503V4.20223V4.16477H3.89511H3.83518V4.10485V4.04492H3.79773H3.76028V4.10485ZM4.16477 4.10485V4.16477H4.10485H4.04492V4.20223V4.23968H4.10485H4.16477V4.2996V4.35953H4.20223H4.23968V4.2996V4.23968H4.2996H4.35953V4.20223V4.16477H4.2996H4.23968V4.10485V4.04492H4.20223H4.16477V4.10485ZM4.56927 4.10485V4.16477H4.5008H4.43235L4.43713 4.19848L4.44193 4.23219L4.5056 4.23679L4.56927 4.2414V4.30046V4.35953H4.59923H4.62919V4.30046V4.2414L4.69286 4.23679L4.75653 4.23219L4.76133 4.19848L4.76611 4.16477H4.69766H4.62919V4.10485V4.04492H4.59923H4.56927V4.10485ZM4.95878 4.10485V4.16477H4.89885H4.83893V4.20223V4.23968H4.89796H4.95697L4.96163 4.29586L4.96627 4.35204L4.99998 4.35683L5.03369 4.36161V4.30065V4.23968H5.09361H5.15354V4.20223V4.16477H5.09361H5.03369V4.10485V4.04492H4.99623H4.95878V4.10485ZM5.36327 4.10485V4.16477H5.30335H5.24342V4.20223V4.23968H5.30335H5.36327V4.2996V4.35953H5.40073H5.43818V4.2996V4.23968H5.49811H5.55803V4.20223V4.16477H5.49811H5.43818V4.10485V4.04492H5.40073H5.36327V4.10485ZM5.76777 4.10485V4.16477H5.6993H5.63085L5.63563 4.19848L5.64043 4.23219L5.7041 4.23679L5.76777 4.2414V4.30046V4.35953H5.79773H5.82769V4.30046V4.2414L5.89136 4.23679L5.95503 4.23219L5.95983 4.19848L5.96461 4.16477H5.89616H5.82769V4.10485V4.04492H5.79773H5.76777V4.10485ZM6.17226 4.10485V4.16477H6.10485H6.03743V4.20223V4.23968H6.10485H6.17226V4.2996V4.35953H6.20223H6.23219V4.30046V4.2414L6.29586 4.23679L6.35953 4.23219V4.20223V4.17226L6.29586 4.16766L6.23219 4.16305V4.10399V4.04492H6.20223H6.17226V4.10485ZM6.56178 4.10485V4.16477H6.50185H6.44193V4.20223V4.23968H6.50185H6.56178V4.2996V4.35953H6.59923H6.63668V4.2996V4.23968H6.69661H6.75653V4.20223V4.16477H6.69661H6.63668V4.10485V4.04492H6.59923H6.56178V4.10485ZM6.96627 4.10485V4.16477H6.89781H6.82936L6.83414 4.19848L6.83893 4.23219L6.9026 4.23679L6.96627 4.2414V4.30046V4.35953H6.99623H7.0262V4.2996V4.23968H7.09361H7.16103V4.20223V4.16477H7.09361H7.0262V4.10485V4.04492H6.99623H6.96627V4.10485ZM7.37077 4.10485V4.16477H7.3023H7.23385L7.23863 4.19848L7.24342 4.23219L7.30709 4.23679L7.37077 4.2414V4.30046V4.35953H7.40073H7.43069V4.30046V4.2414L7.49436 4.23679L7.55803 4.23219L7.56283 4.19848L7.5676 4.16477H7.49915H7.43069V4.10485V4.04492H7.40073H7.37077V4.10485ZM7.76028 4.10485V4.16477H7.70035H7.64043V4.20223V4.23968H7.70035H7.76028V4.2996V4.35953H7.79773H7.83518V4.2996V4.23968H7.89511H7.95503V4.20223V4.16477H7.89511H7.83518V4.10485V4.04492H7.79773H7.76028V4.10485ZM0.164772 4.5008V4.56927H0.104847H0.0449219V4.59923V4.62919H0.104847H0.164772V4.69766V4.76611L0.19848 4.76133L0.232188 4.75653L0.236787 4.69286L0.241401 4.62919H0.300457H0.359529V4.59923V4.56927H0.300457H0.241401L0.236787 4.5056L0.232188 4.44193L0.19848 4.43713L0.164772 4.43235V4.5008ZM0.569266 4.50185V4.56927H0.501851H0.434435V4.59923V4.62919H0.501851H0.569266V4.69661V4.76402H0.599229H0.629192V4.69661V4.62919H0.696607H0.764023V4.59923V4.56927H0.696607H0.629192V4.50185V4.43444H0.599229H0.569266V4.50185ZM0.973761 4.50185V4.56927H0.906345H0.838929V4.59838V4.62747L0.9026 4.63208L0.96627 4.63668L0.970869 4.70035L0.975484 4.76402H1.00458H1.03369V4.69661V4.62919H1.1011H1.16852V4.59923V4.56927H1.1011H1.03369V4.50185V4.43444H1.00372H0.973761V4.50185ZM1.36327 4.50185V4.56927H1.30335H1.24342V4.59923V4.62919H1.30335H1.36327V4.69661V4.76402H1.40073H1.43818V4.69661V4.62919H1.49811H1.55803V4.59923V4.56927H1.49811H1.43818V4.50185V4.43444H1.40073H1.36327V4.50185ZM1.76777 4.50185V4.56927H1.69926H1.63073L1.63571 4.59548L1.64068 4.6217L1.70423 4.6263L1.76777 4.63091V4.69746V4.76402H1.79688H1.82597L1.83058 4.70035L1.83518 4.63668L1.89885 4.63208L1.96253 4.62747V4.59923V4.57099L1.89885 4.56638L1.83518 4.56178L1.83058 4.49811L1.82597 4.43444H1.79688H1.76777V4.50185ZM2.17226 4.50185V4.56927H2.10485H2.03743V4.59923V4.62919H2.10485H2.17226V4.69661V4.76402H2.20223H2.23219V4.69661V4.62919H2.2996H2.36702V4.59923V4.56927H2.2996H2.23219V4.50185V4.43444H2.20223H2.17226V4.50185ZM2.57177 4.44443L2.56178 4.45441V4.51184V4.56927H2.50185H2.44193V4.59923V4.62919H2.501H2.56005L2.56467 4.69286L2.56927 4.75653L2.60297 4.76133L2.63668 4.76611V4.69766V4.62919H2.69661H2.75653V4.59923V4.56927H2.69661H2.63668V4.50185V4.43444H2.60922H2.58175L2.57177 4.44443ZM2.96627 4.5008V4.56927H2.89776H2.82924L2.83421 4.59548L2.83918 4.6217L2.90273 4.6263L2.96627 4.63091V4.69851V4.76611L2.99998 4.76133L3.03369 4.75653L3.03829 4.69286L3.0429 4.62919H3.10196H3.16103V4.59923V4.56927H3.10196H3.0429L3.03829 4.5056L3.03369 4.44193L2.99998 4.43713L2.96627 4.43235V4.5008ZM3.37076 4.50185V4.56927H3.30335H3.23593V4.59923V4.62919H3.30335H3.37076V4.69661V4.76402H3.40073H3.43069V4.69661V4.62919H3.49811H3.56552V4.59923V4.56927H3.49811H3.43069V4.50185V4.43444H3.40073H3.37076V4.50185ZM3.77027 4.44443L3.76028 4.45441V4.51184V4.56927H3.70035H3.64043V4.59923V4.62919H3.6995H3.75856L3.76317 4.69286L3.76777 4.75653L3.80148 4.76133L3.83518 4.76611V4.69766V4.62919H3.89511H3.95503V4.59923V4.56927H3.89511H3.83518V4.50185V4.43444H3.80772H3.78025L3.77027 4.44443ZM4.16477 4.5008V4.56927H4.10485H4.04492V4.59923V4.62919H4.10485H4.16477V4.69766V4.76611L4.19848 4.76133L4.23219 4.75653L4.23679 4.69286L4.2414 4.62919H4.30046H4.35953V4.59923V4.56927H4.30046H4.2414L4.23679 4.5056L4.23219 4.44193L4.19848 4.43713L4.16477 4.43235V4.5008ZM4.56927 4.50185V4.56927H4.50185H4.43444V4.59923V4.62919H4.50185H4.56927V4.69661V4.76402H4.59923H4.62919V4.69661V4.62919H4.69661H4.76402V4.59923V4.56927H4.69661H4.62919V4.50185V4.43444H4.59923H4.56927V4.50185ZM4.96877 4.44443L4.95878 4.45441V4.51184V4.56927H4.89885H4.83893V4.59923V4.62919H4.898H4.95706L4.96167 4.69286L4.96627 4.75653L4.99998 4.76133L5.03369 4.76611V4.69766V4.62919H5.09361H5.15354V4.59923V4.56927H5.09361H5.03369V4.50185V4.43444H5.00623H4.97875L4.96877 4.44443ZM5.36327 4.5008V4.56927H5.30335H5.24342V4.59923V4.62919H5.30335H5.36327V4.69766V4.76611L5.39698 4.76133L5.43069 4.75653L5.43529 4.69286L5.4399 4.62919H5.49896H5.55803V4.59923V4.56927H5.49896H5.4399L5.43529 4.5056L5.43069 4.44193L5.39698 4.43713L5.36327 4.43235V4.5008ZM5.76777 4.50185V4.56927H5.70035H5.63294V4.59923V4.62919H5.70035H5.76777V4.69661V4.76402H5.79773H5.82769V4.69661V4.62919H5.89511H5.96253V4.59923V4.56927H5.89511H5.82769V4.50185V4.43444H5.79773H5.76777V4.50185ZM6.17226 4.50185V4.56927H6.10485H6.03743V4.59838V4.62747L6.1011 4.63208L6.16477 4.63668L6.16937 4.70035L6.17399 4.76402H6.20308H6.23219V4.69661V4.62919H6.2996H6.36702V4.59923V4.56927H6.2996H6.23219V4.50185V4.43444H6.20223H6.17226V4.50185ZM6.56178 4.50185V4.56927H6.50185H6.44193V4.59923V4.62919H6.50185H6.56178V4.69661V4.76402H6.59923H6.63668V4.69661V4.62919H6.69661H6.75653V4.59923V4.56927H6.69661H6.63668V4.50185V4.43444H6.59923H6.56178V4.50185ZM6.96627 4.50185V4.56927H6.89885H6.83144V4.59923V4.62919H6.89885H6.96627V4.69661V4.76402H6.99538H7.02447L7.02909 4.70035L7.03369 4.63668L7.09736 4.63208L7.16103 4.62747V4.59838V4.56927H7.09361H7.0262V4.50185V4.43444H6.99623H6.96627V4.50185ZM7.37077 4.50185V4.56927H7.30335H7.23593V4.59923V4.62919H7.30335H7.37077V4.69661V4.76402H7.40073H7.43069V4.69661V4.62919H7.49811H7.56552V4.59923V4.56927H7.49811H7.43069V4.50185V4.43444H7.40073H7.37077V4.50185ZM7.77027 4.44443L7.76028 4.45441V4.51184V4.56927H7.70035H7.64043V4.59923V4.62919H7.6995H7.75856L7.76317 4.69286L7.76777 4.75653L7.80148 4.76133L7.83518 4.76611V4.69766V4.62919H7.89511H7.95503V4.59923V4.56927H7.89511H7.83518V4.50185V4.43444H7.80772H7.78025L7.77027 4.44443ZM0.164772 4.89885V4.95878H0.104847H0.0449219V4.99623V5.03369H0.104847H0.164772V5.09361V5.15354H0.202225H0.239678V5.09361V5.03369H0.299604H0.359529V4.99623V4.95878H0.299604H0.239678V4.89885V4.83893H0.202225H0.164772V4.89885ZM0.569266 4.898V4.95706L0.505596 4.96167L0.441926 4.96627L0.437132 4.99998L0.432353 5.03369H0.500802H0.569266V5.09361V5.15354H0.599229H0.629192V5.09361V5.03369H0.697656H0.766105L0.761326 4.99998L0.756532 4.96627L0.692862 4.96167L0.629192 4.95706V4.898V4.83893H0.599229H0.569266V4.898ZM0.973761 4.898V4.95706L0.91009 4.96167L0.84642 4.96627L0.841626 4.99998L0.836847 5.03369H0.905296H0.973761V5.09361V5.15354H1.00372H1.03369V5.09447V5.03541L1.09736 5.03079L1.16103 5.0262V4.99623V4.96627L1.09736 4.96167L1.03369 4.95706V4.898V4.83893H1.00372H0.973761V4.898ZM1.36327 4.89885V4.95878H1.30335H1.24342V4.99623V5.03369H1.30335H1.36327V5.09361V5.15354H1.40073H1.43818V5.09361V5.03369H1.49811H1.55803V4.99623V4.95878H1.49811H1.43818V4.89885V4.83893H1.40073H1.36327V4.89885ZM1.76777 4.898V4.95706L1.7041 4.96167L1.64043 4.96627V4.99623V5.0262L1.7041 5.03079L1.76777 5.03541V5.09447V5.15354H1.79773H1.82769V5.09361V5.03369H1.89616H1.96461L1.95983 4.99998L1.95503 4.96627L1.89136 4.96167L1.82769 4.95706V4.898V4.83893H1.79773H1.76777V4.898ZM2.17226 4.898V4.95706L2.10859 4.96167L2.04492 4.96627L2.04013 4.99998L2.03535 5.03369H2.1038H2.17226V5.09361V5.15354H2.20223H2.23219V5.09361V5.03369H2.30065H2.3691L2.36432 4.99998L2.35953 4.96627L2.29586 4.96167L2.23219 4.95706V4.898V4.83893H2.20223H2.17226V4.898ZM2.56178 4.89796V4.95697L2.5056 4.96163L2.44942 4.96627L2.44462 4.99998L2.43984 5.03369H2.5008H2.56178V5.09361V5.15354H2.59923H2.63668V5.09361V5.03369H2.69661H2.75653V4.99623V4.95878H2.69661H2.63668V4.89885V4.83893H2.59923H2.56178V4.89796ZM2.96627 4.89695V4.95706L2.9026 4.96167L2.83893 4.96627V4.99623V5.0262L2.9026 5.03079L2.96627 5.03541V5.09447V5.15354H3.00372H3.04118V5.09361V5.03369H3.10215H3.16311L3.15833 4.99998L3.15354 4.96627L3.09821 4.96167L3.04288 4.95707L3.03829 4.90175L3.03369 4.84642L2.99998 4.84163L2.96627 4.83685V4.89695ZM3.37076 4.898V4.95706L3.30709 4.96167L3.24342 4.96627L3.23863 4.99998L3.23385 5.03369H3.3023H3.37076V5.09361V5.15354H3.40073H3.43069V5.09361V5.03369H3.49915H3.5676L3.56282 4.99998L3.55803 4.96627L3.49436 4.96167L3.43069 4.95706V4.898V4.83893H3.40073H3.37076V4.898ZM3.76028 4.89796V4.95697L3.7041 4.96163L3.64792 4.96627L3.64312 4.99998L3.63835 5.03369H3.6993H3.76028V5.09361V5.15354H3.79773H3.83518V5.09361V5.03369H3.89511H3.95503V4.99623V4.95878H3.89511H3.83518V4.89885V4.83893H3.79773H3.76028V4.89796ZM4.16477 4.89885V4.95878H4.10485H4.04492V4.99623V5.03369H4.10485H4.16477V5.09361V5.15354H4.20223H4.23968V5.09361V5.03369H4.30065H4.36161L4.35683 4.99998L4.35204 4.96627L4.29586 4.96163L4.23968 4.95697V4.89796V4.83893H4.20223H4.16477V4.89885ZM4.56927 4.898V4.95706L4.5056 4.96167L4.44193 4.96627L4.43713 4.99998L4.43235 5.03369H4.5008H4.56927V5.09361V5.15354H4.59923H4.62919V5.09361V5.03369H4.69766H4.76611L4.76133 4.99998L4.75653 4.96627L4.69286 4.96167L4.62919 4.95706V4.898V4.83893H4.59923H4.56927V4.898ZM4.96877 4.84892L4.95878 4.8589V4.90793V4.95697L4.9026 4.96163L4.84642 4.96627L4.84163 4.99998L4.83685 5.03369H4.89781H4.95878V5.09361V5.15354H4.99623H5.03369V5.09361V5.03369H5.09361H5.15354V4.99623V4.95878H5.09361H5.03369V4.89885V4.83893H5.00623H4.97875L4.96877 4.84892ZM5.36327 4.89885V4.95878H5.30335H5.24342V4.99623V5.03369H5.30335H5.36327V5.09361V5.15354H5.40073H5.43818V5.09361V5.03369H5.49811H5.55803V4.99623V4.95878H5.49811H5.43818V4.89885V4.83893H5.40073H5.36327V4.89885ZM5.76777 4.898V4.95706L5.7041 4.96167L5.64043 4.96627L5.63563 4.99998L5.63085 5.03369H5.6993H5.76777V5.09361V5.15354H5.79773H5.82769V5.09361V5.03369H5.89616H5.96461L5.95983 4.99998L5.95503 4.96627L5.89136 4.96167L5.82769 4.95706V4.898V4.83893H5.79773H5.76777V4.898ZM6.17226 4.898V4.95706L6.10859 4.96167L6.04492 4.96627L6.04013 4.99998L6.03535 5.03369H6.1038H6.17226V5.09361V5.15354H6.20223H6.23219V5.09447V5.03541L6.29586 5.03079L6.35953 5.0262V4.99623V4.96627L6.29586 4.96167L6.23219 4.95706V4.898V4.83893H6.20223H6.17226V4.898ZM6.56178 4.89885V4.95878H6.50185H6.44193V4.99623V5.03369H6.50185H6.56178V5.09361V5.15354H6.59923H6.63668V5.09361V5.03369H6.69661H6.75653V4.99623V4.95878H6.69661H6.63668V4.89885V4.83893H6.59923H6.56178V4.89885ZM6.96627 4.898V4.95706L6.9026 4.96167L6.83893 4.96627L6.83414 4.99998L6.82936 5.03369H6.89781H6.96627V5.09361V5.15354H6.99623H7.0262V5.09361V5.03369H7.09466H7.16311L7.15833 4.99998L7.15354 4.96627L7.08987 4.96167L7.0262 4.95706V4.898V4.83893H6.99623H6.96627V4.898ZM7.37077 4.898V4.95706L7.30709 4.96167L7.24342 4.96627L7.23863 4.99998L7.23385 5.03369H7.3023H7.37077V5.09361V5.15354H7.40073H7.43069V5.09361V5.03369H7.49915H7.5676L7.56283 4.99998L7.55803 4.96627L7.49436 4.96167L7.43069 4.95706V4.898V4.83893H7.40073H7.37077V4.898ZM7.76028 4.89796V4.95697L7.7041 4.96163L7.64792 4.96627L7.64312 4.99998L7.63835 5.03369H7.6993H7.76028V5.09361V5.15354H7.79773H7.83518V5.09361V5.03369H7.89511H7.95503V4.99623V4.95878H7.89511H7.83518V4.89885V4.83893H7.79773H7.76028V4.89796ZM0.164772 5.30335V5.36327H0.104847H0.0449219V5.40073V5.43818H0.104847H0.164772V5.49811V5.55803H0.202225H0.239678V5.49811V5.43818H0.299604H0.359529V5.40073V5.36327H0.299604H0.239678V5.30335V5.24342H0.202225H0.164772V5.30335ZM0.569266 5.3025V5.36155L0.505596 5.36617L0.441926 5.37076V5.40073V5.43069L0.505596 5.43529L0.569266 5.4399V5.49896V5.55803H0.599229H0.629192V5.49811V5.43818H0.696607H0.764023V5.40073V5.36327H0.696607H0.629192V5.30335V5.24342H0.599229H0.569266V5.3025ZM0.973761 5.30335V5.36327H0.906345H0.838929V5.40073V5.43818H0.906345H0.973761V5.49811V5.55803H1.00372H1.03369V5.49896V5.4399L1.09736 5.43529L1.16103 5.43069V5.40073V5.37076L1.09736 5.36617L1.03369 5.36155V5.3025V5.24342H1.00372H0.973761V5.30335ZM1.36327 5.30335V5.36327H1.30335H1.24342V5.40073V5.43818H1.30335H1.36327V5.49811V5.55803H1.40073H1.43818V5.49811V5.43818H1.49811H1.55803V5.40073V5.36327H1.49811H1.43818V5.30335V5.24342H1.40073H1.36327V5.30335ZM1.76777 5.3025V5.36155L1.7041 5.36617L1.64043 5.37076V5.40073V5.43069L1.7041 5.43529L1.76777 5.4399V5.49896V5.55803H1.79773H1.82769V5.49811V5.43818H1.89511H1.96253V5.40073V5.36327H1.89511H1.82769V5.30335V5.24342H1.79773H1.76777V5.3025ZM2.17226 5.30335V5.36327H2.10485H2.03743V5.40073V5.43818H2.10485H2.17226V5.49811V5.55803H2.20223H2.23219V5.49896V5.4399L2.29586 5.43529L2.35953 5.43069V5.40073V5.37076L2.29586 5.36617L2.23219 5.36155V5.3025V5.24342H2.20223H2.17226V5.30335ZM2.56178 5.30335V5.36327H2.50185H2.44193V5.40073V5.43818H2.50185H2.56178V5.49811V5.55803H2.59923H2.63668V5.49811V5.43818H2.69661H2.75653V5.40073V5.36327H2.69661H2.63668V5.30335V5.24342H2.59923H2.56178V5.30335ZM2.96627 5.3025V5.36155L2.9026 5.36617L2.83893 5.37076V5.40073V5.43069L2.9026 5.43529L2.96627 5.4399V5.49896V5.55803H3.00372H3.04118V5.49811V5.43818H3.1011H3.16103V5.40073V5.36327H3.1011H3.04118V5.30335V5.24342H3.00372H2.96627V5.3025ZM3.37076 5.30335V5.36327H3.3023H3.23385L3.23863 5.39698L3.24342 5.43069L3.30709 5.43529L3.37076 5.4399V5.49896V5.55803H3.40073H3.43069V5.49896V5.4399L3.49436 5.43529L3.55803 5.43069L3.56282 5.39698L3.5676 5.36327H3.49915H3.43069V5.30335V5.24342H3.40073H3.37076V5.30335ZM3.76028 5.30335V5.36327H3.70035H3.64043V5.40073V5.43818H3.70035H3.76028V5.49811V5.55803H3.79773H3.83518V5.49811V5.43818H3.89511H3.95503V5.40073V5.36327H3.89511H3.83518V5.30335V5.24342H3.79773H3.76028V5.30335ZM4.16477 5.30335V5.36327H4.10485H4.04492V5.40073V5.43818H4.10485H4.16477V5.49811V5.55803H4.20223H4.23968V5.49811V5.43818H4.2996H4.35953V5.40073V5.36327H4.2996H4.23968V5.30335V5.24342H4.20223H4.16477V5.30335ZM4.56927 5.30335V5.36327H4.5008H4.43235L4.43713 5.39698L4.44193 5.43069L4.5056 5.43529L4.56927 5.4399V5.49896V5.55803H4.59923H4.62919V5.49896V5.4399L4.69286 5.43529L4.75653 5.43069L4.76133 5.39698L4.76611 5.36327H4.69766H4.62919V5.30335V5.24342H4.59923H4.56927V5.30335ZM4.95878 5.30335V5.36327H4.89885H4.83893V5.40073V5.43818H4.89885H4.95878V5.49811V5.55803H4.99623H5.03369V5.49811V5.43818H5.09361H5.15354V5.40073V5.36327H5.09361H5.03369V5.30335V5.24342H4.99623H4.95878V5.30335ZM5.36327 5.30335V5.36327H5.30335H5.24342V5.40073V5.43818H5.30335H5.36327V5.49811V5.55803H5.40073H5.43818V5.49811V5.43818H5.49811H5.55803V5.40073V5.36327H5.49811H5.43818V5.30335V5.24342H5.40073H5.36327V5.30335ZM5.76777 5.3025V5.36155L5.7041 5.36617L5.64043 5.37076V5.40073V5.43069L5.7041 5.43529L5.76777 5.4399V5.49896V5.55803H5.79773H5.82769V5.49811V5.43818H5.89511H5.96253V5.40073V5.36327H5.89511H5.82769V5.30335V5.24342H5.79773H5.76777V5.3025ZM6.17226 5.30335V5.36327H6.10485H6.03743V5.40073V5.43818H6.10485H6.17226V5.49811V5.55803H6.20223H6.23219V5.49896V5.4399L6.29586 5.43529L6.35953 5.43069V5.40073V5.37076L6.29586 5.36617L6.23219 5.36155V5.3025V5.24342H6.20223H6.17226V5.30335ZM6.56178 5.30335V5.36327H6.50185H6.44193V5.40073V5.43818H6.50185H6.56178V5.49811V5.55803H6.59923H6.63668V5.49811V5.43818H6.69661H6.75653V5.40073V5.36327H6.69661H6.63668V5.30335V5.24342H6.59923H6.56178V5.30335ZM6.96627 5.3025V5.36155L6.9026 5.36617L6.83893 5.37076V5.40073V5.43069L6.9026 5.43529L6.96627 5.4399V5.49896V5.55803H6.99623H7.0262V5.49811V5.43818H7.09361H7.16103V5.40073V5.36327H7.09361H7.0262V5.30335V5.24342H6.99623H6.96627V5.3025ZM7.37077 5.30335V5.36327H7.30335H7.23593V5.40073V5.43818H7.30335H7.37077V5.49811V5.55803H7.40073H7.43069V5.49896V5.4399L7.49436 5.43529L7.55803 5.43069V5.40073V5.37076L7.49436 5.36617L7.43069 5.36155V5.3025V5.24342H7.40073H7.37077V5.30335ZM7.76028 5.30335V5.36327H7.70035H7.64043V5.40073V5.43818H7.70035H7.76028V5.49811V5.55803H7.79773H7.83518V5.49811V5.43818H7.89511H7.95503V5.40073V5.36327H7.89511H7.83518V5.30335V5.24342H7.79773H7.76028V5.30335ZM0.175274 5.64241L0.164772 5.65291V5.71035V5.76777H0.104847H0.0449219V5.79773V5.82769H0.104847H0.164772V5.89511V5.96253H0.202225H0.239678V5.89511V5.82769H0.299604H0.359529V5.79773V5.76777H0.300457H0.241401L0.236787 5.70423L0.232188 5.64068L0.208982 5.63629L0.185776 5.6319L0.175274 5.64241ZM0.569266 5.70035V5.76777H0.501851H0.434435V5.79773V5.82769H0.501851H0.569266V5.89511V5.96253H0.598375H0.627469L0.632083 5.89885L0.636682 5.83518L0.700353 5.83059L0.764023 5.82597V5.79688V5.76777H0.696607H0.629192V5.70035V5.63294H0.599229H0.569266V5.70035ZM0.973761 5.70035V5.76777H0.906345H0.838929V5.79688V5.82597L0.9026 5.83059L0.96627 5.83518L0.970869 5.89885L0.975484 5.96253H1.00458H1.03369V5.89511V5.82769H1.1011H1.16852V5.79773V5.76777H1.1011H1.03369V5.70035V5.63294H1.00372H0.973761V5.70035ZM1.37378 5.64241L1.36327 5.65291V5.71035V5.76777H1.30335H1.24342V5.79773V5.82769H1.30335H1.36327V5.89511V5.96253H1.40073H1.43818V5.89511V5.82769H1.49811H1.55803V5.79773V5.76777H1.49896H1.4399L1.43529 5.70423L1.43069 5.64068L1.40748 5.63629L1.38428 5.6319L1.37378 5.64241ZM1.76777 5.6995V5.76605L1.70423 5.77066L1.64068 5.77526L1.63571 5.80148L1.63073 5.82769H1.69926H1.76777V5.89511V5.96253H1.79688H1.82597L1.83058 5.89885L1.83518 5.83518L1.89885 5.83059L1.96253 5.82597V5.79688V5.76777H1.89511H1.82769V5.70035V5.63294H1.79773H1.76777V5.6995ZM2.17226 5.70035V5.76777H2.10485H2.03743V5.79688V5.82597L2.1011 5.83059L2.16477 5.83518L2.16937 5.89885L2.17399 5.96253H2.20308H2.23219V5.89511V5.82769H2.2996H2.36702V5.79773V5.76777H2.2996H2.23219V5.70035V5.63294H2.20223H2.17226V5.70035ZM2.57228 5.64241L2.56178 5.65291V5.71035V5.76777H2.50185H2.44193V5.79773V5.82769H2.50185H2.56178V5.89511V5.96253H2.59923H2.63668V5.89511V5.82769H2.69661H2.75653V5.79773V5.76777H2.69746H2.63841L2.63379 5.70423L2.62919 5.64068L2.60599 5.63629L2.58278 5.6319L2.57228 5.64241ZM2.96627 5.69845V5.76605L2.90273 5.77066L2.83918 5.77526L2.83421 5.80148L2.82924 5.82769H2.89776H2.96627V5.89616V5.96461L2.99998 5.95983L3.03369 5.95503L3.03829 5.89136L3.0429 5.82769H3.10196H3.16103V5.79773V5.76777H3.10196H3.0429L3.03829 5.7041L3.03369 5.64043L2.99998 5.63563L2.96627 5.63085V5.69845ZM3.37076 5.70035V5.76777H3.30335H3.23593V5.79773V5.82769H3.30335H3.37076V5.89511V5.96253H3.40073H3.43069V5.89511V5.82769H3.49811H3.56552V5.79773V5.76777H3.49811H3.43069V5.70035V5.63294H3.40073H3.37076V5.70035ZM3.77027 5.64293L3.76028 5.65291V5.71035V5.76777H3.70035H3.64043V5.79773V5.82769H3.6995H3.75856L3.76317 5.89136L3.76777 5.95503L3.80148 5.95983L3.83518 5.96461V5.89616V5.82769H3.89511H3.95503V5.79773V5.76777H3.89511H3.83518V5.70035V5.63294H3.80772H3.78025L3.77027 5.64293ZM4.16477 5.6993V5.76777H4.10485H4.04492V5.79773V5.82769H4.10485H4.16477V5.89616V5.96461L4.19848 5.95983L4.23219 5.95503L4.23679 5.89136L4.2414 5.82769H4.30046H4.35953V5.79773V5.76777H4.30046H4.2414L4.23679 5.7041L4.23219 5.64043L4.19848 5.63563L4.16477 5.63085V5.6993ZM4.56927 5.70035V5.76777H4.50185H4.43444V5.79773V5.82769H4.50185H4.56927V5.89511V5.96253H4.59923H4.62919V5.89511V5.82769H4.69661H4.76402V5.79773V5.76777H4.69661H4.62919V5.70035V5.63294H4.59923H4.56927V5.70035ZM4.96877 5.64293L4.95878 5.65291V5.71035V5.76777H4.89885H4.83893V5.79773V5.82769H4.898H4.95706L4.96167 5.89136L4.96627 5.95503L4.99998 5.95983L5.03369 5.96461V5.89616V5.82769H5.09361H5.15354V5.79773V5.76777H5.09361H5.03369V5.70035V5.63294H5.00623H4.97875L4.96877 5.64293ZM5.37378 5.64241L5.36327 5.65291V5.71035V5.76777H5.30335H5.24342V5.79773V5.82769H5.30335H5.36327V5.89511V5.96253H5.40073H5.43818V5.89511V5.82769H5.49811H5.55803V5.79773V5.76777H5.49896H5.4399L5.43529 5.70423L5.43069 5.64068L5.40748 5.63629L5.38428 5.6319L5.37378 5.64241ZM5.76777 5.70035V5.76777H5.70035H5.63294V5.79773V5.82769H5.70035H5.76777V5.89511V5.96253H5.79688H5.82597L5.83059 5.89885L5.83518 5.83518L5.89885 5.83059L5.96253 5.82597V5.79688V5.76777H5.89511H5.82769V5.70035V5.63294H5.79773H5.76777V5.70035ZM6.17226 5.70035V5.76777H6.10485H6.03743V5.79688V5.82597L6.1011 5.83059L6.16477 5.83518L6.16937 5.89885L6.17399 5.96253H6.20308H6.23219V5.89511V5.82769H6.2996H6.36702V5.79773V5.76777H6.2996H6.23219V5.70035V5.63294H6.20223H6.17226V5.70035ZM6.57228 5.64241L6.56178 5.65291V5.71035V5.76777H6.50185H6.44193V5.79773V5.82769H6.50185H6.56178V5.89511V5.96253H6.59923H6.63668V5.89511V5.82769H6.69661H6.75653V5.79773V5.76777H6.69746H6.63841L6.63379 5.70423L6.62919 5.64068L6.60599 5.63629L6.58278 5.6319L6.57228 5.64241ZM6.96627 5.70035V5.76777H6.89885H6.83144V5.79773V5.82769H6.89885H6.96627V5.89511V5.96253H6.99538H7.02447L7.02909 5.89885L7.03369 5.83518L7.09736 5.83059L7.16103 5.82597V5.79688V5.76777H7.09361H7.0262V5.70035V5.63294H6.99623H6.96627V5.70035ZM7.37077 5.70035V5.76777H7.30335H7.23593V5.79688V5.82597L7.2996 5.83059L7.36327 5.83518L7.36787 5.89885L7.37249 5.96253H7.40158H7.43069V5.89511V5.82769H7.49811H7.56552V5.79773V5.76777H7.49811H7.43069V5.70035V5.63294H7.40073H7.37077V5.70035ZM7.77078 5.64241L7.76028 5.65291V5.71035V5.76777H7.70035H7.64043V5.79773V5.82769H7.70035H7.76028V5.89511V5.96253H7.79773H7.83518V5.89511V5.82769H7.89511H7.95503V5.79773V5.76777H7.89596H7.83691L7.83229 5.70423L7.82769 5.64068L7.80449 5.63629L7.78128 5.6319L7.77078 5.64241ZM0.164772 6.10485V6.17226H0.104847H0.0449219V6.20223V6.23219H0.103993H0.163049L0.167663 6.29586L0.172263 6.35953H0.202225H0.232188L0.236787 6.29586L0.241401 6.23219H0.300457H0.359529V6.20223V6.17226H0.299604H0.239678V6.10485V6.03743H0.202225H0.164772V6.10485ZM0.569266 6.10485V6.17226H0.501851H0.434435V6.20223V6.23219H0.501851H0.569266V6.2996V6.36702H0.599229H0.629192V6.2996V6.23219H0.696607H0.764023V6.20308V6.17399L0.700353 6.16937L0.636682 6.16477L0.632083 6.1011L0.627469 6.03743H0.598375H0.569266V6.10485ZM0.970869 6.1011L0.96627 6.16477L0.9026 6.16937L0.838929 6.17399V6.20308V6.23219H0.906345H0.973761V6.2996V6.36702H1.00372H1.03369V6.2996V6.23219H1.1011H1.16852V6.20223V6.17226H1.1011H1.03369V6.10485V6.03743H1.00458H0.975484L0.970869 6.1011ZM1.36327 6.10485V6.17226H1.30335H1.24342V6.20223V6.23219H1.3025H1.36155L1.36617 6.29586L1.37076 6.35953H1.40073H1.43069L1.43529 6.29586L1.4399 6.23219H1.49896H1.55803V6.20223V6.17226H1.49811H1.43818V6.10485V6.03743H1.40073H1.36327V6.10485ZM1.76777 6.10485V6.17226H1.69926H1.63073L1.63571 6.19848L1.64068 6.2247L1.70423 6.2293L1.76777 6.23391V6.30046V6.36702H1.79773H1.82769V6.2996V6.23219H1.89511H1.96253V6.20308V6.17399L1.89885 6.16937L1.83518 6.16477L1.83058 6.1011L1.82597 6.03743H1.79688H1.76777V6.10485ZM2.16937 6.1011L2.16477 6.16477L2.1011 6.16937L2.03743 6.17399V6.20308V6.23219H2.10485H2.17226V6.2996V6.36702H2.20223H2.23219V6.2996V6.23219H2.2996H2.36702V6.20223V6.17226H2.2996H2.23219V6.10485V6.03743H2.20308H2.17399L2.16937 6.1011ZM2.56178 6.10485V6.17226H2.50185H2.44193V6.20223V6.23219H2.501H2.56005L2.56467 6.29586L2.56927 6.35953H2.59923H2.62919L2.63379 6.29586L2.63841 6.23219H2.69746H2.75653V6.20223V6.17226H2.69661H2.63668V6.10485V6.03743H2.59923H2.56178V6.10485ZM2.96627 6.1038V6.17226H2.89776H2.82924L2.83421 6.19848L2.83918 6.2247L2.90191 6.22927L2.96462 6.23384L2.96919 6.29668L2.97376 6.35953H3.00372H3.03369L3.03829 6.29586L3.0429 6.23219H3.10196H3.16103V6.20223V6.17226H3.10196H3.0429L3.03829 6.10859L3.03369 6.04492L2.99998 6.04013L2.96627 6.03535V6.1038ZM3.36787 6.1011L3.36327 6.16477L3.2996 6.16937L3.23593 6.17399V6.20308V6.23219H3.30335H3.37076V6.2996V6.36702H3.40073H3.43069V6.2996V6.23219H3.49811H3.56552V6.20223V6.17226H3.49811H3.43069V6.10485V6.03743H3.40158H3.37249L3.36787 6.1011ZM3.76028 6.10485V6.17226H3.70035H3.64043V6.20223V6.23219H3.6995H3.75856L3.76317 6.29586L3.76777 6.35953H3.79773H3.82769L3.83229 6.29586L3.83691 6.23219H3.89596H3.95503V6.20223V6.17226H3.89511H3.83518V6.10485V6.03743H3.79773H3.76028V6.10485ZM4.16477 6.10485V6.17226H4.10485H4.04492V6.20223V6.23219H4.10399H4.16305L4.16766 6.29586L4.17226 6.35953H4.20223H4.23219L4.23679 6.29586L4.2414 6.23219H4.30046H4.35953V6.20223V6.17226H4.2996H4.23968V6.10485V6.03743H4.20223H4.16477V6.10485ZM4.56638 6.1011L4.56178 6.16477L4.49811 6.16937L4.43444 6.17399V6.20308V6.23219H4.50185H4.56927V6.2996V6.36702H4.59923H4.62919V6.2996V6.23219H4.69661H4.76402V6.20308V6.17399L4.70035 6.16937L4.63668 6.16477L4.63208 6.1011L4.62747 6.03743H4.59923H4.57099L4.56638 6.1011ZM4.96877 6.04742L4.95878 6.0574V6.11484V6.17226H4.89885H4.83893V6.20223V6.23219H4.898H4.95706L4.96167 6.29586L4.96627 6.35953H4.99623H5.0262L5.03079 6.29586L5.03541 6.23219H5.09447H5.15354V6.20223V6.17226H5.09361H5.03369V6.10485V6.03743H5.00623H4.97875L4.96877 6.04742ZM5.36327 6.10485V6.17226H5.30335H5.24342V6.20223V6.23219H5.3025H5.36155L5.36617 6.29586L5.37076 6.35953H5.40073H5.43069L5.43529 6.29586L5.4399 6.23219H5.49896H5.55803V6.20223V6.17226H5.49811H5.43818V6.10485V6.03743H5.40073H5.36327V6.10485ZM5.76777 6.10485V6.17226H5.70035H5.63294V6.20223V6.23219H5.70035H5.76777V6.2996V6.36702H5.79773H5.82769V6.2996V6.23219H5.89511H5.96253V6.20308V6.17399L5.89885 6.16937L5.83518 6.16477L5.83059 6.1011L5.82597 6.03743H5.79688H5.76777V6.10485ZM6.16937 6.1011L6.16477 6.16477L6.1011 6.16937L6.03743 6.17399V6.20308V6.23219H6.10485H6.17226V6.2996V6.36702H6.20223H6.23219V6.2996V6.23219H6.2996H6.36702V6.20223V6.17226H6.2996H6.23219V6.10485V6.03743H6.20308H6.17399L6.16937 6.1011ZM6.56178 6.10485V6.17226H6.50185H6.44193V6.20223V6.23219H6.501H6.56005L6.56467 6.29586L6.56927 6.35953H6.59923H6.62919L6.63379 6.29586L6.63841 6.23219H6.69746H6.75653V6.20223V6.17226H6.69661H6.63668V6.10485V6.03743H6.59923H6.56178V6.10485ZM6.96627 6.10485V6.17226H6.89885H6.83144V6.20223V6.23219H6.89885H6.96627V6.2996V6.36702H6.99623H7.0262V6.2996V6.23219H7.09361H7.16103V6.20308V6.17399L7.09736 6.16937L7.03369 6.16477L7.02909 6.1011L7.02447 6.03743H6.99538H6.96627V6.10485ZM7.36787 6.1011L7.36327 6.16477L7.2996 6.16937L7.23593 6.17399V6.20308V6.23219H7.30335H7.37077V6.2996V6.36702H7.40073H7.43069V6.2996V6.23219H7.49811H7.56552V6.20223V6.17226H7.49811H7.43069V6.10485V6.03743H7.40158H7.37249L7.36787 6.1011ZM7.76028 6.10485V6.17226H7.70035H7.64043V6.20223V6.23219H7.6995H7.75856L7.76317 6.29586L7.76777 6.35953H7.79773H7.82769L7.83229 6.29586L7.83691 6.23219H7.89596H7.95503V6.20223V6.17226H7.89511H7.83518V6.10485V6.03743H7.79773H7.76028V6.10485ZM0.164772 6.50185V6.56178H0.104847H0.0449219V6.59923V6.63668H0.104847H0.164772V6.69661V6.75653H0.202225H0.239678V6.69661V6.63668H0.299604H0.359529V6.59923V6.56178H0.299604H0.239678V6.50185V6.44193H0.202225H0.164772V6.50185ZM0.569266 6.501V6.56005L0.505596 6.56467L0.441926 6.56927V6.59923V6.62919L0.505596 6.63379L0.569266 6.63841V6.69746V6.75653H0.599229H0.629192V6.69661V6.63668H0.696607H0.764023V6.59923V6.56178H0.696607H0.629192V6.50185V6.44193H0.599229H0.569266V6.501ZM0.973761 6.50185V6.56178H0.906345H0.838929V6.59923V6.63668H0.906345H0.973761V6.69661V6.75653H1.00372H1.03369V6.69746V6.63841L1.09736 6.63379L1.16103 6.62919V6.59923V6.56927L1.09736 6.56467L1.03369 6.56005V6.501V6.44193H1.00372H0.973761V6.50185ZM1.36327 6.50185V6.56178H1.30335H1.24342V6.59923V6.63668H1.30335H1.36327V6.69661V6.75653H1.40073H1.43818V6.69661V6.63668H1.49811H1.55803V6.59923V6.56178H1.49811H1.43818V6.50185V6.44193H1.40073H1.36327V6.50185ZM1.76777 6.501V6.56005L1.7041 6.56467L1.64043 6.56927V6.59923V6.62919L1.7041 6.63379L1.76777 6.63841V6.69746V6.75653H1.79773H1.82769V6.69661V6.63668H1.89511H1.96253V6.59923V6.56178H1.89511H1.82769V6.50185V6.44193H1.79773H1.76777V6.501ZM2.17226 6.50185V6.56178H2.10485H2.03743V6.59923V6.63668H2.10485H2.17226V6.69661V6.75653H2.20223H2.23219V6.69746V6.63841L2.29586 6.63379L2.35953 6.62919V6.59923V6.56927L2.29586 6.56467L2.23219 6.56005V6.501V6.44193H2.20223H2.17226V6.50185ZM2.56178 6.50185V6.56178H2.50185H2.44193V6.59923V6.63668H2.50185H2.56178V6.69661V6.75653H2.59923H2.63668V6.69661V6.63668H2.69661H2.75653V6.59923V6.56178H2.69661H2.63668V6.50185V6.44193H2.59923H2.56178V6.50185ZM2.96627 6.501V6.56005L2.9026 6.56467L2.83893 6.56927V6.59923V6.62919L2.9026 6.63379L2.96627 6.63841V6.69746V6.75653H3.00372H3.04118V6.69661V6.63668H3.1011H3.16103V6.59923V6.56178H3.1011H3.04118V6.50185V6.44193H3.00372H2.96627V6.501ZM3.37076 6.50185V6.56178H3.30335H3.23593V6.59923V6.63668H3.30335H3.37076V6.69661V6.75653H3.40073H3.43069V6.69746V6.63841L3.49436 6.63379L3.55803 6.62919V6.59923V6.56927L3.49436 6.56467L3.43069 6.56005V6.501V6.44193H3.40073H3.37076V6.50185ZM3.76028 6.50185V6.56178H3.70035H3.64043V6.59923V6.63668H3.70035H3.76028V6.69661V6.75653H3.79773H3.83518V6.69661V6.63668H3.89511H3.95503V6.59923V6.56178H3.89511H3.83518V6.50185V6.44193H3.79773H3.76028V6.50185ZM4.16477 6.50185V6.56178H4.10485H4.04492V6.59923V6.63668H4.10485H4.16477V6.69661V6.75653H4.20223H4.23968V6.69661V6.63668H4.2996H4.35953V6.59923V6.56178H4.2996H4.23968V6.50185V6.44193H4.20223H4.16477V6.50185ZM4.56927 6.50185V6.56178H4.50185H4.43444V6.59923V6.63668H4.50185H4.56927V6.69661V6.75653H4.59923H4.62919V6.69661V6.63668H4.69661H4.76402V6.59923V6.56178H4.69661H4.62919V6.50185V6.44193H4.59923H4.56927V6.50185ZM4.95878 6.50185V6.56178H4.89885H4.83893V6.59923V6.63668H4.89885H4.95878V6.69661V6.75653H4.99623H5.03369V6.69661V6.63668H5.09361H5.15354V6.59923V6.56178H5.09361H5.03369V6.50185V6.44193H4.99623H4.95878V6.50185ZM5.36327 6.50185V6.56178H5.30335H5.24342V6.59923V6.63668H5.30335H5.36327V6.69661V6.75653H5.40073H5.43818V6.69661V6.63668H5.49811H5.55803V6.59923V6.56178H5.49811H5.43818V6.50185V6.44193H5.40073H5.36327V6.50185ZM5.76777 6.501V6.56005L5.7041 6.56467L5.64043 6.56927V6.59923V6.62919L5.7041 6.63379L5.76777 6.63841V6.69746V6.75653H5.79773H5.82769V6.69661V6.63668H5.89511H5.96253V6.59923V6.56178H5.89511H5.82769V6.50185V6.44193H5.79773H5.76777V6.501ZM6.17226 6.50185V6.56178H6.10485H6.03743V6.59923V6.63668H6.10485H6.17226V6.69661V6.75653H6.20223H6.23219V6.69746V6.63841L6.29586 6.63379L6.35953 6.62919V6.59923V6.56927L6.29586 6.56467L6.23219 6.56005V6.501V6.44193H6.20223H6.17226V6.50185ZM6.56178 6.50185V6.56178H6.50185H6.44193V6.59923V6.63668H6.50185H6.56178V6.69661V6.75653H6.59923H6.63668V6.69661V6.63668H6.69661H6.75653V6.59923V6.56178H6.69661H6.63668V6.50185V6.44193H6.59923H6.56178V6.50185ZM6.96627 6.501V6.56005L6.9026 6.56467L6.83893 6.56927V6.59923V6.62919L6.9026 6.63379L6.96627 6.63841V6.69746V6.75653H6.99623H7.0262V6.69661V6.63668H7.09361H7.16103V6.59923V6.56178H7.09361H7.0262V6.50185V6.44193H6.99623H6.96627V6.501ZM7.37077 6.50185V6.56178H7.30335H7.23593V6.59923V6.63668H7.30335H7.37077V6.69661V6.75653H7.40073H7.43069V6.69746V6.63841L7.49436 6.63379L7.55803 6.62919V6.59923V6.56927L7.49436 6.56467L7.43069 6.56005V6.501V6.44193H7.40073H7.37077V6.50185ZM7.76028 6.50185V6.56178H7.70035H7.64043V6.59923V6.63668H7.70035H7.76028V6.69661V6.75653H7.79773H7.83518V6.69661V6.63668H7.89511H7.95503V6.59923V6.56178H7.89511H7.83518V6.50185V6.44193H7.79773H7.76028V6.50185ZM0.175274 6.84091L0.164772 6.85141V6.90885V6.96627H0.104847H0.0449219V6.99623V7.0262H0.104847H0.164772V7.09361V7.16103H0.202225H0.239678V7.09361V7.0262H0.299604H0.359529V6.99623V6.96627H0.300457H0.241401L0.236787 6.90274L0.232188 6.83918L0.208982 6.8348L0.185776 6.83041L0.175274 6.84091ZM0.569266 6.89885V6.96627H0.501851H0.434435V6.99623V7.0262H0.501851H0.569266V7.09361V7.16103H0.598375H0.627469L0.632083 7.09736L0.636682 7.03369L0.700353 7.02909L0.764023 7.02447V6.99538V6.96627H0.696607H0.629192V6.89885V6.83144H0.599229H0.569266V6.89885ZM0.973761 6.89885V6.96627H0.906345H0.838929V6.99538V7.02447L0.9026 7.02909L0.96627 7.03369L0.970869 7.09736L0.975484 7.16103H1.00458H1.03369V7.09361V7.0262H1.1011H1.16852V6.99623V6.96627H1.1011H1.03369V6.89885V6.83144H1.00372H0.973761V6.89885ZM1.37378 6.84091L1.36327 6.85141V6.90885V6.96627H1.30335H1.24342V6.99623V7.0262H1.30335H1.36327V7.09361V7.16103H1.40073H1.43818V7.09361V7.0262H1.49811H1.55803V6.99623V6.96627H1.49896H1.4399L1.43529 6.90274L1.43069 6.83918L1.40748 6.8348L1.38428 6.83041L1.37378 6.84091ZM1.76777 6.898V6.96455L1.70423 6.96916L1.64068 6.97376L1.63571 6.99998L1.63073 7.0262H1.69926H1.76777V7.09361V7.16103H1.79688H1.82597L1.83058 7.09736L1.83518 7.03369L1.89885 7.02909L1.96253 7.02447V6.99538V6.96627H1.89511H1.82769V6.89885V6.83144H1.79773H1.76777V6.898ZM2.17226 6.89885V6.96627H2.10485H2.03743V6.99538V7.02447L2.1011 7.02909L2.16477 7.03369L2.16937 7.09736L2.17399 7.16103H2.20308H2.23219V7.09361V7.0262H2.2996H2.36702V6.99623V6.96627H2.2996H2.23219V6.89885V6.83144H2.20223H2.17226V6.89885ZM2.57228 6.84091L2.56178 6.85141V6.90885V6.96627H2.50185H2.44193V6.99623V7.0262H2.50185H2.56178V7.09361V7.16103H2.59923H2.63668V7.09361V7.0262H2.69661H2.75653V6.99623V6.96627H2.69746H2.63841L2.63379 6.90274L2.62919 6.83918L2.60599 6.8348L2.58278 6.83041L2.57228 6.84091ZM2.96627 6.89695V6.96455L2.90273 6.96916L2.83918 6.97376L2.83421 6.99998L2.82924 7.0262H2.89776H2.96627V7.09466V7.16311L2.99998 7.15833L3.03369 7.15354L3.03829 7.08987L3.0429 7.0262H3.10196H3.16103V6.99623V6.96627H3.10196H3.0429L3.03829 6.9026L3.03369 6.83893L2.99998 6.83414L2.96627 6.82936V6.89695ZM3.37076 6.89885V6.96627H3.30335H3.23593V6.99538V7.02447L3.2996 7.02909L3.36327 7.03369L3.36787 7.09736L3.37249 7.16103H3.40158H3.43069V7.09361V7.0262H3.49811H3.56552V6.99623V6.96627H3.49811H3.43069V6.89885V6.83144H3.40073H3.37076V6.89885ZM3.77027 6.84143L3.76028 6.85141V6.90885V6.96627H3.70035H3.64043V6.99623V7.0262H3.70035H3.76028V7.09361V7.16103H3.79773H3.83518V7.09361V7.0262H3.89511H3.95503V6.99623V6.96627H3.89511H3.83518V6.89885V6.83144H3.80772H3.78025L3.77027 6.84143ZM4.16477 6.89781V6.96627H4.10485H4.04492V6.99623V7.0262H4.10485H4.16477V7.09361V7.16103H4.20223H4.23968V7.09361V7.0262H4.2996H4.35953V6.99623V6.96627H4.30046H4.2414L4.23679 6.9026L4.23219 6.83893L4.19848 6.83414L4.16477 6.82936V6.89781ZM4.56927 6.89885V6.96627H4.50185H4.43444V6.99623V7.0262H4.50185H4.56927V7.09361V7.16103H4.59838H4.62747L4.63208 7.09736L4.63668 7.03369L4.70035 7.02909L4.76402 7.02447V6.99538V6.96627H4.69661H4.62919V6.89885V6.83144H4.59923H4.56927V6.89885ZM4.96877 6.84143L4.95878 6.85141V6.90885V6.96627H4.89885H4.83893V6.99623V7.0262H4.898H4.95706L4.96167 7.08987L4.96627 7.15354L4.99998 7.15833L5.03369 7.16311V7.09466V7.0262H5.09361H5.15354V6.99623V6.96627H5.09361H5.03369V6.89885V6.83144H5.00623H4.97875L4.96877 6.84143ZM5.37378 6.84091L5.36327 6.85141V6.90885V6.96627H5.30335H5.24342V6.99623V7.0262H5.30335H5.36327V7.09361V7.16103H5.40073H5.43818V7.09361V7.0262H5.49811H5.55803V6.99623V6.96627H5.49896H5.4399L5.43529 6.90274L5.43069 6.83918L5.40748 6.8348L5.38428 6.83041L5.37378 6.84091ZM5.76777 6.89885V6.96627H5.70035H5.63294V6.99623V7.0262H5.70035H5.76777V7.09361V7.16103H5.79688H5.82597L5.83059 7.09736L5.83518 7.03369L5.89885 7.02909L5.96253 7.02447V6.99538V6.96627H5.89511H5.82769V6.89885V6.83144H5.79773H5.76777V6.89885ZM6.17226 6.89885V6.96627H6.10485H6.03743V6.99538V7.02447L6.1011 7.02909L6.16477 7.03369L6.16937 7.09736L6.17399 7.16103H6.20308H6.23219V7.09361V7.0262H6.2996H6.36702V6.99623V6.96627H6.2996H6.23219V6.89885V6.83144H6.20223H6.17226V6.89885ZM6.57228 6.84091L6.56178 6.85141V6.90885V6.96627H6.50185H6.44193V6.99623V7.0262H6.50185H6.56178V7.09361V7.16103H6.59923H6.63668V7.09361V7.0262H6.69661H6.75653V6.99623V6.96627H6.69746H6.63841L6.63379 6.90274L6.62919 6.83918L6.60599 6.8348L6.58278 6.83041L6.57228 6.84091ZM6.96627 6.89885V6.96627H6.89885H6.83144V6.99623V7.0262H6.89885H6.96627V7.09361V7.16103H6.99538H7.02447L7.02909 7.09736L7.03369 7.03369L7.09736 7.02909L7.16103 7.02447V6.99538V6.96627H7.09361H7.0262V6.89885V6.83144H6.99623H6.96627V6.89885ZM7.37077 6.89885V6.96627H7.30335H7.23593V6.99538V7.02447L7.2996 7.02909L7.36327 7.03369L7.36787 7.09736L7.37249 7.16103H7.40158H7.43069V7.09361V7.0262H7.49811H7.56552V6.99623V6.96627H7.49811H7.43069V6.89885V6.83144H7.40073H7.37077V6.89885ZM7.77078 6.84091L7.76028 6.85141V6.90885V6.96627H7.70035H7.64043V6.99623V7.0262H7.70035H7.76028V7.09361V7.16103H7.79773H7.83518V7.09361V7.0262H7.89511H7.95503V6.99623V6.96627H7.89596H7.83691L7.83229 6.90274L7.82769 6.83918L7.80449 6.8348L7.78128 6.83041L7.77078 6.84091ZM0.164772 7.30335V7.37077H0.104847H0.0449219V7.40073V7.43069H0.103993H0.163049L0.167663 7.49436L0.172263 7.55803H0.202225H0.232188L0.236787 7.49436L0.241401 7.43069H0.300457H0.359529V7.40073V7.37077H0.299604H0.239678V7.30335V7.23593H0.202225H0.164772V7.30335ZM0.569266 7.30335V7.37077H0.501851H0.434435V7.40073V7.43069H0.501851H0.569266V7.49811V7.56552H0.599229H0.629192V7.49811V7.43069H0.696607H0.764023V7.40158V7.37249L0.700353 7.36787L0.636682 7.36327L0.632083 7.2996L0.627469 7.23593H0.598375H0.569266V7.30335ZM0.970869 7.2996L0.96627 7.36327L0.9026 7.36787L0.838929 7.37249V7.40158V7.43069H0.906345H0.973761V7.49811V7.56552H1.00372H1.03369V7.49811V7.43069H1.1011H1.16852V7.40073V7.37077H1.1011H1.03369V7.30335V7.23593H1.00458H0.975484L0.970869 7.2996ZM1.36327 7.30335V7.37077H1.30335H1.24342V7.40073V7.43069H1.3025H1.36155L1.36617 7.49436L1.37076 7.55803H1.40073H1.43069L1.43529 7.49436L1.4399 7.43069H1.49896H1.55803V7.40073V7.37077H1.49811H1.43818V7.30335V7.23593H1.40073H1.36327V7.30335ZM1.76777 7.30335V7.37077H1.69926H1.63073L1.63571 7.39698L1.64068 7.4232L1.70423 7.4278L1.76777 7.43241V7.49896V7.56552H1.79773H1.82769V7.49811V7.43069H1.89511H1.96253V7.40158V7.37249L1.89885 7.36787L1.83518 7.36327L1.83058 7.2996L1.82597 7.23593H1.79688H1.76777V7.30335ZM2.16937 7.2996L2.16477 7.36327L2.1011 7.36787L2.03743 7.37249V7.40158V7.43069H2.10485H2.17226V7.49811V7.56552H2.20223H2.23219V7.49811V7.43069H2.2996H2.36702V7.40073V7.37077H2.2996H2.23219V7.30335V7.23593H2.20308H2.17399L2.16937 7.2996ZM2.56178 7.30335V7.37077H2.50185H2.44193V7.40073V7.43069H2.501H2.56005L2.56467 7.49436L2.56927 7.55803H2.59923H2.62919L2.63379 7.49436L2.63841 7.43069H2.69746H2.75653V7.40073V7.37077H2.69661H2.63668V7.30335V7.23593H2.59923H2.56178V7.30335ZM2.96627 7.3023V7.37077H2.89776H2.82924L2.83421 7.39698L2.83918 7.4232L2.90273 7.4278L2.96627 7.43241V7.50001V7.5676L2.99998 7.56283L3.03369 7.55803L3.03829 7.49436L3.0429 7.43069H3.10196H3.16103V7.40073V7.37077H3.10196H3.0429L3.03829 7.30709L3.03369 7.24342L2.99998 7.23863L2.96627 7.23385V7.3023ZM3.37076 7.30335V7.37077H3.30335H3.23593V7.40073V7.43069H3.30335H3.37076V7.49811V7.56552H3.40073H3.43069V7.49811V7.43069H3.49811H3.56552V7.40073V7.37077H3.49811H3.43069V7.30335V7.23593H3.40073H3.37076V7.30335ZM3.77027 7.24593L3.76028 7.2559V7.31334V7.37077H3.70035H3.64043V7.40073V7.43069H3.6995H3.75856L3.76317 7.49436L3.76777 7.55803L3.80148 7.56283L3.83518 7.5676V7.49915V7.43069H3.89511H3.95503V7.40073V7.37077H3.89511H3.83518V7.30335V7.23593H3.80772H3.78025L3.77027 7.24593ZM4.16477 7.3023V7.37077H4.10485H4.04492V7.40073V7.43069H4.10485H4.16477V7.49915V7.5676L4.19848 7.56283L4.23219 7.55803L4.23679 7.49436L4.2414 7.43069H4.30046H4.35953V7.40073V7.37077H4.30046H4.2414L4.23679 7.30709L4.23219 7.24342L4.19848 7.23863L4.16477 7.23385V7.3023ZM4.56927 7.30335V7.37077H4.50185H4.43444V7.40073V7.43069H4.50185H4.56927V7.49811V7.56552H4.59923H4.62919V7.49811V7.43069H4.69661H4.76402V7.40073V7.37077H4.69661H4.62919V7.30335V7.23593H4.59923H4.56927V7.30335ZM4.96877 7.24593L4.95878 7.2559V7.31334V7.37077H4.89885H4.83893V7.40073V7.43069H4.898H4.95706L4.96167 7.49436L4.96627 7.55803L4.99998 7.56283L5.03369 7.5676V7.49915V7.43069H5.09361H5.15354V7.40073V7.37077H5.09361H5.03369V7.30335V7.23593H5.00623H4.97875L4.96877 7.24593ZM5.36327 7.30335V7.37077H5.30335H5.24342V7.40073V7.43069H5.3025H5.36155L5.36617 7.49436L5.37076 7.55803H5.40073H5.43069L5.43529 7.49436L5.4399 7.43069H5.49896H5.55803V7.40073V7.37077H5.49811H5.43818V7.30335V7.23593H5.40073H5.36327V7.30335ZM5.76777 7.30335V7.37077H5.70035H5.63294V7.40073V7.43069H5.70035H5.76777V7.49811V7.56552H5.79773H5.82769V7.49811V7.43069H5.89511H5.96253V7.40158V7.37249L5.89885 7.36787L5.83518 7.36327L5.83059 7.2996L5.82597 7.23593H5.79688H5.76777V7.30335ZM6.16937 7.2996L6.16477 7.36327L6.1011 7.36787L6.03743 7.37249V7.40158V7.43069H6.10485H6.17226V7.49811V7.56552H6.20223H6.23219V7.49811V7.43069H6.2996H6.36702V7.40073V7.37077H6.2996H6.23219V7.30335V7.23593H6.20308H6.17399L6.16937 7.2996ZM6.56178 7.30335V7.37077H6.50185H6.44193V7.40073V7.43069H6.501H6.56005L6.56467 7.49436L6.56927 7.55803H6.59923H6.62919L6.63379 7.49436L6.63841 7.43069H6.69746H6.75653V7.40073V7.37077H6.69661H6.63668V7.30335V7.23593H6.59923H6.56178V7.30335ZM6.96627 7.30335V7.37077H6.89885H6.83144V7.40073V7.43069H6.89885H6.96627V7.49811V7.56552H6.99623H7.0262V7.49811V7.43069H7.09361H7.16103V7.40158V7.37249L7.09736 7.36787L7.03369 7.36327L7.02909 7.2996L7.02447 7.23593H6.99538H6.96627V7.30335ZM7.36787 7.2996L7.36327 7.36327L7.2996 7.36787L7.23593 7.37249V7.40158V7.43069H7.30335H7.37077V7.49811V7.56552H7.40073H7.43069V7.49811V7.43069H7.49811H7.56552V7.40073V7.37077H7.49811H7.43069V7.30335V7.23593H7.40158H7.37249L7.36787 7.2996ZM7.76028 7.30335V7.37077H7.70035H7.64043V7.40073V7.43069H7.6995H7.75856L7.76317 7.49436L7.76777 7.55803H7.79773H7.82769L7.83229 7.49436L7.83691 7.43069H7.89596H7.95503V7.40073V7.37077H7.89511H7.83518V7.30335V7.23593H7.79773H7.76028V7.30335ZM0.164772 7.70035V7.76028H0.104847H0.0449219V7.79773V7.83518H0.104847H0.164772V7.89511V7.95503H0.202225H0.239678V7.89511V7.83518H0.299604H0.359529V7.79773V7.76028H0.299604H0.239678V7.70035V7.64043H0.202225H0.164772V7.70035ZM0.569266 7.6995V7.75856L0.505596 7.76317L0.441926 7.76777V7.79773V7.82769L0.505596 7.83229L0.569266 7.83691V7.89596V7.95503H0.599229H0.629192V7.89511V7.83518H0.696607H0.764023V7.79773V7.76028H0.696607H0.629192V7.70035V7.64043H0.599229H0.569266V7.6995ZM0.973761 7.70035V7.76028H0.906345H0.838929V7.79773V7.83518H0.906345H0.973761V7.89511V7.95503H1.00372H1.03369V7.89596V7.83691L1.09736 7.83229L1.16103 7.82769V7.79773V7.76777L1.09736 7.76317L1.03369 7.75856V7.6995V7.64043H1.00372H0.973761V7.70035ZM1.36327 7.70035V7.76028H1.30335H1.24342V7.79773V7.83518H1.30335H1.36327V7.89511V7.95503H1.40073H1.43818V7.89511V7.83518H1.49811H1.55803V7.79773V7.76028H1.49811H1.43818V7.70035V7.64043H1.40073H1.36327V7.70035ZM1.76777 7.6995V7.75856L1.7041 7.76317L1.64043 7.76777V7.79773V7.82769L1.7041 7.83229L1.76777 7.83691V7.89596V7.95503H1.79773H1.82769V7.89511V7.83518H1.89511H1.96253V7.79773V7.76028H1.89511H1.82769V7.70035V7.64043H1.79773H1.76777V7.6995ZM2.17226 7.70035V7.76028H2.10485H2.03743V7.79773V7.83518H2.10485H2.17226V7.89511V7.95503H2.20223H2.23219V7.89596V7.83691L2.29586 7.83229L2.35953 7.82769V7.79773V7.76777L2.29586 7.76317L2.23219 7.75856V7.6995V7.64043H2.20223H2.17226V7.70035ZM2.56178 7.70035V7.76028H2.50185H2.44193V7.79773V7.83518H2.50185H2.56178V7.89511V7.95503H2.59923H2.63668V7.89511V7.83518H2.69661H2.75653V7.79773V7.76028H2.69661H2.63668V7.70035V7.64043H2.59923H2.56178V7.70035ZM2.96627 7.69845V7.75856L2.9026 7.76317L2.83893 7.76777V7.79773V7.82769L2.9026 7.83229L2.96627 7.83691V7.89596V7.95503H3.00372H3.04118V7.89511V7.83518H3.1011H3.16103V7.79773V7.76028H3.102H3.04299L3.03833 7.7041L3.03369 7.64792L2.99998 7.64312L2.96627 7.63835V7.69845ZM3.37076 7.6995V7.75856L3.30709 7.76317L3.24342 7.76777L3.23863 7.80148L3.23385 7.83518H3.3023H3.37076V7.89511V7.95503H3.40073H3.43069V7.89511V7.83518H3.49915H3.5676L3.56282 7.80148L3.55803 7.76777L3.49436 7.76317L3.43069 7.75856V7.6995V7.64043H3.40073H3.37076V7.6995ZM3.76028 7.70035V7.76028H3.70035H3.64043V7.79773V7.83518H3.70035H3.76028V7.89511V7.95503H3.79773H3.83518V7.89511V7.83518H3.89511H3.95503V7.79773V7.76028H3.89511H3.83518V7.70035V7.64043H3.79773H3.76028V7.70035ZM4.16477 7.70035V7.76028H4.10485H4.04492V7.79773V7.83518H4.10485H4.16477V7.89511V7.95503H4.20223H4.23968V7.89511V7.83518H4.2996H4.35953V7.79773V7.76028H4.2996H4.23968V7.70035V7.64043H4.20223H4.16477V7.70035ZM4.56927 7.6995V7.75856L4.5056 7.76317L4.44193 7.76777L4.43713 7.80148L4.43235 7.83518H4.5008H4.56927V7.89511V7.95503H4.59923H4.62919V7.89511V7.83518H4.69766H4.76611L4.76133 7.80148L4.75653 7.76777L4.69286 7.76317L4.62919 7.75856V7.6995V7.64043H4.59923H4.56927V7.6995ZM4.95878 7.70035V7.76028H4.89885H4.83893V7.79773V7.83518H4.89885H4.95878V7.89511V7.95503H4.99623H5.03369V7.89511V7.83518H5.09361H5.15354V7.79773V7.76028H5.09361H5.03369V7.70035V7.64043H4.99623H4.95878V7.70035ZM5.36327 7.70035V7.76028H5.30335H5.24342V7.79773V7.83518H5.30335H5.36327V7.89511V7.95503H5.40073H5.43818V7.89511V7.83518H5.49811H5.55803V7.79773V7.76028H5.49811H5.43818V7.70035V7.64043H5.40073H5.36327V7.70035ZM5.76777 7.6995V7.75856L5.7041 7.76317L5.64043 7.76777V7.79773V7.82769L5.7041 7.83229L5.76777 7.83691V7.89596V7.95503H5.79773H5.82769V7.89511V7.83518H5.89511H5.96253V7.79773V7.76028H5.89511H5.82769V7.70035V7.64043H5.79773H5.76777V7.6995ZM6.17226 7.70035V7.76028H6.10485H6.03743V7.79773V7.83518H6.10485H6.17226V7.89511V7.95503H6.20223H6.23219V7.89596V7.83691L6.29586 7.83229L6.35953 7.82769V7.79773V7.76777L6.29586 7.76317L6.23219 7.75856V7.6995V7.64043H6.20223H6.17226V7.70035ZM6.56178 7.70035V7.76028H6.50185H6.44193V7.79773V7.83518H6.50185H6.56178V7.89511V7.95503H6.59923H6.63668V7.89511V7.83518H6.69661H6.75653V7.79773V7.76028H6.69661H6.63668V7.70035V7.64043H6.59923H6.56178V7.70035ZM6.96627 7.6995V7.75856L6.9026 7.76317L6.83893 7.76777V7.79773V7.82769L6.9026 7.83229L6.96627 7.83691V7.89596V7.95503H6.99623H7.0262V7.89511V7.83518H7.09361H7.16103V7.79773V7.76028H7.09361H7.0262V7.70035V7.64043H6.99623H6.96627V7.6995ZM7.37077 7.70035V7.76028H7.30335H7.23593V7.79773V7.83518H7.30335H7.37077V7.89511V7.95503H7.40073H7.43069V7.89596V7.83691L7.49436 7.83229L7.55803 7.82769V7.79773V7.76777L7.49436 7.76317L7.43069 7.75856V7.6995V7.64043H7.40073H7.37077V7.70035ZM7.76028 7.70035V7.76028H7.70035H7.64043V7.79773V7.83518H7.70035H7.76028V7.89511V7.95503H7.79773H7.83518V7.89511V7.83518H7.89511H7.95503V7.79773V7.76028H7.89511H7.83518V7.70035V7.64043H7.79773H7.76028V7.70035Z" fill="black" style="fill:black;fill-opacity:1;"/>
</svg>
