<svg width="8" height="8" viewBox="0 0 8 8" fill="none" xmlns="http://www.w3.org/2000/svg">
<path d="M0.797119 7.75C0.831631 7.75001 0.859619 7.77799 0.859619 7.8125V8H0.734619V7.8125C0.734619 7.77798 0.762601 7.75 0.797119 7.75Z" fill="black" style="fill:black;fill-opacity:1;"/>
<path d="M1.12408 7.75C1.1586 7.75001 1.18658 7.77799 1.18658 7.8125V8H1.06158V7.8125C1.06158 7.77798 1.08957 7.75 1.12408 7.75Z" fill="black" style="fill:black;fill-opacity:1;"/>
<path d="M2.79712 7.75C2.83163 7.75001 2.85962 7.77799 2.85962 7.8125V8H2.73462V7.8125C2.73462 7.77798 2.7626 7.75 2.79712 7.75Z" fill="black" style="fill:black;fill-opacity:1;"/>
<path d="M3.12408 7.75C3.1586 7.75001 3.18658 7.77799 3.18658 7.8125V8H3.06158V7.8125C3.06158 7.77798 3.08957 7.75 3.12408 7.75Z" fill="black" style="fill:black;fill-opacity:1;"/>
<path d="M4.79712 7.75C4.83163 7.75001 4.85962 7.77799 4.85962 7.8125V8H4.73462V7.8125C4.73462 7.77798 4.7626 7.75 4.79712 7.75Z" fill="black" style="fill:black;fill-opacity:1;"/>
<path d="M5.12408 7.75C5.1586 7.75001 5.18658 7.77799 5.18658 7.8125V8H5.06158V7.8125C5.06158 7.77798 5.08957 7.75 5.12408 7.75Z" fill="black" style="fill:black;fill-opacity:1;"/>
<path d="M6.79712 7.75C6.83163 7.75001 6.85962 7.77799 6.85962 7.8125V8H6.73462V7.8125C6.73462 7.77798 6.7626 7.75 6.79712 7.75Z" fill="black" style="fill:black;fill-opacity:1;"/>
<path d="M7.12408 7.75C7.1586 7.75001 7.18658 7.77799 7.18658 7.8125V8H7.06158V7.8125C7.06158 7.77798 7.08957 7.75 7.12408 7.75Z" fill="black" style="fill:black;fill-opacity:1;"/>
<path d="M0.124084 6.75C0.158597 6.75001 0.186584 6.77799 0.186584 6.8125V7.07959C0.287794 7.07923 0.38335 7.07887 0.460388 7.07849C0.494897 7.07833 0.52302 7.10618 0.523193 7.14069C0.523364 7.1752 0.49551 7.20331 0.460999 7.20349C0.383807 7.20387 0.28803 7.20423 0.186584 7.20459V7.40802C0.287794 7.40766 0.38335 7.4073 0.460388 7.40692C0.494894 7.40676 0.523015 7.43461 0.523193 7.46912C0.523364 7.50363 0.49551 7.53174 0.460999 7.53192C0.383807 7.5323 0.28803 7.53266 0.186584 7.53302V7.8125C0.186584 7.84701 0.158597 7.87499 0.124084 7.875C0.0895667 7.875 0.0615845 7.84702 0.0615845 7.8125V7.53339C0.0410454 7.53345 0.0204759 7.53344 0 7.53351V7.40851C0.0204759 7.40844 0.0410455 7.40845 0.0615845 7.40839V7.20496C0.0410454 7.20502 0.0204759 7.20501 0 7.20508V7.08008C0.0204759 7.08001 0.0410455 7.08002 0.0615845 7.07996V6.8125C0.0615845 6.77798 0.0895667 6.75 0.124084 6.75Z" fill="black" style="fill:black;fill-opacity:1;"/>
<path fill-rule="evenodd" clip-rule="evenodd" d="M2.12408 6.75C2.1586 6.75001 2.18658 6.77799 2.18658 6.8125V7.07959C2.28779 7.07923 2.38335 7.07887 2.46039 7.07849C2.4949 7.07833 2.52302 7.10618 2.52319 7.14069C2.52336 7.1752 2.49551 7.20331 2.461 7.20349C2.38381 7.20387 2.28803 7.20423 2.18658 7.20459V7.40802C2.28779 7.40766 2.38335 7.4073 2.46039 7.40692C2.49489 7.40676 2.52302 7.43461 2.52319 7.46912C2.52336 7.50363 2.49551 7.53174 2.461 7.53192C2.38381 7.5323 2.28803 7.53266 2.18658 7.53302V7.8125C2.18658 7.84701 2.1586 7.87499 2.12408 7.875C2.08957 7.875 2.06158 7.84702 2.06158 7.8125V7.53339C1.99325 7.53359 1.9247 7.53384 1.85962 7.53394V7.8125C1.85962 7.84701 1.83163 7.87499 1.79712 7.875C1.7626 7.875 1.73462 7.84702 1.73462 7.8125V7.53387C1.67554 7.53387 1.62239 7.53401 1.57892 7.53381C1.54426 7.53366 1.51552 7.53339 1.49481 7.53308C1.48451 7.53293 1.4759 7.53275 1.46942 7.53253C1.46623 7.53243 1.46319 7.53232 1.46057 7.53217C1.45958 7.53211 1.45388 7.53185 1.44824 7.5307C1.41442 7.52381 1.39259 7.49079 1.39948 7.45697C1.40637 7.42316 1.43933 7.40133 1.47314 7.4082C1.47101 7.40777 1.46914 7.40752 1.46808 7.40741C1.46907 7.40747 1.47083 7.40757 1.47351 7.40765C1.47887 7.40783 1.48665 7.40799 1.4967 7.40814C1.51674 7.40844 1.54494 7.40866 1.57947 7.40881C1.62271 7.409 1.67567 7.40887 1.73462 7.40887V7.20544C1.67554 7.20544 1.62239 7.20558 1.57892 7.20538C1.54426 7.20523 1.51552 7.20496 1.49481 7.20465C1.48451 7.2045 1.4759 7.20431 1.46942 7.2041C1.46623 7.204 1.46319 7.20389 1.46057 7.20374C1.45958 7.20368 1.45388 7.20342 1.44824 7.20227C1.41442 7.19538 1.39259 7.16236 1.39948 7.12854C1.40637 7.09473 1.43933 7.0729 1.47314 7.07977C1.47101 7.07934 1.46915 7.07909 1.46808 7.07898C1.46907 7.07904 1.47083 7.07907 1.47351 7.07916C1.47887 7.07934 1.48665 7.07956 1.4967 7.07971C1.51674 7.08001 1.54494 7.08023 1.57947 7.08038C1.62271 7.08057 1.67567 7.08044 1.73462 7.08044V6.8125C1.73462 6.77798 1.7626 6.75 1.79712 6.75C1.83163 6.75001 1.85962 6.77799 1.85962 6.8125V7.08051C1.92469 7.08041 1.99325 7.08016 2.06158 7.07996V6.8125C2.06158 6.77798 2.08957 6.75 2.12408 6.75ZM1.85962 7.20551V7.40894C1.92469 7.40884 1.99325 7.40859 2.06158 7.40839V7.20496C1.99325 7.20516 1.9247 7.20541 1.85962 7.20551Z" fill="black" style="fill:black;fill-opacity:1;"/>
<path fill-rule="evenodd" clip-rule="evenodd" d="M4.12408 6.75C4.1586 6.75001 4.18658 6.77799 4.18658 6.8125V7.07959C4.28779 7.07923 4.38335 7.07887 4.46039 7.07849C4.4949 7.07833 4.52302 7.10618 4.52319 7.14069C4.52336 7.1752 4.49551 7.20331 4.461 7.20349C4.38381 7.20387 4.28803 7.20423 4.18658 7.20459V7.40802C4.28779 7.40766 4.38335 7.4073 4.46039 7.40692C4.49489 7.40676 4.52301 7.43461 4.52319 7.46912C4.52336 7.50363 4.49551 7.53174 4.461 7.53192C4.38381 7.5323 4.28803 7.53266 4.18658 7.53302V7.8125C4.18658 7.84701 4.1586 7.87499 4.12408 7.875C4.08957 7.875 4.06158 7.84702 4.06158 7.8125V7.53339C4.04105 7.53345 4.02048 7.53344 4 7.53351C3.95235 7.53366 3.90514 7.53387 3.85962 7.53394V7.8125C3.85962 7.84701 3.83163 7.87499 3.79712 7.875C3.7626 7.875 3.73462 7.84702 3.73462 7.8125V7.53387C3.67554 7.53387 3.62239 7.53401 3.57892 7.53381C3.54426 7.53366 3.51552 7.53339 3.49481 7.53308C3.48451 7.53293 3.4759 7.53275 3.46942 7.53253C3.46623 7.53243 3.46319 7.53232 3.46057 7.53217C3.45958 7.53211 3.45388 7.53185 3.44824 7.5307C3.41442 7.52381 3.39259 7.49079 3.39948 7.45697C3.40637 7.42316 3.43933 7.40133 3.47314 7.4082C3.47101 7.40777 3.46914 7.40752 3.46808 7.40741C3.46907 7.40747 3.47083 7.40757 3.47351 7.40765C3.47887 7.40783 3.48665 7.40799 3.4967 7.40814C3.51674 7.40844 3.54494 7.40866 3.57947 7.40881C3.62271 7.409 3.67567 7.40887 3.73462 7.40887V7.20544C3.67554 7.20544 3.62239 7.20558 3.57892 7.20538C3.54426 7.20523 3.51552 7.20496 3.49481 7.20465C3.48451 7.2045 3.4759 7.20431 3.46942 7.2041C3.46623 7.204 3.46319 7.20389 3.46057 7.20374C3.45958 7.20368 3.45388 7.20342 3.44824 7.20227C3.41442 7.19538 3.39259 7.16236 3.39948 7.12854C3.40637 7.09473 3.43933 7.0729 3.47314 7.07977C3.47101 7.07934 3.46915 7.07909 3.46808 7.07898C3.46907 7.07904 3.47083 7.07907 3.47351 7.07916C3.47887 7.07934 3.48665 7.07956 3.4967 7.07971C3.51674 7.08001 3.54494 7.08023 3.57947 7.08038C3.62271 7.08057 3.67567 7.08044 3.73462 7.08044V6.8125C3.73462 6.77798 3.7626 6.75 3.79712 6.75C3.83163 6.75001 3.85962 6.77799 3.85962 6.8125V7.08051C3.90513 7.08044 3.95235 7.08023 4 7.08008C4.02048 7.08001 4.04105 7.08002 4.06158 7.07996V6.8125C4.06158 6.77798 4.08957 6.75 4.12408 6.75ZM4 7.20508C3.95235 7.20523 3.90514 7.20544 3.85962 7.20551V7.40894C3.90513 7.40887 3.95235 7.40866 4 7.40851C4.02048 7.40844 4.04105 7.40845 4.06158 7.40839V7.20496C4.04105 7.20502 4.02048 7.20501 4 7.20508Z" fill="black" style="fill:black;fill-opacity:1;"/>
<path fill-rule="evenodd" clip-rule="evenodd" d="M6.12408 6.75C6.1586 6.75001 6.18658 6.77799 6.18658 6.8125V7.07959C6.28779 7.07923 6.38335 7.07887 6.46039 7.07849C6.4949 7.07833 6.52302 7.10618 6.52319 7.14069C6.52336 7.1752 6.49551 7.20331 6.461 7.20349C6.38381 7.20387 6.28803 7.20423 6.18658 7.20459V7.40802C6.28779 7.40766 6.38335 7.4073 6.46039 7.40692C6.49489 7.40676 6.52302 7.43461 6.52319 7.46912C6.52336 7.50363 6.49551 7.53174 6.461 7.53192C6.38381 7.5323 6.28803 7.53266 6.18658 7.53302V7.8125C6.18658 7.84701 6.1586 7.87499 6.12408 7.875C6.08957 7.875 6.06158 7.84702 6.06158 7.8125V7.53339C5.99325 7.53359 5.9247 7.53384 5.85962 7.53394V7.8125C5.85962 7.84701 5.83163 7.87499 5.79712 7.875C5.7626 7.875 5.73462 7.84702 5.73462 7.8125V7.53387C5.67554 7.53387 5.62239 7.53401 5.57892 7.53381C5.54426 7.53366 5.51552 7.53339 5.49481 7.53308C5.48451 7.53293 5.4759 7.53275 5.46942 7.53253C5.46623 7.53243 5.46319 7.53232 5.46057 7.53217C5.45958 7.53211 5.45388 7.53185 5.44824 7.5307C5.41442 7.52381 5.39259 7.49079 5.39948 7.45697C5.40637 7.42316 5.43933 7.40133 5.47314 7.4082C5.47101 7.40777 5.46914 7.40752 5.46808 7.40741C5.46907 7.40747 5.47083 7.40757 5.47351 7.40765C5.47887 7.40783 5.48665 7.40799 5.4967 7.40814C5.51674 7.40844 5.54494 7.40866 5.57947 7.40881C5.62271 7.409 5.67567 7.40887 5.73462 7.40887V7.20544C5.67554 7.20544 5.62239 7.20558 5.57892 7.20538C5.54426 7.20523 5.51552 7.20496 5.49481 7.20465C5.48451 7.2045 5.4759 7.20431 5.46942 7.2041C5.46623 7.204 5.46319 7.20389 5.46057 7.20374C5.45958 7.20368 5.45388 7.20342 5.44824 7.20227C5.41442 7.19538 5.39259 7.16236 5.39948 7.12854C5.40637 7.09473 5.43933 7.0729 5.47314 7.07977C5.47101 7.07934 5.46915 7.07909 5.46808 7.07898C5.46907 7.07904 5.47083 7.07907 5.47351 7.07916C5.47887 7.07934 5.48665 7.07956 5.4967 7.07971C5.51674 7.08001 5.54494 7.08023 5.57947 7.08038C5.62271 7.08057 5.67567 7.08044 5.73462 7.08044V6.8125C5.73462 6.77798 5.7626 6.75 5.79712 6.75C5.83163 6.75001 5.85962 6.77799 5.85962 6.8125V7.08051C5.92469 7.08041 5.99325 7.08016 6.06158 7.07996V6.8125C6.06158 6.77798 6.08957 6.75 6.12408 6.75ZM5.85962 7.20551V7.40894C5.92469 7.40884 5.99325 7.40859 6.06158 7.40839V7.20496C5.99325 7.20516 5.9247 7.20541 5.85962 7.20551Z" fill="black" style="fill:black;fill-opacity:1;"/>
<path d="M7.79712 6.75C7.83163 6.75001 7.85962 6.77799 7.85962 6.8125V7.08051C7.90513 7.08044 7.95235 7.08023 8 7.08008V7.20508C7.95235 7.20523 7.90514 7.20544 7.85962 7.20551V7.40894C7.90513 7.40887 7.95235 7.40866 8 7.40851V7.53351C7.95235 7.53366 7.90514 7.53387 7.85962 7.53394V7.8125C7.85962 7.84701 7.83163 7.87499 7.79712 7.875C7.7626 7.875 7.73462 7.84702 7.73462 7.8125V7.53387C7.67554 7.53387 7.62239 7.53401 7.57892 7.53381C7.54426 7.53366 7.51552 7.53339 7.49481 7.53308C7.48451 7.53293 7.4759 7.53275 7.46942 7.53253C7.46623 7.53243 7.46319 7.53232 7.46057 7.53217C7.45958 7.53211 7.45388 7.53185 7.44824 7.5307C7.41442 7.52381 7.39259 7.49079 7.39948 7.45697C7.40637 7.42316 7.43933 7.40133 7.47314 7.4082C7.47101 7.40777 7.46914 7.40752 7.46808 7.40741C7.46907 7.40747 7.47083 7.40757 7.47351 7.40765C7.47887 7.40783 7.48665 7.40799 7.4967 7.40814C7.51674 7.40844 7.54494 7.40866 7.57947 7.40881C7.62271 7.409 7.67567 7.40887 7.73462 7.40887V7.20544C7.67554 7.20544 7.62239 7.20558 7.57892 7.20538C7.54426 7.20523 7.51552 7.20496 7.49481 7.20465C7.48451 7.2045 7.4759 7.20431 7.46942 7.2041C7.46623 7.204 7.46319 7.20389 7.46057 7.20374C7.45958 7.20368 7.45388 7.20342 7.44824 7.20227C7.41442 7.19538 7.39259 7.16236 7.39948 7.12854C7.40637 7.09473 7.43933 7.0729 7.47314 7.07977C7.47101 7.07934 7.46915 7.07909 7.46808 7.07898C7.46907 7.07904 7.47083 7.07907 7.47351 7.07916C7.47887 7.07934 7.48665 7.07956 7.4967 7.07971C7.51674 7.08001 7.54494 7.08023 7.57947 7.08038C7.62271 7.08057 7.67567 7.08044 7.73462 7.08044V6.8125C7.73462 6.77798 7.7626 6.75 7.79712 6.75Z" fill="black" style="fill:black;fill-opacity:1;"/>
<path fill-rule="evenodd" clip-rule="evenodd" d="M1.12408 5.75C1.1586 5.75001 1.18658 5.77799 1.18658 5.8125V6.07959C1.28779 6.07923 1.38335 6.07887 1.46039 6.07849C1.4949 6.07833 1.52302 6.10618 1.52319 6.14069C1.52336 6.1752 1.49551 6.20331 1.461 6.20349C1.38381 6.20387 1.28803 6.20423 1.18658 6.20459V6.40802C1.28779 6.40766 1.38335 6.4073 1.46039 6.40692C1.49489 6.40676 1.52301 6.43461 1.52319 6.46912C1.52336 6.50363 1.49551 6.53174 1.461 6.53192C1.38381 6.5323 1.28803 6.53266 1.18658 6.53302V6.8125C1.18658 6.84701 1.1586 6.87499 1.12408 6.875C1.08957 6.875 1.06158 6.84702 1.06158 6.8125V6.53339C0.993246 6.53359 0.924695 6.53384 0.859619 6.53394V6.8125C0.859619 6.84701 0.831631 6.87499 0.797119 6.875C0.762601 6.875 0.734619 6.84702 0.734619 6.8125V6.53387C0.675542 6.53387 0.622391 6.53401 0.578918 6.53381C0.544255 6.53366 0.515521 6.53339 0.494812 6.53308C0.48451 6.53293 0.475899 6.53275 0.469421 6.53253C0.466232 6.53243 0.463187 6.53232 0.460571 6.53217C0.459582 6.53211 0.453882 6.53185 0.448242 6.5307C0.414421 6.52381 0.392586 6.49079 0.399475 6.45697C0.406366 6.42316 0.439331 6.40133 0.473145 6.4082C0.47101 6.40777 0.469145 6.40752 0.468079 6.40741C0.469069 6.40747 0.470826 6.40757 0.473511 6.40765C0.478873 6.40783 0.486652 6.40799 0.496704 6.40814C0.516745 6.40844 0.544941 6.40866 0.579468 6.40881C0.622712 6.409 0.675669 6.40887 0.734619 6.40887V6.20544C0.675542 6.20544 0.622391 6.20558 0.578918 6.20538C0.544255 6.20523 0.515521 6.20496 0.494812 6.20465C0.48451 6.2045 0.475899 6.20431 0.469421 6.2041C0.466233 6.204 0.463186 6.20389 0.460571 6.20374C0.459583 6.20368 0.453881 6.20342 0.448242 6.20227C0.414423 6.19538 0.392592 6.16236 0.399475 6.12854C0.406366 6.09473 0.439331 6.0729 0.473145 6.07977C0.47101 6.07934 0.469145 6.07909 0.468079 6.07898C0.469069 6.07904 0.470827 6.07907 0.473511 6.07916C0.478873 6.07934 0.486652 6.07956 0.496704 6.07971C0.516745 6.08001 0.544941 6.08023 0.579468 6.08038C0.622712 6.08057 0.675669 6.08044 0.734619 6.08044V5.8125C0.734619 5.77798 0.762601 5.75 0.797119 5.75C0.831631 5.75001 0.859619 5.77799 0.859619 5.8125V6.08051C0.924692 6.08041 0.993245 6.08016 1.06158 6.07996V5.8125C1.06158 5.77798 1.08957 5.75 1.12408 5.75ZM0.859619 6.20551V6.40894C0.924692 6.40884 0.993245 6.40859 1.06158 6.40839V6.20496C0.993246 6.20516 0.924695 6.20541 0.859619 6.20551Z" fill="black" style="fill:black;fill-opacity:1;"/>
<path fill-rule="evenodd" clip-rule="evenodd" d="M3.12408 5.75C3.1586 5.75001 3.18658 5.77799 3.18658 5.8125V6.07959C3.28779 6.07923 3.38335 6.07887 3.46039 6.07849C3.4949 6.07833 3.52302 6.10618 3.52319 6.14069C3.52336 6.1752 3.49551 6.20331 3.461 6.20349C3.38381 6.20387 3.28803 6.20423 3.18658 6.20459V6.40802C3.28779 6.40766 3.38335 6.4073 3.46039 6.40692C3.49489 6.40676 3.52302 6.43461 3.52319 6.46912C3.52336 6.50363 3.49551 6.53174 3.461 6.53192C3.38381 6.5323 3.28803 6.53266 3.18658 6.53302V6.8125C3.18658 6.84701 3.1586 6.87499 3.12408 6.875C3.08957 6.875 3.06158 6.84702 3.06158 6.8125V6.53339C2.99325 6.53359 2.9247 6.53384 2.85962 6.53394V6.8125C2.85962 6.84701 2.83163 6.87499 2.79712 6.875C2.7626 6.875 2.73462 6.84702 2.73462 6.8125V6.53387C2.67554 6.53387 2.62239 6.53401 2.57892 6.53381C2.54426 6.53366 2.51552 6.53339 2.49481 6.53308C2.48451 6.53293 2.4759 6.53275 2.46942 6.53253C2.46623 6.53243 2.46319 6.53232 2.46057 6.53217C2.45958 6.53211 2.45388 6.53185 2.44824 6.5307C2.41442 6.52381 2.39259 6.49079 2.39948 6.45697C2.40637 6.42316 2.43933 6.40133 2.47314 6.4082C2.47101 6.40777 2.46914 6.40752 2.46808 6.40741C2.46907 6.40747 2.47083 6.40757 2.47351 6.40765C2.47887 6.40783 2.48665 6.40799 2.4967 6.40814C2.51674 6.40844 2.54494 6.40866 2.57947 6.40881C2.62271 6.409 2.67567 6.40887 2.73462 6.40887V6.20544C2.67554 6.20544 2.62239 6.20558 2.57892 6.20538C2.54426 6.20523 2.51552 6.20496 2.49481 6.20465C2.48451 6.2045 2.4759 6.20431 2.46942 6.2041C2.46623 6.204 2.46319 6.20389 2.46057 6.20374C2.45958 6.20368 2.45388 6.20342 2.44824 6.20227C2.41442 6.19538 2.39259 6.16236 2.39948 6.12854C2.40637 6.09473 2.43933 6.0729 2.47314 6.07977C2.47101 6.07934 2.46915 6.07909 2.46808 6.07898C2.46907 6.07904 2.47083 6.07907 2.47351 6.07916C2.47887 6.07934 2.48665 6.07956 2.4967 6.07971C2.51674 6.08001 2.54494 6.08023 2.57947 6.08038C2.62271 6.08057 2.67567 6.08044 2.73462 6.08044V5.8125C2.73462 5.77798 2.7626 5.75 2.79712 5.75C2.83163 5.75001 2.85962 5.77799 2.85962 5.8125V6.08051C2.92469 6.08041 2.99325 6.08016 3.06158 6.07996V5.8125C3.06158 5.77798 3.08957 5.75 3.12408 5.75ZM2.85962 6.20551V6.40894C2.92469 6.40884 2.99325 6.40859 3.06158 6.40839V6.20496C2.99325 6.20516 2.9247 6.20541 2.85962 6.20551Z" fill="black" style="fill:black;fill-opacity:1;"/>
<path fill-rule="evenodd" clip-rule="evenodd" d="M5.12408 5.75C5.1586 5.75001 5.18658 5.77799 5.18658 5.8125V6.07959C5.28779 6.07923 5.38335 6.07887 5.46039 6.07849C5.4949 6.07833 5.52302 6.10618 5.52319 6.14069C5.52336 6.1752 5.49551 6.20331 5.461 6.20349C5.38381 6.20387 5.28803 6.20423 5.18658 6.20459V6.40802C5.28779 6.40766 5.38335 6.4073 5.46039 6.40692C5.49489 6.40676 5.52301 6.43461 5.52319 6.46912C5.52336 6.50363 5.49551 6.53174 5.461 6.53192C5.38381 6.5323 5.28803 6.53266 5.18658 6.53302V6.8125C5.18658 6.84701 5.1586 6.87499 5.12408 6.875C5.08957 6.875 5.06158 6.84702 5.06158 6.8125V6.53339C4.99325 6.53359 4.9247 6.53384 4.85962 6.53394V6.8125C4.85962 6.84701 4.83163 6.87499 4.79712 6.875C4.7626 6.875 4.73462 6.84702 4.73462 6.8125V6.53387C4.67554 6.53387 4.62239 6.53401 4.57892 6.53381C4.54426 6.53366 4.51552 6.53339 4.49481 6.53308C4.48451 6.53293 4.4759 6.53275 4.46942 6.53253C4.46623 6.53243 4.46319 6.53232 4.46057 6.53217C4.45958 6.53211 4.45388 6.53185 4.44824 6.5307C4.41442 6.52381 4.39259 6.49079 4.39948 6.45697C4.40637 6.42316 4.43933 6.40133 4.47314 6.4082C4.47101 6.40777 4.46914 6.40752 4.46808 6.40741C4.46907 6.40747 4.47083 6.40757 4.47351 6.40765C4.47887 6.40783 4.48665 6.40799 4.4967 6.40814C4.51674 6.40844 4.54494 6.40866 4.57947 6.40881C4.62271 6.409 4.67567 6.40887 4.73462 6.40887V6.20544C4.67554 6.20544 4.62239 6.20558 4.57892 6.20538C4.54426 6.20523 4.51552 6.20496 4.49481 6.20465C4.48451 6.2045 4.4759 6.20431 4.46942 6.2041C4.46623 6.204 4.46319 6.20389 4.46057 6.20374C4.45958 6.20368 4.45388 6.20342 4.44824 6.20227C4.41442 6.19538 4.39259 6.16236 4.39948 6.12854C4.40637 6.09473 4.43933 6.0729 4.47314 6.07977C4.47101 6.07934 4.46915 6.07909 4.46808 6.07898C4.46907 6.07904 4.47083 6.07907 4.47351 6.07916C4.47887 6.07934 4.48665 6.07956 4.4967 6.07971C4.51674 6.08001 4.54494 6.08023 4.57947 6.08038C4.62271 6.08057 4.67567 6.08044 4.73462 6.08044V5.8125C4.73462 5.77798 4.7626 5.75 4.79712 5.75C4.83163 5.75001 4.85962 5.77799 4.85962 5.8125V6.08051C4.92469 6.08041 4.99325 6.08016 5.06158 6.07996V5.8125C5.06158 5.77798 5.08957 5.75 5.12408 5.75ZM4.85962 6.20551V6.40894C4.92469 6.40884 4.99325 6.40859 5.06158 6.40839V6.20496C4.99325 6.20516 4.9247 6.20541 4.85962 6.20551Z" fill="black" style="fill:black;fill-opacity:1;"/>
<path fill-rule="evenodd" clip-rule="evenodd" d="M7.12408 5.75C7.1586 5.75001 7.18658 5.77799 7.18658 5.8125V6.07959C7.28779 6.07923 7.38335 6.07887 7.46039 6.07849C7.4949 6.07833 7.52302 6.10618 7.52319 6.14069C7.52336 6.1752 7.49551 6.20331 7.461 6.20349C7.38381 6.20387 7.28803 6.20423 7.18658 6.20459V6.40802C7.28779 6.40766 7.38335 6.4073 7.46039 6.40692C7.49489 6.40676 7.52302 6.43461 7.52319 6.46912C7.52336 6.50363 7.49551 6.53174 7.461 6.53192C7.38381 6.5323 7.28803 6.53266 7.18658 6.53302V6.8125C7.18658 6.84701 7.1586 6.87499 7.12408 6.875C7.08957 6.875 7.06158 6.84702 7.06158 6.8125V6.53339C6.99325 6.53359 6.9247 6.53384 6.85962 6.53394V6.8125C6.85962 6.84701 6.83163 6.87499 6.79712 6.875C6.7626 6.875 6.73462 6.84702 6.73462 6.8125V6.53387C6.67554 6.53387 6.62239 6.53401 6.57892 6.53381C6.54426 6.53366 6.51552 6.53339 6.49481 6.53308C6.48451 6.53293 6.4759 6.53275 6.46942 6.53253C6.46623 6.53243 6.46319 6.53232 6.46057 6.53217C6.45958 6.53211 6.45388 6.53185 6.44824 6.5307C6.41442 6.52381 6.39259 6.49079 6.39948 6.45697C6.40637 6.42316 6.43933 6.40133 6.47314 6.4082C6.47101 6.40777 6.46914 6.40752 6.46808 6.40741C6.46907 6.40747 6.47083 6.40757 6.47351 6.40765C6.47887 6.40783 6.48665 6.40799 6.4967 6.40814C6.51674 6.40844 6.54494 6.40866 6.57947 6.40881C6.62271 6.409 6.67567 6.40887 6.73462 6.40887V6.20544C6.67554 6.20544 6.62239 6.20558 6.57892 6.20538C6.54426 6.20523 6.51552 6.20496 6.49481 6.20465C6.48451 6.2045 6.4759 6.20431 6.46942 6.2041C6.46623 6.204 6.46319 6.20389 6.46057 6.20374C6.45958 6.20368 6.45388 6.20342 6.44824 6.20227C6.41442 6.19538 6.39259 6.16236 6.39948 6.12854C6.40637 6.09473 6.43933 6.0729 6.47314 6.07977C6.47101 6.07934 6.46915 6.07909 6.46808 6.07898C6.46907 6.07904 6.47083 6.07907 6.47351 6.07916C6.47887 6.07934 6.48665 6.07956 6.4967 6.07971C6.51674 6.08001 6.54494 6.08023 6.57947 6.08038C6.62271 6.08057 6.67567 6.08044 6.73462 6.08044V5.8125C6.73462 5.77798 6.7626 5.75 6.79712 5.75C6.83163 5.75001 6.85962 5.77799 6.85962 5.8125V6.08051C6.92469 6.08041 6.99325 6.08016 7.06158 6.07996V5.8125C7.06158 5.77798 7.08957 5.75 7.12408 5.75ZM6.85962 6.20551V6.40894C6.92469 6.40884 6.99325 6.40859 7.06158 6.40839V6.20496C6.99325 6.20516 6.9247 6.20541 6.85962 6.20551Z" fill="black" style="fill:black;fill-opacity:1;"/>
<path d="M0.124084 4.75C0.158597 4.75001 0.186584 4.77799 0.186584 4.8125V5.07959C0.287794 5.07923 0.38335 5.07887 0.460388 5.07849C0.494897 5.07833 0.52302 5.10618 0.523193 5.14069C0.523364 5.1752 0.49551 5.20331 0.460999 5.20349C0.383807 5.20387 0.28803 5.20423 0.186584 5.20459V5.40802C0.287794 5.40766 0.38335 5.4073 0.460388 5.40692C0.494894 5.40676 0.523015 5.43461 0.523193 5.46912C0.523364 5.50363 0.49551 5.53174 0.460999 5.53192C0.383807 5.5323 0.28803 5.53266 0.186584 5.53302V5.8125C0.186584 5.84701 0.158597 5.87499 0.124084 5.875C0.0895667 5.875 0.0615845 5.84702 0.0615845 5.8125V5.53339C0.0410454 5.53345 0.0204759 5.53344 0 5.53351V5.40851C0.0204759 5.40844 0.0410455 5.40845 0.0615845 5.40839V5.20496C0.0410454 5.20502 0.0204759 5.20501 0 5.20508V5.08008C0.0204759 5.08001 0.0410455 5.08002 0.0615845 5.07996V4.8125C0.0615845 4.77798 0.0895667 4.75 0.124084 4.75Z" fill="black" style="fill:black;fill-opacity:1;"/>
<path fill-rule="evenodd" clip-rule="evenodd" d="M2.12408 4.75C2.1586 4.75001 2.18658 4.77799 2.18658 4.8125V5.07959C2.28779 5.07923 2.38335 5.07887 2.46039 5.07849C2.4949 5.07833 2.52302 5.10618 2.52319 5.14069C2.52336 5.1752 2.49551 5.20331 2.461 5.20349C2.38381 5.20387 2.28803 5.20423 2.18658 5.20459V5.40802C2.28779 5.40766 2.38335 5.4073 2.46039 5.40692C2.49489 5.40676 2.52302 5.43461 2.52319 5.46912C2.52336 5.50363 2.49551 5.53174 2.461 5.53192C2.38381 5.5323 2.28803 5.53266 2.18658 5.53302V5.8125C2.18658 5.84701 2.1586 5.87499 2.12408 5.875C2.08957 5.875 2.06158 5.84702 2.06158 5.8125V5.53339C1.99325 5.53359 1.9247 5.53384 1.85962 5.53394V5.8125C1.85962 5.84701 1.83163 5.87499 1.79712 5.875C1.7626 5.875 1.73462 5.84702 1.73462 5.8125V5.53387C1.67554 5.53387 1.62239 5.53401 1.57892 5.53381C1.54426 5.53366 1.51552 5.53339 1.49481 5.53308C1.48451 5.53293 1.4759 5.53275 1.46942 5.53253C1.46623 5.53243 1.46319 5.53232 1.46057 5.53217C1.45958 5.53211 1.45388 5.53185 1.44824 5.5307C1.41442 5.52381 1.39259 5.49079 1.39948 5.45697C1.40637 5.42316 1.43933 5.40133 1.47314 5.4082C1.47101 5.40777 1.46914 5.40752 1.46808 5.40741C1.46907 5.40747 1.47083 5.40757 1.47351 5.40765C1.47887 5.40783 1.48665 5.40799 1.4967 5.40814C1.51674 5.40844 1.54494 5.40866 1.57947 5.40881C1.62271 5.409 1.67567 5.40887 1.73462 5.40887V5.20544C1.67554 5.20544 1.62239 5.20558 1.57892 5.20538C1.54426 5.20523 1.51552 5.20496 1.49481 5.20465C1.48451 5.2045 1.4759 5.20431 1.46942 5.2041C1.46623 5.204 1.46319 5.20389 1.46057 5.20374C1.45958 5.20368 1.45388 5.20342 1.44824 5.20227C1.41442 5.19538 1.39259 5.16236 1.39948 5.12854C1.40637 5.09473 1.43933 5.0729 1.47314 5.07977C1.47101 5.07934 1.46915 5.07909 1.46808 5.07898C1.46907 5.07904 1.47083 5.07907 1.47351 5.07916C1.47887 5.07934 1.48665 5.07956 1.4967 5.07971C1.51674 5.08001 1.54494 5.08023 1.57947 5.08038C1.62271 5.08057 1.67567 5.08044 1.73462 5.08044V4.8125C1.73462 4.77798 1.7626 4.75 1.79712 4.75C1.83163 4.75001 1.85962 4.77799 1.85962 4.8125V5.08051C1.92469 5.08041 1.99325 5.08016 2.06158 5.07996V4.8125C2.06158 4.77798 2.08957 4.75 2.12408 4.75ZM1.85962 5.20551V5.40894C1.92469 5.40884 1.99325 5.40859 2.06158 5.40839V5.20496C1.99325 5.20516 1.9247 5.20541 1.85962 5.20551Z" fill="black" style="fill:black;fill-opacity:1;"/>
<path fill-rule="evenodd" clip-rule="evenodd" d="M4.12408 4.75C4.1586 4.75001 4.18658 4.77799 4.18658 4.8125V5.07959C4.28779 5.07923 4.38335 5.07887 4.46039 5.07849C4.4949 5.07833 4.52302 5.10618 4.52319 5.14069C4.52336 5.1752 4.49551 5.20331 4.461 5.20349C4.38381 5.20387 4.28803 5.20423 4.18658 5.20459V5.40802C4.28779 5.40766 4.38335 5.4073 4.46039 5.40692C4.49489 5.40676 4.52301 5.43461 4.52319 5.46912C4.52336 5.50363 4.49551 5.53174 4.461 5.53192C4.38381 5.5323 4.28803 5.53266 4.18658 5.53302V5.8125C4.18658 5.84701 4.1586 5.87499 4.12408 5.875C4.08957 5.875 4.06158 5.84702 4.06158 5.8125V5.53339C4.04105 5.53345 4.02048 5.53344 4 5.53351C3.95235 5.53366 3.90514 5.53387 3.85962 5.53394V5.8125C3.85962 5.84701 3.83163 5.87499 3.79712 5.875C3.7626 5.875 3.73462 5.84702 3.73462 5.8125V5.53387C3.67554 5.53387 3.62239 5.53401 3.57892 5.53381C3.54426 5.53366 3.51552 5.53339 3.49481 5.53308C3.48451 5.53293 3.4759 5.53275 3.46942 5.53253C3.46623 5.53243 3.46319 5.53232 3.46057 5.53217C3.45958 5.53211 3.45388 5.53185 3.44824 5.5307C3.41442 5.52381 3.39259 5.49079 3.39948 5.45697C3.40637 5.42316 3.43933 5.40133 3.47314 5.4082C3.47101 5.40777 3.46914 5.40752 3.46808 5.40741C3.46907 5.40747 3.47083 5.40757 3.47351 5.40765C3.47887 5.40783 3.48665 5.40799 3.4967 5.40814C3.51674 5.40844 3.54494 5.40866 3.57947 5.40881C3.62271 5.409 3.67567 5.40887 3.73462 5.40887V5.20544C3.67554 5.20544 3.62239 5.20558 3.57892 5.20538C3.54426 5.20523 3.51552 5.20496 3.49481 5.20465C3.48451 5.2045 3.4759 5.20431 3.46942 5.2041C3.46623 5.204 3.46319 5.20389 3.46057 5.20374C3.45958 5.20368 3.45388 5.20342 3.44824 5.20227C3.41442 5.19538 3.39259 5.16236 3.39948 5.12854C3.40637 5.09473 3.43933 5.0729 3.47314 5.07977C3.47101 5.07934 3.46915 5.07909 3.46808 5.07898C3.46907 5.07904 3.47083 5.07907 3.47351 5.07916C3.47887 5.07934 3.48665 5.07956 3.4967 5.07971C3.51674 5.08001 3.54494 5.08023 3.57947 5.08038C3.62271 5.08057 3.67567 5.08044 3.73462 5.08044V4.8125C3.73462 4.77798 3.7626 4.75 3.79712 4.75C3.83163 4.75001 3.85962 4.77799 3.85962 4.8125V5.08051C3.90513 5.08044 3.95235 5.08023 4 5.08008C4.02048 5.08001 4.04105 5.08002 4.06158 5.07996V4.8125C4.06158 4.77798 4.08957 4.75 4.12408 4.75ZM4 5.20508C3.95235 5.20523 3.90514 5.20544 3.85962 5.20551V5.40894C3.90513 5.40887 3.95235 5.40866 4 5.40851C4.02048 5.40844 4.04105 5.40845 4.06158 5.40839V5.20496C4.04105 5.20502 4.02048 5.20501 4 5.20508Z" fill="black" style="fill:black;fill-opacity:1;"/>
<path fill-rule="evenodd" clip-rule="evenodd" d="M6.12408 4.75C6.1586 4.75001 6.18658 4.77799 6.18658 4.8125V5.07959C6.28779 5.07923 6.38335 5.07887 6.46039 5.07849C6.4949 5.07833 6.52302 5.10618 6.52319 5.14069C6.52336 5.1752 6.49551 5.20331 6.461 5.20349C6.38381 5.20387 6.28803 5.20423 6.18658 5.20459V5.40802C6.28779 5.40766 6.38335 5.4073 6.46039 5.40692C6.49489 5.40676 6.52302 5.43461 6.52319 5.46912C6.52336 5.50363 6.49551 5.53174 6.461 5.53192C6.38381 5.5323 6.28803 5.53266 6.18658 5.53302V5.8125C6.18658 5.84701 6.1586 5.87499 6.12408 5.875C6.08957 5.875 6.06158 5.84702 6.06158 5.8125V5.53339C5.99325 5.53359 5.9247 5.53384 5.85962 5.53394V5.8125C5.85962 5.84701 5.83163 5.87499 5.79712 5.875C5.7626 5.875 5.73462 5.84702 5.73462 5.8125V5.53387C5.67554 5.53387 5.62239 5.53401 5.57892 5.53381C5.54426 5.53366 5.51552 5.53339 5.49481 5.53308C5.48451 5.53293 5.4759 5.53275 5.46942 5.53253C5.46623 5.53243 5.46319 5.53232 5.46057 5.53217C5.45958 5.53211 5.45388 5.53185 5.44824 5.5307C5.41442 5.52381 5.39259 5.49079 5.39948 5.45697C5.40637 5.42316 5.43933 5.40133 5.47314 5.4082C5.47101 5.40777 5.46914 5.40752 5.46808 5.40741C5.46907 5.40747 5.47083 5.40757 5.47351 5.40765C5.47887 5.40783 5.48665 5.40799 5.4967 5.40814C5.51674 5.40844 5.54494 5.40866 5.57947 5.40881C5.62271 5.409 5.67567 5.40887 5.73462 5.40887V5.20544C5.67554 5.20544 5.62239 5.20558 5.57892 5.20538C5.54426 5.20523 5.51552 5.20496 5.49481 5.20465C5.48451 5.2045 5.4759 5.20431 5.46942 5.2041C5.46623 5.204 5.46319 5.20389 5.46057 5.20374C5.45958 5.20368 5.45388 5.20342 5.44824 5.20227C5.41442 5.19538 5.39259 5.16236 5.39948 5.12854C5.40637 5.09473 5.43933 5.0729 5.47314 5.07977C5.47101 5.07934 5.46915 5.07909 5.46808 5.07898C5.46907 5.07904 5.47083 5.07907 5.47351 5.07916C5.47887 5.07934 5.48665 5.07956 5.4967 5.07971C5.51674 5.08001 5.54494 5.08023 5.57947 5.08038C5.62271 5.08057 5.67567 5.08044 5.73462 5.08044V4.8125C5.73462 4.77798 5.7626 4.75 5.79712 4.75C5.83163 4.75001 5.85962 4.77799 5.85962 4.8125V5.08051C5.92469 5.08041 5.99325 5.08016 6.06158 5.07996V4.8125C6.06158 4.77798 6.08957 4.75 6.12408 4.75ZM5.85962 5.20551V5.40894C5.92469 5.40884 5.99325 5.40859 6.06158 5.40839V5.20496C5.99325 5.20516 5.9247 5.20541 5.85962 5.20551Z" fill="black" style="fill:black;fill-opacity:1;"/>
<path d="M7.79712 4.75C7.83163 4.75001 7.85962 4.77799 7.85962 4.8125V5.08051C7.90513 5.08044 7.95235 5.08023 8 5.08008V5.20508C7.95235 5.20523 7.90514 5.20544 7.85962 5.20551V5.40894C7.90513 5.40887 7.95235 5.40866 8 5.40851V5.53351C7.95235 5.53366 7.90514 5.53387 7.85962 5.53394V5.8125C7.85962 5.84701 7.83163 5.87499 7.79712 5.875C7.7626 5.875 7.73462 5.84702 7.73462 5.8125V5.53387C7.67554 5.53387 7.62239 5.53401 7.57892 5.53381C7.54426 5.53366 7.51552 5.53339 7.49481 5.53308C7.48451 5.53293 7.4759 5.53275 7.46942 5.53253C7.46623 5.53243 7.46319 5.53232 7.46057 5.53217C7.45958 5.53211 7.45388 5.53185 7.44824 5.5307C7.41442 5.52381 7.39259 5.49079 7.39948 5.45697C7.40637 5.42316 7.43933 5.40133 7.47314 5.4082C7.47101 5.40777 7.46914 5.40752 7.46808 5.40741C7.46907 5.40747 7.47083 5.40757 7.47351 5.40765C7.47887 5.40783 7.48665 5.40799 7.4967 5.40814C7.51674 5.40844 7.54494 5.40866 7.57947 5.40881C7.62271 5.409 7.67567 5.40887 7.73462 5.40887V5.20544C7.67554 5.20544 7.62239 5.20558 7.57892 5.20538C7.54426 5.20523 7.51552 5.20496 7.49481 5.20465C7.48451 5.2045 7.4759 5.20431 7.46942 5.2041C7.46623 5.204 7.46319 5.20389 7.46057 5.20374C7.45958 5.20368 7.45388 5.20342 7.44824 5.20227C7.41442 5.19538 7.39259 5.16236 7.39948 5.12854C7.40637 5.09473 7.43933 5.0729 7.47314 5.07977C7.47101 5.07934 7.46915 5.07909 7.46808 5.07898C7.46907 5.07904 7.47083 5.07907 7.47351 5.07916C7.47887 5.07934 7.48665 5.07956 7.4967 5.07971C7.51674 5.08001 7.54494 5.08023 7.57947 5.08038C7.62271 5.08057 7.67567 5.08044 7.73462 5.08044V4.8125C7.73462 4.77798 7.7626 4.75 7.79712 4.75Z" fill="black" style="fill:black;fill-opacity:1;"/>
<path fill-rule="evenodd" clip-rule="evenodd" d="M1.12408 3.75C1.1586 3.75001 1.18658 3.77799 1.18658 3.8125V4.07959C1.28779 4.07923 1.38335 4.07887 1.46039 4.07849C1.4949 4.07833 1.52302 4.10618 1.52319 4.14069C1.52336 4.1752 1.49551 4.20331 1.461 4.20349C1.38381 4.20387 1.28803 4.20423 1.18658 4.20459V4.40802C1.28779 4.40766 1.38335 4.4073 1.46039 4.40692C1.49489 4.40676 1.52302 4.43461 1.52319 4.46912C1.52336 4.50363 1.49551 4.53174 1.461 4.53192C1.38381 4.5323 1.28803 4.53266 1.18658 4.53302V4.8125C1.18658 4.84701 1.1586 4.87499 1.12408 4.875C1.08957 4.875 1.06158 4.84702 1.06158 4.8125V4.53339C0.993246 4.53359 0.924695 4.53384 0.859619 4.53394V4.8125C0.859619 4.84701 0.831631 4.87499 0.797119 4.875C0.762601 4.875 0.734619 4.84702 0.734619 4.8125V4.53387C0.675542 4.53387 0.622391 4.53401 0.578918 4.53381C0.544255 4.53366 0.515521 4.53339 0.494812 4.53308C0.48451 4.53293 0.475899 4.53275 0.469421 4.53253C0.466232 4.53243 0.463187 4.53232 0.460571 4.53217C0.459582 4.53211 0.453882 4.53185 0.448242 4.5307C0.414421 4.52381 0.392586 4.49079 0.399475 4.45697C0.406366 4.42316 0.439331 4.40133 0.473145 4.4082C0.47101 4.40777 0.469145 4.40752 0.468079 4.40741C0.469069 4.40747 0.470826 4.40757 0.473511 4.40765C0.478873 4.40783 0.486652 4.40799 0.496704 4.40814C0.516745 4.40844 0.544941 4.40866 0.579468 4.40881C0.622712 4.409 0.675669 4.40887 0.734619 4.40887V4.20544C0.675542 4.20544 0.622391 4.20558 0.578918 4.20538C0.544255 4.20523 0.515521 4.20496 0.494812 4.20465C0.48451 4.2045 0.475899 4.20431 0.469421 4.2041C0.466233 4.204 0.463186 4.20389 0.460571 4.20374C0.459583 4.20368 0.453881 4.20342 0.448242 4.20227C0.414423 4.19538 0.392592 4.16236 0.399475 4.12854C0.406366 4.09473 0.439331 4.0729 0.473145 4.07977C0.47101 4.07934 0.469145 4.07909 0.468079 4.07898C0.469069 4.07904 0.470827 4.07907 0.473511 4.07916C0.478873 4.07934 0.486652 4.07956 0.496704 4.07971C0.516745 4.08001 0.544941 4.08023 0.579468 4.08038C0.622712 4.08057 0.675669 4.08044 0.734619 4.08044V3.8125C0.734619 3.77798 0.762601 3.75 0.797119 3.75C0.831631 3.75001 0.859619 3.77799 0.859619 3.8125V4.08051C0.924692 4.08041 0.993245 4.08016 1.06158 4.07996V3.8125C1.06158 3.77798 1.08957 3.75 1.12408 3.75ZM0.859619 4.20551V4.40894C0.924692 4.40884 0.993245 4.40859 1.06158 4.40839V4.20496C0.993246 4.20516 0.924695 4.20541 0.859619 4.20551Z" fill="black" style="fill:black;fill-opacity:1;"/>
<path fill-rule="evenodd" clip-rule="evenodd" d="M3.12408 3.75C3.1586 3.75001 3.18658 3.77799 3.18658 3.8125V4.07959C3.28779 4.07923 3.38335 4.07887 3.46039 4.07849C3.4949 4.07833 3.52302 4.10618 3.52319 4.14069C3.52336 4.1752 3.49551 4.20331 3.461 4.20349C3.38381 4.20387 3.28803 4.20423 3.18658 4.20459V4.40802C3.28779 4.40766 3.38335 4.4073 3.46039 4.40692C3.49489 4.40676 3.52302 4.43461 3.52319 4.46912C3.52336 4.50363 3.49551 4.53174 3.461 4.53192C3.38381 4.5323 3.28803 4.53266 3.18658 4.53302V4.8125C3.18658 4.84701 3.1586 4.87499 3.12408 4.875C3.08957 4.875 3.06158 4.84702 3.06158 4.8125V4.53339C2.99325 4.53359 2.9247 4.53384 2.85962 4.53394V4.8125C2.85962 4.84701 2.83163 4.87499 2.79712 4.875C2.7626 4.875 2.73462 4.84702 2.73462 4.8125V4.53387C2.67554 4.53387 2.62239 4.53401 2.57892 4.53381C2.54426 4.53366 2.51552 4.53339 2.49481 4.53308C2.48451 4.53293 2.4759 4.53275 2.46942 4.53253C2.46623 4.53243 2.46319 4.53232 2.46057 4.53217C2.45958 4.53211 2.45388 4.53185 2.44824 4.5307C2.41442 4.52381 2.39259 4.49079 2.39948 4.45697C2.40637 4.42316 2.43933 4.40133 2.47314 4.4082C2.47101 4.40777 2.46914 4.40752 2.46808 4.40741C2.46907 4.40747 2.47083 4.40757 2.47351 4.40765C2.47887 4.40783 2.48665 4.40799 2.4967 4.40814C2.51674 4.40844 2.54494 4.40866 2.57947 4.40881C2.62271 4.409 2.67567 4.40887 2.73462 4.40887V4.20544C2.67554 4.20544 2.62239 4.20558 2.57892 4.20538C2.54426 4.20523 2.51552 4.20496 2.49481 4.20465C2.48451 4.2045 2.4759 4.20431 2.46942 4.2041C2.46623 4.204 2.46319 4.20389 2.46057 4.20374C2.45958 4.20368 2.45388 4.20342 2.44824 4.20227C2.41442 4.19538 2.39259 4.16236 2.39948 4.12854C2.40637 4.09473 2.43933 4.0729 2.47314 4.07977C2.47101 4.07934 2.46915 4.07909 2.46808 4.07898C2.46907 4.07904 2.47083 4.07907 2.47351 4.07916C2.47887 4.07934 2.48665 4.07956 2.4967 4.07971C2.51674 4.08001 2.54494 4.08023 2.57947 4.08038C2.62271 4.08057 2.67567 4.08044 2.73462 4.08044V3.8125C2.73462 3.77798 2.7626 3.75 2.79712 3.75C2.83163 3.75001 2.85962 3.77799 2.85962 3.8125V4.08051C2.92469 4.08041 2.99325 4.08016 3.06158 4.07996V3.8125C3.06158 3.77798 3.08957 3.75 3.12408 3.75ZM2.85962 4.20551V4.40894C2.92469 4.40884 2.99325 4.40859 3.06158 4.40839V4.20496C2.99325 4.20516 2.9247 4.20541 2.85962 4.20551Z" fill="black" style="fill:black;fill-opacity:1;"/>
<path fill-rule="evenodd" clip-rule="evenodd" d="M4.85962 4.08051C4.92469 4.08041 4.99325 4.08016 5.06158 4.07996V3.8125C5.06158 3.77798 5.08957 3.75 5.12408 3.75C5.1586 3.75001 5.18658 3.77799 5.18658 3.8125V4.07959C5.28779 4.07923 5.38335 4.07887 5.46039 4.07849C5.4949 4.07833 5.52302 4.10618 5.52319 4.14069C5.52336 4.1752 5.49551 4.20331 5.461 4.20349C5.38381 4.20387 5.28803 4.20423 5.18658 4.20459V4.40802C5.28779 4.40766 5.38335 4.4073 5.46039 4.40692C5.49489 4.40676 5.52302 4.43461 5.52319 4.46912C5.52336 4.50363 5.49551 4.53174 5.461 4.53192C5.38381 4.5323 5.28803 4.53266 5.18658 4.53302V4.8125C5.18658 4.84701 5.1586 4.87499 5.12408 4.875C5.08957 4.875 5.06158 4.84702 5.06158 4.8125V4.53339C4.99325 4.53359 4.9247 4.53384 4.85962 4.53394V4.8125C4.85962 4.84701 4.83163 4.87499 4.79712 4.875C4.7626 4.875 4.73462 4.84702 4.73462 4.8125V4.53387C4.67554 4.53387 4.62239 4.53401 4.57892 4.53381C4.54426 4.53366 4.51552 4.53339 4.49481 4.53308C4.48451 4.53293 4.4759 4.53275 4.46942 4.53253C4.46623 4.53243 4.46319 4.53232 4.46057 4.53217C4.45958 4.53211 4.45388 4.53185 4.44824 4.5307C4.41442 4.52381 4.39259 4.49079 4.39948 4.45697C4.40637 4.42316 4.43933 4.40133 4.47314 4.4082C4.47101 4.40777 4.46914 4.40752 4.46808 4.40741C4.46907 4.40747 4.47083 4.40757 4.47351 4.40765C4.47887 4.40783 4.48665 4.40799 4.4967 4.40814C4.51674 4.40844 4.54494 4.40866 4.57947 4.40881C4.62271 4.409 4.67567 4.40887 4.73462 4.40887V4.20544C4.67554 4.20544 4.62239 4.20558 4.57892 4.20538C4.54426 4.20523 4.51552 4.20496 4.49481 4.20465C4.48451 4.2045 4.4759 4.20431 4.46942 4.2041C4.46623 4.204 4.46319 4.20389 4.46057 4.20374C4.45958 4.20368 4.45388 4.20342 4.44824 4.20227C4.41442 4.19538 4.39259 4.16236 4.39948 4.12854C4.40637 4.09473 4.43933 4.0729 4.47314 4.07977C4.47101 4.07934 4.46915 4.07909 4.46808 4.07898C4.46907 4.07904 4.47083 4.07907 4.47351 4.07916C4.47887 4.07934 4.48665 4.07956 4.4967 4.07971C4.51674 4.08001 4.54494 4.08023 4.57947 4.08038C4.62271 4.08057 4.67567 4.08044 4.73462 4.08044V3.8125C4.73462 3.77798 4.7626 3.75 4.79712 3.75C4.83163 3.75001 4.85962 3.77799 4.85962 3.8125V4.08051ZM4.85962 4.20551V4.40894C4.92469 4.40884 4.99325 4.40859 5.06158 4.40839V4.20496C4.99325 4.20516 4.9247 4.20541 4.85962 4.20551Z" fill="black" style="fill:black;fill-opacity:1;"/>
<path fill-rule="evenodd" clip-rule="evenodd" d="M6.85962 4.08051C6.92469 4.08041 6.99325 4.08016 7.06158 4.07996V3.8125C7.06158 3.77798 7.08957 3.75 7.12408 3.75C7.1586 3.75001 7.18658 3.77799 7.18658 3.8125V4.07959C7.28779 4.07923 7.38335 4.07887 7.46039 4.07849C7.4949 4.07833 7.52302 4.10618 7.52319 4.14069C7.52336 4.1752 7.49551 4.20331 7.461 4.20349C7.38381 4.20387 7.28803 4.20423 7.18658 4.20459V4.40802C7.28779 4.40766 7.38335 4.4073 7.46039 4.40692C7.49489 4.40676 7.52302 4.43461 7.52319 4.46912C7.52336 4.50363 7.49551 4.53174 7.461 4.53192C7.38381 4.5323 7.28803 4.53266 7.18658 4.53302V4.8125C7.18658 4.84701 7.1586 4.87499 7.12408 4.875C7.08957 4.875 7.06158 4.84702 7.06158 4.8125V4.53339C6.99325 4.53359 6.9247 4.53384 6.85962 4.53394V4.8125C6.85962 4.84701 6.83163 4.87499 6.79712 4.875C6.7626 4.875 6.73462 4.84702 6.73462 4.8125V4.53387C6.67554 4.53387 6.62239 4.53401 6.57892 4.53381C6.54426 4.53366 6.51552 4.53339 6.49481 4.53308C6.48451 4.53293 6.4759 4.53275 6.46942 4.53253C6.46623 4.53243 6.46319 4.53232 6.46057 4.53217C6.45958 4.53211 6.45388 4.53185 6.44824 4.5307C6.41442 4.52381 6.39259 4.49079 6.39948 4.45697C6.40637 4.42316 6.43933 4.40133 6.47314 4.4082C6.47101 4.40777 6.46914 4.40752 6.46808 4.40741C6.46907 4.40747 6.47083 4.40757 6.47351 4.40765C6.47887 4.40783 6.48665 4.40799 6.4967 4.40814C6.51674 4.40844 6.54494 4.40866 6.57947 4.40881C6.62271 4.409 6.67567 4.40887 6.73462 4.40887V4.20544C6.67554 4.20544 6.62239 4.20558 6.57892 4.20538C6.54426 4.20523 6.51552 4.20496 6.49481 4.20465C6.48451 4.2045 6.4759 4.20431 6.46942 4.2041C6.46623 4.204 6.46319 4.20389 6.46057 4.20374C6.45958 4.20368 6.45388 4.20342 6.44824 4.20227C6.41442 4.19538 6.39259 4.16236 6.39948 4.12854C6.40637 4.09473 6.43933 4.0729 6.47314 4.07977C6.47101 4.07934 6.46915 4.07909 6.46808 4.07898C6.46907 4.07904 6.47083 4.07907 6.47351 4.07916C6.47887 4.07934 6.48665 4.07956 6.4967 4.07971C6.51674 4.08001 6.54494 4.08023 6.57947 4.08038C6.62271 4.08057 6.67567 4.08044 6.73462 4.08044V3.8125C6.73462 3.77798 6.7626 3.75 6.79712 3.75C6.83163 3.75001 6.85962 3.77799 6.85962 3.8125V4.08051ZM6.85962 4.20551V4.40894C6.92469 4.40884 6.99325 4.40859 7.06158 4.40839V4.20496C6.99325 4.20516 6.9247 4.20541 6.85962 4.20551Z" fill="black" style="fill:black;fill-opacity:1;"/>
<path d="M0.124084 2.75C0.158597 2.75001 0.186584 2.77799 0.186584 2.8125V3.07959C0.287794 3.07923 0.38335 3.07887 0.460388 3.07849C0.494897 3.07833 0.52302 3.10618 0.523193 3.14069C0.523364 3.1752 0.49551 3.20331 0.460999 3.20349C0.383807 3.20387 0.28803 3.20423 0.186584 3.20459V3.40802C0.287794 3.40766 0.38335 3.4073 0.460388 3.40692C0.494894 3.40676 0.523015 3.43461 0.523193 3.46912C0.523364 3.50363 0.49551 3.53174 0.460999 3.53192C0.383807 3.5323 0.28803 3.53266 0.186584 3.53302V3.8125C0.186584 3.84701 0.158597 3.87499 0.124084 3.875C0.0895667 3.875 0.0615845 3.84702 0.0615845 3.8125V3.53339C0.0410454 3.53345 0.0204759 3.53344 0 3.53351V3.40851C0.0204759 3.40844 0.0410455 3.40845 0.0615845 3.40839V3.20496C0.0410454 3.20502 0.0204759 3.20501 0 3.20508V3.08008C0.0204759 3.08001 0.0410455 3.08002 0.0615845 3.07996V2.8125C0.0615845 2.77798 0.0895667 2.75 0.124084 2.75Z" fill="black" style="fill:black;fill-opacity:1;"/>
<path fill-rule="evenodd" clip-rule="evenodd" d="M2.12408 2.75C2.1586 2.75001 2.18658 2.77799 2.18658 2.8125V3.07959C2.28779 3.07923 2.38335 3.07887 2.46039 3.07849C2.4949 3.07833 2.52302 3.10618 2.52319 3.14069C2.52336 3.1752 2.49551 3.20331 2.461 3.20349C2.38381 3.20387 2.28803 3.20423 2.18658 3.20459V3.40802C2.28779 3.40766 2.38335 3.4073 2.46039 3.40692C2.49489 3.40676 2.52302 3.43461 2.52319 3.46912C2.52336 3.50363 2.49551 3.53174 2.461 3.53192C2.38381 3.5323 2.28803 3.53266 2.18658 3.53302V3.8125C2.18658 3.84701 2.1586 3.87499 2.12408 3.875C2.08957 3.875 2.06158 3.84702 2.06158 3.8125V3.53339C1.99325 3.53359 1.9247 3.53384 1.85962 3.53394V3.8125C1.85962 3.84701 1.83163 3.87499 1.79712 3.875C1.7626 3.875 1.73462 3.84702 1.73462 3.8125V3.53387C1.67554 3.53387 1.62239 3.53401 1.57892 3.53381C1.54426 3.53366 1.51552 3.53339 1.49481 3.53308C1.48451 3.53293 1.4759 3.53275 1.46942 3.53253C1.46623 3.53243 1.46319 3.53232 1.46057 3.53217C1.45958 3.53211 1.45388 3.53185 1.44824 3.5307C1.41442 3.52381 1.39259 3.49079 1.39948 3.45697C1.40637 3.42316 1.43933 3.40133 1.47314 3.4082C1.47101 3.40777 1.46914 3.40752 1.46808 3.40741C1.46907 3.40747 1.47083 3.40757 1.47351 3.40765C1.47887 3.40783 1.48665 3.40799 1.4967 3.40814C1.51674 3.40844 1.54494 3.40866 1.57947 3.40881C1.62271 3.409 1.67567 3.40887 1.73462 3.40887V3.20544C1.67554 3.20544 1.62239 3.20558 1.57892 3.20538C1.54426 3.20523 1.51552 3.20496 1.49481 3.20465C1.48451 3.2045 1.4759 3.20431 1.46942 3.2041C1.46623 3.204 1.46319 3.20389 1.46057 3.20374C1.45958 3.20368 1.45388 3.20342 1.44824 3.20227C1.41442 3.19538 1.39259 3.16236 1.39948 3.12854C1.40637 3.09473 1.43933 3.0729 1.47314 3.07977C1.47101 3.07934 1.46915 3.07909 1.46808 3.07898C1.46907 3.07904 1.47083 3.07907 1.47351 3.07916C1.47887 3.07934 1.48665 3.07956 1.4967 3.07971C1.51674 3.08001 1.54494 3.08023 1.57947 3.08038C1.62271 3.08057 1.67567 3.08044 1.73462 3.08044V2.8125C1.73462 2.77798 1.7626 2.75 1.79712 2.75C1.83163 2.75001 1.85962 2.77799 1.85962 2.8125V3.08051C1.92469 3.08041 1.99325 3.08016 2.06158 3.07996V2.8125C2.06158 2.77798 2.08957 2.75 2.12408 2.75ZM1.85962 3.20551V3.40894C1.92469 3.40884 1.99325 3.40859 2.06158 3.40839V3.20496C1.99325 3.20516 1.9247 3.20541 1.85962 3.20551Z" fill="black" style="fill:black;fill-opacity:1;"/>
<path fill-rule="evenodd" clip-rule="evenodd" d="M4.12408 2.75C4.1586 2.75001 4.18658 2.77799 4.18658 2.8125V3.07959C4.28779 3.07923 4.38335 3.07887 4.46039 3.07849C4.4949 3.07833 4.52302 3.10618 4.52319 3.14069C4.52336 3.1752 4.49551 3.20331 4.461 3.20349C4.38381 3.20387 4.28803 3.20423 4.18658 3.20459V3.40802C4.28779 3.40766 4.38335 3.4073 4.46039 3.40692C4.49489 3.40676 4.52301 3.43461 4.52319 3.46912C4.52336 3.50363 4.49551 3.53174 4.461 3.53192C4.38381 3.5323 4.28803 3.53266 4.18658 3.53302V3.8125C4.18658 3.84701 4.1586 3.87499 4.12408 3.875C4.08957 3.875 4.06158 3.84702 4.06158 3.8125V3.53339C4.04105 3.53345 4.02048 3.53344 4 3.53351C3.95235 3.53366 3.90514 3.53387 3.85962 3.53394V3.8125C3.85962 3.84701 3.83163 3.87499 3.79712 3.875C3.7626 3.875 3.73462 3.84702 3.73462 3.8125V3.53387C3.67554 3.53387 3.62239 3.53401 3.57892 3.53381C3.54426 3.53366 3.51552 3.53339 3.49481 3.53308C3.48451 3.53293 3.4759 3.53275 3.46942 3.53253C3.46623 3.53243 3.46319 3.53232 3.46057 3.53217C3.45958 3.53211 3.45388 3.53185 3.44824 3.5307C3.41442 3.52381 3.39259 3.49079 3.39948 3.45697C3.40637 3.42316 3.43933 3.40133 3.47314 3.4082C3.47101 3.40777 3.46914 3.40752 3.46808 3.40741C3.46907 3.40747 3.47083 3.40757 3.47351 3.40765C3.47887 3.40783 3.48665 3.40799 3.4967 3.40814C3.51674 3.40844 3.54494 3.40866 3.57947 3.40881C3.62271 3.409 3.67567 3.40887 3.73462 3.40887V3.20544C3.67554 3.20544 3.62239 3.20558 3.57892 3.20538C3.54426 3.20523 3.51552 3.20496 3.49481 3.20465C3.48451 3.2045 3.4759 3.20431 3.46942 3.2041C3.46623 3.204 3.46319 3.20389 3.46057 3.20374C3.45958 3.20368 3.45388 3.20342 3.44824 3.20227C3.41442 3.19538 3.39259 3.16236 3.39948 3.12854C3.40637 3.09473 3.43933 3.0729 3.47314 3.07977C3.47101 3.07934 3.46915 3.07909 3.46808 3.07898C3.46907 3.07904 3.47083 3.07907 3.47351 3.07916C3.47887 3.07934 3.48665 3.07956 3.4967 3.07971C3.51674 3.08001 3.54494 3.08023 3.57947 3.08038C3.62271 3.08057 3.67567 3.08044 3.73462 3.08044V2.8125C3.73462 2.77798 3.7626 2.75 3.79712 2.75C3.83163 2.75001 3.85962 2.77799 3.85962 2.8125V3.08051C3.90513 3.08044 3.95235 3.08023 4 3.08008C4.02048 3.08001 4.04105 3.08002 4.06158 3.07996V2.8125C4.06158 2.77798 4.08957 2.75 4.12408 2.75ZM4 3.20508C3.95235 3.20523 3.90514 3.20544 3.85962 3.20551V3.40894C3.90513 3.40887 3.95235 3.40866 4 3.40851C4.02048 3.40844 4.04105 3.40845 4.06158 3.40839V3.20496C4.04105 3.20502 4.02048 3.20501 4 3.20508Z" fill="black" style="fill:black;fill-opacity:1;"/>
<path fill-rule="evenodd" clip-rule="evenodd" d="M6.12408 2.75C6.1586 2.75001 6.18658 2.77799 6.18658 2.8125V3.07959C6.28779 3.07923 6.38335 3.07887 6.46039 3.07849C6.4949 3.07833 6.52302 3.10618 6.52319 3.14069C6.52336 3.1752 6.49551 3.20331 6.461 3.20349C6.38381 3.20387 6.28803 3.20423 6.18658 3.20459V3.40802C6.28779 3.40766 6.38335 3.4073 6.46039 3.40692C6.49489 3.40676 6.52302 3.43461 6.52319 3.46912C6.52336 3.50363 6.49551 3.53174 6.461 3.53192C6.38381 3.5323 6.28803 3.53266 6.18658 3.53302V3.8125C6.18658 3.84701 6.1586 3.87499 6.12408 3.875C6.08957 3.875 6.06158 3.84702 6.06158 3.8125V3.53339C5.99325 3.53359 5.9247 3.53384 5.85962 3.53394V3.8125C5.85962 3.84701 5.83163 3.87499 5.79712 3.875C5.7626 3.875 5.73462 3.84702 5.73462 3.8125V3.53387C5.67554 3.53387 5.62239 3.53401 5.57892 3.53381C5.54426 3.53366 5.51552 3.53339 5.49481 3.53308C5.48451 3.53293 5.4759 3.53275 5.46942 3.53253C5.46623 3.53243 5.46319 3.53232 5.46057 3.53217C5.45958 3.53211 5.45388 3.53185 5.44824 3.5307C5.41442 3.52381 5.39259 3.49079 5.39948 3.45697C5.40637 3.42316 5.43933 3.40133 5.47314 3.4082C5.47101 3.40777 5.46914 3.40752 5.46808 3.40741C5.46907 3.40747 5.47083 3.40757 5.47351 3.40765C5.47887 3.40783 5.48665 3.40799 5.4967 3.40814C5.51674 3.40844 5.54494 3.40866 5.57947 3.40881C5.62271 3.409 5.67567 3.40887 5.73462 3.40887V3.20544C5.67554 3.20544 5.62239 3.20558 5.57892 3.20538C5.54426 3.20523 5.51552 3.20496 5.49481 3.20465C5.48451 3.2045 5.4759 3.20431 5.46942 3.2041C5.46623 3.204 5.46319 3.20389 5.46057 3.20374C5.45958 3.20368 5.45388 3.20342 5.44824 3.20227C5.41442 3.19538 5.39259 3.16236 5.39948 3.12854C5.40637 3.09473 5.43933 3.0729 5.47314 3.07977C5.47101 3.07934 5.46915 3.07909 5.46808 3.07898C5.46907 3.07904 5.47083 3.07907 5.47351 3.07916C5.47887 3.07934 5.48665 3.07956 5.4967 3.07971C5.51674 3.08001 5.54494 3.08023 5.57947 3.08038C5.62271 3.08057 5.67567 3.08044 5.73462 3.08044V2.8125C5.73462 2.77798 5.7626 2.75 5.79712 2.75C5.83163 2.75001 5.85962 2.77799 5.85962 2.8125V3.08051C5.92469 3.08041 5.99325 3.08016 6.06158 3.07996V2.8125C6.06158 2.77798 6.08957 2.75 6.12408 2.75ZM5.85962 3.20551V3.40894C5.92469 3.40884 5.99325 3.40859 6.06158 3.40839V3.20496C5.99325 3.20516 5.9247 3.20541 5.85962 3.20551Z" fill="black" style="fill:black;fill-opacity:1;"/>
<path d="M7.79712 2.75C7.83163 2.75001 7.85962 2.77799 7.85962 2.8125V3.08051C7.90513 3.08044 7.95235 3.08023 8 3.08008V3.20508C7.95235 3.20523 7.90514 3.20544 7.85962 3.20551V3.40894C7.90513 3.40887 7.95235 3.40866 8 3.40851V3.53351C7.95235 3.53366 7.90514 3.53387 7.85962 3.53394V3.8125C7.85962 3.84701 7.83163 3.87499 7.79712 3.875C7.7626 3.875 7.73462 3.84702 7.73462 3.8125V3.53387C7.67554 3.53387 7.62239 3.53401 7.57892 3.53381C7.54426 3.53366 7.51552 3.53339 7.49481 3.53308C7.48451 3.53293 7.4759 3.53275 7.46942 3.53253C7.46623 3.53243 7.46319 3.53232 7.46057 3.53217C7.45958 3.53211 7.45388 3.53185 7.44824 3.5307C7.41442 3.52381 7.39259 3.49079 7.39948 3.45697C7.40637 3.42316 7.43933 3.40133 7.47314 3.4082C7.47101 3.40777 7.46914 3.40752 7.46808 3.40741C7.46907 3.40747 7.47083 3.40757 7.47351 3.40765C7.47887 3.40783 7.48665 3.40799 7.4967 3.40814C7.51674 3.40844 7.54494 3.40866 7.57947 3.40881C7.62271 3.409 7.67567 3.40887 7.73462 3.40887V3.20544C7.67554 3.20544 7.62239 3.20558 7.57892 3.20538C7.54426 3.20523 7.51552 3.20496 7.49481 3.20465C7.48451 3.2045 7.4759 3.20431 7.46942 3.2041C7.46623 3.204 7.46319 3.20389 7.46057 3.20374C7.45958 3.20368 7.45388 3.20342 7.44824 3.20227C7.41442 3.19538 7.39259 3.16236 7.39948 3.12854C7.40637 3.09473 7.43933 3.0729 7.47314 3.07977C7.47101 3.07934 7.46915 3.07909 7.46808 3.07898C7.46907 3.07904 7.47083 3.07907 7.47351 3.07916C7.47887 3.07934 7.48665 3.07956 7.4967 3.07971C7.51674 3.08001 7.54494 3.08023 7.57947 3.08038C7.62271 3.08057 7.67567 3.08044 7.73462 3.08044V2.8125C7.73462 2.77798 7.7626 2.75 7.79712 2.75Z" fill="black" style="fill:black;fill-opacity:1;"/>
<path fill-rule="evenodd" clip-rule="evenodd" d="M1.12408 1.75C1.1586 1.75001 1.18658 1.77799 1.18658 1.8125V2.07959C1.28779 2.07923 1.38335 2.07887 1.46039 2.07849C1.4949 2.07833 1.52302 2.10618 1.52319 2.14069C1.52336 2.1752 1.49551 2.20331 1.461 2.20349C1.38381 2.20387 1.28803 2.20423 1.18658 2.20459V2.40802C1.28779 2.40766 1.38335 2.4073 1.46039 2.40692C1.49489 2.40676 1.52301 2.43461 1.52319 2.46912C1.52336 2.50363 1.49551 2.53174 1.461 2.53192C1.38381 2.5323 1.28803 2.53266 1.18658 2.53302V2.8125C1.18658 2.84701 1.1586 2.87499 1.12408 2.875C1.08957 2.875 1.06158 2.84702 1.06158 2.8125V2.53339C0.993246 2.53359 0.924695 2.53384 0.859619 2.53394V2.8125C0.859619 2.84701 0.831631 2.87499 0.797119 2.875C0.762601 2.875 0.734619 2.84702 0.734619 2.8125V2.53387C0.675542 2.53387 0.622391 2.53401 0.578918 2.53381C0.544255 2.53366 0.515521 2.53339 0.494812 2.53308C0.48451 2.53293 0.475899 2.53275 0.469421 2.53253C0.466232 2.53243 0.463187 2.53232 0.460571 2.53217C0.459582 2.53211 0.453882 2.53185 0.448242 2.5307C0.414421 2.52381 0.392586 2.49079 0.399475 2.45697C0.406366 2.42316 0.439331 2.40133 0.473145 2.4082C0.47101 2.40777 0.469145 2.40752 0.468079 2.40741C0.469069 2.40747 0.470826 2.40757 0.473511 2.40765C0.478873 2.40783 0.486652 2.40799 0.496704 2.40814C0.516745 2.40844 0.544941 2.40866 0.579468 2.40881C0.622712 2.409 0.675669 2.40887 0.734619 2.40887V2.20544C0.675542 2.20544 0.622391 2.20558 0.578918 2.20538C0.544255 2.20523 0.515521 2.20496 0.494812 2.20465C0.48451 2.2045 0.475899 2.20431 0.469421 2.2041C0.466233 2.204 0.463186 2.20389 0.460571 2.20374C0.459583 2.20368 0.453881 2.20342 0.448242 2.20227C0.414423 2.19538 0.392592 2.16236 0.399475 2.12854C0.406366 2.09473 0.439331 2.0729 0.473145 2.07977C0.47101 2.07934 0.469145 2.07909 0.468079 2.07898C0.469069 2.07904 0.470827 2.07907 0.473511 2.07916C0.478873 2.07934 0.486652 2.07956 0.496704 2.07971C0.516745 2.08001 0.544941 2.08023 0.579468 2.08038C0.622712 2.08057 0.675669 2.08044 0.734619 2.08044V1.8125C0.734619 1.77798 0.762601 1.75 0.797119 1.75C0.831631 1.75001 0.859619 1.77799 0.859619 1.8125V2.08051C0.924692 2.08041 0.993245 2.08016 1.06158 2.07996V1.8125C1.06158 1.77798 1.08957 1.75 1.12408 1.75ZM0.859619 2.20551V2.40894C0.924692 2.40884 0.993245 2.40859 1.06158 2.40839V2.20496C0.993246 2.20516 0.924695 2.20541 0.859619 2.20551Z" fill="black" style="fill:black;fill-opacity:1;"/>
<path fill-rule="evenodd" clip-rule="evenodd" d="M3.12408 1.75C3.1586 1.75001 3.18658 1.77799 3.18658 1.8125V2.07959C3.28779 2.07923 3.38335 2.07887 3.46039 2.07849C3.4949 2.07833 3.52302 2.10618 3.52319 2.14069C3.52336 2.1752 3.49551 2.20331 3.461 2.20349C3.38381 2.20387 3.28803 2.20423 3.18658 2.20459V2.40802C3.28779 2.40766 3.38335 2.4073 3.46039 2.40692C3.49489 2.40676 3.52302 2.43461 3.52319 2.46912C3.52336 2.50363 3.49551 2.53174 3.461 2.53192C3.38381 2.5323 3.28803 2.53266 3.18658 2.53302V2.8125C3.18658 2.84701 3.1586 2.87499 3.12408 2.875C3.08957 2.875 3.06158 2.84702 3.06158 2.8125V2.53339C2.99325 2.53359 2.9247 2.53384 2.85962 2.53394V2.8125C2.85962 2.84701 2.83163 2.87499 2.79712 2.875C2.7626 2.875 2.73462 2.84702 2.73462 2.8125V2.53387C2.67554 2.53387 2.62239 2.53401 2.57892 2.53381C2.54426 2.53366 2.51552 2.53339 2.49481 2.53308C2.48451 2.53293 2.4759 2.53275 2.46942 2.53253C2.46623 2.53243 2.46319 2.53232 2.46057 2.53217C2.45958 2.53211 2.45388 2.53185 2.44824 2.5307C2.41442 2.52381 2.39259 2.49079 2.39948 2.45697C2.40637 2.42316 2.43933 2.40133 2.47314 2.4082C2.47101 2.40777 2.46914 2.40752 2.46808 2.40741C2.46907 2.40747 2.47083 2.40757 2.47351 2.40765C2.47887 2.40783 2.48665 2.40799 2.4967 2.40814C2.51674 2.40844 2.54494 2.40866 2.57947 2.40881C2.62271 2.409 2.67567 2.40887 2.73462 2.40887V2.20544C2.67554 2.20544 2.62239 2.20558 2.57892 2.20538C2.54426 2.20523 2.51552 2.20496 2.49481 2.20465C2.48451 2.2045 2.4759 2.20431 2.46942 2.2041C2.46623 2.204 2.46319 2.20389 2.46057 2.20374C2.45958 2.20368 2.45388 2.20342 2.44824 2.20227C2.41442 2.19538 2.39259 2.16236 2.39948 2.12854C2.40637 2.09473 2.43933 2.0729 2.47314 2.07977C2.47101 2.07934 2.46915 2.07909 2.46808 2.07898C2.46907 2.07904 2.47083 2.07907 2.47351 2.07916C2.47887 2.07934 2.48665 2.07956 2.4967 2.07971C2.51674 2.08001 2.54494 2.08023 2.57947 2.08038C2.62271 2.08057 2.67567 2.08044 2.73462 2.08044V1.8125C2.73462 1.77798 2.7626 1.75 2.79712 1.75C2.83163 1.75001 2.85962 1.77799 2.85962 1.8125V2.08051C2.92469 2.08041 2.99325 2.08016 3.06158 2.07996V1.8125C3.06158 1.77798 3.08957 1.75 3.12408 1.75ZM2.85962 2.20551V2.40894C2.92469 2.40884 2.99325 2.40859 3.06158 2.40839V2.20496C2.99325 2.20516 2.9247 2.20541 2.85962 2.20551Z" fill="black" style="fill:black;fill-opacity:1;"/>
<path fill-rule="evenodd" clip-rule="evenodd" d="M5.12408 1.75C5.1586 1.75001 5.18658 1.77799 5.18658 1.8125V2.07959C5.28779 2.07923 5.38335 2.07887 5.46039 2.07849C5.4949 2.07833 5.52302 2.10618 5.52319 2.14069C5.52336 2.1752 5.49551 2.20331 5.461 2.20349C5.38381 2.20387 5.28803 2.20423 5.18658 2.20459V2.40802C5.28779 2.40766 5.38335 2.4073 5.46039 2.40692C5.49489 2.40676 5.52301 2.43461 5.52319 2.46912C5.52336 2.50363 5.49551 2.53174 5.461 2.53192C5.38381 2.5323 5.28803 2.53266 5.18658 2.53302V2.8125C5.18658 2.84701 5.1586 2.87499 5.12408 2.875C5.08957 2.875 5.06158 2.84702 5.06158 2.8125V2.53339C4.99325 2.53359 4.9247 2.53384 4.85962 2.53394V2.8125C4.85962 2.84701 4.83163 2.87499 4.79712 2.875C4.7626 2.875 4.73462 2.84702 4.73462 2.8125V2.53387C4.67554 2.53387 4.62239 2.53401 4.57892 2.53381C4.54426 2.53366 4.51552 2.53339 4.49481 2.53308C4.48451 2.53293 4.4759 2.53275 4.46942 2.53253C4.46623 2.53243 4.46319 2.53232 4.46057 2.53217C4.45958 2.53211 4.45388 2.53185 4.44824 2.5307C4.41442 2.52381 4.39259 2.49079 4.39948 2.45697C4.40637 2.42316 4.43933 2.40133 4.47314 2.4082C4.47101 2.40777 4.46914 2.40752 4.46808 2.40741C4.46907 2.40747 4.47083 2.40757 4.47351 2.40765C4.47887 2.40783 4.48665 2.40799 4.4967 2.40814C4.51674 2.40844 4.54494 2.40866 4.57947 2.40881C4.62271 2.409 4.67567 2.40887 4.73462 2.40887V2.20544C4.67554 2.20544 4.62239 2.20558 4.57892 2.20538C4.54426 2.20523 4.51552 2.20496 4.49481 2.20465C4.48451 2.2045 4.4759 2.20431 4.46942 2.2041C4.46623 2.204 4.46319 2.20389 4.46057 2.20374C4.45958 2.20368 4.45388 2.20342 4.44824 2.20227C4.41442 2.19538 4.39259 2.16236 4.39948 2.12854C4.40637 2.09473 4.43933 2.0729 4.47314 2.07977C4.47101 2.07934 4.46915 2.07909 4.46808 2.07898C4.46907 2.07904 4.47083 2.07907 4.47351 2.07916C4.47887 2.07934 4.48665 2.07956 4.4967 2.07971C4.51674 2.08001 4.54494 2.08023 4.57947 2.08038C4.62271 2.08057 4.67567 2.08044 4.73462 2.08044V1.8125C4.73462 1.77798 4.7626 1.75 4.79712 1.75C4.83163 1.75001 4.85962 1.77799 4.85962 1.8125V2.08051C4.92469 2.08041 4.99325 2.08016 5.06158 2.07996V1.8125C5.06158 1.77798 5.08957 1.75 5.12408 1.75ZM4.85962 2.20551V2.40894C4.92469 2.40884 4.99325 2.40859 5.06158 2.40839V2.20496C4.99325 2.20516 4.9247 2.20541 4.85962 2.20551Z" fill="black" style="fill:black;fill-opacity:1;"/>
<path fill-rule="evenodd" clip-rule="evenodd" d="M7.12408 1.75C7.1586 1.75001 7.18658 1.77799 7.18658 1.8125V2.07959C7.28779 2.07923 7.38335 2.07887 7.46039 2.07849C7.4949 2.07833 7.52302 2.10618 7.52319 2.14069C7.52336 2.1752 7.49551 2.20331 7.461 2.20349C7.38381 2.20387 7.28803 2.20423 7.18658 2.20459V2.40802C7.28779 2.40766 7.38335 2.4073 7.46039 2.40692C7.49489 2.40676 7.52302 2.43461 7.52319 2.46912C7.52336 2.50363 7.49551 2.53174 7.461 2.53192C7.38381 2.5323 7.28803 2.53266 7.18658 2.53302V2.8125C7.18658 2.84701 7.1586 2.87499 7.12408 2.875C7.08957 2.875 7.06158 2.84702 7.06158 2.8125V2.53339C6.99325 2.53359 6.9247 2.53384 6.85962 2.53394V2.8125C6.85962 2.84701 6.83163 2.87499 6.79712 2.875C6.7626 2.875 6.73462 2.84702 6.73462 2.8125V2.53387C6.67554 2.53387 6.62239 2.53401 6.57892 2.53381C6.54426 2.53366 6.51552 2.53339 6.49481 2.53308C6.48451 2.53293 6.4759 2.53275 6.46942 2.53253C6.46623 2.53243 6.46319 2.53232 6.46057 2.53217C6.45958 2.53211 6.45388 2.53185 6.44824 2.5307C6.41442 2.52381 6.39259 2.49079 6.39948 2.45697C6.40637 2.42316 6.43933 2.40133 6.47314 2.4082C6.47101 2.40777 6.46914 2.40752 6.46808 2.40741C6.46907 2.40747 6.47083 2.40757 6.47351 2.40765C6.47887 2.40783 6.48665 2.40799 6.4967 2.40814C6.51674 2.40844 6.54494 2.40866 6.57947 2.40881C6.62271 2.409 6.67567 2.40887 6.73462 2.40887V2.20544C6.67554 2.20544 6.62239 2.20558 6.57892 2.20538C6.54426 2.20523 6.51552 2.20496 6.49481 2.20465C6.48451 2.2045 6.4759 2.20431 6.46942 2.2041C6.46623 2.204 6.46319 2.20389 6.46057 2.20374C6.45958 2.20368 6.45388 2.20342 6.44824 2.20227C6.41442 2.19538 6.39259 2.16236 6.39948 2.12854C6.40637 2.09473 6.43933 2.0729 6.47314 2.07977C6.47101 2.07934 6.46915 2.07909 6.46808 2.07898C6.46907 2.07904 6.47083 2.07907 6.47351 2.07916C6.47887 2.07934 6.48665 2.07956 6.4967 2.07971C6.51674 2.08001 6.54494 2.08023 6.57947 2.08038C6.62271 2.08057 6.67567 2.08044 6.73462 2.08044V1.8125C6.73462 1.77798 6.7626 1.75 6.79712 1.75C6.83163 1.75001 6.85962 1.77799 6.85962 1.8125V2.08051C6.92469 2.08041 6.99325 2.08016 7.06158 2.07996V1.8125C7.06158 1.77798 7.08957 1.75 7.12408 1.75ZM6.85962 2.20551V2.40894C6.92469 2.40884 6.99325 2.40859 7.06158 2.40839V2.20496C6.99325 2.20516 6.9247 2.20541 6.85962 2.20551Z" fill="black" style="fill:black;fill-opacity:1;"/>
<path d="M0.124084 0.75C0.158597 0.750007 0.186584 0.777986 0.186584 0.8125V1.07959C0.287794 1.07923 0.38335 1.07887 0.460388 1.07849C0.494897 1.07833 0.52302 1.10618 0.523193 1.14069C0.523364 1.1752 0.49551 1.20331 0.460999 1.20349C0.383807 1.20387 0.28803 1.20423 0.186584 1.20459V1.40802C0.287794 1.40766 0.38335 1.4073 0.460388 1.40692C0.494894 1.40676 0.523015 1.43461 0.523193 1.46912C0.523364 1.50363 0.49551 1.53174 0.460999 1.53192C0.383807 1.5323 0.28803 1.53266 0.186584 1.53302V1.8125C0.186584 1.84701 0.158597 1.87499 0.124084 1.875C0.0895667 1.875 0.0615845 1.84702 0.0615845 1.8125V1.53339C0.0410454 1.53345 0.0204759 1.53344 0 1.53351V1.40851C0.0204759 1.40844 0.0410455 1.40845 0.0615845 1.40839V1.20496C0.0410454 1.20502 0.0204759 1.20501 0 1.20508V1.08008C0.0204759 1.08001 0.0410455 1.08002 0.0615845 1.07996V0.8125C0.0615845 0.777982 0.0895667 0.75 0.124084 0.75Z" fill="black" style="fill:black;fill-opacity:1;"/>
<path fill-rule="evenodd" clip-rule="evenodd" d="M2.12408 0.75C2.1586 0.750006 2.18658 0.777986 2.18658 0.8125V1.07959C2.28779 1.07923 2.38335 1.07887 2.46039 1.07849C2.4949 1.07833 2.52302 1.10618 2.52319 1.14069C2.52336 1.1752 2.49551 1.20331 2.461 1.20349C2.38381 1.20387 2.28803 1.20423 2.18658 1.20459V1.40802C2.28779 1.40766 2.38335 1.4073 2.46039 1.40692C2.49489 1.40676 2.52302 1.43461 2.52319 1.46912C2.52336 1.50363 2.49551 1.53174 2.461 1.53192C2.38381 1.5323 2.28803 1.53266 2.18658 1.53302V1.8125C2.18658 1.84701 2.1586 1.87499 2.12408 1.875C2.08957 1.875 2.06158 1.84702 2.06158 1.8125V1.53339C1.99325 1.53359 1.9247 1.53384 1.85962 1.53394V1.8125C1.85962 1.84701 1.83163 1.87499 1.79712 1.875C1.7626 1.875 1.73462 1.84702 1.73462 1.8125V1.53387C1.67554 1.53387 1.62239 1.53401 1.57892 1.53381C1.54426 1.53366 1.51552 1.53339 1.49481 1.53308C1.48451 1.53293 1.4759 1.53275 1.46942 1.53253C1.46623 1.53243 1.46319 1.53232 1.46057 1.53217C1.45958 1.53211 1.45388 1.53185 1.44824 1.5307C1.41442 1.52381 1.39259 1.49079 1.39948 1.45697C1.40637 1.42316 1.43933 1.40133 1.47314 1.4082C1.47101 1.40777 1.46914 1.40752 1.46808 1.40741C1.46907 1.40747 1.47083 1.40757 1.47351 1.40765C1.47887 1.40783 1.48665 1.40799 1.4967 1.40814C1.51674 1.40844 1.54494 1.40866 1.57947 1.40881C1.62271 1.409 1.67567 1.40887 1.73462 1.40887V1.20544C1.67554 1.20544 1.62239 1.20558 1.57892 1.20538C1.54426 1.20523 1.51552 1.20496 1.49481 1.20465C1.48451 1.2045 1.4759 1.20431 1.46942 1.2041C1.46623 1.204 1.46319 1.20389 1.46057 1.20374C1.45958 1.20368 1.45388 1.20342 1.44824 1.20227C1.41442 1.19538 1.39259 1.16236 1.39948 1.12854C1.40637 1.09473 1.43933 1.0729 1.47314 1.07977C1.47101 1.07934 1.46915 1.07909 1.46808 1.07898C1.46907 1.07904 1.47083 1.07907 1.47351 1.07916C1.47887 1.07934 1.48665 1.07956 1.4967 1.07971C1.51674 1.08001 1.54494 1.08023 1.57947 1.08038C1.62271 1.08057 1.67567 1.08044 1.73462 1.08044V0.8125C1.73462 0.777982 1.7626 0.75 1.79712 0.75C1.83163 0.750006 1.85962 0.777986 1.85962 0.8125V1.08051C1.92469 1.08041 1.99325 1.08016 2.06158 1.07996V0.8125C2.06158 0.777982 2.08957 0.75 2.12408 0.75ZM1.85962 1.20551V1.40894C1.92469 1.40884 1.99325 1.40859 2.06158 1.40839V1.20496C1.99325 1.20516 1.9247 1.20541 1.85962 1.20551Z" fill="black" style="fill:black;fill-opacity:1;"/>
<path fill-rule="evenodd" clip-rule="evenodd" d="M4.12408 0.75C4.1586 0.750007 4.18658 0.777986 4.18658 0.8125V1.07959C4.28779 1.07923 4.38335 1.07887 4.46039 1.07849C4.4949 1.07833 4.52302 1.10618 4.52319 1.14069C4.52336 1.1752 4.49551 1.20331 4.461 1.20349C4.38381 1.20387 4.28803 1.20423 4.18658 1.20459V1.40802C4.28779 1.40766 4.38335 1.4073 4.46039 1.40692C4.49489 1.40676 4.52301 1.43461 4.52319 1.46912C4.52336 1.50363 4.49551 1.53174 4.461 1.53192C4.38381 1.5323 4.28803 1.53266 4.18658 1.53302V1.8125C4.18658 1.84701 4.1586 1.87499 4.12408 1.875C4.08957 1.875 4.06158 1.84702 4.06158 1.8125V1.53339C4.04105 1.53345 4.02048 1.53344 4 1.53351C3.95235 1.53366 3.90514 1.53387 3.85962 1.53394V1.8125C3.85962 1.84701 3.83163 1.87499 3.79712 1.875C3.7626 1.875 3.73462 1.84702 3.73462 1.8125V1.53387C3.67554 1.53387 3.62239 1.53401 3.57892 1.53381C3.54426 1.53366 3.51552 1.53339 3.49481 1.53308C3.48451 1.53293 3.4759 1.53275 3.46942 1.53253C3.46623 1.53243 3.46319 1.53232 3.46057 1.53217C3.45958 1.53211 3.45388 1.53185 3.44824 1.5307C3.41442 1.52381 3.39259 1.49079 3.39948 1.45697C3.40637 1.42316 3.43933 1.40133 3.47314 1.4082C3.47101 1.40777 3.46914 1.40752 3.46808 1.40741C3.46907 1.40747 3.47083 1.40757 3.47351 1.40765C3.47887 1.40783 3.48665 1.40799 3.4967 1.40814C3.51674 1.40844 3.54494 1.40866 3.57947 1.40881C3.62271 1.409 3.67567 1.40887 3.73462 1.40887V1.20544C3.67554 1.20544 3.62239 1.20558 3.57892 1.20538C3.54426 1.20523 3.51552 1.20496 3.49481 1.20465C3.48451 1.2045 3.4759 1.20431 3.46942 1.2041C3.46623 1.204 3.46319 1.20389 3.46057 1.20374C3.45958 1.20368 3.45388 1.20342 3.44824 1.20227C3.41442 1.19538 3.39259 1.16236 3.39948 1.12854C3.40637 1.09473 3.43933 1.0729 3.47314 1.07977C3.47101 1.07934 3.46915 1.07909 3.46808 1.07898C3.46907 1.07904 3.47083 1.07907 3.47351 1.07916C3.47887 1.07934 3.48665 1.07956 3.4967 1.07971C3.51674 1.08001 3.54494 1.08023 3.57947 1.08038C3.62271 1.08057 3.67567 1.08044 3.73462 1.08044V0.8125C3.73462 0.777982 3.7626 0.75 3.79712 0.75C3.83163 0.750006 3.85962 0.777986 3.85962 0.8125V1.08051C3.90513 1.08044 3.95235 1.08023 4 1.08008C4.02048 1.08001 4.04105 1.08002 4.06158 1.07996V0.8125C4.06158 0.777982 4.08957 0.75 4.12408 0.75ZM4 1.20508C3.95235 1.20523 3.90514 1.20544 3.85962 1.20551V1.40894C3.90513 1.40887 3.95235 1.40866 4 1.40851C4.02048 1.40844 4.04105 1.40845 4.06158 1.40839V1.20496C4.04105 1.20502 4.02048 1.20501 4 1.20508Z" fill="black" style="fill:black;fill-opacity:1;"/>
<path fill-rule="evenodd" clip-rule="evenodd" d="M6.12408 0.75C6.1586 0.750006 6.18658 0.777986 6.18658 0.8125V1.07959C6.28779 1.07923 6.38335 1.07887 6.46039 1.07849C6.4949 1.07833 6.52302 1.10618 6.52319 1.14069C6.52336 1.1752 6.49551 1.20331 6.461 1.20349C6.38381 1.20387 6.28803 1.20423 6.18658 1.20459V1.40802C6.28779 1.40766 6.38335 1.4073 6.46039 1.40692C6.49489 1.40676 6.52302 1.43461 6.52319 1.46912C6.52336 1.50363 6.49551 1.53174 6.461 1.53192C6.38381 1.5323 6.28803 1.53266 6.18658 1.53302V1.8125C6.18658 1.84701 6.1586 1.87499 6.12408 1.875C6.08957 1.875 6.06158 1.84702 6.06158 1.8125V1.53339C5.99325 1.53359 5.9247 1.53384 5.85962 1.53394V1.8125C5.85962 1.84701 5.83163 1.87499 5.79712 1.875C5.7626 1.875 5.73462 1.84702 5.73462 1.8125V1.53387C5.67554 1.53387 5.62239 1.53401 5.57892 1.53381C5.54426 1.53366 5.51552 1.53339 5.49481 1.53308C5.48451 1.53293 5.4759 1.53275 5.46942 1.53253C5.46623 1.53243 5.46319 1.53232 5.46057 1.53217C5.45958 1.53211 5.45388 1.53185 5.44824 1.5307C5.41442 1.52381 5.39259 1.49079 5.39948 1.45697C5.40637 1.42316 5.43933 1.40133 5.47314 1.4082C5.47101 1.40777 5.46914 1.40752 5.46808 1.40741C5.46907 1.40747 5.47083 1.40757 5.47351 1.40765C5.47887 1.40783 5.48665 1.40799 5.4967 1.40814C5.51674 1.40844 5.54494 1.40866 5.57947 1.40881C5.62271 1.409 5.67567 1.40887 5.73462 1.40887V1.20544C5.67554 1.20544 5.62239 1.20558 5.57892 1.20538C5.54426 1.20523 5.51552 1.20496 5.49481 1.20465C5.48451 1.2045 5.4759 1.20431 5.46942 1.2041C5.46623 1.204 5.46319 1.20389 5.46057 1.20374C5.45958 1.20368 5.45388 1.20342 5.44824 1.20227C5.41442 1.19538 5.39259 1.16236 5.39948 1.12854C5.40637 1.09473 5.43933 1.0729 5.47314 1.07977C5.47101 1.07934 5.46915 1.07909 5.46808 1.07898C5.46907 1.07904 5.47083 1.07907 5.47351 1.07916C5.47887 1.07934 5.48665 1.07956 5.4967 1.07971C5.51674 1.08001 5.54494 1.08023 5.57947 1.08038C5.62271 1.08057 5.67567 1.08044 5.73462 1.08044V0.8125C5.73462 0.777982 5.7626 0.75 5.79712 0.75C5.83163 0.750006 5.85962 0.777986 5.85962 0.8125V1.08051C5.92469 1.08041 5.99325 1.08016 6.06158 1.07996V0.8125C6.06158 0.777982 6.08957 0.75 6.12408 0.75ZM5.85962 1.20551V1.40894C5.92469 1.40884 5.99325 1.40859 6.06158 1.40839V1.20496C5.99325 1.20516 5.9247 1.20541 5.85962 1.20551Z" fill="black" style="fill:black;fill-opacity:1;"/>
<path d="M7.79712 0.75C7.83163 0.750006 7.85962 0.777986 7.85962 0.8125V1.08051C7.90513 1.08044 7.95235 1.08023 8 1.08008V1.20508C7.95235 1.20523 7.90514 1.20544 7.85962 1.20551V1.40894C7.90513 1.40887 7.95235 1.40866 8 1.40851V1.53351C7.95235 1.53366 7.90514 1.53387 7.85962 1.53394V1.8125C7.85962 1.84701 7.83163 1.87499 7.79712 1.875C7.7626 1.875 7.73462 1.84702 7.73462 1.8125V1.53387C7.67554 1.53387 7.62239 1.53401 7.57892 1.53381C7.54426 1.53366 7.51552 1.53339 7.49481 1.53308C7.48451 1.53293 7.4759 1.53275 7.46942 1.53253C7.46623 1.53243 7.46319 1.53232 7.46057 1.53217C7.45958 1.53211 7.45388 1.53185 7.44824 1.5307C7.41442 1.52381 7.39259 1.49079 7.39948 1.45697C7.40637 1.42316 7.43933 1.40133 7.47314 1.4082C7.47101 1.40777 7.46914 1.40752 7.46808 1.40741C7.46907 1.40747 7.47083 1.40757 7.47351 1.40765C7.47887 1.40783 7.48665 1.40799 7.4967 1.40814C7.51674 1.40844 7.54494 1.40866 7.57947 1.40881C7.62271 1.409 7.67567 1.40887 7.73462 1.40887V1.20544C7.67554 1.20544 7.62239 1.20558 7.57892 1.20538C7.54426 1.20523 7.51552 1.20496 7.49481 1.20465C7.48451 1.2045 7.4759 1.20431 7.46942 1.2041C7.46623 1.204 7.46319 1.20389 7.46057 1.20374C7.45958 1.20368 7.45388 1.20342 7.44824 1.20227C7.41442 1.19538 7.39259 1.16236 7.39948 1.12854C7.40637 1.09473 7.43933 1.0729 7.47314 1.07977C7.47101 1.07934 7.46915 1.07909 7.46808 1.07898C7.46907 1.07904 7.47083 1.07907 7.47351 1.07916C7.47887 1.07934 7.48665 1.07956 7.4967 1.07971C7.51674 1.08001 7.54494 1.08023 7.57947 1.08038C7.62271 1.08057 7.67567 1.08044 7.73462 1.08044V0.8125C7.73462 0.777982 7.7626 0.75 7.79712 0.75Z" fill="black" style="fill:black;fill-opacity:1;"/>
<path fill-rule="evenodd" clip-rule="evenodd" d="M0.859619 0.0805054C0.924692 0.0804081 0.993245 0.0801571 1.06158 0.0799561V0H1.18658V0.0795898C1.28779 0.0792266 1.38335 0.078872 1.46039 0.0784912C1.4949 0.0783292 1.52302 0.106176 1.52319 0.140686C1.52336 0.175199 1.49551 0.203314 1.461 0.203491C1.38381 0.203873 1.28803 0.204226 1.18658 0.20459V0.40802C1.28779 0.407657 1.38335 0.407302 1.46039 0.406921C1.49489 0.406759 1.52302 0.434611 1.52319 0.469116C1.52336 0.50363 1.49551 0.531744 1.461 0.531921C1.38381 0.532303 1.28803 0.532656 1.18658 0.53302V0.8125C1.18658 0.847014 1.1586 0.874994 1.12408 0.875C1.08957 0.875 1.06158 0.847018 1.06158 0.8125V0.533386C0.993246 0.533587 0.924695 0.533838 0.859619 0.533936V0.8125C0.859619 0.847014 0.831631 0.874994 0.797119 0.875C0.762601 0.875 0.734619 0.847018 0.734619 0.8125V0.533875C0.675542 0.533873 0.622391 0.534006 0.578918 0.533813C0.544255 0.53366 0.515521 0.533391 0.494812 0.533081C0.48451 0.532927 0.475899 0.532745 0.469421 0.532532C0.466232 0.532427 0.463187 0.532323 0.460571 0.532166C0.459582 0.532106 0.453882 0.531845 0.448242 0.530701C0.414421 0.52381 0.392586 0.490792 0.399475 0.45697C0.406366 0.423157 0.439331 0.401327 0.473145 0.408203C0.47101 0.407769 0.469145 0.407522 0.468079 0.40741C0.469069 0.407469 0.470826 0.407565 0.473511 0.407654C0.478873 0.40783 0.486652 0.407992 0.496704 0.408142C0.516745 0.408442 0.544941 0.40866 0.579468 0.408813C0.622712 0.409005 0.675669 0.408873 0.734619 0.408875V0.205444C0.675542 0.205443 0.622391 0.205576 0.578918 0.205383C0.544255 0.20523 0.515521 0.204961 0.494812 0.204651C0.48451 0.204497 0.475899 0.204315 0.469421 0.204102C0.466233 0.203996 0.463186 0.203892 0.460571 0.203735C0.459583 0.203676 0.453881 0.203415 0.448242 0.202271C0.414423 0.19538 0.392592 0.162359 0.399475 0.12854C0.406366 0.0947261 0.439331 0.0728962 0.473145 0.0797729C0.47101 0.079339 0.469145 0.0790915 0.468079 0.0789795C0.469069 0.0790384 0.470827 0.079074 0.473511 0.0791626C0.478873 0.0793393 0.486652 0.0795616 0.496704 0.0797119C0.516745 0.0800115 0.544941 0.0802303 0.579468 0.0803833C0.622712 0.0805748 0.675669 0.0804433 0.734619 0.0804443V0H0.859619V0.0805054ZM0.859619 0.205505V0.408936C0.924692 0.408838 0.993245 0.408587 1.06158 0.408386V0.204956C0.993246 0.205157 0.924695 0.205408 0.859619 0.205505Z" fill="black" style="fill:black;fill-opacity:1;"/>
<path fill-rule="evenodd" clip-rule="evenodd" d="M2.85962 0.0805054C2.92469 0.0804081 2.99325 0.0801571 3.06158 0.0799561V0H3.18658V0.0795898C3.28779 0.0792266 3.38335 0.078872 3.46039 0.0784912C3.4949 0.0783292 3.52302 0.106176 3.52319 0.140686C3.52336 0.175199 3.49551 0.203314 3.461 0.203491C3.38381 0.203873 3.28803 0.204226 3.18658 0.20459V0.40802C3.28779 0.407657 3.38335 0.407302 3.46039 0.406921C3.49489 0.406759 3.52302 0.434611 3.52319 0.469116C3.52336 0.50363 3.49551 0.531744 3.461 0.531921C3.38381 0.532303 3.28803 0.532656 3.18658 0.53302V0.8125C3.18658 0.847014 3.1586 0.874994 3.12408 0.875C3.08957 0.875 3.06158 0.847018 3.06158 0.8125V0.533386C2.99325 0.533587 2.9247 0.533838 2.85962 0.533936V0.8125C2.85962 0.847014 2.83163 0.874994 2.79712 0.875C2.7626 0.875 2.73462 0.847018 2.73462 0.8125V0.533875C2.67554 0.533873 2.62239 0.534006 2.57892 0.533813C2.54426 0.53366 2.51552 0.533391 2.49481 0.533081C2.48451 0.532927 2.4759 0.532745 2.46942 0.532532C2.46623 0.532427 2.46319 0.532323 2.46057 0.532166C2.45958 0.532106 2.45388 0.531845 2.44824 0.530701C2.41442 0.52381 2.39259 0.490792 2.39948 0.45697C2.40637 0.423157 2.43933 0.401327 2.47314 0.408203C2.47101 0.407769 2.46914 0.407522 2.46808 0.40741C2.46907 0.407469 2.47083 0.407565 2.47351 0.407654C2.47887 0.40783 2.48665 0.407992 2.4967 0.408142C2.51674 0.408442 2.54494 0.40866 2.57947 0.408813C2.62271 0.409005 2.67567 0.408873 2.73462 0.408875V0.205444C2.67554 0.205443 2.62239 0.205576 2.57892 0.205383C2.54426 0.20523 2.51552 0.204961 2.49481 0.204651C2.48451 0.204497 2.4759 0.204315 2.46942 0.204102C2.46623 0.203996 2.46319 0.203892 2.46057 0.203735C2.45958 0.203676 2.45388 0.203415 2.44824 0.202271C2.41442 0.19538 2.39259 0.162359 2.39948 0.12854C2.40637 0.0947261 2.43933 0.0728962 2.47314 0.0797729C2.47101 0.079339 2.46915 0.0790915 2.46808 0.0789795C2.46907 0.0790384 2.47083 0.079074 2.47351 0.0791626C2.47887 0.0793393 2.48665 0.0795616 2.4967 0.0797119C2.51674 0.0800115 2.54494 0.0802303 2.57947 0.0803833C2.62271 0.0805748 2.67567 0.0804433 2.73462 0.0804443V0H2.85962V0.0805054ZM2.85962 0.205505V0.408936C2.92469 0.408838 2.99325 0.408587 3.06158 0.408386V0.204956C2.99325 0.205157 2.9247 0.205408 2.85962 0.205505Z" fill="black" style="fill:black;fill-opacity:1;"/>
<path fill-rule="evenodd" clip-rule="evenodd" d="M4.85962 0.0805054C4.92469 0.0804081 4.99325 0.0801571 5.06158 0.0799561V0H5.18658V0.0795898C5.28779 0.0792266 5.38335 0.078872 5.46039 0.0784912C5.4949 0.0783292 5.52302 0.106176 5.52319 0.140686C5.52336 0.175199 5.49551 0.203314 5.461 0.203491C5.38381 0.203873 5.28803 0.204226 5.18658 0.20459V0.40802C5.28779 0.407657 5.38335 0.407302 5.46039 0.406921C5.49489 0.406759 5.52302 0.434611 5.52319 0.469116C5.52336 0.50363 5.49551 0.531744 5.461 0.531921C5.38381 0.532303 5.28803 0.532656 5.18658 0.53302V0.8125C5.18658 0.847014 5.1586 0.874994 5.12408 0.875C5.08957 0.875 5.06158 0.847018 5.06158 0.8125V0.533386C4.99325 0.533587 4.9247 0.533838 4.85962 0.533936V0.8125C4.85962 0.847014 4.83163 0.874994 4.79712 0.875C4.7626 0.875 4.73462 0.847018 4.73462 0.8125V0.533875C4.67554 0.533873 4.62239 0.534006 4.57892 0.533813C4.54426 0.53366 4.51552 0.533391 4.49481 0.533081C4.48451 0.532927 4.4759 0.532745 4.46942 0.532532C4.46623 0.532427 4.46319 0.532323 4.46057 0.532166C4.45958 0.532106 4.45388 0.531845 4.44824 0.530701C4.41442 0.52381 4.39259 0.490792 4.39948 0.45697C4.40637 0.423157 4.43933 0.401327 4.47314 0.408203C4.47101 0.407769 4.46914 0.407522 4.46808 0.40741C4.46907 0.407469 4.47083 0.407565 4.47351 0.407654C4.47887 0.40783 4.48665 0.407992 4.4967 0.408142C4.51674 0.408442 4.54494 0.40866 4.57947 0.408813C4.62271 0.409005 4.67567 0.408873 4.73462 0.408875V0.205444C4.67554 0.205443 4.62239 0.205576 4.57892 0.205383C4.54426 0.20523 4.51552 0.204961 4.49481 0.204651C4.48451 0.204497 4.4759 0.204315 4.46942 0.204102C4.46623 0.203996 4.46319 0.203892 4.46057 0.203735C4.45958 0.203676 4.45388 0.203415 4.44824 0.202271C4.41442 0.19538 4.39259 0.162359 4.39948 0.12854C4.40637 0.0947261 4.43933 0.0728962 4.47314 0.0797729C4.47101 0.079339 4.46915 0.0790915 4.46808 0.0789795C4.46907 0.0790384 4.47083 0.079074 4.47351 0.0791626C4.47887 0.0793393 4.48665 0.0795616 4.4967 0.0797119C4.51674 0.0800115 4.54494 0.0802303 4.57947 0.0803833C4.62271 0.0805748 4.67567 0.0804433 4.73462 0.0804443V0H4.85962V0.0805054ZM4.85962 0.205505V0.408936C4.92469 0.408838 4.99325 0.408587 5.06158 0.408386V0.204956C4.99325 0.205157 4.9247 0.205408 4.85962 0.205505Z" fill="black" style="fill:black;fill-opacity:1;"/>
<path fill-rule="evenodd" clip-rule="evenodd" d="M6.85962 0.0805054C6.92469 0.0804081 6.99325 0.0801571 7.06158 0.0799561V0H7.18658V0.0795898C7.28779 0.0792266 7.38335 0.078872 7.46039 0.0784912C7.4949 0.0783292 7.52302 0.106176 7.52319 0.140686C7.52336 0.175199 7.49551 0.203314 7.461 0.203491C7.38381 0.203873 7.28803 0.204226 7.18658 0.20459V0.40802C7.28779 0.407657 7.38335 0.407302 7.46039 0.406921C7.49489 0.406759 7.52302 0.434611 7.52319 0.469116C7.52336 0.50363 7.49551 0.531744 7.461 0.531921C7.38381 0.532303 7.28803 0.532656 7.18658 0.53302V0.8125C7.18658 0.847014 7.1586 0.874994 7.12408 0.875C7.08957 0.875 7.06158 0.847018 7.06158 0.8125V0.533386C6.99325 0.533587 6.9247 0.533838 6.85962 0.533936V0.8125C6.85962 0.847014 6.83163 0.874994 6.79712 0.875C6.7626 0.875 6.73462 0.847018 6.73462 0.8125V0.533875C6.67554 0.533873 6.62239 0.534006 6.57892 0.533813C6.54426 0.53366 6.51552 0.533391 6.49481 0.533081C6.48451 0.532927 6.4759 0.532745 6.46942 0.532532C6.46623 0.532427 6.46319 0.532323 6.46057 0.532166C6.45958 0.532106 6.45388 0.531845 6.44824 0.530701C6.41442 0.52381 6.39259 0.490792 6.39948 0.45697C6.40637 0.423157 6.43933 0.401327 6.47314 0.408203C6.47101 0.407769 6.46914 0.407522 6.46808 0.40741C6.46907 0.407469 6.47083 0.407565 6.47351 0.407654C6.47887 0.40783 6.48665 0.407992 6.4967 0.408142C6.51674 0.408442 6.54494 0.40866 6.57947 0.408813C6.62271 0.409005 6.67567 0.408873 6.73462 0.408875V0.205444C6.67554 0.205443 6.62239 0.205576 6.57892 0.205383C6.54426 0.20523 6.51552 0.204961 6.49481 0.204651C6.48451 0.204497 6.4759 0.204315 6.46942 0.204102C6.46623 0.203996 6.46319 0.203892 6.46057 0.203735C6.45958 0.203676 6.45388 0.203415 6.44824 0.202271C6.41442 0.19538 6.39259 0.162359 6.39948 0.12854C6.40637 0.0947261 6.43933 0.0728962 6.47314 0.0797729C6.47101 0.079339 6.46915 0.0790915 6.46808 0.0789795C6.46907 0.0790384 6.47083 0.079074 6.47351 0.0791626C6.47887 0.0793393 6.48665 0.0795616 6.4967 0.0797119C6.51674 0.0800115 6.54494 0.0802303 6.57947 0.0803833C6.62271 0.0805748 6.67567 0.0804433 6.73462 0.0804443V0H6.85962V0.0805054ZM6.85962 0.205505V0.408936C6.92469 0.408838 6.99325 0.408587 7.06158 0.408386V0.204956C6.99325 0.205157 6.9247 0.205408 6.85962 0.205505Z" fill="black" style="fill:black;fill-opacity:1;"/>
</svg>
