<svg width="129" height="128" viewBox="0 0 129 128" fill="none" xmlns="http://www.w3.org/2000/svg">
<path fill-rule="evenodd" clip-rule="evenodd" d="M7.80168 5.08535L7.32681 5.60986V6.20897V6.8078L8.54398 7.76443C10.9393 9.64729 12.2847 11.6773 13.4571 15.177L14.1782 17.329L14.4852 20.3255L14.7922 23.3216L14.6083 24.7084L14.4244 26.0948L14.9371 26.6615L15.4499 27.2282H16.2561H17.0624L17.3284 26.7261C17.4745 26.4498 17.7433 25.2567 17.9255 24.0745C18.1077 22.8921 18.6449 20.7616 19.1192 19.3402L19.9811 16.7552L21.093 14.8901C21.7044 13.8643 22.989 12.1473 23.9477 11.0745L25.6905 9.12392V8.70729C25.6905 8.15352 24.6587 7.14294 24.0931 7.14294C22.8851 7.14294 19.9817 10.3807 18.0687 13.8609L16.9939 15.8166L16.5132 14.2772C15.8037 12.0053 14.6054 9.7173 13.161 7.87691L11.8813 6.24628L10.5522 5.40355C9.00881 4.42454 8.45732 4.36084 7.80168 5.08535ZM39.7493 4.99181L39.3915 5.42307V6.20008V6.97709L40.073 7.40376C40.4477 7.63847 41.3633 8.44561 42.1076 9.19738L43.4611 10.564L44.3242 12.2742C44.799 13.2147 45.4601 14.9306 45.7935 16.0869L46.3995 18.1898L46.5568 22.4192L46.7143 26.6486L47.0885 26.9591L47.4626 27.2698L48.26 27.1771L49.0574 27.0847L49.4 26.3674C49.5882 25.9729 49.8878 24.6817 50.0657 23.4981L50.3888 21.3461L51.2054 18.9757C52.2455 15.9566 53.4928 13.8775 55.7467 11.4039L57.54 9.4361V8.76439V8.09269L57.0152 7.61781C56.7265 7.3567 56.2717 7.14294 56.0046 7.14294H55.5186L54.2265 8.334C52.6587 9.77927 51.1514 11.7958 49.9277 14.0867L49.0135 15.7977L48.5185 14.268C48.2465 13.4265 47.6233 11.9184 47.1335 10.9167L46.2432 9.09494L44.9336 7.63847C44.2134 6.83736 43.1205 5.81702 42.5047 5.37113L41.3857 4.56055H40.7464H40.1074L39.7493 4.99181ZM71.7876 5.08535L71.3127 5.60986V6.21988V6.82961L72.62 7.82785C74.4024 9.18877 75.5261 10.6452 76.6293 13.0251L77.5604 15.0336L78.0514 17.1856L78.542 19.3376L78.5859 22.8083L78.6295 26.2793L79.0232 26.7536L79.4172 27.2282H80.2077H80.9982L81.2707 26.8695C81.4208 26.6724 81.7614 25.2429 82.0274 23.6932L82.5114 20.8758L83.3625 18.6719C83.8308 17.4599 84.7004 15.6416 85.2953 14.6313L86.3767 12.7944L88.026 11.0446L89.6756 9.29493L89.6758 8.7928L89.6764 8.29067L89.1026 7.7168C87.6963 6.31055 84.8324 8.80715 82.0546 13.8609L80.9798 15.8166L80.4992 14.2772C79.7896 12.0053 78.5914 9.7173 77.1469 7.87691L75.8672 6.24628L74.5382 5.40355C72.9947 4.42454 72.4433 4.36084 71.7876 5.08535ZM103.735 4.99181L103.377 5.42307V6.20008V6.97709L104.059 7.40376C104.434 7.63847 105.349 8.44561 106.094 9.19738L107.447 10.564L108.31 12.2742C108.785 13.2147 109.446 14.9306 109.778 16.0869L110.383 18.1898L110.538 22.3504L110.693 26.5109L110.98 26.8695L111.267 27.2282H112.048H112.829L113.265 26.7261L113.702 26.2239L113.875 24.4737L114.048 22.7231L114.804 20.3131C115.219 18.9875 116.077 16.9027 116.709 15.68L117.859 13.4572L119.692 11.4768L121.526 9.49636V8.79452V8.09269L121.001 7.61781C120.712 7.3567 120.258 7.14294 119.991 7.14294H119.504L118.212 8.334C116.645 9.77927 115.137 11.7958 113.914 14.0867L112.999 15.7977L112.504 14.268C112.232 13.4265 111.609 11.9184 111.119 10.9167L110.229 9.09494L108.92 7.63847C108.199 6.83736 107.106 5.81702 106.491 5.37113L105.372 4.56055H104.732H104.093L103.735 4.99181ZM55.9475 37.0668L55.1576 37.7463L55.3487 38.5075L55.5398 39.269L56.3464 39.686C58.2217 40.6558 60.2263 43.5802 61.3777 47.0266L62.0968 49.1785L62.4107 52.2636L62.7243 55.3487L62.5384 56.7501L62.3527 58.1518L62.959 58.7581L63.5656 59.3646H64.095H64.6244L65.0705 58.8625L65.5167 58.3604L65.8435 56.2084L66.1701 54.0564L67.1204 51.2717L68.0707 48.487L69.0463 46.8544C69.5825 45.9563 70.8287 44.3357 71.8149 43.2534L73.6082 41.2856V40.7333V40.1812L73.1574 39.7301L72.7064 39.2794H72.1414H71.5764L70.6933 39.925C69.5105 40.7895 67.0418 43.9667 65.9927 45.9744C64.9687 47.9341 64.9242 47.9436 64.4846 46.3009C64.2935 45.5861 63.7303 44.1667 63.233 43.1467L62.3286 41.2922L61.0104 39.6682L59.692 38.0438L58.2146 37.2158L56.7374 36.3877L55.9475 37.0668ZM88.2507 36.7888L87.5844 37.1274L87.3425 37.7893L87.1003 38.451L87.7752 39.0805C88.1462 39.4266 89.0544 40.2851 89.7932 40.9883L91.1366 42.2669L91.9498 43.7142C93.674 46.7829 94.5485 50.7495 94.552 55.5183L94.5543 58.4149L95.0791 58.8898L95.6036 59.3646H96.1823H96.7608L97.1972 58.8625L97.6336 58.3604L97.8067 56.6101L97.9797 54.8595L98.7398 52.4496C100.042 48.3195 102.893 43.4761 104.73 42.2727L105.458 41.7958V40.8819V39.968L105.113 39.6237L104.769 39.2794H104.009H103.249L101.651 40.9553C99.9917 42.695 98.0801 45.4415 97.4207 47.0337L97.0397 47.9536L96.3906 46.0275C96.034 44.9678 95.3778 43.3776 94.933 42.4936L94.1239 40.8862L92.5693 39.203L91.0144 37.5202L89.9657 36.9851L88.9169 36.4502L88.2507 36.7888ZM119.91 37.0872L119.144 37.7463L119.335 38.5075L119.526 39.269L120.35 39.6949C120.803 39.9293 121.723 40.7387 122.396 41.4933L123.619 42.866L124.548 44.8746L125.478 46.8831L125.967 49.0351L126.455 51.1871L126.522 54.8836L126.589 58.5802L127.125 58.9724C127.42 59.1882 127.83 59.3646 128.037 59.3646H128.412V52.6031V45.8418L127.791 44.3538C127.449 43.5354 126.6 41.9955 125.905 40.9318L124.641 38.9976L123.433 38.0074C122.769 37.4628 121.876 36.8846 121.45 36.7228L120.676 36.4284L119.91 37.0872ZM23.7617 37.0556C23.6091 37.2531 23.4008 37.6473 23.2989 37.9325L23.1138 38.4504L23.789 39.0802C24.16 39.4263 25.0684 40.2851 25.8073 40.9883L27.1507 42.2669L27.9639 43.7142C29.688 46.7829 30.5626 50.7495 30.566 55.5183L30.5683 58.4149L31.1307 58.9239L31.6928 59.4327L32.4317 59.2473L33.1702 59.0619L33.4153 58.4241C33.5501 58.0735 33.809 56.8181 33.9906 55.6345L34.3206 53.4825L35.134 51.1214L35.9475 48.7599L37.1055 46.8174C37.7425 45.7488 38.9855 44.0795 39.8678 43.1079L41.4718 41.341V40.6546V39.968L41.1275 39.6237L40.7831 39.2794H40.0233H39.2635L37.665 40.9553C36.0057 42.695 34.0942 45.4415 33.4348 47.0337L33.0537 47.9536L32.4047 46.0275C31.0762 42.0824 29.245 39.3342 26.7323 37.5139L25.6044 36.697H24.8217H24.0392L23.7617 37.0556ZM5.82558 40.7929C4.25663 42.3622 2.5775 44.7012 1.70121 46.5391C1.12046 47.7568 0.820041 47.8747 0.643004 46.9548C0.574427 46.5996 0.500972 49.2666 0.479453 52.8814L0.44043 59.4536L0.981584 58.9638L1.52274 58.474L1.85099 56.2652L2.17895 54.0564L3.13186 51.2717L4.08476 48.487L5.06033 46.8544C5.59661 45.9563 6.84275 44.3357 7.82894 43.2534L9.62227 41.2856V40.7333V40.1812L9.1715 39.7301L8.72044 39.2794H8.02979H7.33915L5.82558 40.7929ZM7.80168 69.0713L7.32681 69.5958L7.3271 70.1473V70.6985L9.16978 72.3463L11.0125 73.9942L11.8744 75.5026C12.3484 76.3321 13.0609 77.9794 13.4571 79.163L14.1782 81.315L14.4852 84.3114L14.7922 87.3076L14.6083 88.6943L14.4244 90.0808L14.9371 90.6475L15.4499 91.2142H16.2561H17.0624L17.3284 90.712C17.4745 90.436 17.7433 89.2426 17.9255 88.0605C18.1077 86.878 18.6449 84.7476 19.1192 83.3261L19.9811 80.7411L21.093 78.8761C21.7044 77.8503 22.989 76.1333 23.9477 75.0604L25.6905 73.1099V72.6932C25.6905 72.1905 24.6788 71.1289 24.1996 71.1289C22.9448 71.1289 19.9691 74.3899 18.0687 77.8468L16.9939 79.8026L16.5132 78.2632C15.8037 75.9912 14.6054 73.7032 13.161 71.8629L11.8813 70.2322L10.5522 69.3895C9.00881 68.4105 8.45732 68.3468 7.80168 69.0713ZM39.9774 68.9052C39.7267 69.1026 39.4357 69.5522 39.331 69.9045L39.1407 70.5455L39.8538 71.1957C40.246 71.5535 40.9837 72.163 41.4936 72.5501L42.4201 73.2536L43.5061 74.9336L44.5919 76.6136L45.3178 78.821C46.2733 81.7259 46.6317 84.1272 46.6343 87.6418L46.6366 90.5255L46.9809 90.8698L47.3252 91.2142H48.0841H48.8431L49.2795 90.712L49.7159 90.2099L49.8889 88.4596L50.062 86.709L50.8177 84.2991C51.2332 82.9735 52.0906 80.8886 52.723 79.666L53.873 77.4431L55.7065 75.4627L57.54 73.4823V72.7805V72.0786L57.0152 71.6038C56.7265 71.3426 56.2717 71.1289 56.0046 71.1289H55.5186L54.2265 72.3199C52.6587 73.7652 51.1514 75.7818 49.9277 78.0726L49.0135 79.7836L48.5185 78.254C48.2465 77.4124 47.6233 75.9043 47.1335 74.9026L46.2432 73.0809L44.9336 71.6244C42.5601 68.9846 40.9797 68.1175 39.9774 68.9052ZM71.7876 69.0713L71.3127 69.5958V70.1843V70.7728L72.6748 71.8835C74.7155 73.5474 75.2351 74.2123 76.4569 76.7241L77.5736 79.0195L78.0577 81.1715L78.542 83.3235L78.5859 86.7942L78.6295 90.2653L79.0232 90.7396L79.4172 91.2142H80.2077H80.9982L81.2707 90.8555C81.4208 90.6584 81.7614 89.2289 82.0274 87.6791L82.5114 84.8618L83.3625 82.6578C83.8308 81.4458 84.7004 79.6275 85.2953 78.6172L86.3767 76.7803L88.026 75.0306L89.6756 73.2809L89.6758 72.7787L89.6764 72.2766L89.1026 71.7027C87.7279 70.3281 84.7705 72.9061 82.0546 77.8468L80.9798 79.8026L80.4992 78.2632C79.7896 75.9912 78.5914 73.7032 77.1469 71.8629L75.8672 70.2322L74.5382 69.3895C72.9947 68.4105 72.4433 68.3468 71.7876 69.0713ZM103.899 68.9275L103.377 69.3086V70.1361V70.9639L104.041 71.4049C104.407 71.6477 105.322 72.4545 106.076 73.1982L107.447 74.55L108.31 76.2601C108.785 77.2007 109.446 78.9165 109.778 80.0728L110.383 82.1758L110.538 86.3363L110.693 90.4968L110.98 90.8555L111.267 91.2142H112.048H112.829L113.265 90.712L113.702 90.2099L113.875 88.4596L114.048 86.709L114.804 84.2991C115.219 82.9735 116.077 80.8886 116.709 79.666L117.859 77.4431L119.692 75.4627L121.526 73.4823V72.7805V72.0786L121.001 71.6038C120.712 71.3426 120.258 71.1289 119.991 71.1289H119.504L118.212 72.3199C116.645 73.7652 115.137 75.7818 113.914 78.0726L112.999 79.7836L112.504 78.254C112.232 77.4124 111.609 75.9043 111.119 74.9026L110.229 73.0809L108.92 71.6244C106.509 68.943 104.992 68.1281 103.899 68.9275ZM55.9475 101.053L55.1576 101.732L55.3487 102.493L55.5398 103.255L56.3464 103.672C58.2217 104.642 60.2263 107.566 61.3777 111.012L62.0968 113.164L62.4107 116.25L62.7243 119.335L62.5384 120.736L62.3527 122.138L62.959 122.744L63.5656 123.351H64.095H64.6244L65.0677 122.848L65.5107 122.346L65.8573 120.194C66.315 117.352 67.3591 114.256 68.7826 111.52L69.9412 109.293L71.7747 107.312L73.6082 105.332V104.75V104.167L73.1574 103.716L72.7064 103.265H72.1414H71.5764L70.6933 103.911C69.5105 104.775 67.0418 107.953 65.9927 109.96C64.9687 111.92 64.9242 111.93 64.4846 110.287C64.2935 109.572 63.7303 108.153 63.233 107.133L62.3286 105.278L61.0104 103.654L59.692 102.03L58.2146 101.202L56.7374 100.374L55.9475 101.053ZM23.7617 101.042C23.6091 101.239 23.4008 101.633 23.2989 101.918L23.1138 102.436L23.789 103.066C24.16 103.412 25.0684 104.271 25.8073 104.974L27.1507 106.253L27.9639 107.7C29.688 110.769 30.5626 114.735 30.566 119.504L30.5683 122.401L31.1187 122.899L31.6687 123.397L32.3284 123.302L32.988 123.207L33.3312 122.49C33.5197 122.095 33.8173 120.819 33.992 119.655C34.1665 118.49 34.637 116.553 35.0373 115.351L35.765 113.164L36.9526 111.076L38.1405 108.987L39.8047 107.202L41.4692 105.417L41.4706 104.686L41.4718 103.954L41.1275 103.61L40.7831 103.265H40.0233H39.2635L37.665 104.941C36.0057 106.681 34.0942 109.427 33.4348 111.02L33.0537 111.94L32.415 110.044C31.1993 106.434 29.3842 103.643 27.0528 101.801L25.6388 100.683H24.8392H24.0392L23.7617 101.042ZM87.7477 101.042C87.595 101.239 87.3867 101.633 87.2848 101.918L87.0998 102.436L87.7749 103.066C88.1459 103.412 89.0544 104.271 89.7932 104.974L91.1366 106.253L91.9498 107.7C93.674 110.769 94.5485 114.735 94.552 119.504L94.5543 122.401L95.0791 122.876L95.6036 123.351H96.1823H96.7608L97.1972 122.848L97.6336 122.346L97.8067 120.596L97.9797 118.845L98.7355 116.436C99.1509 115.11 100.008 113.025 100.641 111.802L101.791 109.58L103.624 107.599L105.458 105.619V104.786V103.954L105.113 103.61L104.769 103.265H104.009H103.249L101.651 104.941C99.9917 106.681 98.0801 109.427 97.4207 111.02L97.0397 111.94L96.3906 110.013C95.0621 106.068 93.231 103.32 90.7183 101.5L89.5904 100.683H88.8076H88.0251L87.7477 101.042ZM119.671 101.245L119.162 101.807L119.344 102.531L119.526 103.255L120.35 103.681C120.803 103.915 121.723 104.725 122.396 105.479L123.619 106.852L124.548 108.86L125.478 110.869L125.967 113.021L126.455 115.173L126.522 118.87L126.589 122.566L127.125 122.958C127.42 123.174 127.836 123.351 128.051 123.351H128.44L128.355 116.249L128.269 109.147L127.316 107.282C126.792 106.257 125.843 104.729 125.209 103.887L124.054 102.358L122.734 101.52L121.413 100.683H120.797H120.18L119.671 101.245ZM5.82558 104.779C4.25663 106.348 2.5775 108.687 1.70121 110.525C1.14542 111.691 0.838692 111.852 0.638126 111.084C0.566106 110.808 0.492078 113.475 0.473714 117.011L0.44043 123.44L0.981584 122.95L1.52274 122.46L1.85099 120.251L2.17895 118.042L3.13186 115.258L4.08476 112.473L5.06033 110.84C5.59661 109.942 6.84275 108.322 7.82894 107.239L9.62227 105.272V104.743V104.215L9.09747 103.74L8.57296 103.265H7.95605H7.33915L5.82558 104.779Z" fill="black" style="fill:black;fill-opacity:1;"/>
</svg>
