<svg width="8" height="8" viewBox="0 0 8 8" fill="none" xmlns="http://www.w3.org/2000/svg">
<g clip-path="url(#clip0_2139_1767)">
<path fill-rule="evenodd" clip-rule="evenodd" d="M0.140365 0.350026C0.000953868 0.282536 0.00871591 0.0822189 0.153362 0.0149894C0.198495 -0.00598506 0.288705 0.00175432 0.326314 0.0298336C0.42313 0.102117 0.439821 0.218865 0.365917 0.306695C0.308739 0.37465 0.224625 0.390808 0.140365 0.350026ZM2.36958 0.992066L1.87336 0.495545L1.37716 -0.000976562L1.51598 0.00212825L1.65479 0.00522174L4.83326 3.18365L8.01172 6.36207V6.4896C8.01172 6.55974 8.00792 6.61712 8.00329 6.61712C7.99864 6.61712 7.82984 6.45267 7.62816 6.25168C7.42647 6.05069 7.2671 5.89738 7.27398 5.91099C7.28087 5.92461 7.28651 5.95664 7.28651 5.98217C7.28651 6.12555 7.14845 6.21462 7.0215 6.15315C6.93133 6.10951 6.89332 6.01357 6.92908 5.91994C6.96428 5.82776 7.06987 5.77899 7.1639 5.81149C7.19302 5.82155 7.1363 5.75918 6.91281 5.53541C6.63098 5.25322 6.62375 5.24697 6.60987 5.27346C6.59082 5.30981 6.53115 5.3453 6.47363 5.3545C6.40649 5.36523 6.33222 5.32753 6.29485 5.26376C6.24677 5.18173 6.26277 5.08728 6.33504 5.02648L6.37249 4.99496L5.67789 4.30029L4.9833 3.60563L4.94396 3.63232C4.86626 3.68504 4.76767 3.67729 4.70381 3.61341C4.63862 3.54822 4.63108 3.45258 4.68491 3.37327L4.71159 3.33392L3.98654 2.61008C3.58776 2.21198 3.26712 1.89738 3.274 1.91099C3.28087 1.92461 3.28651 1.96083 3.28651 1.99147C3.28651 2.12383 3.15869 2.20735 3.03085 2.15852C2.90068 2.10883 2.87555 1.92456 2.98731 1.83932C3.03267 1.80472 3.10935 1.79263 3.1639 1.81149C3.19302 1.82155 3.13642 1.75931 2.91323 1.53583L2.62493 1.24717L2.60422 1.28124C2.58086 1.31965 2.50481 1.35883 2.45365 1.35883C2.39982 1.35883 2.3294 1.32081 2.30245 1.27721C2.24915 1.19098 2.25652 1.11092 2.32432 1.03965L2.36958 0.992066ZM4.1395 0.352429C4.00666 0.284667 4.00665 0.0901736 4.13947 0.0226268C4.26557 -0.0414865 4.40832 0.045539 4.40832 0.186525C4.40832 0.326446 4.26362 0.415749 4.1395 0.352429ZM6.37248 0.994978L5.87482 0.496995L5.37716 -0.000976562L5.51592 0.00212825L5.6547 0.00522174L6.8332 1.18357L8.01172 2.3619V2.48952C8.01172 2.55969 8.00792 2.61712 8.00329 2.61712C7.99864 2.61712 7.83013 2.45267 7.62882 2.25168C7.3998 2.02303 7.26722 1.89819 7.27464 1.91814C7.30385 1.99669 7.27916 2.08573 7.21448 2.13506C7.06564 2.24859 6.86214 2.09519 6.92908 1.91994C6.96428 1.82776 7.06987 1.77899 7.1639 1.81149C7.19302 1.82155 7.13642 1.75931 6.91323 1.53583L6.62493 1.24717L6.60555 1.27903C6.58291 1.31627 6.50082 1.35933 6.45247 1.35933C6.43394 1.35933 6.39606 1.34785 6.36827 1.33383C6.24929 1.27378 6.23192 1.11324 6.33504 1.02648L6.37248 0.994978ZM8.00605 1.64828L7.17886 0.823941L6.35166 -0.000398659L6.48771 -0.000421322L6.62376 -0.000443985L6.95168 0.327624L7.27961 0.655692L7.29392 0.613743C7.337 0.48742 7.49193 0.448338 7.59182 0.53857C7.69306 0.630026 7.6712 0.779805 7.54764 0.84138L7.49234 0.868927L7.75236 1.12805L8.0124 1.38718L8.00923 1.51773L8.00605 1.64828ZM1.21372 0.451941C1.12671 0.364927 1.14928 0.214287 1.258 0.156519C1.37842 0.0925305 1.53015 0.18129 1.53011 0.315681C1.53005 0.485686 1.33253 0.570752 1.21372 0.451941ZM5.15644 0.323556C5.15695 0.250989 5.21371 0.168927 5.28084 0.143715C5.32408 0.127465 5.40308 0.136179 5.44036 0.161301C5.50663 0.205958 5.53282 0.256179 5.52773 0.328905C5.52229 0.406695 5.48839 0.458457 5.42361 0.487885C5.36166 0.516009 5.31715 0.514808 5.25772 0.483375C5.202 0.453902 5.15604 0.38138 5.15644 0.323556ZM0.328421 1.02385C0.284546 0.933233 0.31028 0.843193 0.396875 0.784259C0.423866 0.765879 0.450801 0.758763 0.493305 0.758763C0.633849 0.758763 0.719707 0.89678 0.658189 1.02385C0.59088 1.16291 0.39573 1.16291 0.328421 1.02385ZM4.30914 0.926298C4.31511 0.864066 4.34086 0.822378 4.39687 0.784259C4.42387 0.765879 4.4508 0.758763 4.49331 0.758763C4.63385 0.758763 4.71971 0.89678 4.65819 1.02385C4.56886 1.20837 4.28953 1.13031 4.30914 0.926298ZM1.3558 1.42632C1.25584 1.34769 1.27208 1.17332 1.38451 1.11792C1.4054 1.10764 1.44466 1.0991 1.47176 1.09897C1.64056 1.09808 1.72362 1.29276 1.60503 1.41134C1.53485 1.48153 1.43371 1.4876 1.3558 1.42632ZM5.34192 1.41134C5.25802 1.32744 5.27055 1.19397 5.36858 1.12736C5.41916 1.09298 5.50021 1.08881 5.56059 1.11747C5.67454 1.17154 5.6919 1.34707 5.59115 1.42632C5.51324 1.4876 5.4121 1.48153 5.34192 1.41134ZM0.175198 1.39941C0.184852 1.34793 0.251424 1.27219 0.299175 1.25834C0.354008 1.24246 0.387277 1.24468 0.43777 1.2676C0.564093 1.32497 0.581033 1.50711 0.467832 1.59087C0.430858 1.61821 0.330155 1.62787 0.283503 1.60855C0.211583 1.57876 0.160172 1.47949 0.175198 1.39941ZM4.18107 1.37821C4.19727 1.32913 4.25405 1.27168 4.30032 1.25756C4.3423 1.24473 4.41105 1.25232 4.45394 1.2745C4.53704 1.31747 4.57176 1.45218 4.51954 1.52903C4.44133 1.64411 4.29119 1.65372 4.21113 1.54877C4.17597 1.50267 4.16345 1.4316 4.18107 1.37821ZM0.0117188 1.65962V1.52369V1.38777L0.45488 1.82964C0.730631 2.10459 0.900206 2.26574 0.903787 2.25625C0.91522 2.22586 0.97556 2.16633 1.00897 2.1525C1.05595 2.13304 1.14578 2.14358 1.18776 2.17347C1.23889 2.20987 1.27403 2.28969 1.26468 2.34816C1.25457 2.41137 1.22175 2.46145 1.17334 2.48752L1.13329 2.50909L1.46402 2.83996L1.79476 3.17084L1.81369 3.11491C1.82409 3.08416 1.84151 3.04917 1.85238 3.03715C1.90695 2.97686 2.02089 2.96144 2.08626 3.00549C2.23225 3.10387 2.19392 3.31713 2.02459 3.34854L1.98081 3.35667L2.63021 4.00615L3.27963 4.65564L3.29343 4.61548C3.33166 4.50426 3.44646 4.45799 3.55446 4.51028C3.6928 4.57724 3.68891 4.77098 3.54783 4.84128L3.49273 4.86873L4.19369 5.56963C4.57923 5.95513 4.89631 6.2682 4.89832 6.26536C4.90034 6.26251 4.90928 6.24573 4.91819 6.22808C4.92711 6.21042 4.95544 6.18366 4.98113 6.16859C5.17726 6.05365 5.36813 6.31228 5.19957 6.46456C5.17567 6.48614 5.1498 6.50381 5.14206 6.50381C5.13434 6.50381 5.27803 6.65389 5.46138 6.83732L5.79476 7.17084L5.81369 7.11491C5.84572 7.02026 5.9011 6.97973 5.99835 6.97973C6.09133 6.97973 6.17602 7.06478 6.17602 7.15816C6.17602 7.25387 6.12458 7.3206 6.03166 7.34545L5.98274 7.35854L6.30311 7.67905L6.62347 7.99956H6.48757H6.35167L3.1817 4.8296L0.0117188 1.65962ZM1.73932 2.03253C1.74859 1.97073 1.80873 1.89728 1.86291 1.88157C1.91775 1.86569 1.95102 1.86791 2.00151 1.89083C2.12559 1.94718 2.14532 2.12952 2.03607 2.21035C1.98242 2.25006 1.87788 2.25417 1.82475 2.21866C1.76678 2.17992 1.72943 2.09854 1.73932 2.03253ZM5.74438 2.00273C5.75998 1.95549 5.82074 1.89442 5.86548 1.88104C5.91711 1.8656 5.95137 1.86807 6.00151 1.89083C6.1351 1.95151 6.14456 2.14768 6.01734 2.21918C5.96662 2.24769 5.88387 2.2509 5.8361 2.2262C5.76104 2.18737 5.71803 2.08258 5.74438 2.00273ZM0.0117188 2.63425V2.49822V2.36219L2.82192 5.17236C4.36753 6.71796 5.6296 7.99956 5.6296 7.99956H5.50451H5.37692L5.17984 7.80224L4.98277 7.60493L4.942 7.63123C4.85928 7.68462 4.77608 7.67731 4.70547 7.61043C4.63825 7.54676 4.6302 7.45388 4.68491 7.37327L4.71159 7.33393L3.98654 6.61008C3.58776 6.21198 3.26712 5.89738 3.274 5.91099C3.28087 5.92461 3.28651 5.95664 3.28651 5.98217C3.28651 6.12555 3.14846 6.21462 3.0215 6.15315C2.85625 6.07315 2.89588 5.82445 3.07711 5.80403C3.10416 5.80098 3.14321 5.80434 3.1639 5.81149C3.19302 5.82155 3.13642 5.75931 2.91323 5.53583L2.62493 5.24717L2.60555 5.27904C2.58279 5.31646 2.50074 5.35933 2.45185 5.35933C2.39443 5.35933 2.32203 5.31312 2.29277 5.2578C2.24813 5.17339 2.26406 5.0862 2.33504 5.02648L2.37249 4.99496L1.67697 4.29936C1.05895 3.68128 0.979447 3.60557 0.963583 3.61993C0.95377 3.62881 0.925894 3.64437 0.901656 3.6545C0.837067 3.68149 0.769282 3.6683 0.713498 3.6179C0.639594 3.55114 0.628523 3.45635 0.68492 3.37324L0.711628 3.33389L0.361668 2.98407L0.0117188 2.63425ZM3.28874 2.70162C3.2936 2.62247 3.32193 2.57375 3.37963 2.54531C3.45539 2.50798 3.56677 2.52989 3.61539 2.5917C3.67605 2.66883 3.66722 2.77166 3.59362 2.84524C3.53559 2.90327 3.46719 2.91374 3.39147 2.87618C3.31247 2.83698 3.28344 2.78766 3.28874 2.70162ZM7.31751 2.82021C7.25299 2.7312 7.28439 2.59226 7.37963 2.54531C7.45816 2.5066 7.56962 2.53056 7.61634 2.59618C7.67573 2.67958 7.66629 2.77469 7.59158 2.84584C7.53105 2.90348 7.46617 2.91335 7.39205 2.87618C7.36269 2.86146 7.32915 2.83627 7.31751 2.82021ZM2.47733 2.71947C2.50067 2.69362 2.53389 2.67124 2.55885 2.66454C2.64213 2.64217 2.72979 2.67622 2.77131 2.74707C2.88427 2.93983 2.63853 3.12761 2.48033 2.96943C2.40885 2.89794 2.40764 2.79661 2.47733 2.71947ZM6.44748 2.75974C6.47268 2.7103 6.50286 2.68534 6.56074 2.66603C6.64802 2.63692 6.74686 2.68364 6.7835 2.77134C6.82757 2.87679 6.76826 2.99601 6.65792 3.02379C6.50397 3.06256 6.37537 2.90119 6.44748 2.75974ZM3.62645 3.43652C3.62645 3.34887 3.67953 3.27601 3.76145 3.25118C3.83078 3.23016 3.89513 3.24977 3.94764 3.30788C4.06 3.43226 3.97822 3.61429 3.81 3.61429C3.71129 3.61429 3.62645 3.53211 3.62645 3.43652ZM7.65045 3.52359C7.59139 3.41853 7.64466 3.28633 7.76006 3.25155C7.82559 3.23179 7.88492 3.24801 7.94119 3.30104C8.00631 3.3624 8.016 3.45102 7.96646 3.53224C7.89715 3.64589 7.7164 3.64094 7.65045 3.52359ZM2.52886 3.70792C2.54358 3.67825 2.57295 3.6425 2.59413 3.62846C2.64093 3.59746 2.72647 3.59424 2.78361 3.62135C2.88748 3.67065 2.91199 3.82585 2.82969 3.91312C2.75437 3.99297 2.64142 3.99169 2.5598 3.91007C2.50177 3.85204 2.4913 3.78364 2.52886 3.70792ZM6.50986 3.81361C6.50004 3.7481 6.53737 3.66607 6.59413 3.62846C6.67562 3.57447 6.80521 3.60583 6.85317 3.69115C6.91759 3.80578 6.85352 3.94413 6.72363 3.9709C6.63144 3.9899 6.5245 3.91122 6.50986 3.81361ZM0.142778 4.351C0.00929381 4.28582 0.00606436 4.09488 0.137237 4.0246C0.318472 3.92752 0.498302 4.14937 0.365917 4.30669C0.309294 4.37399 0.224387 4.39085 0.142778 4.351ZM4.04091 4.18692C4.04096 4.1156 4.06991 4.06385 4.1307 4.02638C4.16758 4.00364 4.1872 3.99924 4.23598 4.0028C4.33916 4.01031 4.40832 4.08404 4.40832 4.18652C4.40832 4.32707 4.2703 4.41293 4.14323 4.35141C4.07557 4.31866 4.04084 4.26283 4.04091 4.18692ZM1.16185 4.34902C1.14903 4.2636 1.20117 4.17364 1.28084 4.14371C1.32074 4.12872 1.39839 4.13646 1.43944 4.15953C1.50223 4.19483 1.53404 4.25822 1.52764 4.33535C1.52133 4.41157 1.49493 4.44998 1.42459 4.48524C1.34685 4.52422 1.28101 4.51262 1.21702 4.44864C1.18022 4.41183 1.16795 4.38966 1.16185 4.34902ZM5.15619 4.32132C5.15619 4.27174 5.20163 4.1904 5.24569 4.16112C5.32821 4.10629 5.4434 4.13526 5.50537 4.22646C5.54067 4.2784 5.53658 4.37336 5.49661 4.42948C5.44067 4.50804 5.32633 4.5281 5.23967 4.47455C5.19831 4.44898 5.15619 4.37168 5.15619 4.32132ZM0.328421 5.02385C0.27471 4.91291 0.336081 4.78488 0.455039 4.75973C0.604943 4.72802 0.726382 4.88371 0.659164 5.02145C0.590382 5.16239 0.396172 5.16381 0.328421 5.02385ZM4.3314 5.03256C4.2712 4.92545 4.3314 4.78489 4.44768 4.76109C4.63256 4.72323 4.75272 4.92659 4.62742 5.06528C4.54015 5.16188 4.39507 5.14585 4.3314 5.03256ZM1.28955 5.28001C1.28955 5.19008 1.34623 5.11806 1.43229 5.09862C1.61442 5.05747 1.73692 5.27945 1.60492 5.41145C1.48606 5.53031 1.28955 5.44841 1.28955 5.28001ZM5.34203 5.41145C5.238 5.30742 5.28889 5.13101 5.43229 5.09862C5.54737 5.07262 5.6574 5.16062 5.6574 5.27866C5.6574 5.44835 5.46143 5.53085 5.34203 5.41145ZM0.174835 5.46462C0.159435 5.38255 0.221056 5.28111 0.300319 5.25805C0.353928 5.24246 0.387526 5.24479 0.43777 5.2676C0.502552 5.29703 0.536455 5.34879 0.541894 5.42658C0.546982 5.49931 0.520795 5.54953 0.454529 5.59419C0.351039 5.66393 0.199016 5.59351 0.174835 5.46462ZM4.17463 5.4583C4.1624 5.36907 4.21805 5.28331 4.30536 5.25685C4.3798 5.23429 4.46639 5.2637 4.51142 5.32684C4.54838 5.37866 4.55022 5.48934 4.51493 5.53697C4.40963 5.67908 4.19819 5.6302 4.17463 5.4583ZM0.0117188 5.65957V5.52367V5.38777L0.450869 5.82681C0.692399 6.06828 0.892659 6.26585 0.895877 6.26585C0.899107 6.26585 0.910982 6.2487 0.922268 6.22774C0.953192 6.17032 1.0199 6.13743 1.09312 6.1435C1.25103 6.1566 1.32201 6.3311 1.21681 6.44754C1.19497 6.47173 1.16661 6.49483 1.15379 6.4989C1.13393 6.50521 1.17936 6.55517 1.46263 6.83857L1.79476 7.17084L1.81369 7.11491C1.8359 7.04928 1.85829 7.02189 1.90965 6.99753C2.03172 6.93959 2.17602 7.02767 2.17602 7.1601C2.17602 7.25576 2.12577 7.32028 2.03166 7.34545L1.98274 7.35854L2.30311 7.67905L2.62347 7.99956H2.48755H2.35162L1.18167 6.82956L0.0117188 5.65957ZM1.73932 6.03253C1.74859 5.97073 1.80873 5.89728 1.86291 5.88157C1.91643 5.86606 1.94432 5.8674 1.99565 5.88793C2.06321 5.91497 2.10804 5.98102 2.10804 6.05354C2.10804 6.17126 2.02367 6.25027 1.90822 6.24069C1.832 6.23438 1.79359 6.20798 1.75832 6.13764C1.73659 6.0943 1.73302 6.07455 1.73932 6.03253ZM5.73857 6.08785C5.72317 6.00578 5.7848 5.90434 5.86406 5.88128C5.91767 5.86569 5.95127 5.86802 6.00151 5.89083C6.06629 5.92026 6.1002 5.97202 6.10563 6.04981C6.11072 6.12254 6.08453 6.17276 6.01827 6.21741C5.91478 6.28716 5.76276 6.21673 5.73857 6.08785ZM0.0117188 6.63425V6.49824V6.36222L0.821917 7.17236C1.26753 7.61794 1.63212 7.98633 1.63212 7.99102C1.63212 7.99572 1.5747 7.99956 1.50451 7.99956H1.37692L1.17984 7.80224L0.982767 7.60493L0.941996 7.63123C0.859311 7.6846 0.776081 7.67731 0.705554 7.6105C0.639617 7.54807 0.631288 7.45227 0.68492 7.37324L0.711628 7.33389L0.361668 6.98407L0.0117188 6.63425ZM3.28873 6.69251C3.29457 6.62194 3.32538 6.57206 3.37963 6.54531C3.43202 6.51949 3.52149 6.52128 3.56706 6.54908C3.64236 6.59498 3.67533 6.69276 3.64287 6.77389C3.60686 6.86391 3.50839 6.91616 3.42299 6.89057C3.32654 6.86166 3.28034 6.79353 3.28873 6.69251ZM7.35013 6.85408C7.25018 6.77545 7.26642 6.60109 7.37885 6.54569C7.39973 6.5354 7.43899 6.52687 7.4661 6.52673C7.63489 6.52585 7.71795 6.72052 7.59937 6.8391C7.52918 6.90929 7.42805 6.91536 7.35013 6.85408ZM2.48509 6.70817C2.5048 6.6889 2.53638 6.66843 2.55528 6.66266C2.6372 6.63764 2.73188 6.67595 2.77419 6.75125C2.83439 6.85837 2.77419 6.99892 2.65791 7.02273C2.46912 7.06138 2.34847 6.84175 2.48509 6.70817ZM6.42835 6.86282C6.41827 6.77334 6.47335 6.68928 6.56032 6.66145C6.60166 6.64822 6.67279 6.65948 6.71578 6.68604C6.76765 6.71809 6.80362 6.79715 6.79622 6.86282C6.77176 7.07977 6.45281 7.07977 6.42835 6.86282ZM3.62978 7.44195C3.62415 7.36307 3.65737 7.30376 3.72843 7.26581C3.82119 7.21627 3.93183 7.2532 3.9783 7.3492C4.03982 7.47627 3.95396 7.61429 3.81342 7.61429C3.71088 7.61429 3.63714 7.54509 3.62978 7.44195ZM7.62885 7.42092C7.63427 7.34334 7.66796 7.29172 7.73298 7.26132C7.89227 7.18685 8.05602 7.35617 7.97563 7.51221C7.93973 7.58187 7.88822 7.61429 7.81342 7.61429C7.74487 7.61429 7.69338 7.58543 7.65121 7.52336C7.62908 7.4908 7.6252 7.47305 7.62885 7.42092ZM2.52886 7.7085C2.55903 7.64834 2.59715 7.61611 2.65334 7.60326C2.69704 7.59327 2.73231 7.59848 2.78532 7.62276C2.88893 7.67025 2.91179 7.82962 2.82712 7.91428C2.74846 7.99294 2.63759 7.99036 2.5592 7.90803C2.50157 7.8475 2.4917 7.78262 2.52886 7.7085ZM6.52886 7.7085C6.55903 7.64834 6.59715 7.61611 6.65334 7.60326C6.75589 7.57981 6.86206 7.65029 6.87555 7.75076C6.88489 7.82044 6.86971 7.87168 6.82712 7.91428C6.74955 7.99185 6.6399 7.99017 6.55992 7.9102C6.50178 7.85206 6.49123 7.78355 6.52886 7.7085Z" fill="black" style="fill:black;fill-opacity:1;"/>
<path d="M5.17886 2.82393L8.00605 5.64828L8.0124 5.38718L7.75159 5.12728L7.4908 4.86739L7.54622 4.84104C7.6326 4.79999 7.67122 4.72096 7.64868 4.63142C7.61102 4.48186 7.42671 4.43737 7.32847 4.55413C7.31162 4.57415 7.29473 4.60289 7.29094 4.61799C7.28715 4.6331 7.28076 4.64545 7.27674 4.64545C7.27273 4.64545 6.97991 4.3559 6.62606 4.002L5.98269 3.35855L6.03163 3.34546C6.12673 3.32002 6.17602 3.25583 6.17602 3.1574C6.17602 3.02829 6.02978 2.94052 5.90965 2.99753C5.85829 3.02189 5.8359 3.04928 5.81369 3.11491L5.79476 3.17084L5.46138 2.83732C5.27803 2.65389 5.13434 2.50381 5.14206 2.50381C5.17071 2.50381 5.24311 2.42498 5.25698 2.37872C5.29253 2.26002 5.20202 2.1412 5.07604 2.1412C5.01544 2.1412 4.94863 2.1788 4.92227 2.22774C4.91098 2.2487 4.89907 2.26585 4.8958 2.26585C4.89251 2.26585 4.57428 1.95025 4.1886 1.56454C3.4886 0.864474 3.48742 0.863216 3.52358 0.855273C3.60485 0.837426 3.6703 0.727465 3.65362 0.63678C3.6431 0.579567 3.56688 0.502876 3.50994 0.492191C3.41584 0.474536 3.32372 0.526378 3.29392 0.613743L3.27961 0.655692L2.95168 0.327624L2.62376 -0.000443985L2.48771 -0.000432653H2.35166L5.17886 2.82393Z" fill="black" style="fill:black;fill-opacity:1;"/>
</g>
<defs>
<clipPath id="clip0_2139_1767">
<rect width="8" height="8" fill="white" style="fill:white;fill-opacity:1;"/>
</clipPath>
</defs>
</svg>
